%TF.GenerationSoftware,KiCad,Pcbnew,8.0.6*%
%TF.CreationDate,2025-01-23T19:41:03-07:00*%
%TF.ProjectId,UAM,55414d2e-6b69-4636-9164-5f7063625858,rev?*%
%TF.SameCoordinates,Original*%
%TF.FileFunction,Soldermask,Bot*%
%TF.FilePolarity,Negative*%
%FSLAX46Y46*%
G04 Gerber Fmt 4.6, Leading zero omitted, Abs format (unit mm)*
G04 Created by KiCad (PCBNEW 8.0.6) date 2025-01-23 19:41:03*
%MOMM*%
%LPD*%
G01*
G04 APERTURE LIST*
G04 Aperture macros list*
%AMHorizOval*
0 Thick line with rounded ends*
0 $1 width*
0 $2 $3 position (X,Y) of the first rounded end (center of the circle)*
0 $4 $5 position (X,Y) of the second rounded end (center of the circle)*
0 Add line between two ends*
20,1,$1,$2,$3,$4,$5,0*
0 Add two circle primitives to create the rounded ends*
1,1,$1,$2,$3*
1,1,$1,$4,$5*%
%AMFreePoly0*
4,1,19,0.000000,0.744911,0.071157,0.744911,0.207708,0.704816,0.327430,0.627875,0.420627,0.520320,0.479746,0.390866,0.500000,0.250000,0.500000,-0.250000,0.479746,-0.390866,0.420627,-0.520320,0.327430,-0.627875,0.207708,-0.704816,0.071157,-0.744911,0.000000,-0.744911,0.000000,-0.750000,-0.500000,-0.750000,-0.500000,0.750000,0.000000,0.750000,0.000000,0.744911,0.000000,0.744911,
$1*%
%AMFreePoly1*
4,1,19,0.500000,-0.750000,0.000000,-0.750000,0.000000,-0.744911,-0.071157,-0.744911,-0.207708,-0.704816,-0.327430,-0.627875,-0.420627,-0.520320,-0.479746,-0.390866,-0.500000,-0.250000,-0.500000,0.250000,-0.479746,0.390866,-0.420627,0.520320,-0.327430,0.627875,-0.207708,0.704816,-0.071157,0.744911,0.000000,0.744911,0.000000,0.750000,0.500000,0.750000,0.500000,-0.750000,0.500000,-0.750000,
$1*%
G04 Aperture macros list end*
%ADD10C,2.700000*%
%ADD11O,1.000000X1.000000*%
%ADD12R,1.000000X1.000000*%
%ADD13C,1.600000*%
%ADD14R,1.600000X1.600000*%
%ADD15C,2.000000*%
%ADD16R,2.000000X2.000000*%
%ADD17HorizOval,0.900000X-0.175000X-0.303109X0.175000X0.303109X0*%
%ADD18C,1.905000*%
%ADD19C,1.000000*%
%ADD20FreePoly0,180.000000*%
%ADD21FreePoly1,180.000000*%
%ADD22FreePoly0,0.000000*%
%ADD23FreePoly1,0.000000*%
G04 APERTURE END LIST*
D10*
%TO.C,H3*%
X98624136Y-31394136D03*
%TD*%
D11*
%TO.C,J2*%
X71321636Y-18564136D03*
X71321636Y-17294136D03*
X72591636Y-18564136D03*
X72591636Y-17294136D03*
X73861636Y-18564136D03*
X73861636Y-17294136D03*
X75131636Y-18564136D03*
X75131636Y-17294136D03*
X76401636Y-18564136D03*
D12*
X76401636Y-17294136D03*
%TD*%
D13*
%TO.C,C57*%
X42724136Y-68511757D03*
D14*
X42724136Y-66011757D03*
%TD*%
D10*
%TO.C,H1*%
X59624136Y-55994136D03*
%TD*%
D15*
%TO.C,C86*%
X33924136Y-79194136D03*
D16*
X33924136Y-84194136D03*
%TD*%
D15*
%TO.C,J3*%
X30411636Y-47929136D03*
D16*
X30411636Y-50469136D03*
%TD*%
D15*
%TO.C,C78*%
X60156459Y-89894136D03*
D16*
X55156459Y-89894136D03*
%TD*%
D17*
%TO.C,J1*%
X90027022Y-19644136D03*
X95742790Y-22944136D03*
%TD*%
D15*
%TO.C,J4*%
X71764136Y-104294136D03*
X69224136Y-104294136D03*
D16*
X66684136Y-104294136D03*
%TD*%
D10*
%TO.C,H2*%
X85524136Y-87894136D03*
%TD*%
D18*
%TO.C,J5*%
X86384136Y-50454136D03*
X86384136Y-52994136D03*
X86384136Y-55534136D03*
X78764136Y-60614136D03*
X76224136Y-60614136D03*
X73684136Y-60614136D03*
X66064136Y-55534136D03*
X66064136Y-52994136D03*
X66064136Y-50454136D03*
%TD*%
D19*
%TO.C,TP8*%
X89324136Y-39894136D03*
%TD*%
%TO.C,TP14*%
X103224136Y-59294136D03*
%TD*%
%TO.C,TP28*%
X56614136Y-40674136D03*
%TD*%
D20*
%TO.C,JP3*%
X56924136Y-94094136D03*
D21*
X58224136Y-94094136D03*
%TD*%
D20*
%TO.C,JP4*%
X56924136Y-96594136D03*
D21*
X58224136Y-96594136D03*
%TD*%
D20*
%TO.C,JP5*%
X56924136Y-99094136D03*
D21*
X58224136Y-99094136D03*
%TD*%
D19*
%TO.C,TP27*%
X53824136Y-42294136D03*
%TD*%
D22*
%TO.C,JP6*%
X106274136Y-79094136D03*
D23*
X104974136Y-79094136D03*
%TD*%
D19*
%TO.C,TP9*%
X89324136Y-42994136D03*
%TD*%
%TO.C,TP26*%
X54824136Y-45494136D03*
%TD*%
%TO.C,TP25*%
X57724136Y-44794136D03*
%TD*%
M02*
