M48
; DRILL file {KiCad 8.0.6} date 2025-01-23T19:41:08-0700
; FORMAT={-:-/ absolute / metric / decimal}
; #@! TF.CreationDate,2025-01-23T19:41:08-07:00
; #@! TF.GenerationSoftware,Kicad,Pcbnew,8.0.6
; #@! TF.FileFunction,Plated,1,4,PTH
FMAT,2
METRIC
; #@! TA.AperFunction,Plated,PTH,ViaDrill
T1C0.300
; #@! TA.AperFunction,Plated,PTH,ComponentDrill
T2C0.500
; #@! TA.AperFunction,Plated,PTH,ComponentDrill
T3C0.650
; #@! TA.AperFunction,Plated,PTH,ComponentDrill
T4C0.800
; #@! TA.AperFunction,Plated,PTH,ComponentDrill
T5C1.000
; #@! TA.AperFunction,Plated,PTH,ComponentDrill
T6C1.143
; #@! TA.AperFunction,Plated,PTH,ComponentDrill
T7C1.200
%
G90
G05
T1
X25.024Y-49.694
X25.024Y-52.194
X25.262Y-55.294
X25.262Y-55.994
X25.262Y-56.694
X25.262Y-57.394
X25.424Y-71.394
X25.962Y-55.294
X25.962Y-55.994
X25.962Y-56.694
X25.962Y-57.394
X26.662Y-55.294
X26.662Y-55.994
X26.662Y-56.694
X26.662Y-57.394
X27.424Y-64.794
X27.524Y-42.194
X27.524Y-44.694
X27.524Y-47.194
X27.524Y-49.694
X27.524Y-52.194
X30.024Y-37.194
X30.024Y-39.694
X30.024Y-42.194
X31.424Y-52.794
X31.424Y-53.494
X32.124Y-46.494
X32.124Y-52.794
X32.124Y-53.494
X32.524Y-47.194
X32.524Y-74.694
X32.524Y-77.194
X32.624Y-32.694
X32.624Y-33.394
X32.624Y-34.094
X32.624Y-34.794
X32.624Y-61.294
X32.824Y-52.794
X32.824Y-53.494
X32.924Y-87.794
X32.924Y-88.494
X32.924Y-89.194
X33.124Y-47.794
X33.224Y-60.694
X33.224Y-61.294
X33.244Y-59.894
X33.324Y-32.694
X33.324Y-33.394
X33.324Y-34.094
X33.324Y-34.794
X33.524Y-52.794
X33.524Y-53.494
X33.624Y-87.794
X33.624Y-88.494
X33.624Y-89.194
X33.824Y-60.694
X33.824Y-61.294
X34.024Y-32.694
X34.024Y-33.394
X34.024Y-34.094
X34.024Y-34.794
X34.124Y-58.494
X34.244Y-59.994
X34.324Y-87.794
X34.324Y-88.494
X34.324Y-89.194
X34.424Y-61.294
X34.724Y-32.694
X34.724Y-33.394
X34.724Y-34.094
X34.724Y-34.794
X35.024Y-29.694
X35.024Y-60.694
X35.024Y-61.294
X35.024Y-74.694
X35.024Y-77.194
X35.424Y-88.794
X35.434Y-89.684
X35.624Y-60.694
X35.624Y-61.294
X36.224Y-60.694
X36.224Y-61.294
X36.724Y-73.894
X36.724Y-74.594
X36.724Y-75.294
X36.724Y-75.994
X36.724Y-76.694
X36.824Y-60.694
X36.824Y-61.294
X37.424Y-61.294
X37.424Y-75.294
X37.424Y-75.994
X37.424Y-76.694
X37.524Y-27.194
X37.524Y-79.694
X37.524Y-82.194
X37.774Y-89.594
X37.804Y-88.854
X38.124Y-67.394
X38.124Y-75.294
X38.124Y-75.994
X38.124Y-76.694
X38.224Y-56.894
X38.824Y-75.294
X38.824Y-75.994
X38.824Y-76.694
X39.024Y-95.994
X39.524Y-64.394
X39.524Y-65.094
X39.524Y-65.794
X40.024Y-24.694
X40.124Y-90.094
X40.224Y-64.394
X40.224Y-65.094
X40.224Y-65.794
X40.754Y-52.574
X40.774Y-48.544
X40.924Y-64.394
X40.924Y-65.094
X40.924Y-65.794
X42.144Y-92.064
X42.524Y-52.194
X42.824Y-28.594
X42.824Y-30.194
X43.224Y-57.794
X43.224Y-58.894
X43.262Y-44.394
X43.374Y-55.504
X43.962Y-44.394
X44.024Y-29.544
X44.524Y-95.494
X44.662Y-44.394
X44.724Y-92.394
X44.724Y-93.094
X44.724Y-93.794
X45.024Y-22.194
X45.024Y-27.594
X45.024Y-59.694
X45.424Y-93.794
X45.424Y-94.494
X45.824Y-54.594
X45.824Y-57.694
X45.974Y-92.544
X46.024Y-99.694
X46.124Y-94.494
X46.162Y-37.594
X46.162Y-38.194
X46.324Y-24.894
X46.824Y-94.494
X46.824Y-95.194
X46.862Y-37.594
X46.862Y-38.194
X47.124Y-63.694
X47.424Y-48.994
X47.424Y-50.894
X47.524Y-24.694
X47.524Y-52.194
X47.524Y-54.694
X47.524Y-92.094
X47.524Y-94.494
X47.524Y-95.194
X47.562Y-37.594
X47.562Y-38.194
X47.574Y-35.294
X47.974Y-59.209
X48.224Y-94.494
X48.224Y-95.194
X48.262Y-37.594
X48.262Y-38.194
X48.687Y-103.357
X49.324Y-28.694
X49.324Y-32.194
X49.324Y-46.794
X49.664Y-33.654
X49.834Y-103.204
X49.924Y-96.834
X50.019Y-93.789
X50.024Y-19.694
X50.024Y-54.694
X50.424Y-74.194
X50.424Y-74.794
X50.524Y-85.444
X51.024Y-68.194
X51.124Y-74.194
X51.124Y-74.794
X51.124Y-90.674
X51.374Y-85.444
X51.724Y-68.194
X51.824Y-74.194
X51.824Y-74.794
X51.924Y-89.494
X51.924Y-90.194
X51.924Y-90.894
X51.954Y-56.544
X52.024Y-42.994
X52.024Y-44.394
X52.024Y-45.294
X52.024Y-54.294
X52.174Y-85.444
X52.324Y-22.194
X52.324Y-23.994
X52.404Y-68.194
X52.424Y-105.294
X52.524Y-62.194
X52.524Y-64.694
X52.524Y-74.194
X52.524Y-84.694
X52.624Y-89.494
X52.624Y-90.194
X52.624Y-90.894
X53.024Y-54.094
X53.219Y-96.989
X53.324Y-89.494
X53.324Y-90.194
X53.324Y-90.894
X53.524Y-33.194
X53.824Y-54.094
X53.924Y-96.594
X54.524Y-102.694
X54.624Y-46.394
X54.724Y-94.084
X54.824Y-48.294
X54.824Y-48.994
X54.824Y-49.694
X54.894Y-101.164
X55.024Y-36.494
X55.024Y-62.194
X55.024Y-84.694
X55.084Y-37.444
X55.134Y-38.314
X55.424Y-39.494
X55.424Y-66.244
X55.524Y-48.294
X55.524Y-48.994
X55.524Y-49.694
X55.624Y-42.994
X55.662Y-35.494
X55.824Y-57.894
X56.324Y-18.494
X56.424Y-39.444
X57.124Y-35.694
X57.524Y-17.194
X57.524Y-62.194
X57.524Y-64.694
X57.524Y-84.694
X57.524Y-102.194
X57.524Y-104.694
X58.124Y-41.494
X58.124Y-42.194
X58.224Y-40.594
X58.424Y-49.294
X58.424Y-49.994
X58.524Y-37.194
X58.524Y-43.294
X58.704Y-68.194
X58.724Y-35.494
X58.824Y-41.494
X58.824Y-42.194
X58.862Y-30.232
X59.124Y-49.294
X59.124Y-49.994
X59.324Y-37.194
X59.374Y-68.194
X59.524Y-42.194
X59.524Y-43.294
X59.792Y-68.642
X59.924Y-28.794
X59.934Y-23.054
X60.024Y-48.694
X60.024Y-87.194
X60.854Y-17.794
X61.022Y-61.082
X61.862Y-28.657
X62.124Y-24.894
X62.124Y-57.494
X62.324Y-80.794
X62.424Y-45.394
X62.424Y-46.094
X62.524Y-17.194
X62.524Y-52.194
X62.524Y-54.694
X62.524Y-87.194
X62.524Y-89.694
X62.524Y-92.194
X62.524Y-94.694
X62.524Y-104.694
X62.604Y-48.414
X62.824Y-24.394
X62.864Y-40.604
X63.124Y-45.394
X63.124Y-46.094
X63.399Y-42.344
X63.799Y-62.144
X64.024Y-24.694
X65.324Y-38.094
X65.324Y-39.394
X65.424Y-30.269
X65.424Y-32.769
X65.424Y-34.269
X65.637Y-27.494
X65.862Y-66.744
X65.994Y-44.344
X66.224Y-38.994
X66.712Y-61.144
X66.724Y-57.794
X67.354Y-46.794
X67.424Y-36.894
X67.524Y-17.194
X67.524Y-22.994
X67.524Y-23.794
X67.524Y-29.694
X67.524Y-32.194
X67.524Y-34.694
X67.662Y-60.994
X68.682Y-45.257
X68.724Y-44.394
X68.762Y-60.894
X69.224Y-24.494
X69.764Y-55.294
X69.994Y-23.864
X70.004Y-45.104
X70.024Y-17.194
X70.024Y-19.694
X70.024Y-29.694
X70.024Y-32.194
X70.024Y-34.694
X70.024Y-43.294
X70.434Y-21.484
X72.324Y-43.346
X72.324Y-44.994
X72.524Y-29.694
X72.524Y-32.194
X72.524Y-34.694
X72.824Y-46.294
X73.724Y-55.794
X74.224Y-71.894
X74.224Y-72.594
X74.224Y-73.294
X74.224Y-73.994
X74.524Y-39.694
X74.754Y-57.794
X74.924Y-71.894
X74.924Y-72.594
X74.924Y-73.294
X74.924Y-73.994
X75.024Y-29.694
X75.024Y-32.194
X75.024Y-34.694
X75.024Y-67.194
X75.024Y-69.694
X75.024Y-102.194
X75.024Y-104.694
X75.164Y-47.704
X75.164Y-54.354
X75.324Y-63.594
X75.624Y-71.894
X75.624Y-72.594
X75.624Y-73.294
X75.624Y-73.994
X75.724Y-39.694
X76.324Y-71.894
X76.324Y-72.594
X76.324Y-73.294
X76.324Y-73.994
X77.334Y-51.094
X77.424Y-24.784
X77.524Y-52.194
X77.524Y-62.194
X77.524Y-64.694
X77.524Y-67.194
X77.524Y-69.694
X77.524Y-104.694
X77.587Y-21.394
X77.824Y-37.994
X77.974Y-48.494
X78.024Y-65.794
X78.224Y-42.694
X78.294Y-46.334
X79.324Y-26.894
X79.424Y-46.494
X79.424Y-48.894
X79.424Y-88.494
X79.424Y-89.194
X79.424Y-89.894
X79.424Y-90.594
X79.424Y-91.294
X79.424Y-91.994
X79.424Y-92.694
X79.424Y-93.394
X79.844Y-78.694
X79.924Y-72.694
X80.024Y-52.194
X80.024Y-54.694
X80.024Y-69.694
X80.124Y-88.494
X80.124Y-89.194
X80.124Y-89.894
X80.124Y-90.594
X80.124Y-91.294
X80.124Y-91.994
X80.124Y-92.694
X80.124Y-93.394
X80.724Y-37.494
X80.724Y-47.994
X80.774Y-44.144
X80.824Y-32.764
X80.824Y-88.494
X80.824Y-89.194
X80.824Y-89.894
X80.824Y-90.594
X80.824Y-91.294
X80.824Y-91.994
X80.824Y-92.694
X80.824Y-93.394
X80.844Y-24.784
X80.924Y-42.594
X81.114Y-50.964
X81.144Y-74.457
X81.414Y-56.464
X81.524Y-88.494
X81.524Y-89.194
X81.524Y-89.894
X81.524Y-90.594
X81.524Y-91.294
X81.524Y-91.994
X81.524Y-92.694
X81.524Y-93.394
X81.624Y-39.694
X82.424Y-35.794
X82.424Y-39.794
X82.524Y-17.194
X82.524Y-84.694
X82.684Y-38.734
X82.924Y-65.794
X83.154Y-27.524
X83.162Y-81.357
X83.524Y-46.684
X83.524Y-98.194
X83.524Y-99.194
X83.524Y-100.194
X83.699Y-60.969
X84.124Y-63.494
X84.124Y-64.194
X84.124Y-64.894
X84.324Y-57.494
X84.324Y-59.694
X84.524Y-98.194
X84.524Y-99.194
X84.524Y-100.194
X84.624Y-46.894
X84.724Y-67.794
X84.724Y-68.494
X84.724Y-69.194
X84.724Y-69.894
X84.724Y-70.594
X84.724Y-71.294
X84.824Y-63.494
X84.824Y-64.194
X84.824Y-64.894
X85.024Y-17.194
X85.024Y-19.694
X85.024Y-94.694
X85.024Y-97.194
X85.224Y-60.094
X85.284Y-33.644
X85.424Y-58.694
X85.524Y-46.894
X85.524Y-98.194
X85.524Y-99.194
X85.524Y-100.194
X85.524Y-101.194
X85.584Y-75.744
X85.624Y-40.684
X85.924Y-60.094
X86.034Y-41.394
X86.124Y-39.594
X86.224Y-26.694
X86.524Y-98.194
X86.524Y-99.194
X86.524Y-100.194
X86.524Y-101.194
X86.624Y-60.094
X87.409Y-35.509
X87.424Y-33.394
X87.524Y-19.694
X87.524Y-84.694
X87.524Y-92.194
X87.524Y-94.694
X87.524Y-97.194
X87.524Y-98.194
X87.524Y-99.194
X87.524Y-100.194
X87.524Y-101.194
X87.954Y-29.984
X88.104Y-40.684
X88.124Y-32.994
X88.124Y-36.094
X88.324Y-89.894
X88.524Y-98.194
X88.524Y-99.194
X88.524Y-100.194
X88.524Y-101.194
X88.844Y-78.944
X89.324Y-41.494
X89.684Y-66.944
X89.814Y-76.754
X89.924Y-33.594
X89.94Y-27.194
X89.94Y-27.894
X89.94Y-28.594
X90.024Y-32.194
X90.024Y-37.194
X90.024Y-49.694
X90.024Y-52.194
X90.024Y-54.694
X90.024Y-82.194
X90.024Y-84.694
X90.024Y-89.694
X90.024Y-92.194
X90.024Y-94.694
X90.024Y-97.194
X90.024Y-99.694
X90.624Y-26.094
X91.124Y-27.894
X91.424Y-41.094
X92.324Y-48.594
X92.524Y-29.694
X92.524Y-49.694
X92.524Y-52.194
X92.524Y-54.694
X92.524Y-67.194
X92.524Y-84.694
X92.524Y-89.694
X92.524Y-92.194
X92.524Y-94.694
X92.524Y-97.194
X92.524Y-99.694
X93.024Y-64.394
X93.124Y-46.894
X93.824Y-57.894
X94.134Y-80.404
X94.324Y-48.894
X95.024Y-27.194
X95.024Y-29.694
X95.024Y-32.194
X95.024Y-37.194
X95.024Y-64.694
X95.024Y-69.694
X95.024Y-74.994
X95.024Y-97.194
X95.124Y-44.194
X95.224Y-86.194
X95.624Y-42.894
X95.704Y-96.344
X96.024Y-77.044
X96.284Y-45.204
X96.324Y-61.294
X96.324Y-62.094
X96.324Y-62.894
X97.114Y-37.194
X97.124Y-33.894
X97.174Y-93.744
X97.524Y-24.694
X97.524Y-27.194
X97.524Y-51.294
X97.524Y-51.994
X97.524Y-81.594
X97.524Y-84.694
X97.524Y-89.694
X98.054Y-76.319
X98.224Y-51.294
X98.224Y-51.994
X98.684Y-57.194
X98.874Y-79.994
X99.024Y-94.094
X99.564Y-65.544
X99.624Y-77.114
X99.899Y-45.129
X99.934Y-73.854
X100.024Y-27.194
X100.024Y-37.194
X100.024Y-69.694
X100.024Y-79.694
X100.024Y-84.694
X100.524Y-63.694
X100.924Y-57.194
X101.184Y-51.394
X101.971Y-47.141
X102.024Y-48.706
X102.524Y-29.694
X102.524Y-32.194
X102.524Y-37.194
X102.524Y-39.694
X102.524Y-84.694
X102.524Y-87.194
X102.524Y-89.694
X102.724Y-57.494
X102.924Y-64.194
X103.494Y-82.694
X103.824Y-79.194
X103.894Y-62.244
X103.924Y-44.994
X104.912Y-85.482
X105.024Y-32.194
X105.024Y-39.694
X105.024Y-87.194
X105.762Y-58.332
X105.794Y-72.044
X105.874Y-50.344
X106.247Y-77.467
X106.524Y-67.694
X106.724Y-38.694
X107.244Y-74.454
X107.324Y-79.034
X107.524Y-34.694
X107.524Y-39.694
X107.524Y-42.194
X107.524Y-87.194
X107.624Y-59.194
X107.924Y-44.094
X108.124Y-64.394
X108.924Y-72.594
X109.814Y-80.324
X110.024Y-42.194
X110.024Y-44.694
X110.024Y-47.194
X110.024Y-69.694
X110.024Y-72.194
X111.874Y-49.544
X111.924Y-74.994
X112.524Y-69.694
X113.124Y-67.732
X113.264Y-61.954
X114.224Y-61.194
X114.687Y-54.232
X115.024Y-62.194
X115.024Y-64.694
X115.024Y-67.194
X115.054Y-51.444
T3
X71.322Y-17.294
X71.322Y-18.564
X72.592Y-17.294
X72.592Y-18.564
X73.862Y-17.294
X73.862Y-18.564
X75.132Y-17.294
X75.132Y-18.564
X76.402Y-17.294
X76.402Y-18.564
T4
X42.724Y-66.012
X42.724Y-68.512
T5
X33.924Y-79.194
X33.924Y-84.194
X55.156Y-89.894
X60.156Y-89.894
T6
X66.064Y-50.454
X66.064Y-52.994
X66.064Y-55.534
X73.684Y-60.614
X76.224Y-60.614
X78.764Y-60.614
X86.384Y-50.454
X86.384Y-52.994
X86.384Y-55.534
T7
X30.412Y-47.929
X30.412Y-50.469
X66.684Y-104.294
X69.224Y-104.294
X71.764Y-104.294
T2
G00X90.202Y-19.341
M15
G01X89.852Y-19.947
M16
G05
G00X95.918Y-22.641
M15
G01X95.568Y-23.247
M16
G05
M30
