%TF.GenerationSoftware,KiCad,Pcbnew,9.0.5*%
%TF.CreationDate,2025-11-04T12:08:14-07:00*%
%TF.ProjectId,OpenAquatix-Hardware,4f70656e-4171-4756-9174-69782d486172,rev?*%
%TF.SameCoordinates,Original*%
%TF.FileFunction,Copper,L3,Inr*%
%TF.FilePolarity,Positive*%
%FSLAX46Y46*%
G04 Gerber Fmt 4.6, Leading zero omitted, Abs format (unit mm)*
G04 Created by KiCad (PCBNEW 9.0.5) date 2025-11-04 12:08:14*
%MOMM*%
%LPD*%
G01*
G04 APERTURE LIST*
G04 Aperture macros list*
%AMRoundRect*
0 Rectangle with rounded corners*
0 $1 Rounding radius*
0 $2 $3 $4 $5 $6 $7 $8 $9 X,Y pos of 4 corners*
0 Add a 4 corners polygon primitive as box body*
4,1,4,$2,$3,$4,$5,$6,$7,$8,$9,$2,$3,0*
0 Add four circle primitives for the rounded corners*
1,1,$1+$1,$2,$3*
1,1,$1+$1,$4,$5*
1,1,$1+$1,$6,$7*
1,1,$1+$1,$8,$9*
0 Add four rect primitives between the rounded corners*
20,1,$1+$1,$2,$3,$4,$5,0*
20,1,$1+$1,$4,$5,$6,$7,0*
20,1,$1+$1,$6,$7,$8,$9,0*
20,1,$1+$1,$8,$9,$2,$3,0*%
%AMHorizOval*
0 Thick line with rounded ends*
0 $1 width*
0 $2 $3 position (X,Y) of the first rounded end (center of the circle)*
0 $4 $5 position (X,Y) of the second rounded end (center of the circle)*
0 Add line between two ends*
20,1,$1,$2,$3,$4,$5,0*
0 Add two circle primitives to create the rounded ends*
1,1,$1,$2,$3*
1,1,$1,$4,$5*%
G04 Aperture macros list end*
%TA.AperFunction,ComponentPad*%
%ADD10C,1.900000*%
%TD*%
%TA.AperFunction,ComponentPad*%
%ADD11C,1.000000*%
%TD*%
%TA.AperFunction,ComponentPad*%
%ADD12R,1.000000X1.000000*%
%TD*%
%TA.AperFunction,HeatsinkPad*%
%ADD13HorizOval,0.900000X0.119707X-0.328892X-0.119707X0.328892X0*%
%TD*%
%TA.AperFunction,HeatsinkPad*%
%ADD14HorizOval,0.900000X-0.119707X-0.328892X0.119707X0.328892X0*%
%TD*%
%TA.AperFunction,ComponentPad*%
%ADD15RoundRect,0.250000X-0.750000X0.750000X-0.750000X-0.750000X0.750000X-0.750000X0.750000X0.750000X0*%
%TD*%
%TA.AperFunction,ComponentPad*%
%ADD16C,2.000000*%
%TD*%
%TA.AperFunction,ComponentPad*%
%ADD17C,1.500000*%
%TD*%
%TA.AperFunction,ComponentPad*%
%ADD18C,1.905000*%
%TD*%
%TA.AperFunction,ComponentPad*%
%ADD19RoundRect,0.250000X0.750000X-0.750000X0.750000X0.750000X-0.750000X0.750000X-0.750000X-0.750000X0*%
%TD*%
%TA.AperFunction,ComponentPad*%
%ADD20R,2.108200X2.108200*%
%TD*%
%TA.AperFunction,ComponentPad*%
%ADD21C,2.108200*%
%TD*%
%TA.AperFunction,ViaPad*%
%ADD22C,0.500000*%
%TD*%
%TA.AperFunction,Conductor*%
%ADD23C,0.300000*%
%TD*%
%TA.AperFunction,Conductor*%
%ADD24C,0.250000*%
%TD*%
%TA.AperFunction,Conductor*%
%ADD25C,0.600000*%
%TD*%
%TA.AperFunction,Conductor*%
%ADD26C,0.200000*%
%TD*%
%TA.AperFunction,Conductor*%
%ADD27C,0.500000*%
%TD*%
%TA.AperFunction,Conductor*%
%ADD28C,0.400000*%
%TD*%
G04 APERTURE END LIST*
D10*
%TO.N,/Connections/PWR_IN1*%
%TO.C,J5*%
X63437500Y-94804900D03*
X58437500Y-94804900D03*
%TO.N,GND*%
X63437500Y-98304900D03*
X58437500Y-98304900D03*
%TD*%
%TO.N,GND*%
%TO.C,J6*%
X135554900Y-114062500D03*
X135554900Y-119062500D03*
%TO.N,TRANSDUCER*%
X139054900Y-114062500D03*
X139054900Y-119062500D03*
%TO.N,GND*%
X142554901Y-114062500D03*
X142554901Y-119062500D03*
%TD*%
D11*
%TO.N,/STM32/RESET#*%
%TO.C,J1*%
X95710000Y-52520000D03*
%TO.N,GND*%
X95710000Y-51250000D03*
%TO.N,unconnected-(J1-NC{slash}TDI-Pad8)*%
X96980000Y-52520000D03*
%TO.N,unconnected-(J1-KEY-Pad7)*%
X96980000Y-51250000D03*
%TO.N,/STM32/SWO*%
X98250000Y-52520000D03*
%TO.N,GND*%
X98250000Y-51250000D03*
%TO.N,/STM32/SWCLKa*%
X99520000Y-52520000D03*
%TO.N,GND*%
X99520000Y-51250000D03*
%TO.N,/STM32/SWDIOa*%
X100790000Y-52520000D03*
D12*
%TO.N,+3V3*%
X100790000Y-51250000D03*
%TD*%
D13*
%TO.N,GND*%
%TO.C,J3*%
X86728618Y-53060909D03*
X80526644Y-55318243D03*
%TD*%
D14*
%TO.N,GND*%
%TO.C,J2*%
X118973354Y-55418240D03*
X112771384Y-53160910D03*
%TD*%
D15*
%TO.N,+30V*%
%TO.C,C88*%
X76250000Y-135382323D03*
D16*
%TO.N,GND*%
X76250000Y-140382323D03*
%TD*%
D17*
%TO.N,+5V*%
%TO.C,K1*%
X127653962Y-137347038D03*
%TD*%
D18*
%TO.N,/Connections/DAU_TO_MAINa*%
%TO.C,J4*%
X89840000Y-82460000D03*
%TO.N,GND*%
X89840000Y-85000000D03*
%TO.N,/Connections/MAIN_TO_DAUa*%
X89840000Y-87540000D03*
%TO.N,+3V3*%
X97460000Y-92620000D03*
%TO.N,GND*%
X100000000Y-92620000D03*
%TO.N,+5V*%
X102540000Y-92620000D03*
%TO.N,/Connections/M-RX*%
X110160000Y-87540000D03*
%TO.N,GND*%
X110160000Y-85000000D03*
%TO.N,/Connections/M-TX*%
X110160000Y-82460000D03*
%TD*%
D19*
%TO.N,+30V*%
%TO.C,C78*%
X75750000Y-114867677D03*
D16*
%TO.N,GND*%
X75750000Y-109867677D03*
%TD*%
D20*
%TO.N,/DC-DC/5V_SW*%
%TO.C,SW3*%
X82352000Y-94500000D03*
D21*
%TO.N,+5V*%
X87051000Y-94500000D03*
%TO.N,VBUS*%
X91750000Y-94500000D03*
%TD*%
D22*
%TO.N,GND*%
X75275000Y-98250000D03*
X110740000Y-60630000D03*
%TO.N,+3V3*%
X108220000Y-59220000D03*
%TO.N,/STM32/SWO*%
X108390000Y-55370000D03*
%TO.N,GND*%
X108750000Y-56170000D03*
%TO.N,/STM32/SWDIO*%
X110880000Y-57700000D03*
%TO.N,VBUS*%
X94900000Y-97250000D03*
X114750000Y-92250000D03*
X125300000Y-59200000D03*
X125950000Y-59200000D03*
%TO.N,+3V3*%
X145300000Y-89675000D03*
X139450000Y-89250000D03*
X133200000Y-74200000D03*
X125400000Y-73700000D03*
X114000000Y-68250000D03*
X112800000Y-59500000D03*
X122250000Y-61250000D03*
%TO.N,+5V*%
X126300000Y-65400000D03*
%TO.N,GND*%
X94600000Y-111550000D03*
%TO.N,+3.3VA*%
X140250000Y-82750000D03*
%TO.N,Net-(D8-A)*%
X68500000Y-61700000D03*
X87850000Y-97450000D03*
X87100000Y-109850000D03*
%TO.N,+3.3VA*%
X63500000Y-123575000D03*
X56900000Y-120200000D03*
%TO.N,+5V*%
X118050000Y-86950000D03*
X107550000Y-85300000D03*
X107350000Y-92620000D03*
X110200000Y-91450000D03*
%TO.N,Net-(D11-A)*%
X137500000Y-81250000D03*
%TO.N,/TR Switch/RX_CTRL*%
X147650000Y-108100000D03*
X146300000Y-86350000D03*
%TO.N,3V3A_EN*%
X128700000Y-86800000D03*
%TO.N,GND*%
X146050000Y-95000000D03*
%TO.N,TR_SEL*%
X144950000Y-86650000D03*
X141100000Y-86750000D03*
X133850000Y-72200000D03*
%TO.N,GND*%
X139250000Y-90300000D03*
X140100000Y-88175000D03*
X141700000Y-86100000D03*
X147500000Y-88800000D03*
X143537500Y-90312500D03*
X145050000Y-105450000D03*
X99450000Y-83800000D03*
%TO.N,+3V3*%
X104500000Y-90000000D03*
%TO.N,GND*%
X98475000Y-89250000D03*
X100450000Y-90075000D03*
%TO.N,5V_PGOOD*%
X83900000Y-82650000D03*
%TO.N,30V_PGOOD*%
X78550000Y-86850000D03*
X100050000Y-87600000D03*
X101300000Y-72600000D03*
%TO.N,GND*%
X108150000Y-78600000D03*
X116500000Y-78500000D03*
X95800000Y-78275000D03*
%TO.N,PWR_AMP_V_FB*%
X98250000Y-78400000D03*
X114850000Y-77100000D03*
%TO.N,30V_PGOOD*%
X94190000Y-71310000D03*
%TO.N,GND*%
X121090000Y-55910000D03*
X91610000Y-76720000D03*
X93790000Y-73250000D03*
X88725000Y-71470000D03*
X89550000Y-69770000D03*
X85980000Y-71070000D03*
X81950000Y-71000000D03*
%TO.N,5V_PGOOD*%
X71750000Y-79250000D03*
X79000000Y-79000000D03*
X78500000Y-67000000D03*
%TO.N,PGA_CS#*%
X127250000Y-70250000D03*
X105750000Y-66750000D03*
X97750000Y-66500000D03*
%TO.N,FBK_ATTENUATION*%
X136800000Y-73500000D03*
%TO.N,TR_EN*%
X137400000Y-71300000D03*
%TO.N,TR_SEL*%
X140100000Y-72300000D03*
%TO.N,INPUT_FB_EN*%
X135800000Y-79000000D03*
X109700000Y-78500000D03*
%TO.N,DAC_TO_PAMP*%
X84500000Y-96800000D03*
X71600000Y-101900000D03*
%TO.N,Net-(Q6-D)*%
X83600000Y-90200000D03*
%TO.N,PAMP_FILTER_EN#*%
X103200000Y-103800000D03*
X85300000Y-108175000D03*
%TO.N,TPA_RESET*%
X93900000Y-92500000D03*
%TO.N,DAC_AMP_TEST*%
X142600000Y-80300000D03*
X101600000Y-80000000D03*
X101600000Y-84400000D03*
X88300000Y-83700000D03*
%TO.N,3V3A_EN*%
X124400000Y-70900000D03*
X112600000Y-70600000D03*
%TO.N,TR_EN*%
X111100000Y-70700000D03*
%TO.N,TR_SEL*%
X110370000Y-71030000D03*
%TO.N,FBK_ATTENUATION*%
X109800000Y-71600000D03*
%TO.N,+3.3VA*%
X69600000Y-72700000D03*
%TO.N,I2C_SDA*%
X72600000Y-69800000D03*
X76600000Y-72775000D03*
%TO.N,3V3_LED_EN*%
X75300000Y-62700000D03*
%TO.N,3V3A_LED_EN*%
X76200000Y-58900000D03*
%TO.N,BATT_LED_EN*%
X78600000Y-58300000D03*
%TO.N,3V3A_LED_EN*%
X94900000Y-57425000D03*
X90800000Y-57400000D03*
%TO.N,30V_LED_EN*%
X75700000Y-56800000D03*
%TO.N,Net-(U2-BOOT0)*%
X118800000Y-63500000D03*
%TO.N,MAIN_TO_DAU*%
X100300000Y-62700000D03*
%TO.N,DAU_TO_MAIN*%
X100800000Y-64500000D03*
%TO.N,+3V3*%
X108190000Y-73900000D03*
X107300000Y-80800000D03*
%TO.N,TPA_RESET*%
X100500000Y-88425000D03*
%TO.N,UART_RX_DAU*%
X100220000Y-61320000D03*
%TO.N,UART_TX_DAU*%
X102190000Y-61390000D03*
%TO.N,/STM32/DAC_SEL*%
X85400000Y-85600000D03*
X97000000Y-86000000D03*
%TO.N,-3V3*%
X135750000Y-106700000D03*
%TO.N,+3.3VA*%
X134725000Y-102500000D03*
X138037500Y-98650000D03*
X144900000Y-96600000D03*
X135700000Y-92900000D03*
X138500000Y-87400000D03*
X143600000Y-81500000D03*
X134000000Y-80825000D03*
X125500000Y-86750000D03*
X125500000Y-88000000D03*
X125500000Y-89250000D03*
X125500000Y-90500000D03*
X91100000Y-74500000D03*
X91100000Y-73800000D03*
X115500000Y-76000000D03*
X114700000Y-76000000D03*
X113837500Y-76000000D03*
%TO.N,-3V3*%
X134525000Y-88175000D03*
X133700000Y-93100000D03*
X141600000Y-94900000D03*
X134100000Y-98675000D03*
X135762500Y-99600000D03*
X129100000Y-95500000D03*
X112200000Y-81100000D03*
X113000000Y-81100000D03*
X113800000Y-81100000D03*
X114600000Y-81100000D03*
X115400000Y-81100000D03*
X116200000Y-81100000D03*
%TO.N,ADC_IN*%
X96800000Y-72900000D03*
X129600000Y-75000000D03*
%TO.N,Net-(U2-PE12)*%
X110200000Y-72300000D03*
%TO.N,Net-(U2-PE14)*%
X112100000Y-69900000D03*
X103000000Y-72800000D03*
%TO.N,Net-(U2-PE12)*%
X102000000Y-73200000D03*
%TO.N,/Connections/MAIN_TO_DAUa*%
X96175000Y-87500000D03*
%TO.N,DAU_TO_MAIN*%
X95500000Y-85300000D03*
X91700000Y-85300000D03*
%TO.N,+30V*%
X77300000Y-123000000D03*
X78700000Y-121900000D03*
X78700000Y-123600000D03*
X80100000Y-129800000D03*
X80100000Y-130600000D03*
X80100000Y-131300000D03*
X79100000Y-129100000D03*
X78300000Y-129100000D03*
%TO.N,Net-(J3-VBUS)*%
X79350000Y-56750000D03*
X86650000Y-57400000D03*
%TO.N,5V_PGOOD*%
X95000000Y-61130000D03*
%TO.N,PGA_CS#*%
X94160000Y-61240000D03*
%TO.N,BATT_LED_EN*%
X95000000Y-60330000D03*
%TO.N,30V_LED_EN*%
X96400000Y-57425000D03*
%TO.N,Net-(U2-BOOT0)*%
X97200000Y-60600000D03*
%TO.N,MAIN_TO_DAU*%
X97240000Y-62610000D03*
%TO.N,DAU_TO_MAIN*%
X96100000Y-62900000D03*
%TO.N,3V3_LED_EN*%
X93760000Y-60520000D03*
%TO.N,3V3A_LED_EN*%
X91700000Y-59500000D03*
%TO.N,UART_RX_DAU*%
X97160000Y-58000000D03*
%TO.N,UART_TX_DAU*%
X98054399Y-58225000D03*
%TO.N,+3V3*%
X105200000Y-54300000D03*
X92700000Y-76575000D03*
X94100000Y-54800000D03*
X99500000Y-54800000D03*
X83708916Y-67991153D03*
X83250000Y-68500000D03*
X78500000Y-70250000D03*
X79750000Y-70250000D03*
X79750000Y-69500000D03*
X78500000Y-69500000D03*
X77000000Y-75500000D03*
X76000000Y-75500000D03*
X75000000Y-75500000D03*
X83500000Y-86250000D03*
X96250000Y-79750000D03*
X96250000Y-80750000D03*
X96250000Y-81750000D03*
X96250000Y-82750000D03*
X96250000Y-83750000D03*
X82730000Y-68930000D03*
%TO.N,+30V*%
X83750000Y-103750000D03*
X83750000Y-104500000D03*
X84500000Y-104500000D03*
X83000000Y-103750000D03*
X53500000Y-106500000D03*
X84500000Y-103750000D03*
X51250000Y-106500000D03*
X52000000Y-106500000D03*
X57750000Y-105500000D03*
X52750000Y-106500000D03*
X83000000Y-104500000D03*
X54250000Y-106500000D03*
X83000000Y-103000000D03*
X57750000Y-104750000D03*
X83750000Y-103000000D03*
X84500000Y-103000000D03*
%TO.N,Net-(U12-CB)*%
X61137500Y-107200000D03*
X55500000Y-107000000D03*
%TO.N,+12V*%
X62000000Y-116250000D03*
X63000000Y-132750000D03*
X62000000Y-115500000D03*
X61250000Y-116250000D03*
X61250000Y-115500000D03*
X67000000Y-131500000D03*
X63600000Y-131575000D03*
%TO.N,/Connections/ULPI_3V3*%
X80490000Y-72120000D03*
X81025000Y-74675000D03*
%TO.N,Net-(U17-C_START)*%
X66950000Y-122630000D03*
X54690000Y-110860000D03*
%TO.N,/Power Amplifier/DVDD*%
X62000000Y-130250000D03*
X66475000Y-126600000D03*
X67250000Y-130000000D03*
%TO.N,Net-(U17-INPUT_B)*%
X66020000Y-128660000D03*
X51944100Y-112631196D03*
%TO.N,Net-(D7-A)*%
X68460000Y-63290000D03*
X66440000Y-75410000D03*
%TO.N,Net-(Q6-D)*%
X72750000Y-94850000D03*
%TO.N,/Power Amplifier/FILTER_EN*%
X60370000Y-120640000D03*
X60380000Y-122480000D03*
%TO.N,Net-(U17-OC_ADJ)*%
X54410000Y-117190000D03*
X66782499Y-128107501D03*
%TO.N,Net-(U17-FREQ_ADJ)*%
X54610000Y-112480000D03*
X65723385Y-127186836D03*
%TO.N,Net-(C70-Pad1)*%
X59200000Y-119925000D03*
X64860000Y-113550000D03*
%TD*%
D23*
%TO.N,Net-(U2-BOOT0)*%
X105700000Y-63500000D02*
X118800000Y-63500000D01*
X99220000Y-62020000D02*
X104220000Y-62020000D01*
X97800000Y-60600000D02*
X99220000Y-62020000D01*
X104220000Y-62020000D02*
X105700000Y-63500000D01*
X97200000Y-60600000D02*
X97800000Y-60600000D01*
%TO.N,MAIN_TO_DAU*%
X100210000Y-62610000D02*
X100300000Y-62700000D01*
X97240000Y-62610000D02*
X100210000Y-62610000D01*
D24*
%TO.N,5V_PGOOD*%
X78506000Y-67006000D02*
X78500000Y-67000000D01*
X84500000Y-67000000D02*
X84494000Y-67006000D01*
X84494000Y-67006000D02*
X78506000Y-67006000D01*
X85331000Y-67831000D02*
X84500000Y-67000000D01*
X98169000Y-67831000D02*
X85331000Y-67831000D01*
X96000000Y-65500000D02*
X98090000Y-65500000D01*
X98750000Y-66160000D02*
X98750000Y-67250000D01*
X94794000Y-61506000D02*
X94794000Y-64294000D01*
X95000000Y-61300000D02*
X94794000Y-61506000D01*
X94794000Y-64294000D02*
X96000000Y-65500000D01*
X98090000Y-65500000D02*
X98750000Y-66160000D01*
X95000000Y-61130000D02*
X95000000Y-61300000D01*
X98750000Y-67250000D02*
X98169000Y-67831000D01*
%TO.N,+3.3VA*%
X85100000Y-75500000D02*
X84869000Y-75269000D01*
X89669000Y-75931000D02*
X85531000Y-75931000D01*
X78600000Y-74800000D02*
X77400000Y-73600000D01*
X91100000Y-74500000D02*
X89669000Y-75931000D01*
X77400000Y-73600000D02*
X70500000Y-73600000D01*
X70500000Y-73600000D02*
X69600000Y-72700000D01*
X84869000Y-75269000D02*
X81288014Y-75269000D01*
X80081000Y-75281000D02*
X79600000Y-74800000D01*
X81288014Y-75269000D02*
X81276014Y-75281000D01*
X85531000Y-75931000D02*
X85100000Y-75500000D01*
X81276014Y-75281000D02*
X80081000Y-75281000D01*
X79600000Y-74800000D02*
X78600000Y-74800000D01*
D23*
%TO.N,+3V3*%
X122550000Y-73700000D02*
X125400000Y-73700000D01*
X122150000Y-73300000D02*
X122550000Y-73700000D01*
X108450000Y-73950000D02*
X111700000Y-73950000D01*
X112350000Y-73300000D02*
X122150000Y-73300000D01*
X108400000Y-73900000D02*
X108450000Y-73950000D01*
X108190000Y-73900000D02*
X108400000Y-73900000D01*
X111700000Y-73950000D02*
X112350000Y-73300000D01*
D25*
%TO.N,+5V*%
X119070000Y-115370000D02*
X119070000Y-93220000D01*
X113775000Y-87925000D02*
X113775000Y-87875000D01*
X125100000Y-121400000D02*
X119070000Y-115370000D01*
X125100000Y-134793076D02*
X125100000Y-121400000D01*
X119070000Y-93220000D02*
X113775000Y-87925000D01*
X127653962Y-137347038D02*
X125100000Y-134793076D01*
D26*
%TO.N,DAC_AMP_TEST*%
X101600000Y-80000000D02*
X130500000Y-80000000D01*
X130756000Y-79744000D02*
X142044000Y-79744000D01*
X142044000Y-79744000D02*
X142600000Y-80300000D01*
X130500000Y-80000000D02*
X130756000Y-79744000D01*
D23*
%TO.N,3V3A_LED_EN*%
X76300000Y-59000000D02*
X76200000Y-58900000D01*
X78900000Y-59000000D02*
X76300000Y-59000000D01*
X79089200Y-58810800D02*
X78900000Y-59000000D01*
X89889200Y-58810800D02*
X79089200Y-58810800D01*
X89900000Y-58800000D02*
X89889200Y-58810800D01*
X90100000Y-59000000D02*
X89900000Y-58800000D01*
X91200000Y-59000000D02*
X90100000Y-59000000D01*
X91700000Y-59500000D02*
X91200000Y-59000000D01*
%TO.N,Net-(U17-OC_ADJ)*%
X54160000Y-117440000D02*
X54410000Y-117190000D01*
X54160000Y-118750000D02*
X54160000Y-117440000D01*
X55244900Y-119834900D02*
X54160000Y-118750000D01*
X56550000Y-123530000D02*
X56550000Y-122200000D01*
X55244900Y-120894900D02*
X55244900Y-119834900D01*
X58644900Y-126778854D02*
X58644900Y-125624900D01*
X60204900Y-128338854D02*
X58644900Y-126778854D01*
X60204900Y-128994900D02*
X60204900Y-128338854D01*
X60450000Y-129240000D02*
X60204900Y-128994900D01*
X60450000Y-129279100D02*
X60450000Y-129240000D01*
X56550000Y-122200000D02*
X55244900Y-120894900D01*
X64088700Y-129279100D02*
X60450000Y-129279100D01*
X64104800Y-129295200D02*
X64088700Y-129279100D01*
X66319000Y-128029000D02*
X65758631Y-128029000D01*
X65758631Y-128029000D02*
X64492431Y-129295200D01*
X66397501Y-128107501D02*
X66319000Y-128029000D01*
X58644900Y-125624900D02*
X56550000Y-123530000D01*
X66782499Y-128107501D02*
X66397501Y-128107501D01*
X64492431Y-129295200D02*
X64104800Y-129295200D01*
D24*
%TO.N,/Power Amplifier/DVDD*%
X67520000Y-129730000D02*
X67250000Y-130000000D01*
X66600000Y-126600000D02*
X67520000Y-127520000D01*
X67520000Y-127520000D02*
X67520000Y-129730000D01*
X66475000Y-126600000D02*
X66600000Y-126600000D01*
%TO.N,UART_RX_DAU*%
X97400000Y-58500000D02*
X100220000Y-61320000D01*
X97160000Y-58000000D02*
X97400000Y-58240000D01*
X97400000Y-58240000D02*
X97400000Y-58500000D01*
D23*
%TO.N,BATT_LED_EN*%
X78700000Y-58200000D02*
X78600000Y-58300000D01*
X84700000Y-58200000D02*
X78700000Y-58200000D01*
X88900000Y-58000000D02*
X88300000Y-58000000D01*
X88300000Y-58000000D02*
X87879100Y-58420900D01*
X94700000Y-58200000D02*
X89100000Y-58200000D01*
X89100000Y-58200000D02*
X88900000Y-58000000D01*
X95000000Y-58500000D02*
X94700000Y-58200000D01*
X87879100Y-58420900D02*
X84920900Y-58420900D01*
X84920900Y-58420900D02*
X84700000Y-58200000D01*
X95000000Y-60330000D02*
X95000000Y-58500000D01*
D27*
%TO.N,+3V3*%
X108220000Y-59220000D02*
X108500000Y-59500000D01*
D23*
%TO.N,PGA_CS#*%
X95250000Y-66500000D02*
X97750000Y-66500000D01*
X94000000Y-65250000D02*
X95250000Y-66500000D01*
X94160000Y-61332369D02*
X94000000Y-61492369D01*
X94000000Y-61492369D02*
X94000000Y-65250000D01*
X94160000Y-61240000D02*
X94160000Y-61332369D01*
%TO.N,3V3_LED_EN*%
X75500000Y-62700000D02*
X75300000Y-62700000D01*
X78800000Y-59400000D02*
X75500000Y-62700000D01*
X84400000Y-59400000D02*
X78800000Y-59400000D01*
X93200000Y-60400000D02*
X85400000Y-60400000D01*
X93320000Y-60520000D02*
X93200000Y-60400000D01*
X93760000Y-60520000D02*
X93320000Y-60520000D01*
X85400000Y-60400000D02*
X84400000Y-59400000D01*
D26*
%TO.N,TR_EN*%
X137100000Y-71600000D02*
X137400000Y-71300000D01*
X124100000Y-71600000D02*
X137100000Y-71600000D01*
X114719000Y-71181000D02*
X114900000Y-71000000D01*
X111581000Y-71181000D02*
X114719000Y-71181000D01*
X111100000Y-70700000D02*
X111581000Y-71181000D01*
X123500000Y-71000000D02*
X124100000Y-71600000D01*
X114900000Y-71000000D02*
X123500000Y-71000000D01*
%TO.N,TR_SEL*%
X123800000Y-72200000D02*
X133850000Y-72200000D01*
X111300000Y-71500000D02*
X123100000Y-71500000D01*
X123100000Y-71500000D02*
X123800000Y-72200000D01*
X110592369Y-71200000D02*
X110778341Y-71200000D01*
X110778341Y-71200000D02*
X110859341Y-71281000D01*
X110422369Y-71030000D02*
X110592369Y-71200000D01*
X111081000Y-71281000D02*
X111300000Y-71500000D01*
X110370000Y-71030000D02*
X110422369Y-71030000D01*
X110859341Y-71281000D02*
X111081000Y-71281000D01*
%TO.N,FBK_ATTENUATION*%
X122700000Y-71900000D02*
X123600000Y-72800000D01*
X123600000Y-72800000D02*
X136100000Y-72800000D01*
X111000000Y-71900000D02*
X122700000Y-71900000D01*
X110719631Y-71619631D02*
X111000000Y-71900000D01*
X110119631Y-71619631D02*
X110719631Y-71619631D01*
X136100000Y-72800000D02*
X136800000Y-73500000D01*
X110100000Y-71600000D02*
X110119631Y-71619631D01*
X109800000Y-71600000D02*
X110100000Y-71600000D01*
D23*
%TO.N,3V3A_EN*%
X123400000Y-69900000D02*
X124400000Y-70900000D01*
X113300000Y-69900000D02*
X123400000Y-69900000D01*
X112600000Y-70600000D02*
X113300000Y-69900000D01*
D24*
%TO.N,UART_TX_DAU*%
X99025000Y-58225000D02*
X98054399Y-58225000D01*
X102190000Y-61390000D02*
X99025000Y-58225000D01*
D25*
%TO.N,VBUS*%
X101650000Y-96200000D02*
X95950000Y-96200000D01*
X103450000Y-94400000D02*
X101650000Y-96200000D01*
X95950000Y-96200000D02*
X94900000Y-97250000D01*
X104500000Y-94400000D02*
X103450000Y-94400000D01*
X112600000Y-94400000D02*
X104500000Y-94400000D01*
X114750000Y-92250000D02*
X112600000Y-94400000D01*
%TO.N,+5V*%
X100510000Y-94650000D02*
X102540000Y-92620000D01*
X95400000Y-94650000D02*
X100510000Y-94650000D01*
X87051000Y-94500000D02*
X89551000Y-97000000D01*
X89551000Y-97000000D02*
X93050000Y-97000000D01*
X93050000Y-97000000D02*
X95400000Y-94650000D01*
X113775000Y-87875000D02*
X114700000Y-86950000D01*
D23*
%TO.N,+3V3*%
X139875000Y-89675000D02*
X145300000Y-89675000D01*
X139450000Y-89250000D02*
X139875000Y-89675000D01*
X131000000Y-74200000D02*
X133200000Y-74200000D01*
X130119000Y-73319000D02*
X130950000Y-74150000D01*
X130950000Y-74150000D02*
X131000000Y-74200000D01*
X128400000Y-73400000D02*
X128481000Y-73319000D01*
X128481000Y-73319000D02*
X130119000Y-73319000D01*
X128100000Y-73700000D02*
X128400000Y-73400000D01*
X125400000Y-73700000D02*
X128100000Y-73700000D01*
D27*
X112800000Y-59500000D02*
X120500000Y-59500000D01*
X120500000Y-59500000D02*
X122250000Y-61250000D01*
X108900000Y-59500000D02*
X112800000Y-59500000D01*
D23*
%TO.N,Net-(D8-A)*%
X68969000Y-64131000D02*
X69500000Y-63600000D01*
X69500000Y-63600000D02*
X69500000Y-62700000D01*
X68969000Y-94669000D02*
X68969000Y-64131000D01*
X71850000Y-97550000D02*
X69550000Y-95250000D01*
X77917369Y-97550000D02*
X75600000Y-97550000D01*
X79350000Y-96117369D02*
X77917369Y-97550000D01*
X69500000Y-62700000D02*
X68500000Y-61700000D01*
X79350000Y-96100000D02*
X79350000Y-96117369D01*
X69550000Y-95250000D02*
X68969000Y-94669000D01*
X75600000Y-97550000D02*
X71850000Y-97550000D01*
X86500000Y-96100000D02*
X79350000Y-96100000D01*
X87850000Y-97450000D02*
X86500000Y-96100000D01*
D25*
%TO.N,+5V*%
X116250000Y-86950000D02*
X118050000Y-86950000D01*
X114700000Y-86950000D02*
X116250000Y-86950000D01*
X110200000Y-91450000D02*
X113775000Y-87875000D01*
X107350000Y-92620000D02*
X109030000Y-92620000D01*
X109030000Y-92620000D02*
X110200000Y-91450000D01*
X102540000Y-92620000D02*
X107350000Y-92620000D01*
D26*
%TO.N,TR_SEL*%
X144300000Y-87300000D02*
X144950000Y-86650000D01*
X144050000Y-87300000D02*
X144300000Y-87300000D01*
X141650000Y-87300000D02*
X144050000Y-87300000D01*
X141100000Y-86750000D02*
X141650000Y-87300000D01*
X133850000Y-72200000D02*
X137778341Y-72200000D01*
X139500000Y-71700000D02*
X140100000Y-72300000D01*
X138278341Y-71700000D02*
X139500000Y-71700000D01*
X137778341Y-72200000D02*
X138278341Y-71700000D01*
D28*
%TO.N,+3V3*%
X104600000Y-90600000D02*
X104600000Y-90100000D01*
X98980000Y-91100000D02*
X104100000Y-91100000D01*
X97460000Y-92620000D02*
X98980000Y-91100000D01*
X104100000Y-91100000D02*
X104600000Y-90600000D01*
X104600000Y-90100000D02*
X104500000Y-90000000D01*
D26*
%TO.N,30V_PGOOD*%
X80681000Y-88981000D02*
X78550000Y-86850000D01*
X95719000Y-88981000D02*
X80681000Y-88981000D01*
X97100000Y-87600000D02*
X95719000Y-88981000D01*
X100050000Y-87600000D02*
X97100000Y-87600000D01*
D23*
X101300000Y-71607631D02*
X101300000Y-72600000D01*
X99311369Y-69619000D02*
X101300000Y-71607631D01*
X97931000Y-69619000D02*
X99311369Y-69619000D01*
X97700000Y-69850000D02*
X97931000Y-69619000D01*
X96240000Y-71310000D02*
X97700000Y-69850000D01*
X94190000Y-71310000D02*
X96240000Y-71310000D01*
%TO.N,INPUT_FB_EN*%
X127607631Y-79000000D02*
X135800000Y-79000000D01*
X126457631Y-77850000D02*
X127607631Y-79000000D01*
X123756000Y-77850000D02*
X126457631Y-77850000D01*
X123386369Y-78331000D02*
X123756000Y-77961369D01*
X122863631Y-78331000D02*
X123386369Y-78331000D01*
X122494000Y-77961369D02*
X122863631Y-78331000D01*
X122494000Y-77850000D02*
X122494000Y-77961369D01*
X114651402Y-77850000D02*
X122494000Y-77850000D01*
X123756000Y-77961369D02*
X123756000Y-77850000D01*
X109831000Y-78369000D02*
X114132402Y-78369000D01*
X114132402Y-78369000D02*
X114651402Y-77850000D01*
X109700000Y-78500000D02*
X109831000Y-78369000D01*
%TO.N,PWR_AMP_V_FB*%
X99900000Y-78400000D02*
X98250000Y-78400000D01*
X103800000Y-78400000D02*
X99900000Y-78400000D01*
X104600000Y-77600000D02*
X103800000Y-78400000D01*
X114850000Y-77100000D02*
X114350000Y-77600000D01*
X114350000Y-77600000D02*
X104600000Y-77600000D01*
D26*
%TO.N,/Connections/ULPI_3V3*%
X80850000Y-74675000D02*
X81025000Y-74675000D01*
X80200000Y-74025000D02*
X80850000Y-74675000D01*
X80490000Y-72120000D02*
X80200000Y-72410000D01*
X80200000Y-72410000D02*
X80200000Y-74025000D01*
D23*
%TO.N,+3V3*%
X84750000Y-85000000D02*
X84750000Y-80500000D01*
X83500000Y-86250000D02*
X84750000Y-85000000D01*
D24*
%TO.N,5V_PGOOD*%
X72000000Y-79000000D02*
X71750000Y-79250000D01*
X79000000Y-79000000D02*
X72000000Y-79000000D01*
D23*
%TO.N,PGA_CS#*%
X127250000Y-69750000D02*
X127250000Y-70250000D01*
X126750000Y-69250000D02*
X127250000Y-69750000D01*
X122500000Y-69250000D02*
X126750000Y-69250000D01*
X119500000Y-68000000D02*
X121250000Y-68000000D01*
X118500000Y-69000000D02*
X119500000Y-68000000D01*
X121250000Y-68000000D02*
X122500000Y-69250000D01*
X108000000Y-69000000D02*
X115500000Y-69000000D01*
X115500000Y-69000000D02*
X118500000Y-69000000D01*
X105750000Y-66750000D02*
X108000000Y-69000000D01*
D26*
%TO.N,Net-(U2-PE12)*%
X102181000Y-73381000D02*
X102000000Y-73200000D01*
X104619000Y-73381000D02*
X102181000Y-73381000D01*
X106100000Y-71900000D02*
X104619000Y-73381000D01*
X108800000Y-71900000D02*
X106100000Y-71900000D01*
X109200000Y-72300000D02*
X108800000Y-71900000D01*
X110200000Y-72300000D02*
X109200000Y-72300000D01*
D23*
%TO.N,DAC_TO_PAMP*%
X82300000Y-96800000D02*
X84500000Y-96800000D01*
X79100000Y-100000000D02*
X82300000Y-96800000D01*
X77200000Y-101900000D02*
X79100000Y-100000000D01*
X71600000Y-101900000D02*
X77200000Y-101900000D01*
%TO.N,Net-(Q6-D)*%
X72750000Y-93750000D02*
X72750000Y-94850000D01*
X75200000Y-91300000D02*
X72750000Y-93750000D01*
X83000000Y-90200000D02*
X81900000Y-91300000D01*
X81900000Y-91300000D02*
X75200000Y-91300000D01*
X83600000Y-90200000D02*
X83000000Y-90200000D01*
D26*
%TO.N,ADC_IN*%
X98200000Y-74400000D02*
X98600000Y-74800000D01*
X97300000Y-74400000D02*
X98200000Y-74400000D01*
X98600000Y-74800000D02*
X129400000Y-74800000D01*
X96800000Y-73900000D02*
X97300000Y-74400000D01*
X96800000Y-72900000D02*
X96800000Y-73900000D01*
X129400000Y-74800000D02*
X129600000Y-75000000D01*
D23*
%TO.N,PAMP_FILTER_EN#*%
X102600000Y-104400000D02*
X103200000Y-103800000D01*
X102600000Y-108000000D02*
X102600000Y-104400000D01*
X101900000Y-108700000D02*
X102600000Y-108000000D01*
X85300000Y-108175000D02*
X85825000Y-108700000D01*
X85825000Y-108700000D02*
X101900000Y-108700000D01*
%TO.N,TPA_RESET*%
X97975000Y-88425000D02*
X100500000Y-88425000D01*
X93900000Y-92500000D02*
X97975000Y-88425000D01*
D26*
%TO.N,DAC_AMP_TEST*%
X101500000Y-84500000D02*
X101600000Y-84400000D01*
X93246500Y-83746500D02*
X94000000Y-84500000D01*
X94000000Y-84500000D02*
X101500000Y-84500000D01*
X88346500Y-83746500D02*
X93246500Y-83746500D01*
X88300000Y-83700000D02*
X88346500Y-83746500D01*
%TO.N,Net-(U2-PE14)*%
X112100000Y-69900000D02*
X105900000Y-69900000D01*
X105900000Y-69900000D02*
X103000000Y-72800000D01*
D23*
%TO.N,30V_LED_EN*%
X89000000Y-56300000D02*
X95600000Y-56300000D01*
X87400000Y-57900000D02*
X89000000Y-56300000D01*
X87042369Y-57900000D02*
X87400000Y-57900000D01*
X95600000Y-56300000D02*
X96400000Y-57100000D01*
X86911369Y-58031000D02*
X87042369Y-57900000D01*
X86257631Y-57900000D02*
X86388631Y-58031000D01*
X96400000Y-57100000D02*
X96400000Y-57425000D01*
X85400000Y-57900000D02*
X86257631Y-57900000D01*
X85100000Y-57600000D02*
X85400000Y-57900000D01*
X75700000Y-56800000D02*
X76500000Y-57600000D01*
X76500000Y-57600000D02*
X85100000Y-57600000D01*
X86388631Y-58031000D02*
X86911369Y-58031000D01*
%TO.N,I2C_SDA*%
X73800000Y-69800000D02*
X72600000Y-69800000D01*
X74600000Y-70600000D02*
X73800000Y-69800000D01*
X76600000Y-72600000D02*
X74600000Y-70600000D01*
X76600000Y-72775000D02*
X76600000Y-72600000D01*
%TO.N,3V3A_LED_EN*%
X90800000Y-57400000D02*
X94875000Y-57400000D01*
X94875000Y-57400000D02*
X94900000Y-57425000D01*
%TO.N,DAU_TO_MAIN*%
X97000000Y-64500000D02*
X100800000Y-64500000D01*
X96100000Y-62900000D02*
X96100000Y-63600000D01*
X96100000Y-63600000D02*
X97000000Y-64500000D01*
%TO.N,/Connections/MAIN_TO_DAUa*%
X95175000Y-87500000D02*
X95135000Y-87540000D01*
X95135000Y-87540000D02*
X89840000Y-87540000D01*
X96175000Y-87500000D02*
X95175000Y-87500000D01*
D28*
%TO.N,+3V3*%
X107250000Y-80750000D02*
X107300000Y-80800000D01*
D27*
X96250000Y-80750000D02*
X107250000Y-80750000D01*
D26*
%TO.N,/STM32/DAC_SEL*%
X91200000Y-86700000D02*
X90800000Y-86300000D01*
X90800000Y-86300000D02*
X90786500Y-86286500D01*
X95681000Y-85919000D02*
X94900000Y-86700000D01*
X96919000Y-85919000D02*
X95681000Y-85919000D01*
X94900000Y-86700000D02*
X91200000Y-86700000D01*
X86086500Y-86286500D02*
X85400000Y-85600000D01*
X90786500Y-86286500D02*
X86086500Y-86286500D01*
X97000000Y-86000000D02*
X96919000Y-85919000D01*
D25*
%TO.N,+3.3VA*%
X93200000Y-73800000D02*
X91100000Y-73800000D01*
X99300000Y-75700000D02*
X95100000Y-75700000D01*
X100900000Y-75700000D02*
X99300000Y-75700000D01*
X101400000Y-76200000D02*
X100900000Y-75700000D01*
X93300000Y-73900000D02*
X93200000Y-73800000D01*
X112800000Y-76200000D02*
X101400000Y-76200000D01*
X95100000Y-75700000D02*
X93300000Y-73900000D01*
X113200000Y-76000000D02*
X112900000Y-76300000D01*
X115500000Y-76000000D02*
X113200000Y-76000000D01*
X112900000Y-76300000D02*
X112800000Y-76200000D01*
D23*
%TO.N,DAU_TO_MAIN*%
X91700000Y-85300000D02*
X95500000Y-85300000D01*
%TO.N,Net-(C70-Pad1)*%
X59200000Y-114800000D02*
X59200000Y-119925000D01*
X60450000Y-113550000D02*
X59200000Y-114800000D01*
X64860000Y-113550000D02*
X60450000Y-113550000D01*
%TO.N,Net-(J3-VBUS)*%
X79850000Y-56750000D02*
X79350000Y-56750000D01*
X86000000Y-56750000D02*
X79850000Y-56750000D01*
X86650000Y-57400000D02*
X86000000Y-56750000D01*
D27*
%TO.N,+3V3*%
X101250000Y-51250000D02*
X100790000Y-51250000D01*
X101900000Y-51900000D02*
X101250000Y-51250000D01*
X108500000Y-59500000D02*
X108900000Y-59500000D01*
X106800000Y-55900000D02*
X106800000Y-57800000D01*
X105200000Y-54300000D02*
X106800000Y-55900000D01*
X106800000Y-57800000D02*
X108220000Y-59220000D01*
X100200000Y-54800000D02*
X101900000Y-53100000D01*
X101900000Y-53100000D02*
X101900000Y-51900000D01*
X99500000Y-54800000D02*
X100200000Y-54800000D01*
X94100000Y-54800000D02*
X99500000Y-54800000D01*
D28*
%TO.N,Net-(U12-CB)*%
X55500000Y-107000000D02*
X60937500Y-107000000D01*
X60937500Y-107000000D02*
X61137500Y-107200000D01*
D23*
%TO.N,Net-(U17-C_START)*%
X57749900Y-122297096D02*
X56024700Y-120571896D01*
X55430900Y-118780900D02*
X55430900Y-113360000D01*
X63740000Y-128350000D02*
X61380000Y-128350000D01*
X56024700Y-120571896D02*
X56024700Y-119374700D01*
X56024700Y-119374700D02*
X55760000Y-119110000D01*
X57775701Y-123614299D02*
X57749900Y-123588498D01*
X65971315Y-126211316D02*
X65806536Y-126211316D01*
X55430900Y-113360000D02*
X55430900Y-111600900D01*
X66950000Y-125232631D02*
X65971315Y-126211316D01*
X66950000Y-122630000D02*
X66950000Y-125232631D01*
X63740000Y-128277852D02*
X63740000Y-128350000D01*
X55760000Y-119110000D02*
X55430900Y-118780900D01*
X61380000Y-128350000D02*
X60030000Y-127000000D01*
X59424700Y-126394700D02*
X59424700Y-125450000D01*
X60030000Y-127000000D02*
X59424700Y-126394700D01*
X59424700Y-125450000D02*
X59424700Y-125263298D01*
X55430900Y-111600900D02*
X54690000Y-110860000D01*
X65806536Y-126211316D02*
X63740000Y-128277852D01*
X57749900Y-123588498D02*
X57749900Y-122297096D01*
X59424700Y-125263298D02*
X57775701Y-123614299D01*
D24*
%TO.N,/Power Amplifier/DVDD*%
X62250000Y-130000000D02*
X62000000Y-130250000D01*
X67250000Y-130000000D02*
X62250000Y-130000000D01*
%TO.N,Net-(U17-INPUT_B)*%
X54880000Y-120030000D02*
X53890000Y-119040000D01*
X53890000Y-119040000D02*
X53760000Y-118910000D01*
X56110000Y-123710000D02*
X56110000Y-122340000D01*
X62950000Y-129660100D02*
X62933900Y-129644000D01*
X60266000Y-129644000D02*
X60260000Y-129650000D01*
X56120000Y-123720000D02*
X56110000Y-123710000D01*
X51944100Y-113214100D02*
X51944100Y-112631196D01*
X59840000Y-129230000D02*
X59840000Y-128490000D01*
X65019900Y-129660100D02*
X62950000Y-129660100D01*
X52060000Y-113330000D02*
X51944100Y-113214100D01*
X53760000Y-118910000D02*
X53760000Y-117080000D01*
X52580000Y-113850000D02*
X52060000Y-113330000D01*
X52580000Y-115590000D02*
X52580000Y-113850000D01*
X53760000Y-116770000D02*
X52580000Y-115590000D01*
X62933900Y-129644000D02*
X60266000Y-129644000D01*
X54880000Y-121110000D02*
X54880000Y-120600000D01*
X53760000Y-117080000D02*
X53760000Y-116770000D01*
X66020000Y-128660000D02*
X65019900Y-129660100D01*
X60260000Y-129650000D02*
X59840000Y-129230000D01*
X54880000Y-120600000D02*
X54880000Y-120030000D01*
X58280000Y-125880000D02*
X56120000Y-123720000D01*
X56110000Y-122340000D02*
X54880000Y-121110000D01*
X58280000Y-126410000D02*
X58280000Y-125880000D01*
X58280000Y-126930000D02*
X58280000Y-126410000D01*
X59840000Y-128490000D02*
X58280000Y-126930000D01*
%TO.N,Net-(D7-A)*%
X67700000Y-63290000D02*
X68460000Y-63290000D01*
X58725000Y-72265000D02*
X67700000Y-63290000D01*
X58720000Y-74750000D02*
X58720000Y-72260000D01*
X66440000Y-75410000D02*
X59380000Y-75410000D01*
X58720000Y-72260000D02*
X58725000Y-72265000D01*
X59380000Y-75410000D02*
X58720000Y-74750000D01*
D23*
%TO.N,/Power Amplifier/FILTER_EN*%
X60370000Y-120640000D02*
X60370000Y-122470000D01*
X60370000Y-122470000D02*
X60380000Y-122480000D01*
%TO.N,Net-(U17-FREQ_ADJ)*%
X64270800Y-128889200D02*
X60670000Y-128889200D01*
X57360000Y-122458598D02*
X55634800Y-120733398D01*
X60670000Y-128252552D02*
X59034800Y-126617352D01*
X59034800Y-125424800D02*
X57360000Y-123750000D01*
X55041000Y-119001000D02*
X55041000Y-112911000D01*
X60670000Y-128889200D02*
X60670000Y-128252552D01*
X55520701Y-119480701D02*
X55041000Y-119001000D01*
X55520701Y-119559299D02*
X55520701Y-119480701D01*
X55634800Y-119673398D02*
X55520701Y-119559299D01*
X55041000Y-112911000D02*
X54610000Y-112480000D01*
X65723385Y-127436615D02*
X64270800Y-128889200D01*
X65723385Y-127186836D02*
X65723385Y-127436615D01*
X57360000Y-123750000D02*
X57360000Y-122458598D01*
X55634800Y-120733398D02*
X55634800Y-119673398D01*
X59034800Y-126617352D02*
X59034800Y-125424800D01*
%TD*%
%TA.AperFunction,Conductor*%
%TO.N,-3V3*%
G36*
X133400000Y-100200000D02*
G01*
X133400000Y-101309245D01*
X133380315Y-101376284D01*
X133327511Y-101422039D01*
X133258353Y-101431983D01*
X133194797Y-101402958D01*
X133188319Y-101396926D01*
X133170914Y-101379521D01*
X133170913Y-101379520D01*
X133079587Y-101326793D01*
X132977727Y-101299500D01*
X132872273Y-101299500D01*
X132770413Y-101326793D01*
X132770410Y-101326794D01*
X132679085Y-101379521D01*
X132604521Y-101454085D01*
X132551794Y-101545410D01*
X132551793Y-101545413D01*
X132524500Y-101647273D01*
X132524500Y-101752727D01*
X132551793Y-101854587D01*
X132604520Y-101945913D01*
X132679087Y-102020480D01*
X132770413Y-102073207D01*
X132872273Y-102100500D01*
X132872275Y-102100500D01*
X132977725Y-102100500D01*
X132977727Y-102100500D01*
X133079587Y-102073207D01*
X133170913Y-102020480D01*
X133188319Y-102003074D01*
X133249642Y-101969589D01*
X133319334Y-101974573D01*
X133375267Y-102016445D01*
X133399684Y-102081909D01*
X133400000Y-102090755D01*
X133400000Y-106275500D01*
X133380315Y-106342539D01*
X133327511Y-106388294D01*
X133276000Y-106399500D01*
X133172273Y-106399500D01*
X133070413Y-106426793D01*
X133070410Y-106426794D01*
X132979085Y-106479521D01*
X132904521Y-106554085D01*
X132851794Y-106645410D01*
X132851793Y-106645413D01*
X132824500Y-106747273D01*
X132824500Y-106852727D01*
X132851793Y-106954587D01*
X132904520Y-107045913D01*
X132979087Y-107120480D01*
X133070413Y-107173207D01*
X133172273Y-107200500D01*
X133172275Y-107200500D01*
X133276000Y-107200500D01*
X133343039Y-107220185D01*
X133388794Y-107272989D01*
X133400000Y-107324500D01*
X133400000Y-107600000D01*
X134200000Y-107600000D01*
X134200000Y-105924000D01*
X134219685Y-105856961D01*
X134272489Y-105811206D01*
X134324000Y-105800000D01*
X136176000Y-105800000D01*
X136243039Y-105819685D01*
X136288794Y-105872489D01*
X136300000Y-105924000D01*
X136300000Y-109176000D01*
X136280315Y-109243039D01*
X136227511Y-109288794D01*
X136176000Y-109300000D01*
X131724000Y-109300000D01*
X131656961Y-109280315D01*
X131611206Y-109227511D01*
X131600000Y-109176000D01*
X131600000Y-98900000D01*
X133400000Y-98900000D01*
X133400000Y-100200000D01*
G37*
%TD.AperFunction*%
%TD*%
%TA.AperFunction,Conductor*%
%TO.N,+3.3VA*%
G36*
X143943039Y-79269685D02*
G01*
X143988794Y-79322489D01*
X144000000Y-79374000D01*
X144000000Y-82626000D01*
X143980315Y-82693039D01*
X143927511Y-82738794D01*
X143876000Y-82750000D01*
X140750000Y-82750000D01*
X140750000Y-86421993D01*
X140733387Y-86483993D01*
X140680202Y-86576110D01*
X140680201Y-86576114D01*
X140649500Y-86690691D01*
X140649500Y-86809309D01*
X140680201Y-86923886D01*
X140733387Y-87016006D01*
X140750000Y-87078006D01*
X140750000Y-87376000D01*
X140730315Y-87443039D01*
X140677511Y-87488794D01*
X140626000Y-87500000D01*
X139000000Y-87500000D01*
X139000000Y-89188824D01*
X138999500Y-89190691D01*
X138999500Y-89309309D01*
X139000000Y-89311175D01*
X139000000Y-89861535D01*
X138980315Y-89928574D01*
X138963682Y-89949216D01*
X138889511Y-90023387D01*
X138843704Y-90102727D01*
X138830201Y-90126114D01*
X138799500Y-90240691D01*
X138799500Y-90359309D01*
X138830201Y-90473886D01*
X138889511Y-90576613D01*
X138889513Y-90576615D01*
X138963681Y-90650783D01*
X138997166Y-90712106D01*
X139000000Y-90738464D01*
X139000000Y-92000000D01*
X145376000Y-92000000D01*
X145443039Y-92019685D01*
X145488794Y-92072489D01*
X145500000Y-92124000D01*
X145500000Y-99876000D01*
X145480315Y-99943039D01*
X145427511Y-99988794D01*
X145376000Y-100000000D01*
X142876314Y-100000000D01*
X142809275Y-99980315D01*
X142768927Y-99938000D01*
X142733131Y-99876000D01*
X142720480Y-99854087D01*
X142645913Y-99779520D01*
X142554587Y-99726793D01*
X142452727Y-99699500D01*
X142347273Y-99699500D01*
X142245413Y-99726793D01*
X142245410Y-99726794D01*
X142154085Y-99779521D01*
X142079521Y-99854085D01*
X142031073Y-99938000D01*
X141980506Y-99986216D01*
X141923686Y-100000000D01*
X139750000Y-100000000D01*
X139750000Y-102126000D01*
X139730315Y-102193039D01*
X139677511Y-102238794D01*
X139626000Y-102250000D01*
X136000000Y-102250000D01*
X136000000Y-104876000D01*
X135980315Y-104943039D01*
X135927511Y-104988794D01*
X135876000Y-105000000D01*
X134374000Y-105000000D01*
X134306961Y-104980315D01*
X134261206Y-104927511D01*
X134250000Y-104876000D01*
X134250000Y-100874000D01*
X134269685Y-100806961D01*
X134322489Y-100761206D01*
X134374000Y-100750000D01*
X137250000Y-100750000D01*
X137250000Y-97624000D01*
X137269685Y-97556961D01*
X137322489Y-97511206D01*
X137374000Y-97500000D01*
X139240224Y-97500000D01*
X139307263Y-97519685D01*
X139353018Y-97572489D01*
X139359996Y-97591901D01*
X139376793Y-97654587D01*
X139429520Y-97745913D01*
X139504087Y-97820480D01*
X139595413Y-97873207D01*
X139697273Y-97900500D01*
X139697275Y-97900500D01*
X139802725Y-97900500D01*
X139802727Y-97900500D01*
X139904587Y-97873207D01*
X139995913Y-97820480D01*
X140070480Y-97745913D01*
X140123207Y-97654587D01*
X140140002Y-97591906D01*
X140176365Y-97532247D01*
X140239212Y-97501717D01*
X140259776Y-97500000D01*
X143500000Y-97500000D01*
X143500000Y-93250000D01*
X138250000Y-93250000D01*
X138250000Y-94126000D01*
X138230315Y-94193039D01*
X138177511Y-94238794D01*
X138126000Y-94250000D01*
X134874000Y-94250000D01*
X134806961Y-94230315D01*
X134761206Y-94177511D01*
X134750000Y-94126000D01*
X134750000Y-91374000D01*
X134769685Y-91306961D01*
X134822489Y-91261206D01*
X134874000Y-91250000D01*
X137500000Y-91250000D01*
X137500000Y-86500000D01*
X129088464Y-86500000D01*
X129021425Y-86480315D01*
X129000783Y-86463681D01*
X128976615Y-86439513D01*
X128976613Y-86439511D01*
X128873886Y-86380201D01*
X128759309Y-86349500D01*
X128640691Y-86349500D01*
X128526114Y-86380201D01*
X128526112Y-86380201D01*
X128526112Y-86380202D01*
X128423387Y-86439511D01*
X128423384Y-86439513D01*
X128399217Y-86463681D01*
X128337894Y-86497166D01*
X128311536Y-86500000D01*
X126000000Y-86500000D01*
X126000000Y-90876000D01*
X125980315Y-90943039D01*
X125927511Y-90988794D01*
X125876000Y-91000000D01*
X124624000Y-91000000D01*
X124556961Y-90980315D01*
X124511206Y-90927511D01*
X124500000Y-90876000D01*
X124500000Y-85624000D01*
X124519685Y-85556961D01*
X124572489Y-85511206D01*
X124624000Y-85500000D01*
X131500000Y-85500000D01*
X131500000Y-80374000D01*
X131519685Y-80306961D01*
X131572489Y-80261206D01*
X131624000Y-80250000D01*
X134626000Y-80250000D01*
X134693039Y-80269685D01*
X134738794Y-80322489D01*
X134750000Y-80374000D01*
X134750000Y-81376000D01*
X134730315Y-81443039D01*
X134677511Y-81488794D01*
X134626000Y-81500000D01*
X133000000Y-81500000D01*
X133000000Y-85250000D01*
X133977494Y-85250000D01*
X134044533Y-85269685D01*
X134090288Y-85322489D01*
X134100433Y-85390185D01*
X134099500Y-85397271D01*
X134099500Y-85397273D01*
X134099500Y-85502727D01*
X134126793Y-85604587D01*
X134179520Y-85695913D01*
X134254087Y-85770480D01*
X134345413Y-85823207D01*
X134447273Y-85850500D01*
X134447275Y-85850500D01*
X134552725Y-85850500D01*
X134552727Y-85850500D01*
X134654587Y-85823207D01*
X134745913Y-85770480D01*
X134820480Y-85695913D01*
X134873207Y-85604587D01*
X134900500Y-85502727D01*
X134900500Y-85397273D01*
X134900500Y-85397271D01*
X134899567Y-85390185D01*
X134910333Y-85321150D01*
X134956713Y-85268894D01*
X135022506Y-85250000D01*
X138750000Y-85250000D01*
X138750000Y-81374000D01*
X138769685Y-81306961D01*
X138822489Y-81261206D01*
X138874000Y-81250000D01*
X143000000Y-81250000D01*
X143000000Y-80541403D01*
X143016613Y-80479403D01*
X143019799Y-80473886D01*
X143050500Y-80359309D01*
X143050500Y-80240691D01*
X143019799Y-80126114D01*
X143016610Y-80120591D01*
X143000000Y-80058595D01*
X143000000Y-79374000D01*
X143019685Y-79306961D01*
X143072489Y-79261206D01*
X143124000Y-79250000D01*
X143876000Y-79250000D01*
X143943039Y-79269685D01*
G37*
%TD.AperFunction*%
%TD*%
%TA.AperFunction,Conductor*%
%TO.N,-3V3*%
G36*
X122326997Y-80819685D02*
G01*
X122372752Y-80872489D01*
X122382696Y-80941647D01*
X122379734Y-80956087D01*
X122362000Y-81022273D01*
X122362000Y-81127727D01*
X122389293Y-81229587D01*
X122442020Y-81320913D01*
X122516587Y-81395480D01*
X122607913Y-81448207D01*
X122709773Y-81475500D01*
X122709775Y-81475500D01*
X122815225Y-81475500D01*
X122815227Y-81475500D01*
X122838571Y-81469245D01*
X122908420Y-81470907D01*
X122966283Y-81510068D01*
X122993788Y-81574297D01*
X122994662Y-81589857D01*
X122977665Y-84105414D01*
X122957528Y-84172319D01*
X122941350Y-84192257D01*
X122879520Y-84254087D01*
X122826794Y-84345410D01*
X122826793Y-84345413D01*
X122799500Y-84447273D01*
X122799500Y-84552727D01*
X122826793Y-84654587D01*
X122879520Y-84745913D01*
X122911334Y-84777727D01*
X122936042Y-84802435D01*
X122969526Y-84863759D01*
X122972357Y-84890954D01*
X122968026Y-85531960D01*
X122951417Y-85593121D01*
X122906793Y-85670412D01*
X122906793Y-85670413D01*
X122879500Y-85772273D01*
X122879500Y-85877726D01*
X122906793Y-85979586D01*
X122906794Y-85979589D01*
X122947491Y-86050078D01*
X122964101Y-86112916D01*
X122899999Y-95599999D01*
X122900000Y-95600000D01*
X127100000Y-95600000D01*
X127100000Y-91424000D01*
X127119685Y-91356961D01*
X127172489Y-91311206D01*
X127224000Y-91300000D01*
X129508140Y-91300000D01*
X129575179Y-91319685D01*
X129598135Y-91340803D01*
X129598773Y-91340166D01*
X129604520Y-91345913D01*
X129679087Y-91420480D01*
X129770413Y-91473207D01*
X129872273Y-91500500D01*
X129872275Y-91500500D01*
X129977725Y-91500500D01*
X129977727Y-91500500D01*
X130079587Y-91473207D01*
X130170913Y-91420480D01*
X130245480Y-91345913D01*
X130245480Y-91345912D01*
X130251227Y-91340166D01*
X130252783Y-91341722D01*
X130299914Y-91307310D01*
X130341860Y-91300000D01*
X132700000Y-91300000D01*
X132700000Y-86924000D01*
X132719685Y-86856961D01*
X132772489Y-86811206D01*
X132824000Y-86800000D01*
X136976000Y-86800000D01*
X137043039Y-86819685D01*
X137088794Y-86872489D01*
X137100000Y-86924000D01*
X137100000Y-89076000D01*
X137080315Y-89143039D01*
X137027511Y-89188794D01*
X136976000Y-89200000D01*
X134400000Y-89200000D01*
X134302637Y-93678695D01*
X134281500Y-93745291D01*
X134227714Y-93789887D01*
X134178666Y-93800000D01*
X133730255Y-93800000D01*
X133663216Y-93780315D01*
X133642574Y-93763681D01*
X133608414Y-93729521D01*
X133608413Y-93729520D01*
X133541559Y-93690922D01*
X133517089Y-93676794D01*
X133517088Y-93676793D01*
X133517087Y-93676793D01*
X133415227Y-93649500D01*
X133309773Y-93649500D01*
X133207913Y-93676793D01*
X133207910Y-93676794D01*
X133116585Y-93729521D01*
X133082426Y-93763681D01*
X133021103Y-93797166D01*
X132994745Y-93800000D01*
X129600000Y-93800000D01*
X129600000Y-97700000D01*
X135700000Y-97700000D01*
X135700000Y-95624000D01*
X135719685Y-95556961D01*
X135772489Y-95511206D01*
X135824000Y-95500000D01*
X140800000Y-95500000D01*
X140800000Y-93824000D01*
X140819685Y-93756961D01*
X140872489Y-93711206D01*
X140924000Y-93700000D01*
X142876000Y-93700000D01*
X142943039Y-93719685D01*
X142988794Y-93772489D01*
X143000000Y-93824000D01*
X143000000Y-96976000D01*
X142980315Y-97043039D01*
X142927511Y-97088794D01*
X142876000Y-97100000D01*
X139804593Y-97100000D01*
X139802727Y-97099500D01*
X139697273Y-97099500D01*
X139695407Y-97100000D01*
X136900000Y-97100000D01*
X136900000Y-100076000D01*
X136880315Y-100143039D01*
X136827511Y-100188794D01*
X136776000Y-100200000D01*
X133400000Y-100200000D01*
X133400000Y-98900000D01*
X131600000Y-98900000D01*
X120324000Y-98900000D01*
X120256961Y-98880315D01*
X120211206Y-98827511D01*
X120200000Y-98776000D01*
X120200000Y-96872273D01*
X126099500Y-96872273D01*
X126099500Y-96977727D01*
X126101560Y-96985413D01*
X126126793Y-97079586D01*
X126126794Y-97079589D01*
X126132109Y-97088794D01*
X126179520Y-97170913D01*
X126254087Y-97245480D01*
X126345413Y-97298207D01*
X126447273Y-97325500D01*
X126447275Y-97325500D01*
X126552725Y-97325500D01*
X126552727Y-97325500D01*
X126654587Y-97298207D01*
X126745913Y-97245480D01*
X126820480Y-97170913D01*
X126873207Y-97079587D01*
X126900500Y-96977727D01*
X126900500Y-96872273D01*
X126873207Y-96770413D01*
X126820480Y-96679087D01*
X126745913Y-96604520D01*
X126654587Y-96551793D01*
X126552727Y-96524500D01*
X126447273Y-96524500D01*
X126345413Y-96551793D01*
X126345410Y-96551794D01*
X126254085Y-96604521D01*
X126179521Y-96679085D01*
X126126794Y-96770410D01*
X126126793Y-96770413D01*
X126099500Y-96872273D01*
X120200000Y-96872273D01*
X120200000Y-85147273D01*
X120599500Y-85147273D01*
X120599500Y-85252727D01*
X120626793Y-85354587D01*
X120679520Y-85445913D01*
X120754087Y-85520480D01*
X120845413Y-85573207D01*
X120947273Y-85600500D01*
X120947275Y-85600500D01*
X121052725Y-85600500D01*
X121052727Y-85600500D01*
X121154587Y-85573207D01*
X121245913Y-85520480D01*
X121320480Y-85445913D01*
X121373207Y-85354587D01*
X121400500Y-85252727D01*
X121400500Y-85147273D01*
X121373207Y-85045413D01*
X121320480Y-84954087D01*
X121245913Y-84879520D01*
X121154587Y-84826793D01*
X121052727Y-84799500D01*
X120947273Y-84799500D01*
X120845413Y-84826793D01*
X120845410Y-84826794D01*
X120754085Y-84879521D01*
X120679521Y-84954085D01*
X120626794Y-85045410D01*
X120626793Y-85045413D01*
X120599500Y-85147273D01*
X120200000Y-85147273D01*
X120200000Y-83672273D01*
X120624500Y-83672273D01*
X120624500Y-83777727D01*
X120651793Y-83879587D01*
X120704520Y-83970913D01*
X120779087Y-84045480D01*
X120870413Y-84098207D01*
X120972273Y-84125500D01*
X120972275Y-84125500D01*
X121077725Y-84125500D01*
X121077727Y-84125500D01*
X121179587Y-84098207D01*
X121270913Y-84045480D01*
X121345480Y-83970913D01*
X121398207Y-83879587D01*
X121425500Y-83777727D01*
X121425500Y-83672273D01*
X121398207Y-83570413D01*
X121345480Y-83479087D01*
X121270913Y-83404520D01*
X121179587Y-83351793D01*
X121077727Y-83324500D01*
X120972273Y-83324500D01*
X120870413Y-83351793D01*
X120870410Y-83351794D01*
X120779085Y-83404521D01*
X120704521Y-83479085D01*
X120651794Y-83570410D01*
X120651793Y-83570413D01*
X120624500Y-83672273D01*
X120200000Y-83672273D01*
X120200000Y-82600000D01*
X112024000Y-82600000D01*
X111956961Y-82580315D01*
X111911206Y-82527511D01*
X111900000Y-82476000D01*
X111900000Y-80924000D01*
X111919685Y-80856961D01*
X111972489Y-80811206D01*
X112024000Y-80800000D01*
X122259958Y-80800000D01*
X122326997Y-80819685D01*
G37*
%TD.AperFunction*%
%TD*%
%TA.AperFunction,Conductor*%
%TO.N,+3V3*%
G36*
X84386850Y-67351185D02*
G01*
X84407492Y-67367819D01*
X84463681Y-67424008D01*
X84497166Y-67485331D01*
X84500000Y-67511689D01*
X84500000Y-69431991D01*
X84483388Y-69493989D01*
X84476795Y-69505408D01*
X84476793Y-69505413D01*
X84449500Y-69607273D01*
X84449500Y-69712727D01*
X84474654Y-69806605D01*
X84476794Y-69814589D01*
X84476794Y-69814590D01*
X84483385Y-69826005D01*
X84500000Y-69888008D01*
X84500000Y-70376000D01*
X84480315Y-70443039D01*
X84427511Y-70488794D01*
X84376000Y-70500000D01*
X84054066Y-70500000D01*
X83987027Y-70480315D01*
X83941272Y-70427511D01*
X83931328Y-70358353D01*
X83946680Y-70313999D01*
X83966548Y-70279587D01*
X83993841Y-70177727D01*
X83993841Y-70072273D01*
X83966548Y-69970413D01*
X83913821Y-69879087D01*
X83839254Y-69804520D01*
X83764253Y-69761218D01*
X83747930Y-69751794D01*
X83747929Y-69751793D01*
X83747928Y-69751793D01*
X83646068Y-69724500D01*
X83540614Y-69724500D01*
X83438754Y-69751793D01*
X83438751Y-69751794D01*
X83343817Y-69806605D01*
X83275917Y-69823078D01*
X83209890Y-69800225D01*
X83174430Y-69761218D01*
X83168989Y-69751794D01*
X83127012Y-69679087D01*
X83052445Y-69604520D01*
X82961119Y-69551793D01*
X82859259Y-69524500D01*
X82753805Y-69524500D01*
X82651945Y-69551793D01*
X82651942Y-69551794D01*
X82560617Y-69604521D01*
X82486053Y-69679085D01*
X82442192Y-69755053D01*
X82391624Y-69803268D01*
X82323017Y-69816489D01*
X82258153Y-69790520D01*
X82247125Y-69780732D01*
X82240914Y-69774521D01*
X82240913Y-69774520D01*
X82149587Y-69721793D01*
X82047727Y-69694500D01*
X81942273Y-69694500D01*
X81840413Y-69721793D01*
X81840410Y-69721794D01*
X81749085Y-69774521D01*
X81674521Y-69849085D01*
X81621794Y-69940410D01*
X81621793Y-69940413D01*
X81594500Y-70042273D01*
X81594500Y-70147727D01*
X81602539Y-70177727D01*
X81621793Y-70249586D01*
X81621794Y-70249589D01*
X81658982Y-70314000D01*
X81675455Y-70381900D01*
X81652603Y-70447927D01*
X81597681Y-70491118D01*
X81551595Y-70500000D01*
X78374000Y-70500000D01*
X78306961Y-70480315D01*
X78261206Y-70427511D01*
X78250000Y-70376000D01*
X78250000Y-69124000D01*
X78269685Y-69056961D01*
X78322489Y-69011206D01*
X78374000Y-69000000D01*
X82250000Y-69000000D01*
X82250000Y-67455500D01*
X82269685Y-67388461D01*
X82322489Y-67342706D01*
X82374000Y-67331500D01*
X84319811Y-67331500D01*
X84386850Y-67351185D01*
G37*
%TD.AperFunction*%
%TD*%
%TA.AperFunction,Conductor*%
%TO.N,+12V*%
G36*
X68267539Y-115269685D02*
G01*
X68313294Y-115322489D01*
X68324500Y-115374000D01*
X68324500Y-115462727D01*
X68351793Y-115564587D01*
X68404520Y-115655913D01*
X68479087Y-115730480D01*
X68570413Y-115783207D01*
X68672273Y-115810500D01*
X68672275Y-115810500D01*
X68777723Y-115810500D01*
X68777727Y-115810500D01*
X68843911Y-115792766D01*
X68913755Y-115794429D01*
X68971618Y-115833591D01*
X68999123Y-115897819D01*
X69000000Y-115912541D01*
X69000000Y-116370137D01*
X68980315Y-116437176D01*
X68927511Y-116482931D01*
X68858353Y-116492875D01*
X68843907Y-116489912D01*
X68817571Y-116482855D01*
X68767727Y-116469500D01*
X68662273Y-116469500D01*
X68560413Y-116496793D01*
X68560410Y-116496794D01*
X68469085Y-116549521D01*
X68394521Y-116624085D01*
X68341794Y-116715410D01*
X68341793Y-116715413D01*
X68314500Y-116817273D01*
X68314500Y-116922727D01*
X68341793Y-117024587D01*
X68394520Y-117115913D01*
X68469087Y-117190480D01*
X68560413Y-117243207D01*
X68662273Y-117270500D01*
X68662275Y-117270500D01*
X68767724Y-117270500D01*
X68767727Y-117270500D01*
X68843909Y-117250087D01*
X68913756Y-117251750D01*
X68971619Y-117290912D01*
X68999123Y-117355141D01*
X69000000Y-117369862D01*
X69000000Y-133378701D01*
X68980315Y-133445740D01*
X68927511Y-133491495D01*
X68858353Y-133501439D01*
X68850996Y-133499930D01*
X68847728Y-133499500D01*
X68847727Y-133499500D01*
X68742273Y-133499500D01*
X68640413Y-133526793D01*
X68640410Y-133526794D01*
X68549085Y-133579521D01*
X68474521Y-133654085D01*
X68421794Y-133745410D01*
X68421793Y-133745413D01*
X68394500Y-133847273D01*
X68394500Y-133952727D01*
X68421793Y-134054587D01*
X68474520Y-134145913D01*
X68549087Y-134220480D01*
X68632456Y-134268613D01*
X68680672Y-134319180D01*
X68693894Y-134387787D01*
X68667926Y-134452652D01*
X68611012Y-134493180D01*
X68570456Y-134500000D01*
X64230382Y-134500000D01*
X64200941Y-134491355D01*
X64170955Y-134484832D01*
X64165939Y-134481077D01*
X64163343Y-134480315D01*
X64142701Y-134463681D01*
X64012379Y-134333359D01*
X64009954Y-134330866D01*
X63058490Y-133324470D01*
X63056136Y-133321909D01*
X62133287Y-132289239D01*
X62131006Y-132286613D01*
X61279259Y-131277941D01*
X61251047Y-131214021D01*
X61250000Y-131197940D01*
X61250000Y-130874000D01*
X61269685Y-130806961D01*
X61322489Y-130761206D01*
X61374000Y-130750000D01*
X67500000Y-130750000D01*
X67500000Y-130438464D01*
X67519685Y-130371425D01*
X67536319Y-130350783D01*
X67561602Y-130325500D01*
X67610489Y-130276613D01*
X67669799Y-130173886D01*
X67700500Y-130059309D01*
X67700500Y-130059305D01*
X67701561Y-130051249D01*
X67703349Y-130051484D01*
X67720185Y-129994150D01*
X67736819Y-129973508D01*
X67740827Y-129969500D01*
X67780465Y-129929862D01*
X67823318Y-129855638D01*
X67838189Y-129800139D01*
X67845501Y-129772853D01*
X67845501Y-129687147D01*
X67845500Y-129687143D01*
X67845500Y-127477147D01*
X67823318Y-127394362D01*
X67803896Y-127360722D01*
X67780469Y-127320144D01*
X67780463Y-127320136D01*
X67536319Y-127075992D01*
X67502834Y-127014669D01*
X67500000Y-126988311D01*
X67500000Y-117250000D01*
X61124000Y-117250000D01*
X61056961Y-117230315D01*
X61011206Y-117177511D01*
X61000000Y-117126000D01*
X61000000Y-115374000D01*
X61019685Y-115306961D01*
X61072489Y-115261206D01*
X61124000Y-115250000D01*
X68200500Y-115250000D01*
X68267539Y-115269685D01*
G37*
%TD.AperFunction*%
%TD*%
%TA.AperFunction,Conductor*%
%TO.N,+30V*%
G36*
X52174284Y-102519685D02*
G01*
X52194926Y-102536319D01*
X52254087Y-102595480D01*
X52345413Y-102648207D01*
X52447273Y-102675500D01*
X52447275Y-102675500D01*
X52552725Y-102675500D01*
X52552727Y-102675500D01*
X52654587Y-102648207D01*
X52745913Y-102595480D01*
X52805074Y-102536319D01*
X52866397Y-102502834D01*
X52892755Y-102500000D01*
X53857245Y-102500000D01*
X53924284Y-102519685D01*
X53944926Y-102536319D01*
X53954087Y-102545480D01*
X54045413Y-102598207D01*
X54147273Y-102625500D01*
X54147275Y-102625500D01*
X54252725Y-102625500D01*
X54252727Y-102625500D01*
X54354587Y-102598207D01*
X54445913Y-102545480D01*
X54455074Y-102536319D01*
X54516397Y-102502834D01*
X54542755Y-102500000D01*
X55544745Y-102500000D01*
X55611784Y-102519685D01*
X55632426Y-102536319D01*
X55641587Y-102545480D01*
X55732913Y-102598207D01*
X55834773Y-102625500D01*
X55834775Y-102625500D01*
X55940225Y-102625500D01*
X55940227Y-102625500D01*
X56042087Y-102598207D01*
X56133413Y-102545480D01*
X56142574Y-102536319D01*
X56203897Y-102502834D01*
X56230255Y-102500000D01*
X59628691Y-102500000D01*
X59690690Y-102516612D01*
X59745413Y-102548207D01*
X59847273Y-102575500D01*
X59847275Y-102575500D01*
X59952725Y-102575500D01*
X59952727Y-102575500D01*
X60054587Y-102548207D01*
X60109309Y-102516612D01*
X60171309Y-102500000D01*
X60528691Y-102500000D01*
X60590690Y-102516612D01*
X60645413Y-102548207D01*
X60747273Y-102575500D01*
X60747275Y-102575500D01*
X60852725Y-102575500D01*
X60852727Y-102575500D01*
X60954587Y-102548207D01*
X61009309Y-102516612D01*
X61071309Y-102500000D01*
X67884245Y-102500000D01*
X67951284Y-102519685D01*
X67997039Y-102572489D01*
X68006983Y-102641647D01*
X67977958Y-102705203D01*
X67971926Y-102711681D01*
X67929521Y-102754085D01*
X67876794Y-102845410D01*
X67876793Y-102845413D01*
X67849500Y-102947273D01*
X67849500Y-103052727D01*
X67876793Y-103154587D01*
X67929520Y-103245913D01*
X68004087Y-103320480D01*
X68095413Y-103373207D01*
X68197273Y-103400500D01*
X68197275Y-103400500D01*
X68302725Y-103400500D01*
X68302727Y-103400500D01*
X68404587Y-103373207D01*
X68495913Y-103320480D01*
X68570480Y-103245913D01*
X68623207Y-103154587D01*
X68650500Y-103052727D01*
X68650500Y-102947273D01*
X68623207Y-102845413D01*
X68570480Y-102754087D01*
X68528074Y-102711681D01*
X68494589Y-102650358D01*
X68499573Y-102580666D01*
X68541445Y-102524733D01*
X68606909Y-102500316D01*
X68615755Y-102500000D01*
X84876000Y-102500000D01*
X84943039Y-102519685D01*
X84988794Y-102572489D01*
X85000000Y-102624000D01*
X85000000Y-107126000D01*
X84980315Y-107193039D01*
X84927511Y-107238794D01*
X84876000Y-107250000D01*
X82500000Y-107250000D01*
X82500000Y-113909245D01*
X82480315Y-113976284D01*
X82427511Y-114022039D01*
X82358353Y-114031983D01*
X82294797Y-114002958D01*
X82288319Y-113996926D01*
X82220914Y-113929521D01*
X82220913Y-113929520D01*
X82129587Y-113876793D01*
X82027727Y-113849500D01*
X81922273Y-113849500D01*
X81820413Y-113876793D01*
X81820410Y-113876794D01*
X81729085Y-113929521D01*
X81654521Y-114004085D01*
X81601794Y-114095410D01*
X81601793Y-114095413D01*
X81574500Y-114197273D01*
X81574500Y-114302727D01*
X81601793Y-114404587D01*
X81654520Y-114495913D01*
X81729087Y-114570480D01*
X81820413Y-114623207D01*
X81922273Y-114650500D01*
X81922275Y-114650500D01*
X82027725Y-114650500D01*
X82027727Y-114650500D01*
X82129587Y-114623207D01*
X82220913Y-114570480D01*
X82288319Y-114503074D01*
X82349642Y-114469589D01*
X82419334Y-114474573D01*
X82475267Y-114516445D01*
X82499684Y-114581909D01*
X82500000Y-114590755D01*
X82500000Y-122161991D01*
X82483388Y-122223989D01*
X82476795Y-122235408D01*
X82476793Y-122235413D01*
X82449500Y-122337273D01*
X82449500Y-122442727D01*
X82463447Y-122494779D01*
X82476794Y-122544589D01*
X82476794Y-122544590D01*
X82483385Y-122556005D01*
X82500000Y-122618008D01*
X82500000Y-136876000D01*
X82480315Y-136943039D01*
X82427511Y-136988794D01*
X82376000Y-137000000D01*
X73374000Y-137000000D01*
X73306961Y-136980315D01*
X73261206Y-136927511D01*
X73250000Y-136876000D01*
X73250000Y-134589269D01*
X74950000Y-134589269D01*
X74950000Y-135132323D01*
X75816988Y-135132323D01*
X75784075Y-135189330D01*
X75750000Y-135316497D01*
X75750000Y-135448149D01*
X75784075Y-135575316D01*
X75816988Y-135632323D01*
X74950000Y-135632323D01*
X74950000Y-136175376D01*
X74960613Y-136263766D01*
X75016079Y-136404418D01*
X75107435Y-136524887D01*
X75227904Y-136616243D01*
X75368556Y-136671709D01*
X75456946Y-136682323D01*
X76000000Y-136682323D01*
X76000000Y-135815335D01*
X76057007Y-135848248D01*
X76184174Y-135882323D01*
X76315826Y-135882323D01*
X76442993Y-135848248D01*
X76500000Y-135815335D01*
X76500000Y-136682323D01*
X77043054Y-136682323D01*
X77131443Y-136671709D01*
X77272095Y-136616243D01*
X77392564Y-136524887D01*
X77483920Y-136404418D01*
X77539386Y-136263766D01*
X77550000Y-136175376D01*
X77550000Y-135632323D01*
X76683012Y-135632323D01*
X76715925Y-135575316D01*
X76750000Y-135448149D01*
X76750000Y-135316497D01*
X76715925Y-135189330D01*
X76683012Y-135132323D01*
X77550000Y-135132323D01*
X77550000Y-134589269D01*
X77539386Y-134500879D01*
X77483920Y-134360227D01*
X77392564Y-134239758D01*
X77272095Y-134148402D01*
X77131443Y-134092936D01*
X77043054Y-134082323D01*
X76500000Y-134082323D01*
X76500000Y-134949311D01*
X76442993Y-134916398D01*
X76315826Y-134882323D01*
X76184174Y-134882323D01*
X76057007Y-134916398D01*
X76000000Y-134949311D01*
X76000000Y-134082323D01*
X75456946Y-134082323D01*
X75368556Y-134092936D01*
X75227904Y-134148402D01*
X75107435Y-134239758D01*
X75016079Y-134360227D01*
X74960613Y-134500879D01*
X74950000Y-134589269D01*
X73250000Y-134589269D01*
X73250000Y-132874000D01*
X73269685Y-132806961D01*
X73322489Y-132761206D01*
X73374000Y-132750000D01*
X76000000Y-132750000D01*
X76000000Y-130847273D01*
X77839500Y-130847273D01*
X77839500Y-130952727D01*
X77866793Y-131054587D01*
X77919520Y-131145913D01*
X77994087Y-131220480D01*
X78085413Y-131273207D01*
X78187273Y-131300500D01*
X78187275Y-131300500D01*
X78292725Y-131300500D01*
X78292727Y-131300500D01*
X78394587Y-131273207D01*
X78485913Y-131220480D01*
X78560480Y-131145913D01*
X78613207Y-131054587D01*
X78640500Y-130952727D01*
X78640500Y-130847273D01*
X78613207Y-130745413D01*
X78560480Y-130654087D01*
X78485913Y-130579520D01*
X78394587Y-130526793D01*
X78292727Y-130499500D01*
X78187273Y-130499500D01*
X78085413Y-130526793D01*
X78085410Y-130526794D01*
X77994085Y-130579521D01*
X77919521Y-130654085D01*
X77866794Y-130745410D01*
X77866793Y-130745413D01*
X77839500Y-130847273D01*
X76000000Y-130847273D01*
X76000000Y-126447273D01*
X77099500Y-126447273D01*
X77099500Y-126552727D01*
X77126793Y-126654587D01*
X77179520Y-126745913D01*
X77254087Y-126820480D01*
X77345413Y-126873207D01*
X77447273Y-126900500D01*
X77447275Y-126900500D01*
X77552725Y-126900500D01*
X77552727Y-126900500D01*
X77654587Y-126873207D01*
X77745913Y-126820480D01*
X77820480Y-126745913D01*
X77873207Y-126654587D01*
X77900500Y-126552727D01*
X77900500Y-126447273D01*
X77873207Y-126345413D01*
X77820480Y-126254087D01*
X77745913Y-126179520D01*
X77654587Y-126126793D01*
X77552727Y-126099500D01*
X77447273Y-126099500D01*
X77345413Y-126126793D01*
X77345410Y-126126794D01*
X77254085Y-126179521D01*
X77179521Y-126254085D01*
X77126794Y-126345410D01*
X77126793Y-126345413D01*
X77099500Y-126447273D01*
X76000000Y-126447273D01*
X76000000Y-124244773D01*
X76897000Y-124244773D01*
X76897000Y-124350227D01*
X76924293Y-124452087D01*
X76977020Y-124543413D01*
X77051587Y-124617980D01*
X77142913Y-124670707D01*
X77244773Y-124698000D01*
X77244775Y-124698000D01*
X77350225Y-124698000D01*
X77350227Y-124698000D01*
X77452087Y-124670707D01*
X77543413Y-124617980D01*
X77617980Y-124543413D01*
X77670707Y-124452087D01*
X77698000Y-124350227D01*
X77698000Y-124244773D01*
X77670707Y-124142913D01*
X77617980Y-124051587D01*
X77543413Y-123977020D01*
X77452087Y-123924293D01*
X77350227Y-123897000D01*
X77244773Y-123897000D01*
X77142913Y-123924293D01*
X77142910Y-123924294D01*
X77051585Y-123977021D01*
X76977021Y-124051585D01*
X76924294Y-124142910D01*
X76924293Y-124142913D01*
X76897000Y-124244773D01*
X76000000Y-124244773D01*
X76000000Y-121069773D01*
X76722000Y-121069773D01*
X76722000Y-121175227D01*
X76749293Y-121277087D01*
X76802020Y-121368413D01*
X76876587Y-121442980D01*
X76967913Y-121495707D01*
X77069773Y-121523000D01*
X77069775Y-121523000D01*
X77175225Y-121523000D01*
X77175227Y-121523000D01*
X77277087Y-121495707D01*
X77368413Y-121442980D01*
X77442980Y-121368413D01*
X77495707Y-121277087D01*
X77523000Y-121175227D01*
X77523000Y-121069773D01*
X77495707Y-120967913D01*
X77442980Y-120876587D01*
X77368413Y-120802020D01*
X77277087Y-120749293D01*
X77175227Y-120722000D01*
X77069773Y-120722000D01*
X76967913Y-120749293D01*
X76967910Y-120749294D01*
X76876585Y-120802021D01*
X76802021Y-120876585D01*
X76749294Y-120967910D01*
X76749293Y-120967913D01*
X76722000Y-121069773D01*
X76000000Y-121069773D01*
X76000000Y-116500000D01*
X73874000Y-116500000D01*
X73806961Y-116480315D01*
X73761206Y-116427511D01*
X73750000Y-116376000D01*
X73750000Y-114074623D01*
X74450000Y-114074623D01*
X74450000Y-114617677D01*
X75316988Y-114617677D01*
X75284075Y-114674684D01*
X75250000Y-114801851D01*
X75250000Y-114933503D01*
X75284075Y-115060670D01*
X75316988Y-115117677D01*
X74450000Y-115117677D01*
X74450000Y-115660730D01*
X74460613Y-115749120D01*
X74516079Y-115889772D01*
X74607435Y-116010241D01*
X74727904Y-116101597D01*
X74868556Y-116157063D01*
X74956946Y-116167677D01*
X75500000Y-116167677D01*
X75500000Y-115300689D01*
X75557007Y-115333602D01*
X75684174Y-115367677D01*
X75815826Y-115367677D01*
X75942993Y-115333602D01*
X76000000Y-115300689D01*
X76000000Y-116167677D01*
X76543054Y-116167677D01*
X76631443Y-116157063D01*
X76772095Y-116101597D01*
X76892564Y-116010241D01*
X76983920Y-115889772D01*
X77039386Y-115749120D01*
X77050000Y-115660730D01*
X77050000Y-115117677D01*
X76183012Y-115117677D01*
X76215925Y-115060670D01*
X76250000Y-114933503D01*
X76250000Y-114801851D01*
X76215925Y-114674684D01*
X76183012Y-114617677D01*
X77050000Y-114617677D01*
X77050000Y-114074623D01*
X77039386Y-113986233D01*
X76983920Y-113845581D01*
X76892564Y-113725112D01*
X76772095Y-113633756D01*
X76631443Y-113578290D01*
X76543054Y-113567677D01*
X76000000Y-113567677D01*
X76000000Y-114434665D01*
X75942993Y-114401752D01*
X75815826Y-114367677D01*
X75684174Y-114367677D01*
X75557007Y-114401752D01*
X75500000Y-114434665D01*
X75500000Y-113567677D01*
X74956946Y-113567677D01*
X74868556Y-113578290D01*
X74727904Y-113633756D01*
X74607435Y-113725112D01*
X74516079Y-113845581D01*
X74460613Y-113986233D01*
X74450000Y-114074623D01*
X73750000Y-114074623D01*
X73750000Y-109773190D01*
X74549500Y-109773190D01*
X74549500Y-109962163D01*
X74579059Y-110148795D01*
X74637454Y-110328513D01*
X74723240Y-110496876D01*
X74834310Y-110649750D01*
X74967927Y-110783367D01*
X75120801Y-110894437D01*
X75200347Y-110934967D01*
X75289163Y-110980222D01*
X75289165Y-110980222D01*
X75289168Y-110980224D01*
X75385497Y-111011523D01*
X75468881Y-111038617D01*
X75655514Y-111068177D01*
X75655519Y-111068177D01*
X75844486Y-111068177D01*
X76031118Y-111038617D01*
X76045678Y-111033886D01*
X76210832Y-110980224D01*
X76379199Y-110894437D01*
X76532073Y-110783367D01*
X76665690Y-110649750D01*
X76776760Y-110496876D01*
X76862547Y-110328509D01*
X76920940Y-110148795D01*
X76950500Y-109962163D01*
X76950500Y-109773190D01*
X76920940Y-109586558D01*
X76917986Y-109577468D01*
X76908175Y-109547273D01*
X81149500Y-109547273D01*
X81149500Y-109652727D01*
X81176793Y-109754587D01*
X81229520Y-109845913D01*
X81304087Y-109920480D01*
X81395413Y-109973207D01*
X81497273Y-110000500D01*
X81497275Y-110000500D01*
X81602725Y-110000500D01*
X81602727Y-110000500D01*
X81704587Y-109973207D01*
X81795913Y-109920480D01*
X81870480Y-109845913D01*
X81923207Y-109754587D01*
X81950500Y-109652727D01*
X81950500Y-109547273D01*
X81923207Y-109445413D01*
X81870480Y-109354087D01*
X81795913Y-109279520D01*
X81704587Y-109226793D01*
X81602727Y-109199500D01*
X81497273Y-109199500D01*
X81395413Y-109226793D01*
X81395410Y-109226794D01*
X81304085Y-109279521D01*
X81229521Y-109354085D01*
X81176794Y-109445410D01*
X81176793Y-109445413D01*
X81149500Y-109547273D01*
X76908175Y-109547273D01*
X76862547Y-109406845D01*
X76862545Y-109406842D01*
X76862545Y-109406840D01*
X76776759Y-109238477D01*
X76768270Y-109226793D01*
X76665690Y-109085604D01*
X76532073Y-108951987D01*
X76379199Y-108840917D01*
X76210836Y-108755131D01*
X76031118Y-108696736D01*
X75844486Y-108667177D01*
X75844481Y-108667177D01*
X75655519Y-108667177D01*
X75655514Y-108667177D01*
X75468881Y-108696736D01*
X75289163Y-108755131D01*
X75120800Y-108840917D01*
X75079515Y-108870913D01*
X74967927Y-108951987D01*
X74967925Y-108951989D01*
X74967924Y-108951989D01*
X74834312Y-109085601D01*
X74834312Y-109085602D01*
X74834310Y-109085604D01*
X74827135Y-109095480D01*
X74723240Y-109238477D01*
X74637454Y-109406840D01*
X74579059Y-109586558D01*
X74549500Y-109773190D01*
X73750000Y-109773190D01*
X73750000Y-107250000D01*
X61711136Y-107250000D01*
X61644097Y-107230315D01*
X61598342Y-107177511D01*
X61588198Y-107142191D01*
X61588001Y-107140699D01*
X61588000Y-107140695D01*
X61588000Y-107140691D01*
X61557299Y-107026114D01*
X61497989Y-106923387D01*
X61414113Y-106839511D01*
X61414110Y-106839509D01*
X61414106Y-106839506D01*
X61351774Y-106803518D01*
X61303559Y-106752951D01*
X61290337Y-106684343D01*
X61316305Y-106619479D01*
X61351770Y-106588748D01*
X61383413Y-106570480D01*
X61457980Y-106495913D01*
X61510707Y-106404587D01*
X61538000Y-106302727D01*
X61538000Y-106197273D01*
X61510707Y-106095413D01*
X61457980Y-106004087D01*
X61383413Y-105929520D01*
X61292087Y-105876793D01*
X61190227Y-105849500D01*
X61084773Y-105849500D01*
X60982913Y-105876793D01*
X60982910Y-105876794D01*
X60891585Y-105929521D01*
X60817021Y-106004085D01*
X60764294Y-106095410D01*
X60764293Y-106095413D01*
X60737000Y-106197273D01*
X60737000Y-106302727D01*
X60764293Y-106404587D01*
X60769439Y-106413500D01*
X60785912Y-106481400D01*
X60763060Y-106547427D01*
X60708139Y-106590617D01*
X60662052Y-106599500D01*
X55740538Y-106599500D01*
X55678537Y-106582886D01*
X55673890Y-106580203D01*
X55673887Y-106580201D01*
X55637607Y-106570480D01*
X55559309Y-106549500D01*
X55440691Y-106549500D01*
X55326114Y-106580201D01*
X55326112Y-106580201D01*
X55326112Y-106580202D01*
X55223387Y-106639511D01*
X55223384Y-106639513D01*
X55139513Y-106723384D01*
X55139511Y-106723387D01*
X55080201Y-106826114D01*
X55049500Y-106940691D01*
X55049500Y-107059309D01*
X55058770Y-107093908D01*
X55057108Y-107163756D01*
X55017946Y-107221619D01*
X54953717Y-107249123D01*
X54938996Y-107250000D01*
X50874000Y-107250000D01*
X50806961Y-107230315D01*
X50761206Y-107177511D01*
X50750000Y-107126000D01*
X50750000Y-102624000D01*
X50769685Y-102556961D01*
X50822489Y-102511206D01*
X50874000Y-102500000D01*
X52107245Y-102500000D01*
X52174284Y-102519685D01*
G37*
%TD.AperFunction*%
%TD*%
%TA.AperFunction,Conductor*%
%TO.N,+3V3*%
G36*
X77280850Y-73945185D02*
G01*
X77301492Y-73961819D01*
X77463681Y-74124008D01*
X77497166Y-74185331D01*
X77500000Y-74211689D01*
X77500000Y-76000000D01*
X78245407Y-76000000D01*
X78247273Y-76000500D01*
X78352727Y-76000500D01*
X78354593Y-76000000D01*
X83758119Y-76000000D01*
X83825158Y-76019685D01*
X83865505Y-76061999D01*
X83899520Y-76120913D01*
X83974087Y-76195480D01*
X84065413Y-76248207D01*
X84167273Y-76275500D01*
X84167275Y-76275500D01*
X84272725Y-76275500D01*
X84272727Y-76275500D01*
X84374587Y-76248207D01*
X84465913Y-76195480D01*
X84540480Y-76120913D01*
X84567561Y-76074008D01*
X84574495Y-76061999D01*
X84625062Y-76013784D01*
X84681881Y-76000000D01*
X85088311Y-76000000D01*
X85117751Y-76008644D01*
X85147738Y-76015168D01*
X85152753Y-76018922D01*
X85155350Y-76019685D01*
X85175992Y-76036319D01*
X85213681Y-76074008D01*
X85247166Y-76135331D01*
X85250000Y-76161689D01*
X85250000Y-78750000D01*
X92250000Y-78750000D01*
X92250000Y-76124000D01*
X92269685Y-76056961D01*
X92322489Y-76011206D01*
X92374000Y-76000000D01*
X94640824Y-76000000D01*
X94707863Y-76019685D01*
X94728505Y-76036319D01*
X94792686Y-76100500D01*
X94906814Y-76166392D01*
X95034107Y-76200500D01*
X95034108Y-76200500D01*
X95034109Y-76200500D01*
X96376000Y-76200500D01*
X96443039Y-76220185D01*
X96488794Y-76272989D01*
X96500000Y-76324500D01*
X96500000Y-76990223D01*
X96480315Y-77057262D01*
X96427511Y-77103017D01*
X96408095Y-77109997D01*
X96395420Y-77113393D01*
X96345411Y-77126793D01*
X96345410Y-77126794D01*
X96254085Y-77179521D01*
X96179521Y-77254085D01*
X96126794Y-77345410D01*
X96126793Y-77345413D01*
X96099500Y-77447273D01*
X96099500Y-77552727D01*
X96126793Y-77654587D01*
X96145596Y-77687156D01*
X96162069Y-77755053D01*
X96139217Y-77821080D01*
X96084296Y-77864271D01*
X96014743Y-77870913D01*
X95976214Y-77856544D01*
X95973891Y-77855203D01*
X95973890Y-77855202D01*
X95964494Y-77852684D01*
X95859309Y-77824500D01*
X95740691Y-77824500D01*
X95626114Y-77855201D01*
X95626112Y-77855201D01*
X95626112Y-77855202D01*
X95523387Y-77914511D01*
X95523384Y-77914513D01*
X95439513Y-77998384D01*
X95439511Y-77998387D01*
X95383493Y-78095413D01*
X95380201Y-78101114D01*
X95349500Y-78215691D01*
X95349500Y-78334309D01*
X95380201Y-78448886D01*
X95439511Y-78551613D01*
X95523387Y-78635489D01*
X95626114Y-78694799D01*
X95740691Y-78725500D01*
X95740694Y-78725500D01*
X95859306Y-78725500D01*
X95859309Y-78725500D01*
X95973886Y-78694799D01*
X96076613Y-78635489D01*
X96160489Y-78551613D01*
X96219799Y-78448886D01*
X96250500Y-78334309D01*
X96250500Y-78215691D01*
X96219799Y-78101114D01*
X96190021Y-78049538D01*
X96173549Y-77981640D01*
X96196401Y-77915613D01*
X96251322Y-77872422D01*
X96320875Y-77865780D01*
X96344867Y-77872980D01*
X96345408Y-77873204D01*
X96345413Y-77873207D01*
X96408093Y-77890002D01*
X96467753Y-77926365D01*
X96498283Y-77989212D01*
X96500000Y-78009776D01*
X96500000Y-84075500D01*
X96480315Y-84142539D01*
X96427511Y-84188294D01*
X96376000Y-84199500D01*
X94374000Y-84199500D01*
X94306961Y-84179815D01*
X94261206Y-84127011D01*
X94250000Y-84075500D01*
X94250000Y-81000000D01*
X83874000Y-81000000D01*
X83806961Y-80980315D01*
X83761206Y-80927511D01*
X83750000Y-80876000D01*
X83750000Y-77500000D01*
X74624000Y-77500000D01*
X74556961Y-77480315D01*
X74511206Y-77427511D01*
X74500000Y-77376000D01*
X74500000Y-74049500D01*
X74519685Y-73982461D01*
X74572489Y-73936706D01*
X74624000Y-73925500D01*
X77213811Y-73925500D01*
X77280850Y-73945185D01*
G37*
%TD.AperFunction*%
%TD*%
M02*
