%TF.GenerationSoftware,KiCad,Pcbnew,9.0.5*%
%TF.CreationDate,2025-11-04T12:08:14-07:00*%
%TF.ProjectId,OpenAquatix-Hardware,4f70656e-4171-4756-9174-69782d486172,rev?*%
%TF.SameCoordinates,Original*%
%TF.FileFunction,Legend,Top*%
%TF.FilePolarity,Positive*%
%FSLAX46Y46*%
G04 Gerber Fmt 4.6, Leading zero omitted, Abs format (unit mm)*
G04 Created by KiCad (PCBNEW 9.0.5) date 2025-11-04 12:08:14*
%MOMM*%
%LPD*%
G01*
G04 APERTURE LIST*
G04 Aperture macros list*
%AMRoundRect*
0 Rectangle with rounded corners*
0 $1 Rounding radius*
0 $2 $3 $4 $5 $6 $7 $8 $9 X,Y pos of 4 corners*
0 Add a 4 corners polygon primitive as box body*
4,1,4,$2,$3,$4,$5,$6,$7,$8,$9,$2,$3,0*
0 Add four circle primitives for the rounded corners*
1,1,$1+$1,$2,$3*
1,1,$1+$1,$4,$5*
1,1,$1+$1,$6,$7*
1,1,$1+$1,$8,$9*
0 Add four rect primitives between the rounded corners*
20,1,$1+$1,$2,$3,$4,$5,0*
20,1,$1+$1,$4,$5,$6,$7,0*
20,1,$1+$1,$6,$7,$8,$9,0*
20,1,$1+$1,$8,$9,$2,$3,0*%
%AMHorizOval*
0 Thick line with rounded ends*
0 $1 width*
0 $2 $3 position (X,Y) of the first rounded end (center of the circle)*
0 $4 $5 position (X,Y) of the second rounded end (center of the circle)*
0 Add line between two ends*
20,1,$1,$2,$3,$4,$5,0*
0 Add two circle primitives to create the rounded ends*
1,1,$1,$2,$3*
1,1,$1,$4,$5*%
%AMFreePoly0*
4,1,23,0.000000,0.745722,0.065263,0.745722,0.191342,0.711940,0.304381,0.646677,0.396677,0.554381,0.461940,0.441342,0.495722,0.315263,0.495722,0.250000,0.500000,0.250000,0.500000,-0.250000,0.495722,-0.250000,0.495722,-0.315263,0.461940,-0.441342,0.396677,-0.554381,0.304381,-0.646677,0.191342,-0.711940,0.065263,-0.745722,0.000000,-0.745722,0.000000,-0.750000,-0.500000,-0.750000,
-0.500000,0.750000,0.000000,0.750000,0.000000,0.745722,0.000000,0.745722,$1*%
%AMFreePoly1*
4,1,23,0.500000,-0.750000,0.000000,-0.750000,0.000000,-0.745722,-0.065263,-0.745722,-0.191342,-0.711940,-0.304381,-0.646677,-0.396677,-0.554381,-0.461940,-0.441342,-0.495722,-0.315263,-0.495722,-0.250000,-0.500000,-0.250000,-0.500000,0.250000,-0.495722,0.250000,-0.495722,0.315263,-0.461940,0.441342,-0.396677,0.554381,-0.304381,0.646677,-0.191342,0.711940,-0.065263,0.745722,0.000000,0.745722,
0.000000,0.750000,0.500000,0.750000,0.500000,-0.750000,0.500000,-0.750000,$1*%
%AMFreePoly2*
4,1,17,1.371000,0.720000,0.950000,0.720000,0.950000,0.580000,1.370000,0.580000,1.370000,0.080000,0.950000,0.080000,0.950000,-0.080000,1.370000,-0.080000,1.370000,-0.580000,0.950000,-0.580000,0.950000,-0.720000,1.370000,-0.720000,1.370000,-1.225000,-0.950000,-1.225000,-0.950000,1.225000,1.371000,1.225000,1.371000,0.720000,1.371000,0.720000,$1*%
G04 Aperture macros list end*
%ADD10C,0.140000*%
%ADD11C,0.150000*%
%ADD12C,0.100000*%
%ADD13C,0.120000*%
%ADD14C,0.152400*%
%ADD15C,0.508000*%
%ADD16C,0.160000*%
%ADD17C,0.101600*%
%ADD18R,1.000000X1.050000*%
%ADD19RoundRect,0.075000X0.075000X0.200000X-0.075000X0.200000X-0.075000X-0.200000X0.075000X-0.200000X0*%
%ADD20C,1.900000*%
%ADD21FreePoly0,90.000000*%
%ADD22FreePoly1,90.000000*%
%ADD23RoundRect,0.200000X-0.275000X0.200000X-0.275000X-0.200000X0.275000X-0.200000X0.275000X0.200000X0*%
%ADD24RoundRect,0.150000X0.150000X-0.512500X0.150000X0.512500X-0.150000X0.512500X-0.150000X-0.512500X0*%
%ADD25RoundRect,0.250000X0.475000X-0.250000X0.475000X0.250000X-0.475000X0.250000X-0.475000X-0.250000X0*%
%ADD26RoundRect,0.150000X-0.512500X-0.150000X0.512500X-0.150000X0.512500X0.150000X-0.512500X0.150000X0*%
%ADD27RoundRect,0.250000X0.250000X0.475000X-0.250000X0.475000X-0.250000X-0.475000X0.250000X-0.475000X0*%
%ADD28RoundRect,0.225000X-0.225000X-0.250000X0.225000X-0.250000X0.225000X0.250000X-0.225000X0.250000X0*%
%ADD29RoundRect,0.250000X-0.475000X0.250000X-0.475000X-0.250000X0.475000X-0.250000X0.475000X0.250000X0*%
%ADD30RoundRect,0.225000X0.250000X-0.225000X0.250000X0.225000X-0.250000X0.225000X-0.250000X-0.225000X0*%
%ADD31R,1.000000X1.600000*%
%ADD32RoundRect,0.093750X0.093750X0.106250X-0.093750X0.106250X-0.093750X-0.106250X0.093750X-0.106250X0*%
%ADD33RoundRect,0.225000X-0.250000X0.225000X-0.250000X-0.225000X0.250000X-0.225000X0.250000X0.225000X0*%
%ADD34RoundRect,0.200000X-0.200000X-0.275000X0.200000X-0.275000X0.200000X0.275000X-0.200000X0.275000X0*%
%ADD35C,1.000000*%
%ADD36R,1.000000X1.000000*%
%ADD37RoundRect,0.200000X0.275000X-0.200000X0.275000X0.200000X-0.275000X0.200000X-0.275000X-0.200000X0*%
%ADD38RoundRect,0.150000X-0.587500X-0.150000X0.587500X-0.150000X0.587500X0.150000X-0.587500X0.150000X0*%
%ADD39RoundRect,0.225000X0.225000X0.250000X-0.225000X0.250000X-0.225000X-0.250000X0.225000X-0.250000X0*%
%ADD40RoundRect,0.249999X-0.525001X-2.550001X0.525001X-2.550001X0.525001X2.550001X-0.525001X2.550001X0*%
%ADD41RoundRect,0.250000X-0.325000X-1.100000X0.325000X-1.100000X0.325000X1.100000X-0.325000X1.100000X0*%
%ADD42RoundRect,0.200000X0.200000X0.275000X-0.200000X0.275000X-0.200000X-0.275000X0.200000X-0.275000X0*%
%ADD43RoundRect,0.250000X-1.100000X0.325000X-1.100000X-0.325000X1.100000X-0.325000X1.100000X0.325000X0*%
%ADD44RoundRect,0.150000X0.587500X0.150000X-0.587500X0.150000X-0.587500X-0.150000X0.587500X-0.150000X0*%
%ADD45RoundRect,0.150000X0.150000X-0.587500X0.150000X0.587500X-0.150000X0.587500X-0.150000X-0.587500X0*%
%ADD46RoundRect,0.250000X-0.450000X-0.350000X0.450000X-0.350000X0.450000X0.350000X-0.450000X0.350000X0*%
%ADD47RoundRect,0.087500X-0.125000X-0.087500X0.125000X-0.087500X0.125000X0.087500X-0.125000X0.087500X0*%
%ADD48RoundRect,0.087500X-0.087500X-0.125000X0.087500X-0.125000X0.087500X0.125000X-0.087500X0.125000X0*%
%ADD49RoundRect,0.250000X1.100000X-0.325000X1.100000X0.325000X-1.100000X0.325000X-1.100000X-0.325000X0*%
%ADD50RoundRect,0.200000X-0.250000X-0.200000X0.250000X-0.200000X0.250000X0.200000X-0.250000X0.200000X0*%
%ADD51RoundRect,0.250000X-0.450000X0.262500X-0.450000X-0.262500X0.450000X-0.262500X0.450000X0.262500X0*%
%ADD52R,0.762000X1.219200*%
%ADD53RoundRect,0.100000X-0.102692X0.574525X-0.290631X0.506121X0.102692X-0.574525X0.290631X-0.506121X0*%
%ADD54HorizOval,0.900000X0.119707X-0.328892X-0.119707X0.328892X0*%
%ADD55RoundRect,0.250000X0.362922X0.610973X-0.670740X0.234751X-0.362922X-0.610973X0.670740X-0.234751X0*%
%ADD56RoundRect,0.250000X0.418371X0.897199X-0.897199X0.418371X-0.418371X-0.897199X0.897199X-0.418371X0*%
%ADD57RoundRect,0.218750X0.218750X0.256250X-0.218750X0.256250X-0.218750X-0.256250X0.218750X-0.256250X0*%
%ADD58R,3.150000X12.500000*%
%ADD59RoundRect,0.125000X-0.537500X-0.125000X0.537500X-0.125000X0.537500X0.125000X-0.537500X0.125000X0*%
%ADD60FreePoly1,180.000000*%
%ADD61FreePoly0,180.000000*%
%ADD62R,1.500000X0.550000*%
%ADD63RoundRect,0.100000X0.290631X0.506121X0.102692X0.574525X-0.290631X-0.506121X-0.102692X-0.574525X0*%
%ADD64HorizOval,0.900000X-0.119707X-0.328892X0.119707X0.328892X0*%
%ADD65RoundRect,0.250000X0.670740X0.234751X-0.362922X0.610973X-0.670740X-0.234751X0.362922X-0.610973X0*%
%ADD66RoundRect,0.250000X0.897199X0.418371X-0.418371X0.897199X-0.897199X-0.418371X0.418371X-0.897199X0*%
%ADD67RoundRect,0.100000X0.100000X-0.225000X0.100000X0.225000X-0.100000X0.225000X-0.100000X-0.225000X0*%
%ADD68R,2.900000X5.400000*%
%ADD69RoundRect,0.090000X-0.660000X-0.360000X0.660000X-0.360000X0.660000X0.360000X-0.660000X0.360000X0*%
%ADD70R,4.310000X8.260000*%
%ADD71RoundRect,0.100000X-0.687500X-0.100000X0.687500X-0.100000X0.687500X0.100000X-0.687500X0.100000X0*%
%ADD72C,5.300000*%
%ADD73RoundRect,0.237500X0.262500X-0.237500X0.262500X0.237500X-0.262500X0.237500X-0.262500X-0.237500X0*%
%ADD74R,4.900000X3.200000*%
%ADD75RoundRect,0.250000X-0.750000X0.750000X-0.750000X-0.750000X0.750000X-0.750000X0.750000X0.750000X0*%
%ADD76C,2.000000*%
%ADD77RoundRect,0.250000X1.000000X-1.400000X1.000000X1.400000X-1.000000X1.400000X-1.000000X-1.400000X0*%
%ADD78C,1.500000*%
%ADD79RoundRect,0.250000X-0.262500X-0.450000X0.262500X-0.450000X0.262500X0.450000X-0.262500X0.450000X0*%
%ADD80RoundRect,0.250000X0.325000X1.100000X-0.325000X1.100000X-0.325000X-1.100000X0.325000X-1.100000X0*%
%ADD81RoundRect,0.162500X-0.650000X-0.162500X0.650000X-0.162500X0.650000X0.162500X-0.650000X0.162500X0*%
%ADD82C,1.905000*%
%ADD83RoundRect,0.093750X-0.106250X0.093750X-0.106250X-0.093750X0.106250X-0.093750X0.106250X0.093750X0*%
%ADD84R,1.600000X1.000000*%
%ADD85R,1.193800X0.787400*%
%ADD86RoundRect,0.250000X0.650000X-0.325000X0.650000X0.325000X-0.650000X0.325000X-0.650000X-0.325000X0*%
%ADD87RoundRect,0.250000X2.450000X-0.650000X2.450000X0.650000X-2.450000X0.650000X-2.450000X-0.650000X0*%
%ADD88RoundRect,0.249999X-2.550001X0.525001X-2.550001X-0.525001X2.550001X-0.525001X2.550001X0.525001X0*%
%ADD89R,12.500000X3.150000*%
%ADD90RoundRect,0.250000X0.750000X-0.750000X0.750000X0.750000X-0.750000X0.750000X-0.750000X-0.750000X0*%
%ADD91RoundRect,0.125000X-0.125000X-0.125000X0.125000X-0.125000X0.125000X0.125000X-0.125000X0.125000X0*%
%ADD92RoundRect,0.100000X0.225000X0.100000X-0.225000X0.100000X-0.225000X-0.100000X0.225000X-0.100000X0*%
%ADD93RoundRect,0.062500X0.350000X0.062500X-0.350000X0.062500X-0.350000X-0.062500X0.350000X-0.062500X0*%
%ADD94RoundRect,0.062500X0.062500X0.350000X-0.062500X0.350000X-0.062500X-0.350000X0.062500X-0.350000X0*%
%ADD95R,2.600000X2.600000*%
%ADD96RoundRect,0.075000X-0.725000X-0.075000X0.725000X-0.075000X0.725000X0.075000X-0.725000X0.075000X0*%
%ADD97RoundRect,0.075000X-0.075000X-0.725000X0.075000X-0.725000X0.075000X0.725000X-0.075000X0.725000X0*%
%ADD98RoundRect,0.125000X-0.125000X0.190000X-0.125000X-0.190000X0.125000X-0.190000X0.125000X0.190000X0*%
%ADD99FreePoly2,270.000000*%
%ADD100RoundRect,0.250000X0.312500X0.625000X-0.312500X0.625000X-0.312500X-0.625000X0.312500X-0.625000X0*%
%ADD101R,0.914400X3.708400*%
%ADD102R,5.562600X5.791200*%
%ADD103RoundRect,0.150000X-0.150000X0.512500X-0.150000X-0.512500X0.150000X-0.512500X0.150000X0.512500X0*%
%ADD104RoundRect,0.102000X-0.890000X-1.080000X0.890000X-1.080000X0.890000X1.080000X-0.890000X1.080000X0*%
%ADD105R,4.000000X2.300000*%
%ADD106R,2.600000X8.200000*%
%ADD107RoundRect,0.062500X0.062500X-0.187500X0.062500X0.187500X-0.062500X0.187500X-0.062500X-0.187500X0*%
%ADD108R,2.650000X1.000000*%
%ADD109RoundRect,0.075000X-0.075000X-0.200000X0.075000X-0.200000X0.075000X0.200000X-0.075000X0.200000X0*%
%ADD110RoundRect,0.087500X-0.087500X0.725000X-0.087500X-0.725000X0.087500X-0.725000X0.087500X0.725000X0*%
%ADD111R,0.250000X1.100000*%
%ADD112RoundRect,0.150000X0.512500X0.150000X-0.512500X0.150000X-0.512500X-0.150000X0.512500X-0.150000X0*%
%ADD113RoundRect,0.075000X-0.200000X0.075000X-0.200000X-0.075000X0.200000X-0.075000X0.200000X0.075000X0*%
%ADD114R,0.875000X0.250000*%
%ADD115R,0.250000X0.350000*%
%ADD116R,0.700000X0.250000*%
%ADD117R,0.250000X0.700000*%
%ADD118R,2.108200X2.108200*%
%ADD119C,2.108200*%
%ADD120RoundRect,0.250000X-0.400000X0.550000X-0.400000X-0.550000X0.400000X-0.550000X0.400000X0.550000X0*%
%ADD121RoundRect,0.250000X0.625000X-0.375000X0.625000X0.375000X-0.625000X0.375000X-0.625000X-0.375000X0*%
G04 APERTURE END LIST*
D10*
X70732105Y-59987053D02*
X71165438Y-59987053D01*
X71165438Y-59987053D02*
X70932105Y-60253720D01*
X70932105Y-60253720D02*
X71032105Y-60253720D01*
X71032105Y-60253720D02*
X71098771Y-60287053D01*
X71098771Y-60287053D02*
X71132105Y-60320386D01*
X71132105Y-60320386D02*
X71165438Y-60387053D01*
X71165438Y-60387053D02*
X71165438Y-60553720D01*
X71165438Y-60553720D02*
X71132105Y-60620386D01*
X71132105Y-60620386D02*
X71098771Y-60653720D01*
X71098771Y-60653720D02*
X71032105Y-60687053D01*
X71032105Y-60687053D02*
X70832105Y-60687053D01*
X70832105Y-60687053D02*
X70765438Y-60653720D01*
X70765438Y-60653720D02*
X70732105Y-60620386D01*
X71598772Y-59987053D02*
X71665438Y-59987053D01*
X71665438Y-59987053D02*
X71732105Y-60020386D01*
X71732105Y-60020386D02*
X71765438Y-60053720D01*
X71765438Y-60053720D02*
X71798772Y-60120386D01*
X71798772Y-60120386D02*
X71832105Y-60253720D01*
X71832105Y-60253720D02*
X71832105Y-60420386D01*
X71832105Y-60420386D02*
X71798772Y-60553720D01*
X71798772Y-60553720D02*
X71765438Y-60620386D01*
X71765438Y-60620386D02*
X71732105Y-60653720D01*
X71732105Y-60653720D02*
X71665438Y-60687053D01*
X71665438Y-60687053D02*
X71598772Y-60687053D01*
X71598772Y-60687053D02*
X71532105Y-60653720D01*
X71532105Y-60653720D02*
X71498772Y-60620386D01*
X71498772Y-60620386D02*
X71465438Y-60553720D01*
X71465438Y-60553720D02*
X71432105Y-60420386D01*
X71432105Y-60420386D02*
X71432105Y-60253720D01*
X71432105Y-60253720D02*
X71465438Y-60120386D01*
X71465438Y-60120386D02*
X71498772Y-60053720D01*
X71498772Y-60053720D02*
X71532105Y-60020386D01*
X71532105Y-60020386D02*
X71598772Y-59987053D01*
X72032105Y-59987053D02*
X72265439Y-60687053D01*
X72265439Y-60687053D02*
X72498772Y-59987053D01*
X67820386Y-63977895D02*
X67853720Y-63877895D01*
X67853720Y-63877895D02*
X67887053Y-63844561D01*
X67887053Y-63844561D02*
X67953720Y-63811228D01*
X67953720Y-63811228D02*
X68053720Y-63811228D01*
X68053720Y-63811228D02*
X68120386Y-63844561D01*
X68120386Y-63844561D02*
X68153720Y-63877895D01*
X68153720Y-63877895D02*
X68187053Y-63944561D01*
X68187053Y-63944561D02*
X68187053Y-64211228D01*
X68187053Y-64211228D02*
X67487053Y-64211228D01*
X67487053Y-64211228D02*
X67487053Y-63977895D01*
X67487053Y-63977895D02*
X67520386Y-63911228D01*
X67520386Y-63911228D02*
X67553720Y-63877895D01*
X67553720Y-63877895D02*
X67620386Y-63844561D01*
X67620386Y-63844561D02*
X67687053Y-63844561D01*
X67687053Y-63844561D02*
X67753720Y-63877895D01*
X67753720Y-63877895D02*
X67787053Y-63911228D01*
X67787053Y-63911228D02*
X67820386Y-63977895D01*
X67820386Y-63977895D02*
X67820386Y-64211228D01*
X67987053Y-63544561D02*
X67987053Y-63211228D01*
X68187053Y-63611228D02*
X67487053Y-63377895D01*
X67487053Y-63377895D02*
X68187053Y-63144561D01*
X67487053Y-63011228D02*
X67487053Y-62611228D01*
X68187053Y-62811228D02*
X67487053Y-62811228D01*
X67487053Y-62477895D02*
X67487053Y-62077895D01*
X68187053Y-62277895D02*
X67487053Y-62277895D01*
X71967053Y-65887895D02*
X71967053Y-65454561D01*
X71967053Y-65454561D02*
X72233720Y-65687895D01*
X72233720Y-65687895D02*
X72233720Y-65587895D01*
X72233720Y-65587895D02*
X72267053Y-65521228D01*
X72267053Y-65521228D02*
X72300386Y-65487895D01*
X72300386Y-65487895D02*
X72367053Y-65454561D01*
X72367053Y-65454561D02*
X72533720Y-65454561D01*
X72533720Y-65454561D02*
X72600386Y-65487895D01*
X72600386Y-65487895D02*
X72633720Y-65521228D01*
X72633720Y-65521228D02*
X72667053Y-65587895D01*
X72667053Y-65587895D02*
X72667053Y-65787895D01*
X72667053Y-65787895D02*
X72633720Y-65854561D01*
X72633720Y-65854561D02*
X72600386Y-65887895D01*
X71967053Y-65254561D02*
X72667053Y-65021228D01*
X72667053Y-65021228D02*
X71967053Y-64787894D01*
X71967053Y-64621228D02*
X71967053Y-64187894D01*
X71967053Y-64187894D02*
X72233720Y-64421228D01*
X72233720Y-64421228D02*
X72233720Y-64321228D01*
X72233720Y-64321228D02*
X72267053Y-64254561D01*
X72267053Y-64254561D02*
X72300386Y-64221228D01*
X72300386Y-64221228D02*
X72367053Y-64187894D01*
X72367053Y-64187894D02*
X72533720Y-64187894D01*
X72533720Y-64187894D02*
X72600386Y-64221228D01*
X72600386Y-64221228D02*
X72633720Y-64254561D01*
X72633720Y-64254561D02*
X72667053Y-64321228D01*
X72667053Y-64321228D02*
X72667053Y-64521228D01*
X72667053Y-64521228D02*
X72633720Y-64587894D01*
X72633720Y-64587894D02*
X72600386Y-64621228D01*
X72467053Y-63921227D02*
X72467053Y-63587894D01*
X72667053Y-63987894D02*
X71967053Y-63754561D01*
X71967053Y-63754561D02*
X72667053Y-63521227D01*
X67827053Y-67117895D02*
X67827053Y-66684561D01*
X67827053Y-66684561D02*
X68093720Y-66917895D01*
X68093720Y-66917895D02*
X68093720Y-66817895D01*
X68093720Y-66817895D02*
X68127053Y-66751228D01*
X68127053Y-66751228D02*
X68160386Y-66717895D01*
X68160386Y-66717895D02*
X68227053Y-66684561D01*
X68227053Y-66684561D02*
X68393720Y-66684561D01*
X68393720Y-66684561D02*
X68460386Y-66717895D01*
X68460386Y-66717895D02*
X68493720Y-66751228D01*
X68493720Y-66751228D02*
X68527053Y-66817895D01*
X68527053Y-66817895D02*
X68527053Y-67017895D01*
X68527053Y-67017895D02*
X68493720Y-67084561D01*
X68493720Y-67084561D02*
X68460386Y-67117895D01*
X67827053Y-66484561D02*
X68527053Y-66251228D01*
X68527053Y-66251228D02*
X67827053Y-66017894D01*
X67827053Y-65851228D02*
X67827053Y-65417894D01*
X67827053Y-65417894D02*
X68093720Y-65651228D01*
X68093720Y-65651228D02*
X68093720Y-65551228D01*
X68093720Y-65551228D02*
X68127053Y-65484561D01*
X68127053Y-65484561D02*
X68160386Y-65451228D01*
X68160386Y-65451228D02*
X68227053Y-65417894D01*
X68227053Y-65417894D02*
X68393720Y-65417894D01*
X68393720Y-65417894D02*
X68460386Y-65451228D01*
X68460386Y-65451228D02*
X68493720Y-65484561D01*
X68493720Y-65484561D02*
X68527053Y-65551228D01*
X68527053Y-65551228D02*
X68527053Y-65751228D01*
X68527053Y-65751228D02*
X68493720Y-65817894D01*
X68493720Y-65817894D02*
X68460386Y-65851228D01*
D11*
X65884819Y-80666998D02*
X66122914Y-80666998D01*
X66027676Y-80905093D02*
X66122914Y-80666998D01*
X66122914Y-80666998D02*
X66027676Y-80428903D01*
X66313390Y-80809855D02*
X66122914Y-80666998D01*
X66122914Y-80666998D02*
X66313390Y-80524141D01*
X129428571Y-68552295D02*
X128971428Y-68552295D01*
X129200000Y-68552295D02*
X129200000Y-67752295D01*
X129200000Y-67752295D02*
X129123809Y-67866580D01*
X129123809Y-67866580D02*
X129047619Y-67942771D01*
X129047619Y-67942771D02*
X128971428Y-67980866D01*
X64210000Y-73814819D02*
X64210000Y-74052914D01*
X63971905Y-73957676D02*
X64210000Y-74052914D01*
X64210000Y-74052914D02*
X64448095Y-73957676D01*
X64067143Y-74243390D02*
X64210000Y-74052914D01*
X64210000Y-74052914D02*
X64352857Y-74243390D01*
X81806819Y-98513199D02*
X82044914Y-98513199D01*
X81949676Y-98751294D02*
X82044914Y-98513199D01*
X82044914Y-98513199D02*
X81949676Y-98275104D01*
X82235390Y-98656056D02*
X82044914Y-98513199D01*
X82044914Y-98513199D02*
X82235390Y-98370342D01*
X78914819Y-94819999D02*
X79152914Y-94819999D01*
X79057676Y-95058094D02*
X79152914Y-94819999D01*
X79152914Y-94819999D02*
X79057676Y-94581904D01*
X79343390Y-94962856D02*
X79152914Y-94819999D01*
X79152914Y-94819999D02*
X79343390Y-94677142D01*
D12*
%TO.C,Y1*%
X85350000Y-64250000D02*
G75*
G02*
X85150000Y-64250000I-100000J0D01*
G01*
X85150000Y-64250000D02*
G75*
G02*
X85350000Y-64250000I100000J0D01*
G01*
X88900000Y-62550000D02*
X88900000Y-61950000D01*
X86600000Y-63550000D02*
X87900000Y-63550000D01*
X86600000Y-60950000D02*
X87900000Y-60950000D01*
X85600000Y-62550000D02*
X85600000Y-61950000D01*
D13*
%TO.C,U4*%
X110960000Y-56715000D02*
X110680000Y-56715000D01*
X110680000Y-56435000D01*
X110960000Y-56715000D01*
G36*
X110960000Y-56715000D02*
G01*
X110680000Y-56715000D01*
X110680000Y-56435000D01*
X110960000Y-56715000D01*
G37*
X107860000Y-57835000D02*
X107860000Y-56835000D01*
X110680000Y-57835000D02*
X110680000Y-57045000D01*
D14*
%TO.C,J5*%
X50912501Y-92954900D02*
X50912501Y-96054899D01*
X50912501Y-96454901D02*
X50912501Y-99554900D01*
X53087500Y-92954900D02*
X50912501Y-92954900D01*
X53087500Y-96054899D02*
X50912501Y-96054899D01*
X53087500Y-96454901D02*
X50912501Y-96454901D01*
X53087500Y-99554900D02*
X50912501Y-99554900D01*
X53087501Y-92354900D02*
X53087501Y-100854900D01*
X53087501Y-92354900D02*
X67587499Y-92354900D01*
X58403499Y-91604900D02*
X64287498Y-91604900D01*
X58403499Y-92354901D02*
X58403499Y-91604900D01*
X64287498Y-92354901D02*
X64287498Y-91604900D01*
X67587499Y-92354900D02*
X67587499Y-100854900D01*
X67587499Y-100854900D02*
X53087501Y-100854900D01*
D15*
X63818500Y-90449900D02*
G75*
G02*
X63056500Y-90449900I-381000J0D01*
G01*
X63056500Y-90449900D02*
G75*
G02*
X63818500Y-90449900I381000J0D01*
G01*
D14*
%TO.C,J6*%
X132354901Y-119096501D02*
X132354901Y-113212502D01*
X133104902Y-109912501D02*
X145104898Y-109912501D01*
X133104902Y-113212502D02*
X132354901Y-113212502D01*
X133104902Y-119096501D02*
X132354901Y-119096501D01*
X133104902Y-124412499D02*
X133104902Y-109912501D01*
X133104902Y-124412499D02*
X145104898Y-124412499D01*
X133704901Y-124412500D02*
X133704901Y-126587499D01*
X133704901Y-126587499D02*
X136804900Y-126587499D01*
X136804900Y-124412500D02*
X136804900Y-126587499D01*
X137204902Y-124412500D02*
X137204902Y-126587499D01*
X137204902Y-126587499D02*
X140304901Y-126587499D01*
X140304901Y-124412500D02*
X140304901Y-126587499D01*
X140704902Y-124412500D02*
X140704902Y-126587499D01*
X140704902Y-126587499D02*
X143804901Y-126587499D01*
X143804901Y-124412500D02*
X143804901Y-126587499D01*
X145104898Y-109912501D02*
X145104898Y-124412499D01*
D15*
X131580900Y-114062500D02*
G75*
G02*
X130818902Y-114062500I-380999J0D01*
G01*
X130818902Y-114062500D02*
G75*
G02*
X131580900Y-114062500I380999J0D01*
G01*
D13*
%TO.C,JP2*%
X78400000Y-78300000D02*
G75*
G02*
X77700000Y-79000000I-699999J-1D01*
G01*
X77700000Y-76200000D02*
G75*
G02*
X78400000Y-76900000I0J-700000D01*
G01*
X77100000Y-79000000D02*
G75*
G02*
X76400000Y-78300000I-1J699999D01*
G01*
X76400000Y-76900000D02*
G75*
G02*
X77100000Y-76200000I700000J0D01*
G01*
X78400000Y-76900000D02*
X78400000Y-78300000D01*
X77700000Y-79000000D02*
X77100000Y-79000000D01*
X77100000Y-76200000D02*
X77700000Y-76200000D01*
X76400000Y-78300000D02*
X76400000Y-76900000D01*
%TO.C,R103*%
X132122500Y-94712742D02*
X132122500Y-95187258D01*
X131077500Y-94712742D02*
X131077500Y-95187258D01*
%TO.C,U25*%
X127590000Y-96900000D02*
X127260000Y-97140000D01*
X127260000Y-96660000D01*
X127590000Y-96900000D01*
G36*
X127590000Y-96900000D02*
G01*
X127260000Y-97140000D01*
X127260000Y-96660000D01*
X127590000Y-96900000D01*
G37*
X130660000Y-96360000D02*
X130610000Y-96360000D01*
X130660000Y-94540000D02*
X130660000Y-96360000D01*
X130610000Y-94540000D02*
X130660000Y-94540000D01*
X128710000Y-94540000D02*
X129490000Y-94540000D01*
X127590000Y-96360000D02*
X127540000Y-96360000D01*
X127540000Y-96360000D02*
X127540000Y-94540000D01*
X127540000Y-94540000D02*
X127590000Y-94540000D01*
%TO.C,C43*%
X120015000Y-86236252D02*
X120015000Y-85713748D01*
X118545000Y-86236252D02*
X118545000Y-85713748D01*
%TO.C,R84*%
X119522500Y-76237742D02*
X119522500Y-76712258D01*
X118477500Y-76237742D02*
X118477500Y-76712258D01*
%TO.C,U7*%
X115300000Y-87915000D02*
X115060000Y-87585000D01*
X115540000Y-87585000D01*
X115300000Y-87915000D01*
G36*
X115300000Y-87915000D02*
G01*
X115060000Y-87585000D01*
X115540000Y-87585000D01*
X115300000Y-87915000D01*
G37*
X117660000Y-90985000D02*
X115840000Y-90985000D01*
X117660000Y-90935000D02*
X117660000Y-90985000D01*
X117660000Y-89035000D02*
X117660000Y-89815000D01*
X117660000Y-87865000D02*
X117660000Y-87915000D01*
X115840000Y-90985000D02*
X115840000Y-90935000D01*
X115840000Y-87915000D02*
X115840000Y-87865000D01*
X115840000Y-87865000D02*
X117660000Y-87865000D01*
%TO.C,C51*%
X123761252Y-88910000D02*
X123238748Y-88910000D01*
X123761252Y-87440000D02*
X123238748Y-87440000D01*
%TO.C,C140*%
X123159420Y-84085000D02*
X123440580Y-84085000D01*
X123159420Y-83065000D02*
X123440580Y-83065000D01*
%TO.C,R112*%
X121522500Y-82637742D02*
X121522500Y-83112258D01*
X120477500Y-82637742D02*
X120477500Y-83112258D01*
%TO.C,C31*%
X120735000Y-89163748D02*
X120735000Y-89686252D01*
X119265000Y-89163748D02*
X119265000Y-89686252D01*
%TO.C,C42*%
X121540000Y-86115580D02*
X121540000Y-85834420D01*
X120520000Y-86115580D02*
X120520000Y-85834420D01*
%TO.C,U11*%
X124410000Y-87135000D02*
X124130000Y-87135000D01*
X124270000Y-86945000D01*
X124410000Y-87135000D01*
G36*
X124410000Y-87135000D02*
G01*
X124130000Y-87135000D01*
X124270000Y-86945000D01*
X124410000Y-87135000D01*
G37*
X123979252Y-86935000D02*
X122170000Y-86935000D01*
X122170000Y-84715000D02*
X124390000Y-84715000D01*
%TO.C,C108*%
X114347500Y-76784420D02*
X114347500Y-77065580D01*
X113327500Y-76784420D02*
X113327500Y-77065580D01*
%TO.C,C142*%
X123759420Y-77485000D02*
X124040580Y-77485000D01*
X123759420Y-76465000D02*
X124040580Y-76465000D01*
%TO.C,R33*%
X119772500Y-82437742D02*
X119772500Y-82912258D01*
X118727500Y-82437742D02*
X118727500Y-82912258D01*
%TO.C,C25*%
X113735000Y-85936252D02*
X113735000Y-85413748D01*
X112265000Y-85936252D02*
X112265000Y-85413748D01*
%TO.C,C32*%
X116261252Y-85690000D02*
X115738748Y-85690000D01*
X116261252Y-87160000D02*
X115738748Y-87160000D01*
%TO.C,C52*%
X123261252Y-90910000D02*
X122738748Y-90910000D01*
X123261252Y-89440000D02*
X122738748Y-89440000D01*
%TO.C,C107*%
X114359420Y-80585000D02*
X114640580Y-80585000D01*
X114359420Y-79565000D02*
X114640580Y-79565000D01*
%TO.C,R85*%
X115662742Y-74697500D02*
X116137258Y-74697500D01*
X115662742Y-73652500D02*
X116137258Y-73652500D01*
%TO.C,C141*%
X123759420Y-78985000D02*
X124040580Y-78985000D01*
X123759420Y-77965000D02*
X124040580Y-77965000D01*
%TO.C,U20*%
X114990000Y-78425000D02*
X114660000Y-78665000D01*
X114660000Y-78185000D01*
X114990000Y-78425000D01*
G36*
X114990000Y-78425000D02*
G01*
X114660000Y-78665000D01*
X114660000Y-78185000D01*
X114990000Y-78425000D01*
G37*
X118060000Y-77885000D02*
X118010000Y-77885000D01*
X118060000Y-76065000D02*
X118060000Y-77885000D01*
X118010000Y-76065000D02*
X118060000Y-76065000D01*
X114990000Y-77885000D02*
X114940000Y-77885000D01*
X114940000Y-77885000D02*
X114940000Y-76065000D01*
X114940000Y-76065000D02*
X114990000Y-76065000D01*
%TO.C,U9*%
X114990000Y-84625000D02*
X114660000Y-84865000D01*
X114660000Y-84385000D01*
X114990000Y-84625000D01*
G36*
X114990000Y-84625000D02*
G01*
X114660000Y-84865000D01*
X114660000Y-84385000D01*
X114990000Y-84625000D01*
G37*
X118060000Y-84085000D02*
X118010000Y-84085000D01*
X118060000Y-82265000D02*
X118060000Y-84085000D01*
X118010000Y-82265000D02*
X118060000Y-82265000D01*
X116110000Y-82265000D02*
X116890000Y-82265000D01*
X114990000Y-84085000D02*
X114940000Y-84085000D01*
X114940000Y-84085000D02*
X114940000Y-82265000D01*
X114940000Y-82265000D02*
X114990000Y-82265000D01*
%TO.C,R111*%
X121522500Y-79637742D02*
X121522500Y-80112258D01*
X120477500Y-79637742D02*
X120477500Y-80112258D01*
%TO.C,R32*%
X117262742Y-80697500D02*
X117737258Y-80697500D01*
X117262742Y-79652500D02*
X117737258Y-79652500D01*
%TO.C,U28*%
X122450000Y-79565000D02*
X122210000Y-79235000D01*
X122690000Y-79235000D01*
X122450000Y-79565000D01*
G36*
X122450000Y-79565000D02*
G01*
X122210000Y-79235000D01*
X122690000Y-79235000D01*
X122450000Y-79565000D01*
G37*
X124810000Y-82635000D02*
X122990000Y-82635000D01*
X124810000Y-82585000D02*
X124810000Y-82635000D01*
X124810000Y-80685000D02*
X124810000Y-81465000D01*
X124810000Y-79515000D02*
X124810000Y-79565000D01*
X122990000Y-82635000D02*
X122990000Y-82585000D01*
X122990000Y-79565000D02*
X122990000Y-79515000D01*
X122990000Y-79515000D02*
X124810000Y-79515000D01*
%TO.C,C39*%
X114510000Y-82284420D02*
X114510000Y-82565580D01*
X113490000Y-82284420D02*
X113490000Y-82565580D01*
%TO.C,J1*%
X101600000Y-50070000D02*
X101600000Y-51250000D01*
X101535000Y-53700000D02*
X94965000Y-53700000D01*
X101535000Y-52837923D02*
X101535000Y-53700000D01*
X100790000Y-50070000D02*
X101600000Y-50070000D01*
X99980000Y-50070000D02*
X99980000Y-50583292D01*
X99980000Y-50070000D02*
X94965000Y-50070000D01*
X94965000Y-52837923D02*
X94965000Y-53700000D01*
X94965000Y-51567923D02*
X94965000Y-52202077D01*
X94965000Y-50070000D02*
X94965000Y-50932077D01*
%TO.C,R16*%
X110212500Y-53902258D02*
X110212500Y-53427742D01*
X109167500Y-53902258D02*
X109167500Y-53427742D01*
%TO.C,R6*%
X122077500Y-69862742D02*
X122077500Y-70337258D01*
X123122500Y-69862742D02*
X123122500Y-70337258D01*
%TO.C,Q4*%
X111990000Y-88940000D02*
X113510000Y-88940000D01*
X111990000Y-88990000D02*
X111990000Y-88940000D01*
X111990000Y-90890000D02*
X111990000Y-90110000D01*
X111990000Y-92060000D02*
X111990000Y-92010000D01*
X113510000Y-88940000D02*
X113510000Y-89940000D01*
X113510000Y-91060000D02*
X113510000Y-92060000D01*
X113510000Y-92060000D02*
X111990000Y-92060000D01*
X111690000Y-90450000D02*
X111210000Y-90450000D01*
X111450000Y-90120000D01*
X111690000Y-90450000D01*
G36*
X111690000Y-90450000D02*
G01*
X111210000Y-90450000D01*
X111450000Y-90120000D01*
X111690000Y-90450000D01*
G37*
%TO.C,U5*%
X113490000Y-60185000D02*
X113490000Y-59185000D01*
X116310000Y-60185000D02*
X116310000Y-59395000D01*
X116590000Y-59065000D02*
X116310000Y-59065000D01*
X116310000Y-58785000D01*
X116590000Y-59065000D01*
G36*
X116590000Y-59065000D02*
G01*
X116310000Y-59065000D01*
X116310000Y-58785000D01*
X116590000Y-59065000D01*
G37*
%TO.C,C147*%
X145759420Y-88290000D02*
X146040580Y-88290000D01*
X145759420Y-89310000D02*
X146040580Y-89310000D01*
%TO.C,R54*%
X99977500Y-89487258D02*
X99977500Y-89012742D01*
X101022500Y-89487258D02*
X101022500Y-89012742D01*
%TO.C,R1*%
X98977500Y-56262742D02*
X98977500Y-56737258D01*
X100022500Y-56262742D02*
X100022500Y-56737258D01*
%TO.C,C82*%
X77955000Y-128411252D02*
X77955000Y-127888748D01*
X79425000Y-128411252D02*
X79425000Y-127888748D01*
%TO.C,C30*%
X86640580Y-98990000D02*
X86359420Y-98990000D01*
X86640580Y-100010000D02*
X86359420Y-100010000D01*
%TO.C,C120*%
X132361252Y-104265000D02*
X131838748Y-104265000D01*
X132361252Y-105735000D02*
X131838748Y-105735000D01*
%TO.C,R81*%
X86577500Y-108337258D02*
X86577500Y-107862742D01*
X87622500Y-108337258D02*
X87622500Y-107862742D01*
%TO.C,L2*%
X71690000Y-84340000D02*
X78310000Y-84340000D01*
X71690000Y-91160000D02*
X71690000Y-84340000D01*
X78310000Y-84340000D02*
X78310000Y-91160000D01*
X78310000Y-91160000D02*
X71690000Y-91160000D01*
%TO.C,R83*%
X92730242Y-111022500D02*
X93204758Y-111022500D01*
X92730242Y-112067500D02*
X93204758Y-112067500D01*
%TO.C,C134*%
X133990000Y-87540580D02*
X133990000Y-87259420D01*
X135010000Y-87540580D02*
X135010000Y-87259420D01*
%TO.C,R5*%
X103477500Y-56262742D02*
X103477500Y-56737258D01*
X104522500Y-56262742D02*
X104522500Y-56737258D01*
%TO.C,C84*%
X79451252Y-130165000D02*
X78928748Y-130165000D01*
X79451252Y-131635000D02*
X78928748Y-131635000D01*
%TO.C,R55*%
X88427500Y-113087258D02*
X88427500Y-112612742D01*
X89472500Y-113087258D02*
X89472500Y-112612742D01*
%TO.C,C49*%
X91765000Y-102511252D02*
X91765000Y-101988748D01*
X93235000Y-102511252D02*
X93235000Y-101988748D01*
%TO.C,R46*%
X80262742Y-76227500D02*
X80737258Y-76227500D01*
X80262742Y-77272500D02*
X80737258Y-77272500D01*
%TO.C,C44*%
X96288748Y-87890000D02*
X97711252Y-87890000D01*
X96288748Y-90610000D02*
X97711252Y-90610000D01*
%TO.C,C63*%
X77659420Y-56090000D02*
X77940580Y-56090000D01*
X77659420Y-57110000D02*
X77940580Y-57110000D01*
%TO.C,R45*%
X83837258Y-76227500D02*
X83362742Y-76227500D01*
X83837258Y-77272500D02*
X83362742Y-77272500D01*
%TO.C,C47*%
X91640000Y-105788748D02*
X91640000Y-107211252D01*
X94360000Y-105788748D02*
X94360000Y-107211252D01*
%TO.C,Q11*%
X73002500Y-65340000D02*
X74522500Y-65340000D01*
X73002500Y-66340000D02*
X73002500Y-65340000D01*
X73002500Y-68460000D02*
X73002500Y-67460000D01*
X74522500Y-65340000D02*
X74522500Y-65390000D01*
X74522500Y-66510000D02*
X74522500Y-67290000D01*
X74522500Y-68410000D02*
X74522500Y-68460000D01*
X74522500Y-68460000D02*
X73002500Y-68460000D01*
X75062500Y-67280000D02*
X74822500Y-66950000D01*
X75302500Y-66950000D01*
X75062500Y-67280000D01*
G36*
X75062500Y-67280000D02*
G01*
X74822500Y-66950000D01*
X75302500Y-66950000D01*
X75062500Y-67280000D01*
G37*
%TO.C,Q17*%
X140640000Y-83040000D02*
X141640000Y-83040000D01*
X140640000Y-84560000D02*
X140640000Y-83040000D01*
X140690000Y-84560000D02*
X140640000Y-84560000D01*
X142590000Y-84560000D02*
X141810000Y-84560000D01*
X142760000Y-83040000D02*
X143760000Y-83040000D01*
X143760000Y-83040000D02*
X143760000Y-84560000D01*
X143760000Y-84560000D02*
X143710000Y-84560000D01*
X142150000Y-85340000D02*
X141820000Y-85100000D01*
X142150000Y-84860000D01*
X142150000Y-85340000D01*
G36*
X142150000Y-85340000D02*
G01*
X141820000Y-85100000D01*
X142150000Y-84860000D01*
X142150000Y-85340000D01*
G37*
%TO.C,R20*%
X121212742Y-61627500D02*
X121687258Y-61627500D01*
X121212742Y-62672500D02*
X121687258Y-62672500D01*
%TO.C,C29*%
X71599420Y-92510000D02*
X71880580Y-92510000D01*
X71599420Y-93530000D02*
X71880580Y-93530000D01*
%TO.C,Y3*%
X81715000Y-79040000D02*
X81715000Y-82460000D01*
X81715000Y-82460000D02*
X85835000Y-82460000D01*
%TO.C,C65*%
X78959420Y-72990000D02*
X79240580Y-72990000D01*
X78959420Y-74010000D02*
X79240580Y-74010000D01*
%TO.C,U18*%
X105140000Y-57610000D02*
X105140000Y-57185000D01*
X105157739Y-55390000D02*
X105315000Y-55390000D01*
X105315000Y-57610000D02*
X105140000Y-57610000D01*
X107185000Y-55390000D02*
X107360000Y-55390000D01*
X107360000Y-55390000D02*
X107360000Y-55815000D01*
X107360000Y-57185000D02*
X107360000Y-57610000D01*
X107360000Y-57610000D02*
X107185000Y-57610000D01*
X105110000Y-55910000D02*
X104830000Y-55910000D01*
X105110000Y-55630000D01*
X105110000Y-55910000D01*
G36*
X105110000Y-55910000D02*
G01*
X104830000Y-55910000D01*
X105110000Y-55630000D01*
X105110000Y-55910000D01*
G37*
%TO.C,R52*%
X84777500Y-109237258D02*
X84777500Y-108762742D01*
X85822500Y-109237258D02*
X85822500Y-108762742D01*
%TO.C,R96*%
X131862742Y-102677500D02*
X132337258Y-102677500D01*
X131862742Y-103722500D02*
X132337258Y-103722500D01*
%TO.C,TP1*%
X128800000Y-106000000D02*
G75*
G02*
X127400000Y-106000000I-700000J0D01*
G01*
X127400000Y-106000000D02*
G75*
G02*
X128800000Y-106000000I700000J0D01*
G01*
%TO.C,C22*%
X71038748Y-76390000D02*
X72461252Y-76390000D01*
X71038748Y-79110000D02*
X72461252Y-79110000D01*
%TO.C,C33*%
X74359420Y-97740000D02*
X74640580Y-97740000D01*
X74359420Y-98760000D02*
X74640580Y-98760000D01*
%TO.C,Q10*%
X85490000Y-111190000D02*
X87010000Y-111190000D01*
X85490000Y-112190000D02*
X85490000Y-111190000D01*
X85490000Y-114310000D02*
X85490000Y-113310000D01*
X87010000Y-111190000D02*
X87010000Y-111240000D01*
X87010000Y-112360000D02*
X87010000Y-113140000D01*
X87010000Y-114260000D02*
X87010000Y-114310000D01*
X87010000Y-114310000D02*
X85490000Y-114310000D01*
X87550000Y-113130000D02*
X87310000Y-112800000D01*
X87790000Y-112800000D01*
X87550000Y-113130000D01*
G36*
X87550000Y-113130000D02*
G01*
X87310000Y-112800000D01*
X87790000Y-112800000D01*
X87550000Y-113130000D01*
G37*
%TO.C,R34*%
X78487258Y-99227500D02*
X78012742Y-99227500D01*
X78487258Y-100272500D02*
X78012742Y-100272500D01*
%TO.C,C116*%
X137140580Y-96590000D02*
X136859420Y-96590000D01*
X137140580Y-97610000D02*
X136859420Y-97610000D01*
%TO.C,C129*%
X128709420Y-97790000D02*
X128990580Y-97790000D01*
X128709420Y-98810000D02*
X128990580Y-98810000D01*
%TO.C,C119*%
X137890000Y-106040580D02*
X137890000Y-105759420D01*
X138910000Y-106040580D02*
X138910000Y-105759420D01*
%TO.C,C56*%
X51140000Y-104461252D02*
X51140000Y-103038748D01*
X53860000Y-104461252D02*
X53860000Y-103038748D01*
%TO.C,C110*%
X144690000Y-91440580D02*
X144690000Y-91159420D01*
X145710000Y-91440580D02*
X145710000Y-91159420D01*
%TO.C,C117*%
X133590000Y-98040580D02*
X133590000Y-97759420D01*
X134610000Y-98040580D02*
X134610000Y-97759420D01*
%TO.C,C40*%
X111990000Y-82284420D02*
X111990000Y-82565580D01*
X113010000Y-82284420D02*
X113010000Y-82565580D01*
%TO.C,C41*%
X93140580Y-88240000D02*
X92859420Y-88240000D01*
X93140580Y-89260000D02*
X92859420Y-89260000D01*
%TO.C,C36*%
X80490000Y-100109420D02*
X80490000Y-100390580D01*
X81510000Y-100109420D02*
X81510000Y-100390580D01*
%TO.C,R94*%
X137737258Y-107977500D02*
X137262742Y-107977500D01*
X137737258Y-109022500D02*
X137262742Y-109022500D01*
%TO.C,D10*%
X127590000Y-83450000D02*
X129450000Y-83450000D01*
X127650000Y-86750000D02*
X129450000Y-86750000D01*
X129450000Y-83450000D02*
X129450000Y-84500000D01*
X129450000Y-86750000D02*
X129450000Y-85700000D01*
X127140000Y-83488324D02*
X126900000Y-83158324D01*
X127380000Y-83158324D01*
X127140000Y-83488324D01*
G36*
X127140000Y-83488324D02*
G01*
X126900000Y-83158324D01*
X127380000Y-83158324D01*
X127140000Y-83488324D01*
G37*
%TO.C,R27*%
X72227500Y-95437742D02*
X72227500Y-95912258D01*
X73272500Y-95437742D02*
X73272500Y-95912258D01*
%TO.C,C6*%
X97390000Y-56740580D02*
X97390000Y-56459420D01*
X98410000Y-56740580D02*
X98410000Y-56459420D01*
%TO.C,R41*%
X89562742Y-79577500D02*
X90037258Y-79577500D01*
X89562742Y-80622500D02*
X90037258Y-80622500D01*
%TO.C,C77*%
X65490000Y-130759420D02*
X65490000Y-131040580D01*
X66510000Y-130759420D02*
X66510000Y-131040580D01*
%TO.C,R48*%
X104677500Y-87437258D02*
X104677500Y-86962742D01*
X105722500Y-87437258D02*
X105722500Y-86962742D01*
%TO.C,C55*%
X54527500Y-104411252D02*
X54527500Y-102988748D01*
X57247500Y-104411252D02*
X57247500Y-102988748D01*
%TO.C,R67*%
X61515000Y-70272936D02*
X61515000Y-70727064D01*
X62985000Y-70272936D02*
X62985000Y-70727064D01*
%TO.C,C19*%
X131059420Y-66390000D02*
X131340580Y-66390000D01*
X131059420Y-67410000D02*
X131340580Y-67410000D01*
%TO.C,C64*%
X85134420Y-77740000D02*
X85415580Y-77740000D01*
X85134420Y-78760000D02*
X85415580Y-78760000D01*
%TO.C,C138*%
X137159420Y-89390000D02*
X137440580Y-89390000D01*
X137159420Y-90410000D02*
X137440580Y-90410000D01*
%TO.C,R12*%
X115977500Y-62762742D02*
X115977500Y-63237258D01*
X117022500Y-62762742D02*
X117022500Y-63237258D01*
%TO.C,C81*%
X62459420Y-126490000D02*
X62740580Y-126490000D01*
X62459420Y-127510000D02*
X62740580Y-127510000D01*
%TO.C,U23*%
X134190000Y-104590000D02*
X134240000Y-104590000D01*
X134190000Y-106410000D02*
X134190000Y-104590000D01*
X134240000Y-106410000D02*
X134190000Y-106410000D01*
X135360000Y-104590000D02*
X136140000Y-104590000D01*
X137260000Y-104590000D02*
X137310000Y-104590000D01*
X137310000Y-104590000D02*
X137310000Y-106410000D01*
X137310000Y-106410000D02*
X137260000Y-106410000D01*
X134240000Y-106950000D02*
X133910000Y-107190000D01*
X133910000Y-106710000D01*
X134240000Y-106950000D01*
G36*
X134240000Y-106950000D02*
G01*
X133910000Y-107190000D01*
X133910000Y-106710000D01*
X134240000Y-106950000D01*
G37*
%TO.C,C91*%
X65240580Y-119090000D02*
X64959420Y-119090000D01*
X65240580Y-120110000D02*
X64959420Y-120110000D01*
%TO.C,Q5*%
X106740000Y-88940000D02*
X108260000Y-88940000D01*
X106740000Y-88990000D02*
X106740000Y-88940000D01*
X106740000Y-90890000D02*
X106740000Y-90110000D01*
X106740000Y-92060000D02*
X106740000Y-92010000D01*
X108260000Y-88940000D02*
X108260000Y-89940000D01*
X108260000Y-91060000D02*
X108260000Y-92060000D01*
X108260000Y-92060000D02*
X106740000Y-92060000D01*
X106440000Y-90450000D02*
X105960000Y-90450000D01*
X106200000Y-90120000D01*
X106440000Y-90450000D01*
G36*
X106440000Y-90450000D02*
G01*
X105960000Y-90450000D01*
X106200000Y-90120000D01*
X106440000Y-90450000D01*
G37*
%TO.C,C4*%
X108140580Y-79490000D02*
X107859420Y-79490000D01*
X108140580Y-80510000D02*
X107859420Y-80510000D01*
%TO.C,C114*%
X135359420Y-101990000D02*
X135640580Y-101990000D01*
X135359420Y-103010000D02*
X135640580Y-103010000D01*
%TO.C,R38*%
X127662742Y-87177500D02*
X128137258Y-87177500D01*
X127662742Y-88222500D02*
X128137258Y-88222500D01*
%TO.C,R70*%
X73277500Y-69862742D02*
X73277500Y-70337258D01*
X74322500Y-69862742D02*
X74322500Y-70337258D01*
%TO.C,Q14*%
X75840000Y-59040000D02*
X77360000Y-59040000D01*
X75840000Y-60040000D02*
X75840000Y-59040000D01*
X75840000Y-62160000D02*
X75840000Y-61160000D01*
X77360000Y-59040000D02*
X77360000Y-59090000D01*
X77360000Y-60210000D02*
X77360000Y-60990000D01*
X77360000Y-62110000D02*
X77360000Y-62160000D01*
X77360000Y-62160000D02*
X75840000Y-62160000D01*
X77900000Y-60980000D02*
X77660000Y-60650000D01*
X78140000Y-60650000D01*
X77900000Y-60980000D01*
G36*
X77900000Y-60980000D02*
G01*
X77660000Y-60650000D01*
X78140000Y-60650000D01*
X77900000Y-60980000D01*
G37*
%TO.C,R49*%
X86677500Y-74262742D02*
X86677500Y-74737258D01*
X87722500Y-74262742D02*
X87722500Y-74737258D01*
%TO.C,R40*%
X62949758Y-101677500D02*
X62475242Y-101677500D01*
X62949758Y-102722500D02*
X62475242Y-102722500D01*
%TO.C,R56*%
X58677500Y-119337258D02*
X58677500Y-118862742D01*
X59722500Y-119337258D02*
X59722500Y-118862742D01*
%TO.C,C75*%
X62240000Y-129388748D02*
X62240000Y-130811252D01*
X64960000Y-129388748D02*
X64960000Y-130811252D01*
%TO.C,C135*%
X125990000Y-100890580D02*
X125990000Y-100609420D01*
X127010000Y-100890580D02*
X127010000Y-100609420D01*
%TO.C,R26*%
X80277500Y-87162742D02*
X80277500Y-87637258D01*
X81322500Y-87162742D02*
X81322500Y-87637258D01*
%TO.C,R13*%
X115977500Y-65762742D02*
X115977500Y-66237258D01*
X117022500Y-65762742D02*
X117022500Y-66237258D01*
%TO.C,Q15*%
X111240000Y-72440000D02*
X112760000Y-72440000D01*
X111240000Y-72490000D02*
X111240000Y-72440000D01*
X111240000Y-74390000D02*
X111240000Y-73610000D01*
X111240000Y-75560000D02*
X111240000Y-75510000D01*
X112760000Y-72440000D02*
X112760000Y-73440000D01*
X112760000Y-74560000D02*
X112760000Y-75560000D01*
X112760000Y-75560000D02*
X111240000Y-75560000D01*
X110940000Y-73950000D02*
X110460000Y-73950000D01*
X110700000Y-73620000D01*
X110940000Y-73950000D01*
G36*
X110940000Y-73950000D02*
G01*
X110460000Y-73950000D01*
X110700000Y-73620000D01*
X110940000Y-73950000D01*
G37*
D14*
%TO.C,D4*%
X66221300Y-76450600D02*
X66221300Y-79549400D01*
X66221300Y-79549400D02*
X66536260Y-79549400D01*
X66536260Y-76450600D02*
X66221300Y-76450600D01*
X67963740Y-79549400D02*
X68278700Y-79549400D01*
X68278700Y-76450600D02*
X67963740Y-76450600D01*
X68278700Y-79549400D02*
X68278700Y-76450600D01*
D13*
%TO.C,C139*%
X132490000Y-85540580D02*
X132490000Y-85259420D01*
X133510000Y-85540580D02*
X133510000Y-85259420D01*
%TO.C,J3*%
X80790829Y-58850933D02*
X79299621Y-54753873D01*
X83140059Y-57995883D02*
X80790829Y-58850933D01*
X85895986Y-57205645D02*
X86516183Y-56979911D01*
X86447777Y-56791972D02*
X86516183Y-56979911D01*
X88797011Y-55936922D02*
X86447777Y-56791972D01*
X88797011Y-55936922D02*
X87305803Y-51839862D01*
%TO.C,C85*%
X65559420Y-126090000D02*
X65840580Y-126090000D01*
X65559420Y-127110000D02*
X65840580Y-127110000D01*
%TO.C,C50*%
X94011252Y-81265000D02*
X93488748Y-81265000D01*
X94011252Y-82735000D02*
X93488748Y-82735000D01*
%TO.C,D7*%
X69400000Y-63935000D02*
X71685000Y-63935000D01*
X71685000Y-62465000D02*
X69400000Y-62465000D01*
X71685000Y-63935000D02*
X71685000Y-62465000D01*
%TO.C,C13*%
X95240000Y-77359420D02*
X95240000Y-77640580D01*
X96260000Y-77359420D02*
X96260000Y-77640580D01*
%TO.C,L8*%
X106780000Y-93400000D02*
X106780000Y-95300000D01*
X106780000Y-108190000D02*
X106780000Y-110090000D01*
X107150000Y-93030000D02*
X123850000Y-93030000D01*
X123850000Y-110470000D02*
X107150000Y-110470000D01*
X124220000Y-93390000D02*
X124220000Y-95290000D01*
X124220000Y-108200000D02*
X124220000Y-110100000D01*
X106779460Y-93400000D02*
G75*
G02*
X107130000Y-93029999I370542J-1D01*
G01*
X107150000Y-110470135D02*
G75*
G02*
X106780000Y-110110000I0J370135D01*
G01*
X123850000Y-93029865D02*
G75*
G02*
X124220000Y-93390000I0J-370135D01*
G01*
X124220000Y-110100000D02*
G75*
G02*
X123850000Y-110470000I-370000J0D01*
G01*
%TO.C,R86*%
X142937258Y-86777500D02*
X142462742Y-86777500D01*
X142937258Y-87822500D02*
X142462742Y-87822500D01*
%TO.C,R21*%
X106977500Y-86762742D02*
X106977500Y-87237258D01*
X108022500Y-86762742D02*
X108022500Y-87237258D01*
%TO.C,C73*%
X59040580Y-125390000D02*
X58759420Y-125390000D01*
X59040580Y-126410000D02*
X58759420Y-126410000D01*
%TO.C,U19*%
X69390000Y-67840000D02*
X71210000Y-67840000D01*
X69390000Y-67915000D02*
X69390000Y-67840000D01*
X69390000Y-70960000D02*
X69390000Y-70885000D01*
X71210000Y-67840000D02*
X71210000Y-67915000D01*
X71210000Y-70885000D02*
X71210000Y-70960000D01*
X71210000Y-70960000D02*
X69390000Y-70960000D01*
X68850000Y-67910000D02*
X68610000Y-67580000D01*
X69090000Y-67580000D01*
X68850000Y-67910000D01*
G36*
X68850000Y-67910000D02*
G01*
X68610000Y-67580000D01*
X69090000Y-67580000D01*
X68850000Y-67910000D01*
G37*
%TO.C,JP1*%
X122250000Y-59500000D02*
X122250000Y-58900000D01*
X122950000Y-58200000D02*
X124350000Y-58200000D01*
X124350000Y-60200000D02*
X122950000Y-60200000D01*
X125050000Y-58900000D02*
X125050000Y-59500000D01*
X122250000Y-58900000D02*
G75*
G02*
X122950000Y-58200000I700000J0D01*
G01*
X122950000Y-60200000D02*
G75*
G02*
X122250000Y-59500000I0J700000D01*
G01*
X124350000Y-58200000D02*
G75*
G02*
X125050000Y-58900000I1J-699999D01*
G01*
X125050000Y-59500000D02*
G75*
G02*
X124350000Y-60200000I-699999J-1D01*
G01*
%TO.C,R39*%
X65949758Y-101677500D02*
X65475242Y-101677500D01*
X65949758Y-102722500D02*
X65475242Y-102722500D01*
D16*
%TO.C,SW2*%
X89400000Y-56600000D02*
X89400000Y-59600000D01*
X91400000Y-56600000D02*
X91400000Y-59600000D01*
X90800000Y-58100000D02*
G75*
G02*
X90000000Y-58100000I-400000J0D01*
G01*
X90000000Y-58100000D02*
G75*
G02*
X90800000Y-58100000I400000J0D01*
G01*
D13*
%TO.C,C122*%
X133159420Y-99690000D02*
X133440580Y-99690000D01*
X133159420Y-100710000D02*
X133440580Y-100710000D01*
%TO.C,C136*%
X129009420Y-90590000D02*
X129290580Y-90590000D01*
X129009420Y-91610000D02*
X129290580Y-91610000D01*
%TO.C,R91*%
X139677500Y-79737258D02*
X139677500Y-79262742D01*
X140722500Y-79737258D02*
X140722500Y-79262742D01*
%TO.C,TP2*%
X135150000Y-77630000D02*
G75*
G02*
X133750000Y-77630000I-700000J0D01*
G01*
X133750000Y-77630000D02*
G75*
G02*
X135150000Y-77630000I700000J0D01*
G01*
%TO.C,C62*%
X82415580Y-77740000D02*
X82134420Y-77740000D01*
X82415580Y-78760000D02*
X82134420Y-78760000D01*
%TO.C,R99*%
X132087258Y-98127500D02*
X131612742Y-98127500D01*
X132087258Y-99172500D02*
X131612742Y-99172500D01*
%TO.C,C21*%
X71038748Y-73140000D02*
X72461252Y-73140000D01*
X71038748Y-75860000D02*
X72461252Y-75860000D01*
%TO.C,R110*%
X136662742Y-84277500D02*
X137137258Y-84277500D01*
X136662742Y-85322500D02*
X137137258Y-85322500D01*
%TO.C,C143*%
X130990000Y-85259420D02*
X130990000Y-85540580D01*
X132010000Y-85259420D02*
X132010000Y-85540580D01*
%TO.C,C15*%
X107740000Y-75859420D02*
X107740000Y-76140580D01*
X108760000Y-75859420D02*
X108760000Y-76140580D01*
%TO.C,R62*%
X64477500Y-117537258D02*
X64477500Y-117062742D01*
X65522500Y-117537258D02*
X65522500Y-117062742D01*
%TO.C,C109*%
X142559420Y-88290000D02*
X142840580Y-88290000D01*
X142559420Y-89310000D02*
X142840580Y-89310000D01*
%TO.C,C5*%
X109320000Y-61269420D02*
X109320000Y-61550580D01*
X110340000Y-61269420D02*
X110340000Y-61550580D01*
%TO.C,C132*%
X127490000Y-100890580D02*
X127490000Y-100609420D01*
X128510000Y-100890580D02*
X128510000Y-100609420D01*
%TO.C,C26*%
X80059420Y-89290000D02*
X80340580Y-89290000D01*
X80059420Y-90310000D02*
X80340580Y-90310000D01*
%TO.C,J2*%
X110702990Y-56036921D02*
X112194198Y-51939861D01*
X113052221Y-56891971D02*
X110702990Y-56036921D01*
X115671338Y-58058088D02*
X116291535Y-58283821D01*
X116359939Y-58095882D02*
X116291535Y-58283821D01*
X118709171Y-58950933D02*
X116359939Y-58095882D01*
X118709171Y-58950933D02*
X120200378Y-54853872D01*
%TO.C,R3*%
X101977500Y-56262742D02*
X101977500Y-56737258D01*
X103022500Y-56262742D02*
X103022500Y-56737258D01*
%TO.C,C72*%
X62140580Y-124990000D02*
X61859420Y-124990000D01*
X62140580Y-126010000D02*
X61859420Y-126010000D01*
%TO.C,U31*%
X144490000Y-87160000D02*
X144490000Y-85750000D01*
X146810000Y-87150000D02*
X146810000Y-85750000D01*
X144540000Y-87530000D02*
X144210000Y-87770000D01*
X144210000Y-87290000D01*
X144540000Y-87530000D01*
G36*
X144540000Y-87530000D02*
G01*
X144210000Y-87770000D01*
X144210000Y-87290000D01*
X144540000Y-87530000D01*
G37*
%TO.C,R57*%
X55477500Y-120062742D02*
X55477500Y-120537258D01*
X56522500Y-120062742D02*
X56522500Y-120537258D01*
%TO.C,R78*%
X66377500Y-73562742D02*
X66377500Y-74037258D01*
X67422500Y-73562742D02*
X67422500Y-74037258D01*
%TO.C,R73*%
X75977500Y-68237258D02*
X75977500Y-67762742D01*
X77022500Y-68237258D02*
X77022500Y-67762742D01*
%TO.C,R22*%
X74472742Y-92507500D02*
X74947258Y-92507500D01*
X74472742Y-93552500D02*
X74947258Y-93552500D01*
%TO.C,R29*%
X74577500Y-77937258D02*
X74577500Y-77462742D01*
X75622500Y-77937258D02*
X75622500Y-77462742D01*
%TO.C,R74*%
X94377500Y-56362742D02*
X94377500Y-56837258D01*
X95422500Y-56362742D02*
X95422500Y-56837258D01*
%TO.C,C1*%
X89640580Y-71740000D02*
X89359420Y-71740000D01*
X89640580Y-72760000D02*
X89359420Y-72760000D01*
%TO.C,R106*%
X127762742Y-88677500D02*
X128237258Y-88677500D01*
X127762742Y-89722500D02*
X128237258Y-89722500D01*
D12*
%TO.C,L5*%
X81600000Y-116140000D02*
X81600000Y-119440000D01*
X81600000Y-128640000D02*
X81600000Y-125340000D01*
X81600000Y-128640000D02*
X94100000Y-128640000D01*
X94100000Y-116140000D02*
X81600000Y-116140000D01*
X94100000Y-116140000D02*
X94100000Y-119440000D01*
X94100000Y-128640000D02*
X94100000Y-125340000D01*
D13*
%TO.C,C45*%
X88390000Y-102461252D02*
X88390000Y-101038748D01*
X91110000Y-102461252D02*
X91110000Y-101038748D01*
%TO.C,D1*%
X129700000Y-67900000D02*
X129700000Y-73400000D01*
X129700000Y-67900000D02*
X136700000Y-67900000D01*
X129700000Y-73400000D02*
X136250000Y-73400000D01*
X130500000Y-71550000D02*
X130500000Y-69750000D01*
X135900000Y-71550000D02*
X135900000Y-69750000D01*
X136250000Y-73400000D02*
X136700000Y-72950000D01*
X136700000Y-72950000D02*
X136700000Y-67900000D01*
%TO.C,C71*%
X63890000Y-122659420D02*
X63890000Y-122940580D01*
X64910000Y-122659420D02*
X64910000Y-122940580D01*
%TO.C,D8*%
X69400000Y-62435000D02*
X71685000Y-62435000D01*
X71685000Y-60965000D02*
X69400000Y-60965000D01*
X71685000Y-62435000D02*
X71685000Y-60965000D01*
%TO.C,R24*%
X111562742Y-68377500D02*
X112037258Y-68377500D01*
X111562742Y-69422500D02*
X112037258Y-69422500D01*
%TO.C,C2*%
X89640580Y-73240000D02*
X89359420Y-73240000D01*
X89640580Y-74260000D02*
X89359420Y-74260000D01*
%TO.C,C133*%
X139590000Y-87259420D02*
X139590000Y-87540580D01*
X140610000Y-87259420D02*
X140610000Y-87540580D01*
%TO.C,C113*%
X142459420Y-94190000D02*
X142740580Y-94190000D01*
X142459420Y-95210000D02*
X142740580Y-95210000D01*
%TO.C,U17*%
X68840000Y-118122500D02*
X69140000Y-118122500D01*
X69140000Y-132377500D02*
X68840000Y-132377500D01*
X74860000Y-118122500D02*
X75160000Y-118122500D01*
X75160000Y-132377500D02*
X74860000Y-132377500D01*
X67240000Y-118580000D02*
X66910000Y-118820000D01*
X66910000Y-118340001D01*
X67240000Y-118580000D01*
G36*
X67240000Y-118580000D02*
G01*
X66910000Y-118820000D01*
X66910000Y-118340001D01*
X67240000Y-118580000D01*
G37*
%TO.C,R92*%
X138877500Y-84437258D02*
X138877500Y-83962742D01*
X139922500Y-84437258D02*
X139922500Y-83962742D01*
%TO.C,D5*%
X69400000Y-66935000D02*
X71685000Y-66935000D01*
X71685000Y-65465000D02*
X69400000Y-65465000D01*
X71685000Y-66935000D02*
X71685000Y-65465000D01*
%TO.C,R37*%
X77442742Y-92517500D02*
X77917258Y-92517500D01*
X77442742Y-93562500D02*
X77917258Y-93562500D01*
%TO.C,R72*%
X66337258Y-66577500D02*
X65862742Y-66577500D01*
X66337258Y-67622500D02*
X65862742Y-67622500D01*
%TO.C,R30*%
X83677500Y-84162742D02*
X83677500Y-84637258D01*
X84722500Y-84162742D02*
X84722500Y-84637258D01*
%TO.C,R36*%
X77477500Y-95987258D02*
X77477500Y-95512742D01*
X78522500Y-95987258D02*
X78522500Y-95512742D01*
%TO.C,R64*%
X53477500Y-112637258D02*
X53477500Y-112162742D01*
X54522500Y-112637258D02*
X54522500Y-112162742D01*
%TO.C,R7*%
X117637258Y-70877500D02*
X117162742Y-70877500D01*
X117637258Y-71922500D02*
X117162742Y-71922500D01*
%TO.C,R66*%
X104027500Y-109137258D02*
X104027500Y-108662742D01*
X105072500Y-109137258D02*
X105072500Y-108662742D01*
%TO.C,D2*%
X81090000Y-102110000D02*
X81090000Y-102500000D01*
X81090000Y-105930000D02*
X81090000Y-106330000D01*
X81090000Y-106330000D02*
X86710000Y-106330000D01*
X86710000Y-102110000D02*
X81090000Y-102110000D01*
X86710000Y-102110000D02*
X86710000Y-102360000D01*
X86710000Y-106080000D02*
X86710000Y-106330000D01*
X80695000Y-106210000D02*
X80415000Y-105930000D01*
X80695000Y-105930000D01*
X80695000Y-106210000D01*
G36*
X80695000Y-106210000D02*
G01*
X80415000Y-105930000D01*
X80695000Y-105930000D01*
X80695000Y-106210000D01*
G37*
%TO.C,C7*%
X87515580Y-59190000D02*
X87234420Y-59190000D01*
X87515580Y-60210000D02*
X87234420Y-60210000D01*
%TO.C,C101*%
X102490000Y-109040580D02*
X102490000Y-108759420D01*
X103510000Y-109040580D02*
X103510000Y-108759420D01*
D12*
%TO.C,L4*%
X82660000Y-130200000D02*
X82660000Y-133500000D01*
X82660000Y-142700000D02*
X82660000Y-139400000D01*
X82660000Y-142700000D02*
X95160000Y-142700000D01*
X95160000Y-130200000D02*
X82660000Y-130200000D01*
X95160000Y-130200000D02*
X95160000Y-133500000D01*
X95160000Y-142700000D02*
X95160000Y-139400000D01*
D13*
%TO.C,C58*%
X56159420Y-106490000D02*
X56440580Y-106490000D01*
X56159420Y-107510000D02*
X56440580Y-107510000D01*
%TO.C,C137*%
X130859420Y-87190000D02*
X131140580Y-87190000D01*
X130859420Y-88210000D02*
X131140580Y-88210000D01*
%TO.C,C90*%
X69630580Y-116360000D02*
X69349420Y-116360000D01*
X69630580Y-117380000D02*
X69349420Y-117380000D01*
%TO.C,R59*%
X58737258Y-122377500D02*
X58262742Y-122377500D01*
X58737258Y-123422500D02*
X58262742Y-123422500D01*
%TO.C,C79*%
X66690000Y-134140580D02*
X66690000Y-133859420D01*
X67710000Y-134140580D02*
X67710000Y-133859420D01*
%TO.C,C88*%
X75010000Y-139162323D02*
X71333000Y-139162323D01*
X75010000Y-139202323D02*
X71343000Y-139202323D01*
X75010000Y-139242323D02*
X71354000Y-139242323D01*
X75010000Y-139282323D02*
X71365000Y-139282323D01*
X75010000Y-139322323D02*
X71377000Y-139322323D01*
X75010000Y-139362323D02*
X71389000Y-139362323D01*
X75010000Y-139402323D02*
X71401000Y-139402323D01*
X75010000Y-139442323D02*
X71413000Y-139442323D01*
X75010000Y-139482323D02*
X71426000Y-139482323D01*
X75010000Y-139522323D02*
X71440000Y-139522323D01*
X75010000Y-139562323D02*
X71453000Y-139562323D01*
X75010000Y-139602323D02*
X71468000Y-139602323D01*
X75010000Y-139642323D02*
X71482000Y-139642323D01*
X75010000Y-139682323D02*
X71497000Y-139682323D01*
X75010000Y-139722323D02*
X71512000Y-139722323D01*
X75010000Y-139762323D02*
X71528000Y-139762323D01*
X75010000Y-139802323D02*
X71544000Y-139802323D01*
X75010000Y-139842323D02*
X71560000Y-139842323D01*
X75010000Y-139882323D02*
X71577000Y-139882323D01*
X75010000Y-139922323D02*
X71594000Y-139922323D01*
X75010000Y-139962323D02*
X71612000Y-139962323D01*
X75010000Y-140002323D02*
X71630000Y-140002323D01*
X75010000Y-140042323D02*
X71648000Y-140042323D01*
X75010000Y-140082323D02*
X71667000Y-140082323D01*
X75010000Y-140122323D02*
X71686000Y-140122323D01*
X75010000Y-140162323D02*
X71706000Y-140162323D01*
X75010000Y-140202323D02*
X71726000Y-140202323D01*
X75010000Y-140242323D02*
X71746000Y-140242323D01*
X75010000Y-140282323D02*
X71767000Y-140282323D01*
X75010000Y-140322323D02*
X71789000Y-140322323D01*
X75010000Y-140362323D02*
X71811000Y-140362323D01*
X75010000Y-140402323D02*
X71833000Y-140402323D01*
X75010000Y-140442323D02*
X71856000Y-140442323D01*
X75010000Y-140482323D02*
X71879000Y-140482323D01*
X75010000Y-140522323D02*
X71903000Y-140522323D01*
X75010000Y-140562323D02*
X71927000Y-140562323D01*
X75010000Y-140602323D02*
X71952000Y-140602323D01*
X75010000Y-140642323D02*
X71978000Y-140642323D01*
X75010000Y-140682323D02*
X72003000Y-140682323D01*
X75010000Y-140722323D02*
X72030000Y-140722323D01*
X75010000Y-140762323D02*
X72057000Y-140762323D01*
X75010000Y-140802323D02*
X72084000Y-140802323D01*
X75010000Y-140842323D02*
X72112000Y-140842323D01*
X75010000Y-140882323D02*
X72141000Y-140882323D01*
X75010000Y-140922323D02*
X72170000Y-140922323D01*
X75010000Y-140962323D02*
X72200000Y-140962323D01*
X75010000Y-141002323D02*
X72230000Y-141002323D01*
X75010000Y-141042323D02*
X72262000Y-141042323D01*
X75010000Y-141082323D02*
X72293000Y-141082323D01*
X75010000Y-141122323D02*
X72326000Y-141122323D01*
X75010000Y-141162323D02*
X72359000Y-141162323D01*
X75010000Y-141202323D02*
X72392000Y-141202323D01*
X75010000Y-141242323D02*
X72427000Y-141242323D01*
X75010000Y-141282323D02*
X72462000Y-141282323D01*
X75010000Y-141322323D02*
X72498000Y-141322323D01*
X75010000Y-141362323D02*
X72534000Y-141362323D01*
X75010000Y-141402323D02*
X72572000Y-141402323D01*
X75010000Y-141442323D02*
X72610000Y-141442323D01*
X75010000Y-141482323D02*
X72649000Y-141482323D01*
X75010000Y-141522323D02*
X72689000Y-141522323D01*
X75010000Y-141562323D02*
X72730000Y-141562323D01*
X75010000Y-141602323D02*
X72772000Y-141602323D01*
X76849000Y-142962323D02*
X75651000Y-142962323D01*
X77112000Y-142922323D02*
X75388000Y-142922323D01*
X77312000Y-142882323D02*
X75188000Y-142882323D01*
X77480000Y-142842323D02*
X75020000Y-142842323D01*
X77627000Y-142802323D02*
X74873000Y-142802323D01*
X77759000Y-142762323D02*
X74741000Y-142762323D01*
X77880000Y-142722323D02*
X74620000Y-142722323D01*
X77992000Y-142682323D02*
X74508000Y-142682323D01*
X78096000Y-142642323D02*
X74404000Y-142642323D01*
X78194000Y-142602323D02*
X74306000Y-142602323D01*
X78287000Y-142562323D02*
X74213000Y-142562323D01*
X78374000Y-142522323D02*
X74126000Y-142522323D01*
X78458000Y-142482323D02*
X74042000Y-142482323D01*
X78538000Y-142442323D02*
X73962000Y-142442323D01*
X78615000Y-142402323D02*
X73885000Y-142402323D01*
X78689000Y-142362323D02*
X73811000Y-142362323D01*
X78760000Y-142322323D02*
X73740000Y-142322323D01*
X78828000Y-142282323D02*
X73672000Y-142282323D01*
X78894000Y-142242323D02*
X73606000Y-142242323D01*
X78958000Y-142202323D02*
X73542000Y-142202323D01*
X79020000Y-142162323D02*
X73480000Y-142162323D01*
X79080000Y-142122323D02*
X73420000Y-142122323D01*
X79125000Y-132402677D02*
X79125000Y-133402677D01*
X79138000Y-142082323D02*
X73362000Y-142082323D01*
X79195000Y-142042323D02*
X73305000Y-142042323D01*
X79250000Y-142002323D02*
X73250000Y-142002323D01*
X79303000Y-141962323D02*
X73197000Y-141962323D01*
X79355000Y-141922323D02*
X73145000Y-141922323D01*
X79406000Y-141882323D02*
X73094000Y-141882323D01*
X79455000Y-141842323D02*
X73045000Y-141842323D01*
X79504000Y-141802323D02*
X72996000Y-141802323D01*
X79551000Y-141762323D02*
X72949000Y-141762323D01*
X79597000Y-141722323D02*
X72903000Y-141722323D01*
X79625000Y-132902677D02*
X78625000Y-132902677D01*
X79641000Y-141682323D02*
X72859000Y-141682323D01*
X79685000Y-141642323D02*
X72815000Y-141642323D01*
X79728000Y-141602323D02*
X77490000Y-141602323D01*
X79770000Y-141562323D02*
X77490000Y-141562323D01*
X79811000Y-141522323D02*
X77490000Y-141522323D01*
X79851000Y-141482323D02*
X77490000Y-141482323D01*
X79890000Y-141442323D02*
X77490000Y-141442323D01*
X79928000Y-141402323D02*
X77490000Y-141402323D01*
X79966000Y-141362323D02*
X77490000Y-141362323D01*
X80002000Y-141322323D02*
X77490000Y-141322323D01*
X80038000Y-141282323D02*
X77490000Y-141282323D01*
X80073000Y-141242323D02*
X77490000Y-141242323D01*
X80108000Y-141202323D02*
X77490000Y-141202323D01*
X80141000Y-141162323D02*
X77490000Y-141162323D01*
X80174000Y-141122323D02*
X77490000Y-141122323D01*
X80207000Y-141082323D02*
X77490000Y-141082323D01*
X80238000Y-141042323D02*
X77490000Y-141042323D01*
X80270000Y-141002323D02*
X77490000Y-141002323D01*
X80300000Y-140962323D02*
X77490000Y-140962323D01*
X80330000Y-140922323D02*
X77490000Y-140922323D01*
X80359000Y-140882323D02*
X77490000Y-140882323D01*
X80388000Y-140842323D02*
X77490000Y-140842323D01*
X80416000Y-140802323D02*
X77490000Y-140802323D01*
X80443000Y-140762323D02*
X77490000Y-140762323D01*
X80470000Y-140722323D02*
X77490000Y-140722323D01*
X80497000Y-140682323D02*
X77490000Y-140682323D01*
X80522000Y-140642323D02*
X77490000Y-140642323D01*
X80548000Y-140602323D02*
X77490000Y-140602323D01*
X80573000Y-140562323D02*
X77490000Y-140562323D01*
X80597000Y-140522323D02*
X77490000Y-140522323D01*
X80621000Y-140482323D02*
X77490000Y-140482323D01*
X80644000Y-140442323D02*
X77490000Y-140442323D01*
X80667000Y-140402323D02*
X77490000Y-140402323D01*
X80689000Y-140362323D02*
X77490000Y-140362323D01*
X80711000Y-140322323D02*
X77490000Y-140322323D01*
X80733000Y-140282323D02*
X77490000Y-140282323D01*
X80754000Y-140242323D02*
X77490000Y-140242323D01*
X80774000Y-140202323D02*
X77490000Y-140202323D01*
X80794000Y-140162323D02*
X77490000Y-140162323D01*
X80814000Y-140122323D02*
X77490000Y-140122323D01*
X80833000Y-140082323D02*
X77490000Y-140082323D01*
X80852000Y-140042323D02*
X77490000Y-140042323D01*
X80870000Y-140002323D02*
X77490000Y-140002323D01*
X80888000Y-139962323D02*
X77490000Y-139962323D01*
X80906000Y-139922323D02*
X77490000Y-139922323D01*
X80923000Y-139882323D02*
X77490000Y-139882323D01*
X80940000Y-139842323D02*
X77490000Y-139842323D01*
X80956000Y-139802323D02*
X77490000Y-139802323D01*
X80972000Y-139762323D02*
X77490000Y-139762323D01*
X80988000Y-139722323D02*
X77490000Y-139722323D01*
X81003000Y-139682323D02*
X77490000Y-139682323D01*
X81018000Y-139642323D02*
X77490000Y-139642323D01*
X81032000Y-139602323D02*
X77490000Y-139602323D01*
X81047000Y-139562323D02*
X77490000Y-139562323D01*
X81060000Y-139522323D02*
X77490000Y-139522323D01*
X81074000Y-139482323D02*
X77490000Y-139482323D01*
X81087000Y-139442323D02*
X77490000Y-139442323D01*
X81099000Y-139402323D02*
X77490000Y-139402323D01*
X81111000Y-139362323D02*
X77490000Y-139362323D01*
X81123000Y-139322323D02*
X77490000Y-139322323D01*
X81135000Y-139282323D02*
X77490000Y-139282323D01*
X81146000Y-139242323D02*
X77490000Y-139242323D01*
X81157000Y-139202323D02*
X77490000Y-139202323D01*
X81167000Y-139162323D02*
X77490000Y-139162323D01*
X81178000Y-139122323D02*
X71322000Y-139122323D01*
X81187000Y-139082323D02*
X71313000Y-139082323D01*
X81197000Y-139042323D02*
X71303000Y-139042323D01*
X81206000Y-139002323D02*
X71294000Y-139002323D01*
X81215000Y-138962323D02*
X71285000Y-138962323D01*
X81223000Y-138922323D02*
X71277000Y-138922323D01*
X81231000Y-138882323D02*
X71269000Y-138882323D01*
X81239000Y-138842323D02*
X71261000Y-138842323D01*
X81247000Y-138802323D02*
X71253000Y-138802323D01*
X81254000Y-138762323D02*
X71246000Y-138762323D01*
X81261000Y-138722323D02*
X71239000Y-138722323D01*
X81267000Y-138682323D02*
X71233000Y-138682323D01*
X81273000Y-138642323D02*
X71227000Y-138642323D01*
X81279000Y-138602323D02*
X71221000Y-138602323D01*
X81285000Y-138562323D02*
X71215000Y-138562323D01*
X81290000Y-138522323D02*
X71210000Y-138522323D01*
X81295000Y-138482323D02*
X71205000Y-138482323D01*
X81299000Y-138442323D02*
X71201000Y-138442323D01*
X81304000Y-138402323D02*
X71196000Y-138402323D01*
X81307000Y-138362323D02*
X71193000Y-138362323D01*
X81311000Y-138322323D02*
X71189000Y-138322323D01*
X81314000Y-138282323D02*
X71186000Y-138282323D01*
X81317000Y-138242323D02*
X71183000Y-138242323D01*
X81320000Y-138202323D02*
X71180000Y-138202323D01*
X81322000Y-138162323D02*
X71178000Y-138162323D01*
X81324000Y-138122323D02*
X71176000Y-138122323D01*
X81326000Y-138082323D02*
X71174000Y-138082323D01*
X81327000Y-138042323D02*
X71173000Y-138042323D01*
X81329000Y-137962323D02*
X71171000Y-137962323D01*
X81329000Y-138002323D02*
X71171000Y-138002323D01*
X81330000Y-137882323D02*
X71170000Y-137882323D01*
X81330000Y-137922323D02*
X71170000Y-137922323D01*
X81370000Y-137882323D02*
G75*
G02*
X71130000Y-137882323I-5120000J0D01*
G01*
X71130000Y-137882323D02*
G75*
G02*
X81370000Y-137882323I5120000J0D01*
G01*
%TO.C,D9*%
X111840000Y-138250000D02*
X120350000Y-138250000D01*
X111840000Y-144750000D02*
X111840000Y-138250000D01*
X111840000Y-144750000D02*
X120350000Y-144750000D01*
%TO.C,Q18*%
X139040000Y-74340000D02*
X140560000Y-74340000D01*
X139040000Y-75340000D02*
X139040000Y-74340000D01*
X139040000Y-77460000D02*
X139040000Y-76460000D01*
X140560000Y-74340000D02*
X140560000Y-74390000D01*
X140560000Y-75510000D02*
X140560000Y-76290000D01*
X140560000Y-77410000D02*
X140560000Y-77460000D01*
X140560000Y-77460000D02*
X139040000Y-77460000D01*
X141100000Y-76280000D02*
X140860000Y-75950000D01*
X141340000Y-75950000D01*
X141100000Y-76280000D01*
G36*
X141100000Y-76280000D02*
G01*
X140860000Y-75950000D01*
X141340000Y-75950000D01*
X141100000Y-76280000D01*
G37*
%TO.C,R15*%
X127677500Y-67662742D02*
X127677500Y-68137258D01*
X128722500Y-67662742D02*
X128722500Y-68137258D01*
D12*
%TO.C,K1*%
X136072068Y-131757359D02*
X124758359Y-143071068D01*
X121929932Y-140242641D01*
X133243641Y-128928932D01*
X136072068Y-131757359D01*
D13*
%TO.C,C27*%
X73490000Y-82359420D02*
X73490000Y-82640580D01*
X74510000Y-82359420D02*
X74510000Y-82640580D01*
%TO.C,R114*%
X139537258Y-72777500D02*
X139062742Y-72777500D01*
X139537258Y-73822500D02*
X139062742Y-73822500D01*
%TO.C,Q6*%
X82927500Y-86890000D02*
X84447500Y-86890000D01*
X82927500Y-86940000D02*
X82927500Y-86890000D01*
X82927500Y-88840000D02*
X82927500Y-88060000D01*
X82927500Y-90010000D02*
X82927500Y-89960000D01*
X84447500Y-86890000D02*
X84447500Y-87890000D01*
X84447500Y-89010000D02*
X84447500Y-90010000D01*
X84447500Y-90010000D02*
X82927500Y-90010000D01*
X82627500Y-88400000D02*
X82147500Y-88400000D01*
X82387500Y-88070000D01*
X82627500Y-88400000D01*
G36*
X82627500Y-88400000D02*
G01*
X82147500Y-88400000D01*
X82387500Y-88070000D01*
X82627500Y-88400000D01*
G37*
%TO.C,R35*%
X78022936Y-100765000D02*
X78477064Y-100765000D01*
X78022936Y-102235000D02*
X78477064Y-102235000D01*
%TO.C,R19*%
X121687258Y-63377500D02*
X121212742Y-63377500D01*
X121687258Y-64422500D02*
X121212742Y-64422500D01*
%TO.C,C23*%
X66961252Y-88140000D02*
X65538748Y-88140000D01*
X66961252Y-90860000D02*
X65538748Y-90860000D01*
%TO.C,C95*%
X82890580Y-113740000D02*
X82609420Y-113740000D01*
X82890580Y-114760000D02*
X82609420Y-114760000D01*
%TO.C,U1*%
X98990000Y-79490000D02*
X104510000Y-79490000D01*
X98990000Y-79760000D02*
X98990000Y-79490000D01*
X98990000Y-85010000D02*
X98990000Y-84740000D01*
X104510000Y-79490000D02*
X104510000Y-79760000D01*
X104510000Y-84740000D02*
X104510000Y-85010000D01*
X104510000Y-85010000D02*
X98990000Y-85010000D01*
X98160000Y-79750000D02*
X97820000Y-79280000D01*
X98500000Y-79280000D01*
X98160000Y-79750000D01*
G36*
X98160000Y-79750000D02*
G01*
X97820000Y-79280000D01*
X98500000Y-79280000D01*
X98160000Y-79750000D01*
G37*
%TO.C,R58*%
X60677500Y-129062742D02*
X60677500Y-129537258D01*
X61722500Y-129062742D02*
X61722500Y-129537258D01*
%TO.C,R65*%
X87727500Y-145737258D02*
X87727500Y-145262742D01*
X88772500Y-145737258D02*
X88772500Y-145262742D01*
%TO.C,J4*%
D12*
X88570000Y-81190000D02*
X91110000Y-81190000D01*
X91110000Y-88810000D01*
X88570000Y-88810000D01*
X88570000Y-81190000D01*
X96190000Y-91350000D02*
X103810000Y-91350000D01*
X103810000Y-93890000D01*
X96190000Y-93890000D01*
X96190000Y-91350000D01*
X108890000Y-81190000D02*
X111430000Y-81190000D01*
X111430000Y-88810000D01*
X108890000Y-88810000D01*
X108890000Y-81190000D01*
D13*
%TO.C,U10*%
X92590000Y-87222500D02*
X92590000Y-85002500D01*
X94810000Y-85413248D02*
X94810000Y-87222500D01*
X95010000Y-85262500D02*
X94820000Y-85122500D01*
X95010000Y-84982500D01*
X95010000Y-85262500D01*
G36*
X95010000Y-85262500D02*
G01*
X94820000Y-85122500D01*
X95010000Y-84982500D01*
X95010000Y-85262500D01*
G37*
%TO.C,R76*%
X78977500Y-62937258D02*
X78977500Y-62462742D01*
X80022500Y-62937258D02*
X80022500Y-62462742D01*
D14*
%TO.C,U32*%
X140925900Y-104476700D02*
X140925900Y-104762403D01*
X140925900Y-106197597D02*
X140925900Y-107302403D01*
X140925900Y-108737597D02*
X140925900Y-109023300D01*
X140925900Y-109023300D02*
X145574100Y-109023300D01*
X145574100Y-104476700D02*
X140925900Y-104476700D01*
X145574100Y-104762403D02*
X145574100Y-104476700D01*
X145574100Y-107302403D02*
X145574100Y-106197597D01*
X145574100Y-109023300D02*
X145574100Y-108737597D01*
D13*
%TO.C,R4*%
X89737258Y-74727500D02*
X89262742Y-74727500D01*
X89737258Y-75772500D02*
X89262742Y-75772500D01*
%TO.C,Q2*%
X128190000Y-62840000D02*
X129710000Y-62840000D01*
X128190000Y-62890000D02*
X128190000Y-62840000D01*
X128190000Y-64790000D02*
X128190000Y-64010000D01*
X128190000Y-65960000D02*
X128190000Y-65910000D01*
X129710000Y-62840000D02*
X129710000Y-63840000D01*
X129710000Y-64960000D02*
X129710000Y-65960000D01*
X129710000Y-65960000D02*
X128190000Y-65960000D01*
X127890000Y-64350000D02*
X127410000Y-64350000D01*
X127650000Y-64020000D01*
X127890000Y-64350000D01*
G36*
X127890000Y-64350000D02*
G01*
X127410000Y-64350000D01*
X127650000Y-64020000D01*
X127890000Y-64350000D01*
G37*
%TO.C,C97*%
X95590000Y-108711252D02*
X95590000Y-107288748D01*
X97410000Y-108711252D02*
X97410000Y-107288748D01*
%TO.C,C80*%
X65980000Y-116789420D02*
X65980000Y-117070580D01*
X67000000Y-116789420D02*
X67000000Y-117070580D01*
%TO.C,C106*%
X71340580Y-71490000D02*
X71059420Y-71490000D01*
X71340580Y-72510000D02*
X71059420Y-72510000D01*
%TO.C,C48*%
X94011252Y-79265000D02*
X93488748Y-79265000D01*
X94011252Y-80735000D02*
X93488748Y-80735000D01*
%TO.C,U26*%
X133590000Y-91540000D02*
X135410000Y-91540000D01*
X133590000Y-91590000D02*
X133590000Y-91540000D01*
X133590000Y-94660000D02*
X133590000Y-94610000D01*
X135410000Y-91540000D02*
X135410000Y-91590000D01*
X135410000Y-92710000D02*
X135410000Y-93490000D01*
X135410000Y-94610000D02*
X135410000Y-94660000D01*
X135410000Y-94660000D02*
X133590000Y-94660000D01*
X133050000Y-91590000D02*
X132810000Y-91260000D01*
X133290000Y-91260000D01*
X133050000Y-91590000D01*
G36*
X133050000Y-91590000D02*
G01*
X132810000Y-91260000D01*
X133290000Y-91260000D01*
X133050000Y-91590000D01*
G37*
%TO.C,C8*%
X108899420Y-58690000D02*
X109180580Y-58690000D01*
X108899420Y-59710000D02*
X109180580Y-59710000D01*
%TO.C,C24*%
X66961252Y-84890000D02*
X65538748Y-84890000D01*
X66961252Y-87610000D02*
X65538748Y-87610000D01*
%TO.C,Q3*%
X124190000Y-61840000D02*
X125710000Y-61840000D01*
X124190000Y-61890000D02*
X124190000Y-61840000D01*
X124190000Y-63790000D02*
X124190000Y-63010000D01*
X124190000Y-64960000D02*
X124190000Y-64910000D01*
X125710000Y-61840000D02*
X125710000Y-62840000D01*
X125710000Y-63960000D02*
X125710000Y-64960000D01*
X125710000Y-64960000D02*
X124190000Y-64960000D01*
X123890000Y-63350000D02*
X123410000Y-63350000D01*
X123650000Y-63020000D01*
X123890000Y-63350000D01*
G36*
X123890000Y-63350000D02*
G01*
X123410000Y-63350000D01*
X123650000Y-63020000D01*
X123890000Y-63350000D01*
G37*
%TO.C,R93*%
X139862742Y-81377500D02*
X140337258Y-81377500D01*
X139862742Y-82422500D02*
X140337258Y-82422500D01*
%TO.C,R31*%
X77512742Y-97727500D02*
X77987258Y-97727500D01*
X77512742Y-98772500D02*
X77987258Y-98772500D01*
%TO.C,C93*%
X69700580Y-134900000D02*
X69419420Y-134900000D01*
X69700580Y-135920000D02*
X69419420Y-135920000D01*
%TO.C,C123*%
X113390000Y-135665748D02*
X113390000Y-132834252D01*
X118610000Y-135665748D02*
X118610000Y-132834252D01*
%TO.C,C18*%
X86559420Y-86590000D02*
X86840580Y-86590000D01*
X86559420Y-87610000D02*
X86840580Y-87610000D01*
%TO.C,R77*%
X78977500Y-59462742D02*
X78977500Y-59937258D01*
X80022500Y-59462742D02*
X80022500Y-59937258D01*
%TO.C,L1*%
X68840000Y-99190000D02*
X75660000Y-99190000D01*
X68840000Y-105810000D02*
X68840000Y-99190000D01*
X75660000Y-99190000D02*
X75660000Y-105810000D01*
X75660000Y-105810000D02*
X68840000Y-105810000D01*
%TO.C,R14*%
X121212742Y-65127500D02*
X121687258Y-65127500D01*
X121212742Y-66172500D02*
X121687258Y-66172500D01*
%TO.C,C66*%
X78959420Y-71490000D02*
X79240580Y-71490000D01*
X78959420Y-72510000D02*
X79240580Y-72510000D01*
%TO.C,R18*%
X128737258Y-61177500D02*
X128262742Y-61177500D01*
X128737258Y-62222500D02*
X128262742Y-62222500D01*
%TO.C,R63*%
X53477500Y-115162742D02*
X53477500Y-115637258D01*
X54522500Y-115162742D02*
X54522500Y-115637258D01*
%TO.C,R108*%
X133862742Y-89577500D02*
X134337258Y-89577500D01*
X133862742Y-90622500D02*
X134337258Y-90622500D01*
%TO.C,C11*%
X91990000Y-58140580D02*
X91990000Y-57859420D01*
X93010000Y-58140580D02*
X93010000Y-57859420D01*
%TO.C,L9*%
X113530000Y-128600000D02*
X113530000Y-111900000D01*
X115800000Y-128970000D02*
X113900000Y-128970000D01*
X115810000Y-111530000D02*
X113910000Y-111530000D01*
X130600000Y-111530000D02*
X128700000Y-111530000D01*
X130610000Y-128970000D02*
X128710000Y-128970000D01*
X130970000Y-111900000D02*
X130970000Y-128600000D01*
X113529865Y-111900000D02*
G75*
G02*
X113890000Y-111530000I370135J0D01*
G01*
X113900000Y-128970000D02*
G75*
G02*
X113530000Y-128600000I0J370000D01*
G01*
X130600000Y-111529460D02*
G75*
G02*
X130970001Y-111880000I-1J-370542D01*
G01*
X130970135Y-128600000D02*
G75*
G02*
X130610000Y-128970000I-370135J0D01*
G01*
%TO.C,C16*%
X96740000Y-77359420D02*
X96740000Y-77640580D01*
X97760000Y-77359420D02*
X97760000Y-77640580D01*
%TO.C,C78*%
X70670000Y-112327677D02*
X80830000Y-112327677D01*
X70670000Y-112367677D02*
X80830000Y-112367677D01*
X70671000Y-112247677D02*
X80829000Y-112247677D01*
X70671000Y-112287677D02*
X80829000Y-112287677D01*
X70673000Y-112207677D02*
X80827000Y-112207677D01*
X70674000Y-112167677D02*
X80826000Y-112167677D01*
X70676000Y-112127677D02*
X80824000Y-112127677D01*
X70678000Y-112087677D02*
X80822000Y-112087677D01*
X70680000Y-112047677D02*
X80820000Y-112047677D01*
X70683000Y-112007677D02*
X80817000Y-112007677D01*
X70686000Y-111967677D02*
X80814000Y-111967677D01*
X70689000Y-111927677D02*
X80811000Y-111927677D01*
X70693000Y-111887677D02*
X80807000Y-111887677D01*
X70696000Y-111847677D02*
X80804000Y-111847677D01*
X70701000Y-111807677D02*
X80799000Y-111807677D01*
X70705000Y-111767677D02*
X80795000Y-111767677D01*
X70710000Y-111727677D02*
X80790000Y-111727677D01*
X70715000Y-111687677D02*
X80785000Y-111687677D01*
X70721000Y-111647677D02*
X80779000Y-111647677D01*
X70727000Y-111607677D02*
X80773000Y-111607677D01*
X70733000Y-111567677D02*
X80767000Y-111567677D01*
X70739000Y-111527677D02*
X80761000Y-111527677D01*
X70746000Y-111487677D02*
X80754000Y-111487677D01*
X70753000Y-111447677D02*
X80747000Y-111447677D01*
X70761000Y-111407677D02*
X80739000Y-111407677D01*
X70769000Y-111367677D02*
X80731000Y-111367677D01*
X70777000Y-111327677D02*
X80723000Y-111327677D01*
X70785000Y-111287677D02*
X80715000Y-111287677D01*
X70794000Y-111247677D02*
X80706000Y-111247677D01*
X70803000Y-111207677D02*
X80697000Y-111207677D01*
X70813000Y-111167677D02*
X80687000Y-111167677D01*
X70822000Y-111127677D02*
X80678000Y-111127677D01*
X70833000Y-111087677D02*
X74510000Y-111087677D01*
X70843000Y-111047677D02*
X74510000Y-111047677D01*
X70854000Y-111007677D02*
X74510000Y-111007677D01*
X70865000Y-110967677D02*
X74510000Y-110967677D01*
X70877000Y-110927677D02*
X74510000Y-110927677D01*
X70889000Y-110887677D02*
X74510000Y-110887677D01*
X70901000Y-110847677D02*
X74510000Y-110847677D01*
X70913000Y-110807677D02*
X74510000Y-110807677D01*
X70926000Y-110767677D02*
X74510000Y-110767677D01*
X70940000Y-110727677D02*
X74510000Y-110727677D01*
X70953000Y-110687677D02*
X74510000Y-110687677D01*
X70968000Y-110647677D02*
X74510000Y-110647677D01*
X70982000Y-110607677D02*
X74510000Y-110607677D01*
X70997000Y-110567677D02*
X74510000Y-110567677D01*
X71012000Y-110527677D02*
X74510000Y-110527677D01*
X71028000Y-110487677D02*
X74510000Y-110487677D01*
X71044000Y-110447677D02*
X74510000Y-110447677D01*
X71060000Y-110407677D02*
X74510000Y-110407677D01*
X71077000Y-110367677D02*
X74510000Y-110367677D01*
X71094000Y-110327677D02*
X74510000Y-110327677D01*
X71112000Y-110287677D02*
X74510000Y-110287677D01*
X71130000Y-110247677D02*
X74510000Y-110247677D01*
X71148000Y-110207677D02*
X74510000Y-110207677D01*
X71167000Y-110167677D02*
X74510000Y-110167677D01*
X71186000Y-110127677D02*
X74510000Y-110127677D01*
X71206000Y-110087677D02*
X74510000Y-110087677D01*
X71226000Y-110047677D02*
X74510000Y-110047677D01*
X71246000Y-110007677D02*
X74510000Y-110007677D01*
X71267000Y-109967677D02*
X74510000Y-109967677D01*
X71289000Y-109927677D02*
X74510000Y-109927677D01*
X71311000Y-109887677D02*
X74510000Y-109887677D01*
X71333000Y-109847677D02*
X74510000Y-109847677D01*
X71356000Y-109807677D02*
X74510000Y-109807677D01*
X71379000Y-109767677D02*
X74510000Y-109767677D01*
X71403000Y-109727677D02*
X74510000Y-109727677D01*
X71427000Y-109687677D02*
X74510000Y-109687677D01*
X71452000Y-109647677D02*
X74510000Y-109647677D01*
X71478000Y-109607677D02*
X74510000Y-109607677D01*
X71503000Y-109567677D02*
X74510000Y-109567677D01*
X71530000Y-109527677D02*
X74510000Y-109527677D01*
X71557000Y-109487677D02*
X74510000Y-109487677D01*
X71584000Y-109447677D02*
X74510000Y-109447677D01*
X71612000Y-109407677D02*
X74510000Y-109407677D01*
X71641000Y-109367677D02*
X74510000Y-109367677D01*
X71670000Y-109327677D02*
X74510000Y-109327677D01*
X71700000Y-109287677D02*
X74510000Y-109287677D01*
X71730000Y-109247677D02*
X74510000Y-109247677D01*
X71762000Y-109207677D02*
X74510000Y-109207677D01*
X71793000Y-109167677D02*
X74510000Y-109167677D01*
X71826000Y-109127677D02*
X74510000Y-109127677D01*
X71859000Y-109087677D02*
X74510000Y-109087677D01*
X71892000Y-109047677D02*
X74510000Y-109047677D01*
X71927000Y-109007677D02*
X74510000Y-109007677D01*
X71962000Y-108967677D02*
X74510000Y-108967677D01*
X71998000Y-108927677D02*
X74510000Y-108927677D01*
X72034000Y-108887677D02*
X74510000Y-108887677D01*
X72072000Y-108847677D02*
X74510000Y-108847677D01*
X72110000Y-108807677D02*
X74510000Y-108807677D01*
X72149000Y-108767677D02*
X74510000Y-108767677D01*
X72189000Y-108727677D02*
X74510000Y-108727677D01*
X72230000Y-108687677D02*
X74510000Y-108687677D01*
X72272000Y-108647677D02*
X74510000Y-108647677D01*
X72315000Y-108607677D02*
X79185000Y-108607677D01*
X72359000Y-108567677D02*
X79141000Y-108567677D01*
X72375000Y-117347323D02*
X73375000Y-117347323D01*
X72403000Y-108527677D02*
X79097000Y-108527677D01*
X72449000Y-108487677D02*
X79051000Y-108487677D01*
X72496000Y-108447677D02*
X79004000Y-108447677D01*
X72545000Y-108407677D02*
X78955000Y-108407677D01*
X72594000Y-108367677D02*
X78906000Y-108367677D01*
X72645000Y-108327677D02*
X78855000Y-108327677D01*
X72697000Y-108287677D02*
X78803000Y-108287677D01*
X72750000Y-108247677D02*
X78750000Y-108247677D01*
X72805000Y-108207677D02*
X78695000Y-108207677D01*
X72862000Y-108167677D02*
X78638000Y-108167677D01*
X72875000Y-117847323D02*
X72875000Y-116847323D01*
X72920000Y-108127677D02*
X78580000Y-108127677D01*
X72980000Y-108087677D02*
X78520000Y-108087677D01*
X73042000Y-108047677D02*
X78458000Y-108047677D01*
X73106000Y-108007677D02*
X78394000Y-108007677D01*
X73172000Y-107967677D02*
X78328000Y-107967677D01*
X73240000Y-107927677D02*
X78260000Y-107927677D01*
X73311000Y-107887677D02*
X78189000Y-107887677D01*
X73385000Y-107847677D02*
X78115000Y-107847677D01*
X73462000Y-107807677D02*
X78038000Y-107807677D01*
X73542000Y-107767677D02*
X77958000Y-107767677D01*
X73626000Y-107727677D02*
X77874000Y-107727677D01*
X73713000Y-107687677D02*
X77787000Y-107687677D01*
X73806000Y-107647677D02*
X77694000Y-107647677D01*
X73904000Y-107607677D02*
X77596000Y-107607677D01*
X74008000Y-107567677D02*
X77492000Y-107567677D01*
X74120000Y-107527677D02*
X77380000Y-107527677D01*
X74241000Y-107487677D02*
X77259000Y-107487677D01*
X74373000Y-107447677D02*
X77127000Y-107447677D01*
X74520000Y-107407677D02*
X76980000Y-107407677D01*
X74688000Y-107367677D02*
X76812000Y-107367677D01*
X74888000Y-107327677D02*
X76612000Y-107327677D01*
X75151000Y-107287677D02*
X76349000Y-107287677D01*
X76990000Y-108647677D02*
X79228000Y-108647677D01*
X76990000Y-108687677D02*
X79270000Y-108687677D01*
X76990000Y-108727677D02*
X79311000Y-108727677D01*
X76990000Y-108767677D02*
X79351000Y-108767677D01*
X76990000Y-108807677D02*
X79390000Y-108807677D01*
X76990000Y-108847677D02*
X79428000Y-108847677D01*
X76990000Y-108887677D02*
X79466000Y-108887677D01*
X76990000Y-108927677D02*
X79502000Y-108927677D01*
X76990000Y-108967677D02*
X79538000Y-108967677D01*
X76990000Y-109007677D02*
X79573000Y-109007677D01*
X76990000Y-109047677D02*
X79608000Y-109047677D01*
X76990000Y-109087677D02*
X79641000Y-109087677D01*
X76990000Y-109127677D02*
X79674000Y-109127677D01*
X76990000Y-109167677D02*
X79707000Y-109167677D01*
X76990000Y-109207677D02*
X79738000Y-109207677D01*
X76990000Y-109247677D02*
X79770000Y-109247677D01*
X76990000Y-109287677D02*
X79800000Y-109287677D01*
X76990000Y-109327677D02*
X79830000Y-109327677D01*
X76990000Y-109367677D02*
X79859000Y-109367677D01*
X76990000Y-109407677D02*
X79888000Y-109407677D01*
X76990000Y-109447677D02*
X79916000Y-109447677D01*
X76990000Y-109487677D02*
X79943000Y-109487677D01*
X76990000Y-109527677D02*
X79970000Y-109527677D01*
X76990000Y-109567677D02*
X79997000Y-109567677D01*
X76990000Y-109607677D02*
X80022000Y-109607677D01*
X76990000Y-109647677D02*
X80048000Y-109647677D01*
X76990000Y-109687677D02*
X80073000Y-109687677D01*
X76990000Y-109727677D02*
X80097000Y-109727677D01*
X76990000Y-109767677D02*
X80121000Y-109767677D01*
X76990000Y-109807677D02*
X80144000Y-109807677D01*
X76990000Y-109847677D02*
X80167000Y-109847677D01*
X76990000Y-109887677D02*
X80189000Y-109887677D01*
X76990000Y-109927677D02*
X80211000Y-109927677D01*
X76990000Y-109967677D02*
X80233000Y-109967677D01*
X76990000Y-110007677D02*
X80254000Y-110007677D01*
X76990000Y-110047677D02*
X80274000Y-110047677D01*
X76990000Y-110087677D02*
X80294000Y-110087677D01*
X76990000Y-110127677D02*
X80314000Y-110127677D01*
X76990000Y-110167677D02*
X80333000Y-110167677D01*
X76990000Y-110207677D02*
X80352000Y-110207677D01*
X76990000Y-110247677D02*
X80370000Y-110247677D01*
X76990000Y-110287677D02*
X80388000Y-110287677D01*
X76990000Y-110327677D02*
X80406000Y-110327677D01*
X76990000Y-110367677D02*
X80423000Y-110367677D01*
X76990000Y-110407677D02*
X80440000Y-110407677D01*
X76990000Y-110447677D02*
X80456000Y-110447677D01*
X76990000Y-110487677D02*
X80472000Y-110487677D01*
X76990000Y-110527677D02*
X80488000Y-110527677D01*
X76990000Y-110567677D02*
X80503000Y-110567677D01*
X76990000Y-110607677D02*
X80518000Y-110607677D01*
X76990000Y-110647677D02*
X80532000Y-110647677D01*
X76990000Y-110687677D02*
X80547000Y-110687677D01*
X76990000Y-110727677D02*
X80560000Y-110727677D01*
X76990000Y-110767677D02*
X80574000Y-110767677D01*
X76990000Y-110807677D02*
X80587000Y-110807677D01*
X76990000Y-110847677D02*
X80599000Y-110847677D01*
X76990000Y-110887677D02*
X80611000Y-110887677D01*
X76990000Y-110927677D02*
X80623000Y-110927677D01*
X76990000Y-110967677D02*
X80635000Y-110967677D01*
X76990000Y-111007677D02*
X80646000Y-111007677D01*
X76990000Y-111047677D02*
X80657000Y-111047677D01*
X76990000Y-111087677D02*
X80667000Y-111087677D01*
X80870000Y-112367677D02*
G75*
G02*
X70630000Y-112367677I-5120000J0D01*
G01*
X70630000Y-112367677D02*
G75*
G02*
X80870000Y-112367677I5120000J0D01*
G01*
%TO.C,R101*%
X139277500Y-99937258D02*
X139277500Y-99462742D01*
X140322500Y-99937258D02*
X140322500Y-99462742D01*
%TO.C,R47*%
X107177500Y-83137258D02*
X107177500Y-82662742D01*
X108222500Y-83137258D02*
X108222500Y-82662742D01*
%TO.C,C38*%
X79859420Y-84490000D02*
X80140580Y-84490000D01*
X79859420Y-85510000D02*
X80140580Y-85510000D01*
%TO.C,C146*%
X127059420Y-72190000D02*
X127340580Y-72190000D01*
X127059420Y-73210000D02*
X127340580Y-73210000D01*
%TO.C,C76*%
X77955000Y-124188748D02*
X77955000Y-124711252D01*
X79425000Y-124188748D02*
X79425000Y-124711252D01*
%TO.C,R23*%
X112037258Y-66877500D02*
X111562742Y-66877500D01*
X112037258Y-67922500D02*
X111562742Y-67922500D01*
%TO.C,C131*%
X131190000Y-91640580D02*
X131190000Y-91359420D01*
X132210000Y-91640580D02*
X132210000Y-91359420D01*
%TO.C,C28*%
X83640580Y-100490000D02*
X83359420Y-100490000D01*
X83640580Y-101510000D02*
X83359420Y-101510000D01*
%TO.C,U3*%
X85540000Y-85310000D02*
X85540000Y-83900000D01*
X87860000Y-85300000D02*
X87860000Y-83900000D01*
X85590000Y-85680000D02*
X85260000Y-85920000D01*
X85260000Y-85440000D01*
X85590000Y-85680000D01*
G36*
X85590000Y-85680000D02*
G01*
X85260000Y-85920000D01*
X85260000Y-85440000D01*
X85590000Y-85680000D01*
G37*
%TO.C,D11*%
X123290000Y-132850000D02*
X123290000Y-134550000D01*
X123290000Y-132850000D02*
X125950000Y-132850000D01*
X123290000Y-134550000D02*
X125950000Y-134550000D01*
%TO.C,R69*%
X64762742Y-70477500D02*
X65237258Y-70477500D01*
X64762742Y-71522500D02*
X65237258Y-71522500D01*
%TO.C,C102*%
X86240000Y-145334420D02*
X86240000Y-145615580D01*
X87260000Y-145334420D02*
X87260000Y-145615580D01*
%TO.C,C68*%
X82290000Y-68440580D02*
X82290000Y-68159420D01*
X83310000Y-68440580D02*
X83310000Y-68159420D01*
%TO.C,R61*%
X65137258Y-132677500D02*
X64662742Y-132677500D01*
X65137258Y-133722500D02*
X64662742Y-133722500D01*
%TO.C,U21*%
X143500000Y-91340000D02*
X142100000Y-91340000D01*
X143510000Y-93660000D02*
X142100000Y-93660000D01*
X144120000Y-93940000D02*
X143640000Y-93940000D01*
X143880000Y-93610000D01*
X144120000Y-93940000D01*
G36*
X144120000Y-93940000D02*
G01*
X143640000Y-93940000D01*
X143880000Y-93610000D01*
X144120000Y-93940000D01*
G37*
%TO.C,C121*%
X130159420Y-99690000D02*
X130440580Y-99690000D01*
X130159420Y-100710000D02*
X130440580Y-100710000D01*
%TO.C,R105*%
X125977500Y-94987258D02*
X125977500Y-94512742D01*
X127022500Y-94987258D02*
X127022500Y-94512742D01*
%TO.C,C111*%
X138290000Y-93559420D02*
X138290000Y-93840580D01*
X139310000Y-93559420D02*
X139310000Y-93840580D01*
%TO.C,U27*%
X136390000Y-85840000D02*
X138210000Y-85840000D01*
X136390000Y-85890000D02*
X136390000Y-85840000D01*
X136390000Y-88960000D02*
X136390000Y-88910000D01*
X138210000Y-85840000D02*
X138210000Y-85890000D01*
X138210000Y-87010000D02*
X138210000Y-87790000D01*
X138210000Y-88910000D02*
X138210000Y-88960000D01*
X138210000Y-88960000D02*
X136390000Y-88960000D01*
X135850000Y-85890000D02*
X135610000Y-85560000D01*
X136090000Y-85560000D01*
X135850000Y-85890000D01*
G36*
X135850000Y-85890000D02*
G01*
X135610000Y-85560000D01*
X136090000Y-85560000D01*
X135850000Y-85890000D01*
G37*
%TO.C,L7*%
X95280000Y-128600000D02*
X95280000Y-111900000D01*
X95640000Y-111530000D02*
X97540000Y-111530000D01*
X95650000Y-128970000D02*
X97550000Y-128970000D01*
X110440000Y-128970000D02*
X112340000Y-128970000D01*
X110450000Y-111530000D02*
X112350000Y-111530000D01*
X112720000Y-111900000D02*
X112720000Y-128600000D01*
X95279865Y-111900000D02*
G75*
G02*
X95640000Y-111530000I370135J0D01*
G01*
X95650000Y-128970540D02*
G75*
G02*
X95279999Y-128620000I1J370542D01*
G01*
X112350000Y-111530000D02*
G75*
G02*
X112720000Y-111900000I0J-370000D01*
G01*
X112720135Y-128600000D02*
G75*
G02*
X112360000Y-128970000I-370135J0D01*
G01*
%TO.C,R9*%
X99837742Y-77527500D02*
X100312258Y-77527500D01*
X99837742Y-78572500D02*
X100312258Y-78572500D01*
%TO.C,R51*%
X102562742Y-89477500D02*
X103037258Y-89477500D01*
X102562742Y-90522500D02*
X103037258Y-90522500D01*
%TO.C,R100*%
X139477500Y-102462742D02*
X139477500Y-102937258D01*
X140522500Y-102462742D02*
X140522500Y-102937258D01*
%TO.C,U14*%
X81740000Y-70990000D02*
X82215000Y-70990000D01*
X81740000Y-71465000D02*
X81740000Y-70990000D01*
X81740000Y-75210000D02*
X81740000Y-74735000D01*
X82215000Y-75210000D02*
X81740000Y-75210000D01*
X85485000Y-70990000D02*
X85960000Y-70990000D01*
X85960000Y-70990000D02*
X85960000Y-71465000D01*
X85960000Y-74735000D02*
X85960000Y-75210000D01*
X85960000Y-75210000D02*
X85485000Y-75210000D01*
X86790000Y-74590000D02*
X86460000Y-74350000D01*
X86790000Y-74110000D01*
X86790000Y-74590000D01*
G36*
X86790000Y-74590000D02*
G01*
X86460000Y-74350000D01*
X86790000Y-74110000D01*
X86790000Y-74590000D01*
G37*
%TO.C,U2*%
X92890000Y-59890000D02*
X93590000Y-59890000D01*
X92890000Y-60590000D02*
X92890000Y-59890000D01*
X92890000Y-74110000D02*
X92890000Y-73410000D01*
X93590000Y-74110000D02*
X92890000Y-74110000D01*
X106410000Y-59890000D02*
X107110000Y-59890000D01*
X107110000Y-59890000D02*
X107110000Y-60590000D01*
X107110000Y-73410000D02*
X107110000Y-74110000D01*
X107110000Y-74110000D02*
X106410000Y-74110000D01*
X92250000Y-60590000D02*
X91910000Y-60120000D01*
X92590000Y-60120000D01*
X92250000Y-60590000D01*
G36*
X92250000Y-60590000D02*
G01*
X91910000Y-60120000D01*
X92590000Y-60120000D01*
X92250000Y-60590000D01*
G37*
%TO.C,C96*%
X92840000Y-146711252D02*
X92840000Y-145288748D01*
X94660000Y-146711252D02*
X94660000Y-145288748D01*
%TO.C,Q7*%
X76160000Y-102940000D02*
X76160000Y-106440000D01*
X76420000Y-102940000D02*
X76160000Y-102940000D01*
X76420000Y-106440000D02*
X76160000Y-106440000D01*
X79660000Y-103260000D02*
X79660000Y-106440000D01*
X79660000Y-106440000D02*
X79400000Y-106440000D01*
X79880000Y-102940000D02*
X79400000Y-102940000D01*
X79400000Y-102460000D01*
X79880000Y-102940000D01*
G36*
X79880000Y-102940000D02*
G01*
X79400000Y-102940000D01*
X79400000Y-102460000D01*
X79880000Y-102940000D01*
G37*
%TO.C,C12*%
X88240000Y-67859420D02*
X88240000Y-68140580D01*
X89260000Y-67859420D02*
X89260000Y-68140580D01*
%TO.C,R82*%
X92977064Y-112590000D02*
X91522936Y-112590000D01*
X92977064Y-114410000D02*
X91522936Y-114410000D01*
%TO.C,C98*%
X90765000Y-145761252D02*
X90765000Y-145238748D01*
X92235000Y-145761252D02*
X92235000Y-145238748D01*
%TO.C,C60*%
X64390000Y-109538748D02*
X64390000Y-110961252D01*
X67110000Y-109538748D02*
X67110000Y-110961252D01*
%TO.C,R88*%
X139877500Y-90937258D02*
X139877500Y-90462742D01*
X140922500Y-90937258D02*
X140922500Y-90462742D01*
%TO.C,R2*%
X100477500Y-56262742D02*
X100477500Y-56737258D01*
X101522500Y-56262742D02*
X101522500Y-56737258D01*
%TO.C,C144*%
X133490000Y-81459420D02*
X133490000Y-81740580D01*
X134510000Y-81459420D02*
X134510000Y-81740580D01*
%TO.C,Q13*%
X72940000Y-61140000D02*
X74460000Y-61140000D01*
X72940000Y-62140000D02*
X72940000Y-61140000D01*
X72940000Y-64260000D02*
X72940000Y-63260000D01*
X74460000Y-61140000D02*
X74460000Y-61190000D01*
X74460000Y-62310000D02*
X74460000Y-63090000D01*
X74460000Y-64210000D02*
X74460000Y-64260000D01*
X74460000Y-64260000D02*
X72940000Y-64260000D01*
X75000000Y-63080000D02*
X74760000Y-62750000D01*
X75240000Y-62750000D01*
X75000000Y-63080000D01*
G36*
X75000000Y-63080000D02*
G01*
X74760000Y-62750000D01*
X75240000Y-62750000D01*
X75000000Y-63080000D01*
G37*
%TO.C,C35*%
X78390000Y-82461252D02*
X78390000Y-81038748D01*
X81110000Y-82461252D02*
X81110000Y-81038748D01*
%TO.C,C67*%
X86990000Y-77640580D02*
X86990000Y-77359420D01*
X88010000Y-77640580D02*
X88010000Y-77359420D01*
%TO.C,R109*%
X138337258Y-90877500D02*
X137862742Y-90877500D01*
X138337258Y-91922500D02*
X137862742Y-91922500D01*
D14*
%TO.C,Q8*%
X57469400Y-76087000D02*
X57469400Y-82538600D01*
X57469400Y-82538600D02*
X57885960Y-82538600D01*
X58015061Y-76087000D02*
X57469400Y-76087000D01*
X60441200Y-74893200D02*
X60441200Y-76087000D01*
X60441200Y-76087000D02*
X59594941Y-76087000D01*
X61558800Y-74893200D02*
X60441200Y-74893200D01*
X61558800Y-76087000D02*
X61558800Y-74893200D01*
X62405059Y-76087000D02*
X61558800Y-76087000D01*
X64114040Y-82538600D02*
X64530600Y-82538600D01*
X64530600Y-76087000D02*
X63984939Y-76087000D01*
X64530600Y-82538600D02*
X64530600Y-76087000D01*
D13*
%TO.C,U24*%
X135990000Y-98040000D02*
X137810000Y-98040000D01*
X135990000Y-98090000D02*
X135990000Y-98040000D01*
X135990000Y-101160000D02*
X135990000Y-101110000D01*
X137810000Y-98040000D02*
X137810000Y-98090000D01*
X137810000Y-99210000D02*
X137810000Y-99990000D01*
X137810000Y-101110000D02*
X137810000Y-101160000D01*
X137810000Y-101160000D02*
X135990000Y-101160000D01*
X135450000Y-98090000D02*
X135210000Y-97760000D01*
X135690000Y-97760000D01*
X135450000Y-98090000D01*
G36*
X135450000Y-98090000D02*
G01*
X135210000Y-97760000D01*
X135690000Y-97760000D01*
X135450000Y-98090000D01*
G37*
%TO.C,C59*%
X64390000Y-106211252D02*
X64390000Y-104788748D01*
X67110000Y-106211252D02*
X67110000Y-104788748D01*
%TO.C,C57*%
X57877500Y-103090580D02*
X57877500Y-102809420D01*
X58897500Y-103090580D02*
X58897500Y-102809420D01*
%TO.C,C53*%
X93715580Y-83352500D02*
X93434420Y-83352500D01*
X93715580Y-84372500D02*
X93434420Y-84372500D01*
%TO.C,R87*%
X139777500Y-93462742D02*
X139777500Y-93937258D01*
X140822500Y-93462742D02*
X140822500Y-93937258D01*
%TO.C,R89*%
X142462742Y-89777500D02*
X142937258Y-89777500D01*
X142462742Y-90822500D02*
X142937258Y-90822500D01*
%TO.C,U22*%
X140840000Y-96690000D02*
X140890000Y-96690000D01*
X140840000Y-98510000D02*
X140840000Y-96690000D01*
X140890000Y-98510000D02*
X140840000Y-98510000D01*
X143910000Y-96690000D02*
X143960000Y-96690000D01*
X143960000Y-96690000D02*
X143960000Y-98510000D01*
X143960000Y-98510000D02*
X143910000Y-98510000D01*
X144240000Y-96390000D02*
X143910000Y-96150000D01*
X144240000Y-95910000D01*
X144240000Y-96390000D01*
G36*
X144240000Y-96390000D02*
G01*
X143910000Y-96150000D01*
X144240000Y-95910000D01*
X144240000Y-96390000D01*
G37*
%TO.C,C115*%
X134140580Y-107990000D02*
X133859420Y-107990000D01*
X134140580Y-109010000D02*
X133859420Y-109010000D01*
%TO.C,C86*%
X51490000Y-109259420D02*
X51490000Y-109540580D01*
X52510000Y-109259420D02*
X52510000Y-109540580D01*
%TO.C,R60*%
X58262742Y-123877500D02*
X58737258Y-123877500D01*
X58262742Y-124922500D02*
X58737258Y-124922500D01*
%TO.C,C92*%
X69640580Y-114900000D02*
X69359420Y-114900000D01*
X69640580Y-115920000D02*
X69359420Y-115920000D01*
%TO.C,C99*%
X100465000Y-108861252D02*
X100465000Y-108338748D01*
X101935000Y-108861252D02*
X101935000Y-108338748D01*
D17*
%TO.C,D3*%
X58010000Y-84830000D02*
X62490000Y-84830000D01*
X62490000Y-88670000D02*
X58010000Y-88670000D01*
D13*
%TO.C,JP3*%
X143100000Y-103350000D02*
X143100000Y-101950000D01*
X143800000Y-101250000D02*
X144400000Y-101250000D01*
X144400000Y-104050000D02*
X143800000Y-104050000D01*
X145100000Y-101950000D02*
X145100000Y-103350000D01*
X143100000Y-101950000D02*
G75*
G02*
X143800000Y-101250000I700000J0D01*
G01*
X143800000Y-104050000D02*
G75*
G02*
X143100000Y-103350000I-1J699999D01*
G01*
X144400000Y-101250000D02*
G75*
G02*
X145100000Y-101950000I0J-700000D01*
G01*
X145100000Y-103350000D02*
G75*
G02*
X144400000Y-104050000I-699999J-1D01*
G01*
%TO.C,C46*%
X88390000Y-105788748D02*
X88390000Y-107211252D01*
X91110000Y-105788748D02*
X91110000Y-107211252D01*
%TO.C,R107*%
X131237258Y-88677500D02*
X130762742Y-88677500D01*
X131237258Y-89722500D02*
X130762742Y-89722500D01*
D12*
%TO.C,L6*%
X97250000Y-131250000D02*
X97250000Y-134650000D01*
X97250000Y-140800000D02*
X97250000Y-144250000D01*
X97250000Y-144250000D02*
X97250000Y-140800000D01*
X97250000Y-144250000D02*
X110250000Y-144250000D01*
X110250000Y-131250000D02*
X97250000Y-131250000D01*
X110250000Y-131250000D02*
X110250000Y-134700000D01*
X110250000Y-134700000D02*
X110250000Y-131250000D01*
X110250000Y-144250000D02*
X110250000Y-140800000D01*
D13*
%TO.C,C100*%
X89240000Y-145640580D02*
X89240000Y-145359420D01*
X90260000Y-145640580D02*
X90260000Y-145359420D01*
%TO.C,C112*%
X144390000Y-95940580D02*
X144390000Y-95659420D01*
X145410000Y-95940580D02*
X145410000Y-95659420D01*
%TO.C,R71*%
X76337258Y-70777500D02*
X75862742Y-70777500D01*
X76337258Y-71822500D02*
X75862742Y-71822500D01*
%TO.C,L3*%
X58250000Y-116800000D02*
X60750000Y-116800000D01*
X60750000Y-108400000D02*
X58250000Y-108400000D01*
%TO.C,R10*%
X74577500Y-73862258D02*
X74577500Y-73387742D01*
X75622500Y-73862258D02*
X75622500Y-73387742D01*
%TO.C,R42*%
X96762742Y-85977500D02*
X97237258Y-85977500D01*
X96762742Y-87022500D02*
X97237258Y-87022500D01*
%TO.C,U8*%
X73610000Y-96700000D02*
X73610000Y-94700000D01*
X76890000Y-96710000D02*
X76890000Y-94710000D01*
X73680000Y-97350000D02*
X73400000Y-97070000D01*
X73680000Y-97070000D01*
X73680000Y-97350000D01*
G36*
X73680000Y-97350000D02*
G01*
X73400000Y-97070000D01*
X73680000Y-97070000D01*
X73680000Y-97350000D01*
G37*
%TO.C,Q1*%
X124127500Y-65290000D02*
X125647500Y-65290000D01*
X124127500Y-65340000D02*
X124127500Y-65290000D01*
X124127500Y-67240000D02*
X124127500Y-66460000D01*
X124127500Y-68410000D02*
X124127500Y-68360000D01*
X125647500Y-65290000D02*
X125647500Y-66290000D01*
X125647500Y-67410000D02*
X125647500Y-68410000D01*
X125647500Y-68410000D02*
X124127500Y-68410000D01*
X123827500Y-66800000D02*
X123347500Y-66800000D01*
X123587500Y-66470000D01*
X123827500Y-66800000D01*
G36*
X123827500Y-66800000D02*
G01*
X123347500Y-66800000D01*
X123587500Y-66470000D01*
X123827500Y-66800000D01*
G37*
%TO.C,C94*%
X83890580Y-144490000D02*
X83609420Y-144490000D01*
X83890580Y-145510000D02*
X83609420Y-145510000D01*
%TO.C,U15*%
X81990000Y-60835000D02*
X81990000Y-61625000D01*
X84810000Y-60835000D02*
X84810000Y-61835000D01*
X81990000Y-62235000D02*
X81710000Y-61955000D01*
X81990000Y-61955000D01*
X81990000Y-62235000D01*
G36*
X81990000Y-62235000D02*
G01*
X81710000Y-61955000D01*
X81990000Y-61955000D01*
X81990000Y-62235000D01*
G37*
%TO.C,R95*%
X137877500Y-102662742D02*
X137877500Y-103137258D01*
X138922500Y-102662742D02*
X138922500Y-103137258D01*
%TO.C,C74*%
X77955000Y-121211252D02*
X77955000Y-120688748D01*
X79425000Y-121211252D02*
X79425000Y-120688748D01*
%TO.C,R44*%
X89562742Y-76577500D02*
X90037258Y-76577500D01*
X89562742Y-77622500D02*
X90037258Y-77622500D01*
%TO.C,C37*%
X109890000Y-79211252D02*
X109890000Y-77788748D01*
X112610000Y-79211252D02*
X112610000Y-77788748D01*
%TO.C,C118*%
X130759420Y-107990000D02*
X131040580Y-107990000D01*
X130759420Y-109010000D02*
X131040580Y-109010000D01*
%TO.C,U16*%
X60190000Y-119890000D02*
X60365000Y-119890000D01*
X60190000Y-123110000D02*
X60190000Y-119890000D01*
X60365000Y-123110000D02*
X60190000Y-123110000D01*
X63235000Y-119890000D02*
X63410000Y-119890000D01*
X63410000Y-119890000D02*
X63410000Y-123110000D01*
X63410000Y-123110000D02*
X63235000Y-123110000D01*
X63570000Y-119580000D02*
X63240000Y-119340000D01*
X63570000Y-119100000D01*
X63570000Y-119580000D01*
G36*
X63570000Y-119580000D02*
G01*
X63240000Y-119340000D01*
X63570000Y-119100000D01*
X63570000Y-119580000D01*
G37*
%TO.C,R53*%
X65927258Y-114107500D02*
X65452742Y-114107500D01*
X65927258Y-115152500D02*
X65452742Y-115152500D01*
%TO.C,R11*%
X76077500Y-73837258D02*
X76077500Y-73362742D01*
X77122500Y-73837258D02*
X77122500Y-73362742D01*
%TO.C,D6*%
X69400000Y-65435000D02*
X71685000Y-65435000D01*
X71685000Y-63965000D02*
X69400000Y-63965000D01*
X71685000Y-65435000D02*
X71685000Y-63965000D01*
%TO.C,Q9*%
X81840000Y-107440000D02*
X83360000Y-107440000D01*
X81840000Y-108440000D02*
X81840000Y-107440000D01*
X81840000Y-110560000D02*
X81840000Y-109560000D01*
X83360000Y-107440000D02*
X83360000Y-107490000D01*
X83360000Y-108610000D02*
X83360000Y-109390000D01*
X83360000Y-110510000D02*
X83360000Y-110560000D01*
X83360000Y-110560000D02*
X81840000Y-110560000D01*
X83900000Y-109380000D02*
X83660000Y-109050000D01*
X84140000Y-109050000D01*
X83900000Y-109380000D01*
G36*
X83900000Y-109380000D02*
G01*
X83660000Y-109050000D01*
X84140000Y-109050000D01*
X83900000Y-109380000D01*
G37*
%TO.C,C9*%
X92190000Y-75940580D02*
X92190000Y-75659420D01*
X93210000Y-75940580D02*
X93210000Y-75659420D01*
%TO.C,R75*%
X66337258Y-65077500D02*
X65862742Y-65077500D01*
X66337258Y-66122500D02*
X65862742Y-66122500D01*
%TO.C,R50*%
X64907500Y-74547258D02*
X64907500Y-74072742D01*
X65952500Y-74547258D02*
X65952500Y-74072742D01*
%TO.C,C70*%
X58359420Y-120890000D02*
X58640580Y-120890000D01*
X58359420Y-121910000D02*
X58640580Y-121910000D01*
%TO.C,C17*%
X89740000Y-68140580D02*
X89740000Y-67859420D01*
X90760000Y-68140580D02*
X90760000Y-67859420D01*
D11*
%TO.C,U30*%
X126125000Y-75375000D02*
X126350000Y-75375000D01*
X126125000Y-78625000D02*
X126125000Y-75375000D01*
X126125000Y-78625000D02*
X126350000Y-78625000D01*
X129375000Y-75375000D02*
X129150000Y-75375000D01*
X129375000Y-78625000D02*
X129150000Y-78625000D01*
X129375000Y-78625000D02*
X129375000Y-75375000D01*
D13*
X126350000Y-79100000D02*
X126020000Y-79340000D01*
X126020000Y-78860000D01*
X126350000Y-79100000D01*
G36*
X126350000Y-79100000D02*
G01*
X126020000Y-79340000D01*
X126020000Y-78860000D01*
X126350000Y-79100000D01*
G37*
%TO.C,R25*%
X82177500Y-84637258D02*
X82177500Y-84162742D01*
X83222500Y-84637258D02*
X83222500Y-84162742D01*
%TO.C,U12*%
X59090000Y-104690000D02*
X60910000Y-104690000D01*
X59090000Y-104740000D02*
X59090000Y-104690000D01*
X59090000Y-107810000D02*
X59090000Y-107760000D01*
X60910000Y-104690000D02*
X60910000Y-104740000D01*
X60910000Y-107760000D02*
X60910000Y-107810000D01*
X60910000Y-107810000D02*
X59090000Y-107810000D01*
X61690000Y-108090000D02*
X61210000Y-108090000D01*
X61450000Y-107760000D01*
X61690000Y-108090000D01*
G36*
X61690000Y-108090000D02*
G01*
X61210000Y-108090000D01*
X61450000Y-107760000D01*
X61690000Y-108090000D01*
G37*
%TO.C,R113*%
X127262742Y-81977500D02*
X127737258Y-81977500D01*
X127262742Y-83022500D02*
X127737258Y-83022500D01*
%TO.C,C89*%
X69710580Y-133390000D02*
X69429420Y-133390000D01*
X69710580Y-134410000D02*
X69429420Y-134410000D01*
%TO.C,U13*%
X103115000Y-85790000D02*
X102325000Y-85790000D01*
X103115000Y-88610000D02*
X102115000Y-88610000D01*
X101995000Y-85790000D02*
X101715000Y-85790000D01*
X101995000Y-85510000D01*
X101995000Y-85790000D01*
G36*
X101995000Y-85790000D02*
G01*
X101715000Y-85790000D01*
X101995000Y-85510000D01*
X101995000Y-85790000D01*
G37*
%TO.C,R90*%
X139227500Y-96437742D02*
X139227500Y-96912258D01*
X140272500Y-96437742D02*
X140272500Y-96912258D01*
D16*
%TO.C,SW1*%
X123500000Y-72300000D02*
X123500000Y-69300000D01*
X125500000Y-72300000D02*
X125500000Y-69300000D01*
X124900000Y-70800000D02*
G75*
G02*
X124100000Y-70800000I-400000J0D01*
G01*
X124100000Y-70800000D02*
G75*
G02*
X124900000Y-70800000I400000J0D01*
G01*
D13*
%TO.C,C145*%
X127640580Y-80490000D02*
X127359420Y-80490000D01*
X127640580Y-81510000D02*
X127359420Y-81510000D01*
D12*
%TO.C,U6*%
X69212000Y-81000000D02*
X69212000Y-81000000D01*
X69312000Y-81000000D02*
X69312000Y-81000000D01*
X69912000Y-80625000D02*
X70312000Y-80625000D01*
X69912000Y-80725000D02*
X69912000Y-80625000D01*
X69912000Y-83425000D02*
X69912000Y-83325000D01*
X69912000Y-83425000D02*
X70312000Y-83425000D01*
X72312000Y-80625000D02*
X72712000Y-80625000D01*
X72312000Y-83425000D02*
X72712000Y-83425000D01*
X72712000Y-80625000D02*
X72712000Y-80725000D01*
X72712000Y-83425000D02*
X72712000Y-83325000D01*
X69212000Y-81000000D02*
G75*
G02*
X69312000Y-81000000I50000J0D01*
G01*
X69312000Y-81000000D02*
G75*
G02*
X69212000Y-81000000I-50000J0D01*
G01*
D13*
%TO.C,C69*%
X57040580Y-117390000D02*
X56759420Y-117390000D01*
X57040580Y-118410000D02*
X56759420Y-118410000D01*
%TO.C,C14*%
X89740000Y-62140580D02*
X89740000Y-61859420D01*
X90760000Y-62140580D02*
X90760000Y-61859420D01*
%TO.C,C61*%
X62490000Y-106440580D02*
X62490000Y-106159420D01*
X63510000Y-106440580D02*
X63510000Y-106159420D01*
%TO.C,R28*%
X83737258Y-98977500D02*
X83262742Y-98977500D01*
X83737258Y-100022500D02*
X83262742Y-100022500D01*
%TO.C,C128*%
X129009420Y-92090000D02*
X129290580Y-92090000D01*
X129009420Y-93110000D02*
X129290580Y-93110000D01*
%TO.C,C130*%
X136790000Y-94059420D02*
X136790000Y-94340580D01*
X137810000Y-94059420D02*
X137810000Y-94340580D01*
%TO.C,R43*%
X78862742Y-74477500D02*
X79337258Y-74477500D01*
X78862742Y-75522500D02*
X79337258Y-75522500D01*
%TO.C,U29*%
X130290000Y-80040000D02*
X132110000Y-80040000D01*
X130290000Y-80090000D02*
X130290000Y-80040000D01*
X130290000Y-83160000D02*
X130290000Y-83110000D01*
X132110000Y-80040000D02*
X132110000Y-80090000D01*
X132110000Y-81210000D02*
X132110000Y-81990000D01*
X132110000Y-83110000D02*
X132110000Y-83160000D01*
X132110000Y-83160000D02*
X130290000Y-83160000D01*
X129750000Y-80090000D02*
X129510000Y-79760000D01*
X129990000Y-79760000D01*
X129750000Y-80090000D01*
G36*
X129750000Y-80090000D02*
G01*
X129510000Y-79760000D01*
X129990000Y-79760000D01*
X129750000Y-80090000D01*
G37*
%TO.C,R98*%
X132337258Y-101177500D02*
X131862742Y-101177500D01*
X132337258Y-102222500D02*
X131862742Y-102222500D01*
%TO.C,C20*%
X120590000Y-57740580D02*
X120590000Y-57459420D01*
X121610000Y-57740580D02*
X121610000Y-57459420D01*
%TO.C,Q12*%
X75840000Y-63240000D02*
X77360000Y-63240000D01*
X75840000Y-64240000D02*
X75840000Y-63240000D01*
X75840000Y-66360000D02*
X75840000Y-65360000D01*
X77360000Y-63240000D02*
X77360000Y-63290000D01*
X77360000Y-64410000D02*
X77360000Y-65190000D01*
X77360000Y-66310000D02*
X77360000Y-66360000D01*
X77360000Y-66360000D02*
X75840000Y-66360000D01*
X77900000Y-65180000D02*
X77660000Y-64850000D01*
X78140000Y-64850000D01*
X77900000Y-65180000D01*
G36*
X77900000Y-65180000D02*
G01*
X77660000Y-64850000D01*
X78140000Y-64850000D01*
X77900000Y-65180000D01*
G37*
%TO.C,R8*%
X117637258Y-69377500D02*
X117162742Y-69377500D01*
X117637258Y-70422500D02*
X117162742Y-70422500D01*
%TO.C,R79*%
X74277500Y-58637258D02*
X74277500Y-58162742D01*
X75322500Y-58637258D02*
X75322500Y-58162742D01*
%TO.C,R102*%
X134337258Y-95077500D02*
X133862742Y-95077500D01*
X134337258Y-96122500D02*
X133862742Y-96122500D01*
%TO.C,R17*%
X107237258Y-52477500D02*
X106762742Y-52477500D01*
X107237258Y-53522500D02*
X106762742Y-53522500D01*
%TO.C,C3*%
X106140580Y-76240000D02*
X105859420Y-76240000D01*
X106140580Y-77260000D02*
X105859420Y-77260000D01*
%TO.C,C10*%
X89740000Y-65140580D02*
X89740000Y-64859420D01*
X90760000Y-65140580D02*
X90760000Y-64859420D01*
D14*
%TO.C,SW3*%
X79926300Y-90867800D02*
X79926300Y-98132200D01*
X79926300Y-98132200D02*
X94175700Y-98132200D01*
X94175700Y-90867800D02*
X79926300Y-90867800D01*
X94175700Y-98132200D02*
X94175700Y-90867800D01*
D13*
%TO.C,C104*%
X107140580Y-53990000D02*
X106859420Y-53990000D01*
X107140580Y-55010000D02*
X106859420Y-55010000D01*
%TO.C,R115*%
X144577500Y-83337258D02*
X144577500Y-82862742D01*
X145622500Y-83337258D02*
X145622500Y-82862742D01*
%TO.C,Y2*%
X83540000Y-64290000D02*
X83890000Y-64290000D01*
X83890000Y-64240000D02*
X87610000Y-64240000D01*
X83890000Y-64290000D02*
X83890000Y-64240000D01*
X83890000Y-66410000D02*
X83540000Y-66410000D01*
X83890000Y-67590000D02*
X83890000Y-66410000D01*
X83890000Y-69760000D02*
X83890000Y-69710000D01*
X87610000Y-64240000D02*
X87610000Y-64290000D01*
X87610000Y-66410000D02*
X87610000Y-67590000D01*
X87610000Y-69710000D02*
X87610000Y-69760000D01*
X87610000Y-69760000D02*
X83890000Y-69760000D01*
%TO.C,R68*%
X64737742Y-68177500D02*
X65212258Y-68177500D01*
X64737742Y-69222500D02*
X65212258Y-69222500D01*
%TO.C,C103*%
X104040000Y-106040580D02*
X104040000Y-105759420D01*
X105060000Y-106040580D02*
X105060000Y-105759420D01*
%TO.C,C34*%
X75140000Y-82461252D02*
X75140000Y-81038748D01*
X77860000Y-82461252D02*
X77860000Y-81038748D01*
%TO.C,R97*%
X132637258Y-106277500D02*
X132162742Y-106277500D01*
X132637258Y-107322500D02*
X132162742Y-107322500D01*
%TO.C,F1*%
X53840000Y-86352064D02*
X53840000Y-85147936D01*
X55660000Y-86352064D02*
X55660000Y-85147936D01*
%TO.C,C87*%
X65890000Y-124159420D02*
X65890000Y-124440580D01*
X66910000Y-124159420D02*
X66910000Y-124440580D01*
%TO.C,C105*%
X66790000Y-69259420D02*
X66790000Y-69540580D01*
X67810000Y-69259420D02*
X67810000Y-69540580D01*
%TO.C,C54*%
X125240000Y-85390580D02*
X125240000Y-85109420D01*
X126260000Y-85390580D02*
X126260000Y-85109420D01*
%TO.C,R80*%
X95877500Y-56362742D02*
X95877500Y-56837258D01*
X96922500Y-56362742D02*
X96922500Y-56837258D01*
%TO.C,R104*%
X125977500Y-97987258D02*
X125977500Y-97512742D01*
X127022500Y-97987258D02*
X127022500Y-97512742D01*
%TO.C,Q16*%
X141140000Y-78440000D02*
X142140000Y-78440000D01*
X141140000Y-79960000D02*
X141140000Y-78440000D01*
X141190000Y-79960000D02*
X141140000Y-79960000D01*
X143090000Y-79960000D02*
X142310000Y-79960000D01*
X143260000Y-78440000D02*
X144260000Y-78440000D01*
X144260000Y-78440000D02*
X144260000Y-79960000D01*
X144260000Y-79960000D02*
X144210000Y-79960000D01*
X142650000Y-80740000D02*
X142320000Y-80500000D01*
X142650000Y-80260000D01*
X142650000Y-80740000D01*
G36*
X142650000Y-80740000D02*
G01*
X142320000Y-80500000D01*
X142650000Y-80260000D01*
X142650000Y-80740000D01*
G37*
%TO.C,C83*%
X53490000Y-109259420D02*
X53490000Y-109540580D01*
X54510000Y-109259420D02*
X54510000Y-109540580D01*
%TD*%
%LPC*%
%TO.C,JP2*%
G36*
X76650000Y-77750000D02*
G01*
X78150000Y-77750000D01*
X78150000Y-77450000D01*
X76650000Y-77450000D01*
X76650000Y-77750000D01*
G37*
%TO.C,JP1*%
G36*
X123800000Y-59950000D02*
G01*
X123500000Y-59950000D01*
X123500000Y-58450000D01*
X123800000Y-58450000D01*
X123800000Y-59950000D01*
G37*
%TO.C,JP3*%
G36*
X143350000Y-102800000D02*
G01*
X144850000Y-102800000D01*
X144850000Y-102500000D01*
X143350000Y-102500000D01*
X143350000Y-102800000D01*
G37*
%TD*%
D18*
%TO.C,Y1*%
X85950000Y-61325000D03*
X88550000Y-61325000D03*
X88550000Y-63175000D03*
X85950000Y-63175000D03*
%TD*%
D19*
%TO.C,U4*%
X110270000Y-57720000D03*
X109770000Y-57720000D03*
X109270000Y-57720000D03*
X108770000Y-57720000D03*
X108270000Y-57720000D03*
X108270000Y-56950000D03*
X108770000Y-56950000D03*
X109270000Y-56950000D03*
X109770000Y-56950000D03*
X110270000Y-56950000D03*
%TD*%
D20*
%TO.C,J5*%
X63437500Y-94804900D03*
X58437500Y-94804900D03*
X63437500Y-98304900D03*
X58437500Y-98304900D03*
%TD*%
%TO.C,J6*%
X135554900Y-114062500D03*
X135554900Y-119062500D03*
X139054900Y-114062500D03*
X139054900Y-119062500D03*
X142554901Y-114062500D03*
X142554901Y-119062500D03*
%TD*%
D21*
%TO.C,JP2*%
X77400000Y-76950000D03*
D22*
X77400000Y-78250000D03*
%TD*%
D23*
%TO.C,R103*%
X131600000Y-95775000D03*
X131600000Y-94125000D03*
%TD*%
D24*
%TO.C,U25*%
X128150000Y-94312500D03*
X130050000Y-94312500D03*
X130050000Y-96587500D03*
X129100000Y-96587500D03*
X128150000Y-96587500D03*
%TD*%
D25*
%TO.C,C43*%
X119280000Y-85025000D03*
X119280000Y-86925000D03*
%TD*%
D23*
%TO.C,R84*%
X119000000Y-77300000D03*
X119000000Y-75650000D03*
%TD*%
D26*
%TO.C,U7*%
X117887500Y-88475000D03*
X117887500Y-90375000D03*
X115612500Y-90375000D03*
X115612500Y-89425000D03*
X115612500Y-88475000D03*
%TD*%
D27*
%TO.C,C51*%
X122550000Y-88175000D03*
X124450000Y-88175000D03*
%TD*%
D28*
%TO.C,C140*%
X124075000Y-83575000D03*
X122525000Y-83575000D03*
%TD*%
D23*
%TO.C,R112*%
X121000000Y-83700000D03*
X121000000Y-82050000D03*
%TD*%
D29*
%TO.C,C31*%
X120000000Y-90375000D03*
X120000000Y-88475000D03*
%TD*%
D30*
%TO.C,C42*%
X121030000Y-85200000D03*
X121030000Y-86750000D03*
%TD*%
D31*
%TO.C,U11*%
X123280000Y-85825000D03*
D32*
X122392500Y-86475000D03*
X122392500Y-85825000D03*
X122392500Y-85175000D03*
X124167500Y-85175000D03*
X124167500Y-85825000D03*
X124167500Y-86475000D03*
%TD*%
D33*
%TO.C,C108*%
X113837500Y-77700000D03*
X113837500Y-76150000D03*
%TD*%
D28*
%TO.C,C142*%
X124675000Y-76975000D03*
X123125000Y-76975000D03*
%TD*%
D23*
%TO.C,R33*%
X119250000Y-83500000D03*
X119250000Y-81850000D03*
%TD*%
D25*
%TO.C,C25*%
X113000000Y-84725000D03*
X113000000Y-86625000D03*
%TD*%
D27*
%TO.C,C32*%
X115050000Y-86425000D03*
X116950000Y-86425000D03*
%TD*%
%TO.C,C52*%
X122050000Y-90175000D03*
X123950000Y-90175000D03*
%TD*%
D28*
%TO.C,C107*%
X115275000Y-80075000D03*
X113725000Y-80075000D03*
%TD*%
D34*
%TO.C,R85*%
X116725000Y-74175000D03*
X115075000Y-74175000D03*
%TD*%
D28*
%TO.C,C141*%
X124675000Y-78475000D03*
X123125000Y-78475000D03*
%TD*%
D24*
%TO.C,U20*%
X115550000Y-75837500D03*
X116500000Y-75837500D03*
X117450000Y-75837500D03*
X117450000Y-78112500D03*
X116500000Y-78112500D03*
X115550000Y-78112500D03*
%TD*%
%TO.C,U9*%
X115550000Y-82037500D03*
X117450000Y-82037500D03*
X117450000Y-84312500D03*
X116500000Y-84312500D03*
X115550000Y-84312500D03*
%TD*%
D23*
%TO.C,R111*%
X121000000Y-80700000D03*
X121000000Y-79050000D03*
%TD*%
D34*
%TO.C,R32*%
X118325000Y-80175000D03*
X116675000Y-80175000D03*
%TD*%
D26*
%TO.C,U28*%
X125037500Y-80125000D03*
X125037500Y-82025000D03*
X122762500Y-82025000D03*
X122762500Y-81075000D03*
X122762500Y-80125000D03*
%TD*%
D33*
%TO.C,C39*%
X114000000Y-83200000D03*
X114000000Y-81650000D03*
%TD*%
D35*
%TO.C,J1*%
X95710000Y-52520000D03*
X95710000Y-51250000D03*
X96980000Y-52520000D03*
X96980000Y-51250000D03*
X98250000Y-52520000D03*
X98250000Y-51250000D03*
X99520000Y-52520000D03*
X99520000Y-51250000D03*
X100790000Y-52520000D03*
D36*
X100790000Y-51250000D03*
%TD*%
D37*
%TO.C,R16*%
X109690000Y-54490000D03*
X109690000Y-52840000D03*
%TD*%
D23*
%TO.C,R6*%
X122600000Y-69275000D03*
X122600000Y-70925000D03*
%TD*%
D38*
%TO.C,Q4*%
X111812500Y-89550000D03*
X111812500Y-91450000D03*
X113687500Y-90500000D03*
%TD*%
D19*
%TO.C,U5*%
X115900000Y-59300000D03*
X115400000Y-59300000D03*
X114900000Y-59300000D03*
X114400000Y-59300000D03*
X113900000Y-59300000D03*
X113900000Y-60070000D03*
X114400000Y-60070000D03*
X114900000Y-60070000D03*
X115400000Y-60070000D03*
X115900000Y-60070000D03*
%TD*%
D28*
%TO.C,C147*%
X145125000Y-88800000D03*
X146675000Y-88800000D03*
%TD*%
D37*
%TO.C,R54*%
X100500000Y-90075000D03*
X100500000Y-88425000D03*
%TD*%
D23*
%TO.C,R1*%
X99500000Y-55675000D03*
X99500000Y-57325000D03*
%TD*%
D25*
%TO.C,C82*%
X78690000Y-129100000D03*
X78690000Y-127200000D03*
%TD*%
D39*
%TO.C,C30*%
X87275000Y-99500000D03*
X85725000Y-99500000D03*
%TD*%
D27*
%TO.C,C120*%
X133050000Y-105000000D03*
X131150000Y-105000000D03*
%TD*%
D37*
%TO.C,R81*%
X87100000Y-108925000D03*
X87100000Y-107275000D03*
%TD*%
D40*
%TO.C,L2*%
X72975000Y-87750000D03*
X77025000Y-87750000D03*
%TD*%
D34*
%TO.C,R83*%
X92142500Y-111545000D03*
X93792500Y-111545000D03*
%TD*%
D30*
%TO.C,C134*%
X134500000Y-88175000D03*
X134500000Y-86625000D03*
%TD*%
D23*
%TO.C,R5*%
X104000000Y-55675000D03*
X104000000Y-57325000D03*
%TD*%
D27*
%TO.C,C84*%
X80140000Y-130900000D03*
X78240000Y-130900000D03*
%TD*%
D37*
%TO.C,R55*%
X88950000Y-113675000D03*
X88950000Y-112025000D03*
%TD*%
D25*
%TO.C,C49*%
X92500000Y-103200000D03*
X92500000Y-101300000D03*
%TD*%
D34*
%TO.C,R46*%
X79675000Y-76750000D03*
X81325000Y-76750000D03*
%TD*%
D41*
%TO.C,C44*%
X95525000Y-89250000D03*
X98475000Y-89250000D03*
%TD*%
D28*
%TO.C,C63*%
X77025000Y-56600000D03*
X78575000Y-56600000D03*
%TD*%
D42*
%TO.C,R45*%
X84425000Y-76750000D03*
X82775000Y-76750000D03*
%TD*%
D43*
%TO.C,C47*%
X93000000Y-105025000D03*
X93000000Y-107975000D03*
%TD*%
D44*
%TO.C,Q11*%
X74700000Y-67850000D03*
X74700000Y-65950000D03*
X72825000Y-66900000D03*
%TD*%
D45*
%TO.C,Q17*%
X141250000Y-84737500D03*
X143150000Y-84737500D03*
X142200000Y-82862500D03*
%TD*%
D34*
%TO.C,R20*%
X120625000Y-62150000D03*
X122275000Y-62150000D03*
%TD*%
D28*
%TO.C,C29*%
X70965000Y-93020000D03*
X72515000Y-93020000D03*
%TD*%
D46*
%TO.C,Y3*%
X82675000Y-81600000D03*
X84875000Y-81600000D03*
X84875000Y-79900000D03*
X82675000Y-79900000D03*
%TD*%
D28*
%TO.C,C65*%
X78325000Y-73500000D03*
X79875000Y-73500000D03*
%TD*%
D47*
%TO.C,U18*%
X105487500Y-56250000D03*
X105487500Y-56750000D03*
D48*
X105750000Y-57262500D03*
X106250000Y-57262500D03*
X106750000Y-57262500D03*
D47*
X107012500Y-56750000D03*
X107012500Y-56250000D03*
D48*
X106750000Y-55737500D03*
X106250000Y-55737500D03*
X105750000Y-55737500D03*
%TD*%
D37*
%TO.C,R52*%
X85300000Y-109825000D03*
X85300000Y-108175000D03*
%TD*%
D34*
%TO.C,R96*%
X131275000Y-103200000D03*
X132925000Y-103200000D03*
%TD*%
D35*
%TO.C,TP1*%
X128100000Y-106000000D03*
%TD*%
D41*
%TO.C,C22*%
X70275000Y-77750000D03*
X73225000Y-77750000D03*
%TD*%
D28*
%TO.C,C33*%
X73725000Y-98250000D03*
X75275000Y-98250000D03*
%TD*%
D44*
%TO.C,Q10*%
X87187500Y-113700000D03*
X87187500Y-111800000D03*
X85312500Y-112750000D03*
%TD*%
D42*
%TO.C,R34*%
X79075000Y-99750000D03*
X77425000Y-99750000D03*
%TD*%
D39*
%TO.C,C116*%
X137775000Y-97100000D03*
X136225000Y-97100000D03*
%TD*%
D28*
%TO.C,C129*%
X128075000Y-98300000D03*
X129625000Y-98300000D03*
%TD*%
D30*
%TO.C,C119*%
X138400000Y-106675000D03*
X138400000Y-105125000D03*
%TD*%
D49*
%TO.C,C56*%
X52500000Y-105225000D03*
X52500000Y-102275000D03*
%TD*%
D30*
%TO.C,C110*%
X145200000Y-92075000D03*
X145200000Y-90525000D03*
%TD*%
%TO.C,C117*%
X134100000Y-98675000D03*
X134100000Y-97125000D03*
%TD*%
D33*
%TO.C,C40*%
X112500000Y-81650000D03*
X112500000Y-83200000D03*
%TD*%
D39*
%TO.C,C41*%
X93775000Y-88750000D03*
X92225000Y-88750000D03*
%TD*%
D33*
%TO.C,C36*%
X81000000Y-99475000D03*
X81000000Y-101025000D03*
%TD*%
D42*
%TO.C,R94*%
X138325000Y-108500000D03*
X136675000Y-108500000D03*
%TD*%
D50*
%TO.C,D10*%
X127300000Y-84150000D03*
X127300000Y-86050000D03*
X129700000Y-85100000D03*
%TD*%
D23*
%TO.C,R27*%
X72750000Y-94850000D03*
X72750000Y-96500000D03*
%TD*%
D30*
%TO.C,C6*%
X97900000Y-57375000D03*
X97900000Y-55825000D03*
%TD*%
D34*
%TO.C,R41*%
X88975000Y-80100000D03*
X90625000Y-80100000D03*
%TD*%
D33*
%TO.C,C77*%
X66000000Y-130125000D03*
X66000000Y-131675000D03*
%TD*%
D37*
%TO.C,R48*%
X105200000Y-88025000D03*
X105200000Y-86375000D03*
%TD*%
D49*
%TO.C,C55*%
X55887500Y-105175000D03*
X55887500Y-102225000D03*
%TD*%
D51*
%TO.C,R67*%
X62250000Y-69587500D03*
X62250000Y-71412500D03*
%TD*%
D28*
%TO.C,C19*%
X130425000Y-66900000D03*
X131975000Y-66900000D03*
%TD*%
%TO.C,C64*%
X84500000Y-78250000D03*
X86050000Y-78250000D03*
%TD*%
%TO.C,C138*%
X136525000Y-89900000D03*
X138075000Y-89900000D03*
%TD*%
D23*
%TO.C,R12*%
X116500000Y-62175000D03*
X116500000Y-63825000D03*
%TD*%
D28*
%TO.C,C81*%
X61825000Y-127000000D03*
X63375000Y-127000000D03*
%TD*%
D24*
%TO.C,U23*%
X134800000Y-106637500D03*
X135750000Y-106637500D03*
X136700000Y-106637500D03*
X136700000Y-104362500D03*
X134800000Y-104362500D03*
%TD*%
D39*
%TO.C,C91*%
X65875000Y-119600000D03*
X64325000Y-119600000D03*
%TD*%
D38*
%TO.C,Q5*%
X106562500Y-89550000D03*
X106562500Y-91450000D03*
X108437500Y-90500000D03*
%TD*%
D39*
%TO.C,C4*%
X108775000Y-80000000D03*
X107225000Y-80000000D03*
%TD*%
D28*
%TO.C,C114*%
X134725000Y-102500000D03*
X136275000Y-102500000D03*
%TD*%
D34*
%TO.C,R38*%
X127075000Y-87700000D03*
X128725000Y-87700000D03*
%TD*%
D23*
%TO.C,R70*%
X73800000Y-69275000D03*
X73800000Y-70925000D03*
%TD*%
D44*
%TO.C,Q14*%
X77537500Y-61550000D03*
X77537500Y-59650000D03*
X75662500Y-60600000D03*
%TD*%
D23*
%TO.C,R49*%
X87200000Y-73675000D03*
X87200000Y-75325000D03*
%TD*%
D42*
%TO.C,R40*%
X63537500Y-102200000D03*
X61887500Y-102200000D03*
%TD*%
D37*
%TO.C,R56*%
X59200000Y-119925000D03*
X59200000Y-118275000D03*
%TD*%
D43*
%TO.C,C75*%
X63600000Y-128625000D03*
X63600000Y-131575000D03*
%TD*%
D30*
%TO.C,C135*%
X126500000Y-101525000D03*
X126500000Y-99975000D03*
%TD*%
D23*
%TO.C,R26*%
X80800000Y-86575000D03*
X80800000Y-88225000D03*
%TD*%
%TO.C,R13*%
X116500000Y-65175000D03*
X116500000Y-66825000D03*
%TD*%
D38*
%TO.C,Q15*%
X111062500Y-73050000D03*
X111062500Y-74950000D03*
X112937500Y-74000000D03*
%TD*%
D52*
%TO.C,D4*%
X67250000Y-79676400D03*
X67250000Y-76323600D03*
%TD*%
D30*
%TO.C,C139*%
X133000000Y-86175000D03*
X133000000Y-84625000D03*
%TD*%
D53*
%TO.C,J3*%
X85764136Y-56258627D03*
X85153335Y-56480941D03*
X84542535Y-56703254D03*
X83931735Y-56925567D03*
X83320934Y-57147880D03*
D54*
X86728618Y-53060909D03*
D55*
X87472595Y-55397358D03*
D56*
X84755262Y-53779152D03*
X82500000Y-54600000D03*
D55*
X81458563Y-57586287D03*
D54*
X80526644Y-55318243D03*
%TD*%
D28*
%TO.C,C85*%
X64925000Y-126600000D03*
X66475000Y-126600000D03*
%TD*%
D27*
%TO.C,C50*%
X94700000Y-82000000D03*
X92800000Y-82000000D03*
%TD*%
D57*
%TO.C,D7*%
X70987500Y-63200000D03*
X69412500Y-63200000D03*
%TD*%
D33*
%TO.C,C13*%
X95750000Y-76725000D03*
X95750000Y-78275000D03*
%TD*%
D58*
%TO.C,L8*%
X107825000Y-101750000D03*
X123175000Y-101750000D03*
%TD*%
D42*
%TO.C,R86*%
X143525000Y-87300000D03*
X141875000Y-87300000D03*
%TD*%
D23*
%TO.C,R21*%
X107500000Y-86175000D03*
X107500000Y-87825000D03*
%TD*%
D39*
%TO.C,C73*%
X59675000Y-125900000D03*
X58125000Y-125900000D03*
%TD*%
D59*
%TO.C,U19*%
X69162500Y-68425000D03*
X69162500Y-69075000D03*
X69162500Y-69725000D03*
X69162500Y-70375000D03*
X71437500Y-70375000D03*
X71437500Y-69725000D03*
X71437500Y-69075000D03*
X71437500Y-68425000D03*
%TD*%
D60*
%TO.C,JP1*%
X124300000Y-59200000D03*
D61*
X123000000Y-59200000D03*
%TD*%
D42*
%TO.C,R39*%
X66537500Y-102200000D03*
X64887500Y-102200000D03*
%TD*%
D62*
%TO.C,SW2*%
X90400000Y-56475000D03*
X90400000Y-59725000D03*
%TD*%
D28*
%TO.C,C122*%
X132525000Y-100200000D03*
X134075000Y-100200000D03*
%TD*%
%TO.C,C136*%
X128375000Y-91100000D03*
X129925000Y-91100000D03*
%TD*%
D37*
%TO.C,R91*%
X140200000Y-80325000D03*
X140200000Y-78675000D03*
%TD*%
D35*
%TO.C,TP2*%
X134450000Y-77630000D03*
%TD*%
D39*
%TO.C,C62*%
X83050000Y-78250000D03*
X81500000Y-78250000D03*
%TD*%
D42*
%TO.C,R99*%
X132675000Y-98650000D03*
X131025000Y-98650000D03*
%TD*%
D41*
%TO.C,C21*%
X70275000Y-74500000D03*
X73225000Y-74500000D03*
%TD*%
D34*
%TO.C,R110*%
X136075000Y-84800000D03*
X137725000Y-84800000D03*
%TD*%
D33*
%TO.C,C143*%
X131500000Y-84625000D03*
X131500000Y-86175000D03*
%TD*%
%TO.C,C15*%
X108250000Y-75225000D03*
X108250000Y-76775000D03*
%TD*%
D37*
%TO.C,R62*%
X65000000Y-118125000D03*
X65000000Y-116475000D03*
%TD*%
D28*
%TO.C,C109*%
X141925000Y-88800000D03*
X143475000Y-88800000D03*
%TD*%
D33*
%TO.C,C5*%
X109830000Y-60635000D03*
X109830000Y-62185000D03*
%TD*%
D30*
%TO.C,C132*%
X128000000Y-99975000D03*
X128000000Y-101525000D03*
%TD*%
D28*
%TO.C,C26*%
X79425000Y-89800000D03*
X80975000Y-89800000D03*
%TD*%
D63*
%TO.C,J2*%
X116179066Y-57247879D03*
X115568263Y-57025565D03*
X114957465Y-56803253D03*
X114346665Y-56580940D03*
X113735865Y-56358625D03*
D64*
X118973354Y-55418240D03*
D65*
X118041436Y-57686286D03*
D66*
X117000000Y-54700000D03*
X114744738Y-53879150D03*
D65*
X112027403Y-55497357D03*
D64*
X112771384Y-53160910D03*
%TD*%
D23*
%TO.C,R3*%
X102500000Y-55675000D03*
X102500000Y-57325000D03*
%TD*%
D39*
%TO.C,C72*%
X62775000Y-125500000D03*
X61225000Y-125500000D03*
%TD*%
D67*
%TO.C,U31*%
X145000000Y-87400000D03*
X145650000Y-87400000D03*
X146300000Y-87400000D03*
X146300000Y-85500000D03*
X145650000Y-85500000D03*
X145000000Y-85500000D03*
%TD*%
D23*
%TO.C,R57*%
X56000000Y-119475000D03*
X56000000Y-121125000D03*
%TD*%
%TO.C,R78*%
X66900000Y-72975000D03*
X66900000Y-74625000D03*
%TD*%
D37*
%TO.C,R73*%
X76500000Y-68825000D03*
X76500000Y-67175000D03*
%TD*%
D34*
%TO.C,R22*%
X73885000Y-93030000D03*
X75535000Y-93030000D03*
%TD*%
D37*
%TO.C,R29*%
X75100000Y-78525000D03*
X75100000Y-76875000D03*
%TD*%
D23*
%TO.C,R74*%
X94900000Y-55775000D03*
X94900000Y-57425000D03*
%TD*%
D39*
%TO.C,C1*%
X90275000Y-72250000D03*
X88725000Y-72250000D03*
%TD*%
D34*
%TO.C,R106*%
X127175000Y-89200000D03*
X128825000Y-89200000D03*
%TD*%
D68*
%TO.C,L5*%
X82850000Y-122390000D03*
X92850000Y-122390000D03*
%TD*%
D49*
%TO.C,C45*%
X89750000Y-103225000D03*
X89750000Y-100275000D03*
%TD*%
D69*
%TO.C,D1*%
X130750000Y-69000000D03*
X130750000Y-72300000D03*
X135650000Y-72300000D03*
X135650000Y-69000000D03*
%TD*%
D33*
%TO.C,C71*%
X64400000Y-122025000D03*
X64400000Y-123575000D03*
%TD*%
D57*
%TO.C,D8*%
X70987500Y-61700000D03*
X69412500Y-61700000D03*
%TD*%
D34*
%TO.C,R24*%
X110975000Y-68900000D03*
X112625000Y-68900000D03*
%TD*%
D39*
%TO.C,C2*%
X90275000Y-73750000D03*
X88725000Y-73750000D03*
%TD*%
D33*
%TO.C,C133*%
X140100000Y-86625000D03*
X140100000Y-88175000D03*
%TD*%
D28*
%TO.C,C113*%
X141825000Y-94700000D03*
X143375000Y-94700000D03*
%TD*%
D70*
%TO.C,U17*%
X72000000Y-125250000D03*
D71*
X68287501Y-118582500D03*
X68287500Y-119217500D03*
X68287500Y-119852500D03*
X68287500Y-120487500D03*
X68287500Y-121122500D03*
X68287501Y-121757500D03*
X68287500Y-122392499D03*
X68287500Y-123027500D03*
X68287500Y-123662500D03*
X68287500Y-124297500D03*
X68287500Y-124932501D03*
X68287500Y-125567499D03*
X68287500Y-126202500D03*
X68287500Y-126837500D03*
X68287500Y-127472500D03*
X68287500Y-128107501D03*
X68287501Y-128742500D03*
X68287500Y-129377500D03*
X68287500Y-130012500D03*
X68287500Y-130647500D03*
X68287500Y-131282500D03*
X68287501Y-131917500D03*
X75712499Y-131917500D03*
X75712500Y-131282500D03*
X75712500Y-130647500D03*
X75712500Y-130012500D03*
X75712500Y-129377500D03*
X75712499Y-128742500D03*
X75712500Y-128107501D03*
X75712500Y-127472500D03*
X75712500Y-126837500D03*
X75712500Y-126202500D03*
X75712500Y-125567499D03*
X75712500Y-124932501D03*
X75712500Y-124297500D03*
X75712500Y-123662500D03*
X75712500Y-123027500D03*
X75712500Y-122392499D03*
X75712499Y-121757500D03*
X75712500Y-121122500D03*
X75712500Y-120487500D03*
X75712500Y-119852500D03*
X75712500Y-119217500D03*
X75712499Y-118582500D03*
%TD*%
D72*
%TO.C,H3*%
X100000000Y-150800000D03*
%TD*%
D37*
%TO.C,R92*%
X139400000Y-85025000D03*
X139400000Y-83375000D03*
%TD*%
D57*
%TO.C,D5*%
X70987500Y-66200000D03*
X69412500Y-66200000D03*
%TD*%
D34*
%TO.C,R37*%
X76855000Y-93040000D03*
X78505000Y-93040000D03*
%TD*%
D42*
%TO.C,R72*%
X66925000Y-67100000D03*
X65275000Y-67100000D03*
%TD*%
D23*
%TO.C,R30*%
X84200000Y-83575000D03*
X84200000Y-85225000D03*
%TD*%
D37*
%TO.C,R36*%
X78000000Y-96575000D03*
X78000000Y-94925000D03*
%TD*%
%TO.C,R64*%
X54000000Y-113225000D03*
X54000000Y-111575000D03*
%TD*%
D42*
%TO.C,R7*%
X118225000Y-71400000D03*
X116575000Y-71400000D03*
%TD*%
D37*
%TO.C,R66*%
X104550000Y-109725000D03*
X104550000Y-108075000D03*
%TD*%
D73*
%TO.C,D2*%
X80750000Y-105190000D03*
X80750000Y-103250000D03*
D74*
X85100000Y-104220000D03*
%TD*%
D39*
%TO.C,C7*%
X88150000Y-59700000D03*
X86600000Y-59700000D03*
%TD*%
D30*
%TO.C,C101*%
X103000000Y-109675000D03*
X103000000Y-108125000D03*
%TD*%
D68*
%TO.C,L4*%
X83910000Y-136450000D03*
X93910000Y-136450000D03*
%TD*%
D28*
%TO.C,C58*%
X55525000Y-107000000D03*
X57075000Y-107000000D03*
%TD*%
%TO.C,C137*%
X130225000Y-87700000D03*
X131775000Y-87700000D03*
%TD*%
D39*
%TO.C,C90*%
X70265000Y-116870000D03*
X68715000Y-116870000D03*
%TD*%
D42*
%TO.C,R59*%
X59325000Y-122900000D03*
X57675000Y-122900000D03*
%TD*%
D30*
%TO.C,C79*%
X67200000Y-134775000D03*
X67200000Y-133225000D03*
%TD*%
D75*
%TO.C,C88*%
X76250000Y-135382323D03*
D76*
X76250000Y-140382323D03*
%TD*%
D77*
%TO.C,D9*%
X113350000Y-141500000D03*
X120150000Y-141500000D03*
%TD*%
D44*
%TO.C,Q18*%
X140737500Y-76850000D03*
X140737500Y-74950000D03*
X138862500Y-75900000D03*
%TD*%
D23*
%TO.C,R15*%
X128200000Y-67075000D03*
X128200000Y-68725000D03*
%TD*%
D78*
%TO.C,K1*%
X124959885Y-140041115D03*
X127653962Y-137347038D03*
X130348038Y-134652962D03*
X133042115Y-131958885D03*
%TD*%
D33*
%TO.C,C27*%
X74000000Y-81725000D03*
X74000000Y-83275000D03*
%TD*%
D42*
%TO.C,R114*%
X140125000Y-73300000D03*
X138475000Y-73300000D03*
%TD*%
D38*
%TO.C,Q6*%
X82750000Y-87500000D03*
X82750000Y-89400000D03*
X84625000Y-88450000D03*
%TD*%
D79*
%TO.C,R35*%
X77337500Y-101500000D03*
X79162500Y-101500000D03*
%TD*%
D42*
%TO.C,R19*%
X122275000Y-63900000D03*
X120625000Y-63900000D03*
%TD*%
D80*
%TO.C,C23*%
X67725000Y-89500000D03*
X64775000Y-89500000D03*
%TD*%
D39*
%TO.C,C95*%
X83525000Y-114250000D03*
X81975000Y-114250000D03*
%TD*%
D81*
%TO.C,U1*%
X98162500Y-80345000D03*
X98162500Y-81615000D03*
X98162500Y-82885000D03*
X98162500Y-84155000D03*
X105337500Y-84155000D03*
X105337500Y-82885000D03*
X105337500Y-81615000D03*
X105337500Y-80345000D03*
%TD*%
D23*
%TO.C,R58*%
X61200000Y-128475000D03*
X61200000Y-130125000D03*
%TD*%
D37*
%TO.C,R65*%
X88250000Y-146325000D03*
X88250000Y-144675000D03*
%TD*%
D82*
%TO.C,J4*%
X89840000Y-82460000D03*
X89840000Y-85000000D03*
X89840000Y-87540000D03*
X97460000Y-92620000D03*
X100000000Y-92620000D03*
X102540000Y-92620000D03*
X110160000Y-87540000D03*
X110160000Y-85000000D03*
X110160000Y-82460000D03*
%TD*%
D83*
%TO.C,U10*%
X94350000Y-85225000D03*
X93700000Y-85225000D03*
X93050000Y-85225000D03*
X93050000Y-87000000D03*
X93700000Y-87000000D03*
X94350000Y-87000000D03*
D84*
X93700000Y-86112500D03*
%TD*%
D37*
%TO.C,R76*%
X79500000Y-63525000D03*
X79500000Y-61875000D03*
%TD*%
D85*
%TO.C,U32*%
X146247200Y-108020000D03*
X146247200Y-105480000D03*
X140252800Y-105480000D03*
X140252800Y-108020000D03*
%TD*%
D42*
%TO.C,R4*%
X90325000Y-75250000D03*
X88675000Y-75250000D03*
%TD*%
D38*
%TO.C,Q2*%
X128012500Y-63450000D03*
X128012500Y-65350000D03*
X129887500Y-64400000D03*
%TD*%
D86*
%TO.C,C97*%
X96500000Y-109475000D03*
X96500000Y-106525000D03*
%TD*%
D33*
%TO.C,C80*%
X66490000Y-116155000D03*
X66490000Y-117705000D03*
%TD*%
D39*
%TO.C,C106*%
X71975000Y-72000000D03*
X70425000Y-72000000D03*
%TD*%
D27*
%TO.C,C48*%
X94700000Y-80000000D03*
X92800000Y-80000000D03*
%TD*%
D26*
%TO.C,U26*%
X133362500Y-92150000D03*
X133362500Y-93100000D03*
X133362500Y-94050000D03*
X135637500Y-94050000D03*
X135637500Y-92150000D03*
%TD*%
D28*
%TO.C,C8*%
X108265000Y-59200000D03*
X109815000Y-59200000D03*
%TD*%
D80*
%TO.C,C24*%
X67725000Y-86250000D03*
X64775000Y-86250000D03*
%TD*%
D38*
%TO.C,Q3*%
X124012500Y-62450000D03*
X124012500Y-64350000D03*
X125887500Y-63400000D03*
%TD*%
D34*
%TO.C,R93*%
X139275000Y-81900000D03*
X140925000Y-81900000D03*
%TD*%
%TO.C,R31*%
X76925000Y-98250000D03*
X78575000Y-98250000D03*
%TD*%
D39*
%TO.C,C93*%
X70335000Y-135410000D03*
X68785000Y-135410000D03*
%TD*%
D87*
%TO.C,C123*%
X116000000Y-136800000D03*
X116000000Y-131700000D03*
%TD*%
D28*
%TO.C,C18*%
X85925000Y-87100000D03*
X87475000Y-87100000D03*
%TD*%
D23*
%TO.C,R77*%
X79500000Y-58875000D03*
X79500000Y-60525000D03*
%TD*%
D88*
%TO.C,L1*%
X72250000Y-100475000D03*
X72250000Y-104525000D03*
%TD*%
D34*
%TO.C,R14*%
X120625000Y-65650000D03*
X122275000Y-65650000D03*
%TD*%
D28*
%TO.C,C66*%
X78325000Y-72000000D03*
X79875000Y-72000000D03*
%TD*%
D42*
%TO.C,R18*%
X129325000Y-61700000D03*
X127675000Y-61700000D03*
%TD*%
D23*
%TO.C,R63*%
X54000000Y-114575000D03*
X54000000Y-116225000D03*
%TD*%
D34*
%TO.C,R108*%
X133275000Y-90100000D03*
X134925000Y-90100000D03*
%TD*%
D30*
%TO.C,C11*%
X92500000Y-58775000D03*
X92500000Y-57225000D03*
%TD*%
D89*
%TO.C,L9*%
X122250000Y-112575000D03*
X122250000Y-127925000D03*
%TD*%
D33*
%TO.C,C16*%
X97250000Y-76725000D03*
X97250000Y-78275000D03*
%TD*%
D90*
%TO.C,C78*%
X75750000Y-114867677D03*
D76*
X75750000Y-109867677D03*
%TD*%
D37*
%TO.C,R101*%
X139800000Y-100525000D03*
X139800000Y-98875000D03*
%TD*%
%TO.C,R47*%
X107700000Y-83725000D03*
X107700000Y-82075000D03*
%TD*%
D28*
%TO.C,C38*%
X79225000Y-85000000D03*
X80775000Y-85000000D03*
%TD*%
%TO.C,C146*%
X126425000Y-72700000D03*
X127975000Y-72700000D03*
%TD*%
D29*
%TO.C,C76*%
X78690000Y-123500000D03*
X78690000Y-125400000D03*
%TD*%
D42*
%TO.C,R23*%
X112625000Y-67400000D03*
X110975000Y-67400000D03*
%TD*%
D30*
%TO.C,C131*%
X131700000Y-92275000D03*
X131700000Y-90725000D03*
%TD*%
D39*
%TO.C,C28*%
X84275000Y-101000000D03*
X82725000Y-101000000D03*
%TD*%
D67*
%TO.C,U3*%
X86050000Y-85550000D03*
X86700000Y-85550000D03*
X87350000Y-85550000D03*
X87350000Y-83650000D03*
X86700000Y-83650000D03*
X86050000Y-83650000D03*
%TD*%
D91*
%TO.C,D11*%
X123800000Y-133700000D03*
X126000000Y-133700000D03*
%TD*%
D34*
%TO.C,R69*%
X64175000Y-71000000D03*
X65825000Y-71000000D03*
%TD*%
D33*
%TO.C,C102*%
X86750000Y-144700000D03*
X86750000Y-146250000D03*
%TD*%
D30*
%TO.C,C68*%
X82800000Y-69075000D03*
X82800000Y-67525000D03*
%TD*%
D42*
%TO.C,R61*%
X65725000Y-133200000D03*
X64075000Y-133200000D03*
%TD*%
D92*
%TO.C,U21*%
X143750000Y-93150000D03*
X143750000Y-92500000D03*
X143750000Y-91850000D03*
X141850000Y-91850000D03*
X141850000Y-92500000D03*
X141850000Y-93150000D03*
%TD*%
D28*
%TO.C,C121*%
X129525000Y-100200000D03*
X131075000Y-100200000D03*
%TD*%
D37*
%TO.C,R105*%
X126500000Y-95575000D03*
X126500000Y-93925000D03*
%TD*%
D33*
%TO.C,C111*%
X138800000Y-92925000D03*
X138800000Y-94475000D03*
%TD*%
D26*
%TO.C,U27*%
X136162500Y-86450000D03*
X136162500Y-87400000D03*
X136162500Y-88350000D03*
X138437500Y-88350000D03*
X138437500Y-86450000D03*
%TD*%
D89*
%TO.C,L7*%
X104000000Y-127925000D03*
X104000000Y-112575000D03*
%TD*%
D34*
%TO.C,R9*%
X99250000Y-78050000D03*
X100900000Y-78050000D03*
%TD*%
%TO.C,R51*%
X101975000Y-90000000D03*
X103625000Y-90000000D03*
%TD*%
D23*
%TO.C,R100*%
X140000000Y-101875000D03*
X140000000Y-103525000D03*
%TD*%
D93*
%TO.C,U14*%
X85787500Y-74350000D03*
X85787500Y-73850000D03*
X85787500Y-73350000D03*
X85787500Y-72850000D03*
X85787500Y-72350000D03*
X85787500Y-71850000D03*
D94*
X85100000Y-71162500D03*
X84600000Y-71162500D03*
X84100000Y-71162500D03*
X83600000Y-71162500D03*
X83100000Y-71162500D03*
X82600000Y-71162500D03*
D93*
X81912500Y-71850000D03*
X81912500Y-72350000D03*
X81912500Y-72850000D03*
X81912500Y-73350000D03*
X81912500Y-73850000D03*
X81912500Y-74350000D03*
D94*
X82600000Y-75037500D03*
X83100000Y-75037500D03*
X83600000Y-75037500D03*
X84100000Y-75037500D03*
X84600000Y-75037500D03*
X85100000Y-75037500D03*
D95*
X83850000Y-73100000D03*
%TD*%
D96*
%TO.C,U2*%
X92325000Y-61000000D03*
X92325000Y-61500000D03*
X92325000Y-62000001D03*
X92325000Y-62500000D03*
X92325000Y-62999999D03*
X92325000Y-63500000D03*
X92325000Y-64000000D03*
X92325000Y-64500001D03*
X92325000Y-65000000D03*
X92325000Y-65500000D03*
X92325000Y-66000000D03*
X92325000Y-66500000D03*
X92324999Y-67000000D03*
X92325000Y-67500000D03*
X92325000Y-68000000D03*
X92325000Y-68500000D03*
X92325000Y-69000000D03*
X92325000Y-69499999D03*
X92325000Y-70000000D03*
X92325000Y-70500000D03*
X92325000Y-71000001D03*
X92325000Y-71500000D03*
X92325000Y-71999999D03*
X92325000Y-72500000D03*
X92325000Y-73000000D03*
D97*
X94000000Y-74675000D03*
X94500000Y-74675000D03*
X95000001Y-74675000D03*
X95500000Y-74675000D03*
X95999999Y-74675000D03*
X96500000Y-74675000D03*
X97000000Y-74675000D03*
X97500001Y-74675000D03*
X98000000Y-74675000D03*
X98500000Y-74675000D03*
X99000000Y-74675000D03*
X99500000Y-74675000D03*
X100000000Y-74675001D03*
X100500000Y-74675000D03*
X101000000Y-74675000D03*
X101500000Y-74675000D03*
X102000000Y-74675000D03*
X102499999Y-74675000D03*
X103000000Y-74675000D03*
X103500000Y-74675000D03*
X104000001Y-74675000D03*
X104500000Y-74675000D03*
X104999999Y-74675000D03*
X105500000Y-74675000D03*
X106000000Y-74675000D03*
D96*
X107675000Y-73000000D03*
X107675000Y-72500000D03*
X107675000Y-71999999D03*
X107675000Y-71500000D03*
X107675000Y-71000001D03*
X107675000Y-70500000D03*
X107675000Y-70000000D03*
X107675000Y-69499999D03*
X107675000Y-69000000D03*
X107675000Y-68500000D03*
X107675000Y-68000000D03*
X107675000Y-67500000D03*
X107675001Y-67000000D03*
X107675000Y-66500000D03*
X107675000Y-66000000D03*
X107675000Y-65500000D03*
X107675000Y-65000000D03*
X107675000Y-64500001D03*
X107675000Y-64000000D03*
X107675000Y-63500000D03*
X107675000Y-62999999D03*
X107675000Y-62500000D03*
X107675000Y-62000001D03*
X107675000Y-61500000D03*
X107675000Y-61000000D03*
D97*
X106000000Y-59325000D03*
X105500000Y-59325000D03*
X104999999Y-59325000D03*
X104500000Y-59325000D03*
X104000001Y-59325000D03*
X103500000Y-59325000D03*
X103000000Y-59325000D03*
X102499999Y-59325000D03*
X102000000Y-59325000D03*
X101500000Y-59325000D03*
X101000000Y-59325000D03*
X100500000Y-59325000D03*
X100000000Y-59324999D03*
X99500000Y-59325000D03*
X99000000Y-59325000D03*
X98500000Y-59325000D03*
X98000000Y-59325000D03*
X97500001Y-59325000D03*
X97000000Y-59325000D03*
X96500000Y-59325000D03*
X95999999Y-59325000D03*
X95500000Y-59325000D03*
X95000001Y-59325000D03*
X94500000Y-59325000D03*
X94000000Y-59325000D03*
%TD*%
D72*
%TO.C,H2*%
X100000000Y-100000000D03*
%TD*%
D86*
%TO.C,C96*%
X93750000Y-147475000D03*
X93750000Y-144525000D03*
%TD*%
D98*
%TO.C,Q7*%
X78890000Y-103250000D03*
X78250000Y-103250000D03*
X77590000Y-103250000D03*
X76950000Y-103250000D03*
D99*
X77920000Y-105075000D03*
%TD*%
D33*
%TO.C,C12*%
X88750000Y-67225000D03*
X88750000Y-68775000D03*
%TD*%
D100*
%TO.C,R82*%
X93712500Y-113500000D03*
X90787500Y-113500000D03*
%TD*%
D25*
%TO.C,C98*%
X91500000Y-146450000D03*
X91500000Y-144550000D03*
%TD*%
D43*
%TO.C,C60*%
X65750000Y-108775000D03*
X65750000Y-111725000D03*
%TD*%
D37*
%TO.C,R88*%
X140400000Y-91525000D03*
X140400000Y-89875000D03*
%TD*%
D23*
%TO.C,R2*%
X101000000Y-55675000D03*
X101000000Y-57325000D03*
%TD*%
D33*
%TO.C,C144*%
X134000000Y-80825000D03*
X134000000Y-82375000D03*
%TD*%
D44*
%TO.C,Q13*%
X74637500Y-63650000D03*
X74637500Y-61750000D03*
X72762500Y-62700000D03*
%TD*%
D49*
%TO.C,C35*%
X79750000Y-83225000D03*
X79750000Y-80275000D03*
%TD*%
D30*
%TO.C,C67*%
X87500000Y-78275000D03*
X87500000Y-76725000D03*
%TD*%
D42*
%TO.C,R109*%
X138925000Y-91400000D03*
X137275000Y-91400000D03*
%TD*%
D101*
%TO.C,Q8*%
X63194999Y-74715400D03*
D102*
X61000000Y-81065400D03*
D101*
X58805001Y-74715400D03*
%TD*%
D26*
%TO.C,U24*%
X135762500Y-98650000D03*
X135762500Y-99600000D03*
X135762500Y-100550000D03*
X138037500Y-100550000D03*
X138037500Y-98650000D03*
%TD*%
D49*
%TO.C,C59*%
X65750000Y-106975000D03*
X65750000Y-104025000D03*
%TD*%
D30*
%TO.C,C57*%
X58387500Y-103725000D03*
X58387500Y-102175000D03*
%TD*%
D39*
%TO.C,C53*%
X94350000Y-83862500D03*
X92800000Y-83862500D03*
%TD*%
D23*
%TO.C,R87*%
X140300000Y-92875000D03*
X140300000Y-94525000D03*
%TD*%
D34*
%TO.C,R89*%
X141875000Y-90300000D03*
X143525000Y-90300000D03*
%TD*%
D103*
%TO.C,U22*%
X143350000Y-96462500D03*
X142400000Y-96462500D03*
X141450000Y-96462500D03*
X141450000Y-98737500D03*
X142400000Y-98737500D03*
X143350000Y-98737500D03*
%TD*%
D39*
%TO.C,C115*%
X134775000Y-108500000D03*
X133225000Y-108500000D03*
%TD*%
D33*
%TO.C,C86*%
X52000000Y-108625000D03*
X52000000Y-110175000D03*
%TD*%
D34*
%TO.C,R60*%
X57675000Y-124400000D03*
X59325000Y-124400000D03*
%TD*%
D39*
%TO.C,C92*%
X70275000Y-115410000D03*
X68725000Y-115410000D03*
%TD*%
D25*
%TO.C,C99*%
X101200000Y-109550000D03*
X101200000Y-107650000D03*
%TD*%
D104*
%TO.C,D3*%
X58220000Y-86750000D03*
X62290000Y-86750000D03*
%TD*%
D22*
%TO.C,JP3*%
X144100000Y-103300000D03*
D21*
X144100000Y-102000000D03*
%TD*%
D43*
%TO.C,C46*%
X89750000Y-105025000D03*
X89750000Y-107975000D03*
%TD*%
D42*
%TO.C,R107*%
X131825000Y-89200000D03*
X130175000Y-89200000D03*
%TD*%
D105*
%TO.C,L6*%
X108750000Y-136000000D03*
X108750000Y-139500000D03*
X98750000Y-139500000D03*
X98750000Y-136000000D03*
%TD*%
D30*
%TO.C,C100*%
X89750000Y-146275000D03*
X89750000Y-144725000D03*
%TD*%
%TO.C,C112*%
X144900000Y-96575000D03*
X144900000Y-95025000D03*
%TD*%
D42*
%TO.C,R71*%
X76925000Y-71300000D03*
X75275000Y-71300000D03*
%TD*%
D106*
%TO.C,L3*%
X56700000Y-112600000D03*
X62300000Y-112600000D03*
%TD*%
D37*
%TO.C,R10*%
X75100000Y-74450000D03*
X75100000Y-72800000D03*
%TD*%
D34*
%TO.C,R42*%
X96175000Y-86500000D03*
X97825000Y-86500000D03*
%TD*%
D107*
%TO.C,U8*%
X74000000Y-96650000D03*
X74500000Y-96650000D03*
X75000000Y-96650000D03*
X75500000Y-96650000D03*
X76000000Y-96650000D03*
X76500000Y-96650000D03*
X76500000Y-94750000D03*
X76000000Y-94750000D03*
X75500000Y-94750000D03*
X75000000Y-94750000D03*
X74500000Y-94750000D03*
X74000000Y-94750000D03*
D108*
X75250000Y-95700000D03*
%TD*%
D38*
%TO.C,Q1*%
X123950000Y-65900000D03*
X123950000Y-67800000D03*
X125825000Y-66850000D03*
%TD*%
D39*
%TO.C,C94*%
X84525000Y-145000000D03*
X82975000Y-145000000D03*
%TD*%
D109*
%TO.C,U15*%
X82400000Y-61720000D03*
X82900000Y-61720000D03*
X83400000Y-61720000D03*
X83900000Y-61720000D03*
X84400000Y-61720000D03*
X84400000Y-60950000D03*
X83900000Y-60950000D03*
X83400000Y-60950000D03*
X82900000Y-60950000D03*
X82400000Y-60950000D03*
%TD*%
D23*
%TO.C,R95*%
X138400000Y-102075000D03*
X138400000Y-103725000D03*
%TD*%
D25*
%TO.C,C74*%
X78690000Y-121900000D03*
X78690000Y-120000000D03*
%TD*%
D34*
%TO.C,R44*%
X88975000Y-77100000D03*
X90625000Y-77100000D03*
%TD*%
D49*
%TO.C,C37*%
X111250000Y-79975000D03*
X111250000Y-77025000D03*
%TD*%
D28*
%TO.C,C118*%
X130125000Y-108500000D03*
X131675000Y-108500000D03*
%TD*%
D110*
%TO.C,U16*%
X62800000Y-119387500D03*
X62300000Y-119387500D03*
X61800000Y-119387500D03*
X61300000Y-119387500D03*
X60800000Y-119387500D03*
X60800000Y-123612500D03*
X61300000Y-123612500D03*
X61800000Y-123612500D03*
X62300000Y-123612500D03*
X62800000Y-123612500D03*
%TD*%
D42*
%TO.C,R53*%
X66515000Y-114630000D03*
X64865000Y-114630000D03*
%TD*%
D37*
%TO.C,R11*%
X76600000Y-74425000D03*
X76600000Y-72775000D03*
%TD*%
D57*
%TO.C,D6*%
X70987500Y-64700000D03*
X69412500Y-64700000D03*
%TD*%
D44*
%TO.C,Q9*%
X83537500Y-109950000D03*
X83537500Y-108050000D03*
X81662500Y-109000000D03*
%TD*%
D30*
%TO.C,C9*%
X92700000Y-76575000D03*
X92700000Y-75025000D03*
%TD*%
D72*
%TO.C,H1*%
X150800000Y-100000000D03*
%TD*%
D42*
%TO.C,R75*%
X66925000Y-65600000D03*
X65275000Y-65600000D03*
%TD*%
D37*
%TO.C,R50*%
X65430000Y-75135000D03*
X65430000Y-73485000D03*
%TD*%
D28*
%TO.C,C70*%
X57725000Y-121400000D03*
X59275000Y-121400000D03*
%TD*%
D30*
%TO.C,C17*%
X90250000Y-68775000D03*
X90250000Y-67225000D03*
%TD*%
D111*
%TO.C,U30*%
X126750000Y-79150000D03*
X127250000Y-79150000D03*
X127750000Y-79150000D03*
X128250000Y-79150000D03*
X128750000Y-79150000D03*
X128750000Y-74850000D03*
X128250000Y-74850000D03*
X127750000Y-74850000D03*
X127250000Y-74850000D03*
X126750000Y-74850000D03*
%TD*%
D37*
%TO.C,R25*%
X82700000Y-85225000D03*
X82700000Y-83575000D03*
%TD*%
D112*
%TO.C,U12*%
X61137500Y-107200000D03*
X61137500Y-106250000D03*
X61137500Y-105300000D03*
X58862500Y-105300000D03*
X58862500Y-106250000D03*
X58862500Y-107200000D03*
%TD*%
D34*
%TO.C,R113*%
X126675000Y-82500000D03*
X128325000Y-82500000D03*
%TD*%
D39*
%TO.C,C89*%
X70345000Y-133900000D03*
X68795000Y-133900000D03*
%TD*%
D113*
%TO.C,U13*%
X102230000Y-86200000D03*
X102230000Y-86700000D03*
X102230000Y-87200000D03*
X102230000Y-87700000D03*
X102230000Y-88200000D03*
X103000000Y-88200000D03*
X103000000Y-87700000D03*
X103000000Y-87200000D03*
X103000000Y-86700000D03*
X103000000Y-86200000D03*
%TD*%
D23*
%TO.C,R90*%
X139750000Y-95850000D03*
X139750000Y-97500000D03*
%TD*%
D62*
%TO.C,SW1*%
X124500000Y-72425000D03*
X124500000Y-69175000D03*
%TD*%
D39*
%TO.C,C145*%
X128275000Y-81000000D03*
X126725000Y-81000000D03*
%TD*%
D114*
%TO.C,U6*%
X70250000Y-81000000D03*
D115*
X70562000Y-80700000D03*
D116*
X70162000Y-81525000D03*
X70162000Y-82025000D03*
X70162000Y-82525000D03*
D114*
X70250000Y-83050000D03*
D115*
X70562000Y-83350000D03*
D117*
X71062000Y-83175000D03*
X71562000Y-83175000D03*
D115*
X72062000Y-83350000D03*
D114*
X72375000Y-83050000D03*
D116*
X72462000Y-82525000D03*
X72462000Y-82025000D03*
X72462000Y-81525000D03*
D115*
X72062000Y-80700000D03*
D114*
X72375000Y-81000000D03*
D117*
X71562000Y-80875000D03*
X71062000Y-80875000D03*
D36*
X71312000Y-82025000D03*
%TD*%
D39*
%TO.C,C69*%
X57675000Y-117900000D03*
X56125000Y-117900000D03*
%TD*%
D30*
%TO.C,C14*%
X90250000Y-62775000D03*
X90250000Y-61225000D03*
%TD*%
%TO.C,C61*%
X63000000Y-107075000D03*
X63000000Y-105525000D03*
%TD*%
D42*
%TO.C,R28*%
X84325000Y-99500000D03*
X82675000Y-99500000D03*
%TD*%
D28*
%TO.C,C128*%
X128375000Y-92600000D03*
X129925000Y-92600000D03*
%TD*%
D33*
%TO.C,C130*%
X137300000Y-93425000D03*
X137300000Y-94975000D03*
%TD*%
D34*
%TO.C,R43*%
X78275000Y-75000000D03*
X79925000Y-75000000D03*
%TD*%
D26*
%TO.C,U29*%
X130062500Y-80650000D03*
X130062500Y-81600000D03*
X130062500Y-82550000D03*
X132337500Y-82550000D03*
X132337500Y-80650000D03*
%TD*%
D42*
%TO.C,R98*%
X132925000Y-101700000D03*
X131275000Y-101700000D03*
%TD*%
D30*
%TO.C,C20*%
X121100000Y-58375000D03*
X121100000Y-56825000D03*
%TD*%
D44*
%TO.C,Q12*%
X77537500Y-65750000D03*
X77537500Y-63850000D03*
X75662500Y-64800000D03*
%TD*%
D42*
%TO.C,R8*%
X118225000Y-69900000D03*
X116575000Y-69900000D03*
%TD*%
D37*
%TO.C,R79*%
X74800000Y-59225000D03*
X74800000Y-57575000D03*
%TD*%
D42*
%TO.C,R102*%
X134925000Y-95600000D03*
X133275000Y-95600000D03*
%TD*%
%TO.C,R17*%
X107825000Y-53000000D03*
X106175000Y-53000000D03*
%TD*%
D39*
%TO.C,C3*%
X106775000Y-76750000D03*
X105225000Y-76750000D03*
%TD*%
D30*
%TO.C,C10*%
X90250000Y-65775000D03*
X90250000Y-64225000D03*
%TD*%
D118*
%TO.C,SW3*%
X82352000Y-94500000D03*
D119*
X87051000Y-94500000D03*
X91750000Y-94500000D03*
%TD*%
D39*
%TO.C,C104*%
X107775000Y-54500000D03*
X106225000Y-54500000D03*
%TD*%
D37*
%TO.C,R115*%
X145100000Y-83925000D03*
X145100000Y-82275000D03*
%TD*%
D120*
%TO.C,Y2*%
X84750000Y-65350000D03*
X84750000Y-68650000D03*
X86750000Y-68650000D03*
X86750000Y-65350000D03*
%TD*%
D34*
%TO.C,R68*%
X64150000Y-68700000D03*
X65800000Y-68700000D03*
%TD*%
D30*
%TO.C,C103*%
X104550000Y-106675000D03*
X104550000Y-105125000D03*
%TD*%
D49*
%TO.C,C34*%
X76500000Y-83225000D03*
X76500000Y-80275000D03*
%TD*%
D42*
%TO.C,R97*%
X133225000Y-106800000D03*
X131575000Y-106800000D03*
%TD*%
D121*
%TO.C,F1*%
X54750000Y-87150000D03*
X54750000Y-84350000D03*
%TD*%
D33*
%TO.C,C87*%
X66400000Y-123525000D03*
X66400000Y-125075000D03*
%TD*%
%TO.C,C105*%
X67300000Y-68625000D03*
X67300000Y-70175000D03*
%TD*%
D30*
%TO.C,C54*%
X125750000Y-86025000D03*
X125750000Y-84475000D03*
%TD*%
D23*
%TO.C,R80*%
X96400000Y-55775000D03*
X96400000Y-57425000D03*
%TD*%
D37*
%TO.C,R104*%
X126500000Y-98575000D03*
X126500000Y-96925000D03*
%TD*%
D45*
%TO.C,Q16*%
X141750000Y-80137500D03*
X143650000Y-80137500D03*
X142700000Y-78262500D03*
%TD*%
D33*
%TO.C,C83*%
X54000000Y-108625000D03*
X54000000Y-110175000D03*
%TD*%
%LPD*%
M02*
