%TF.GenerationSoftware,KiCad,Pcbnew,9.0.5*%
%TF.CreationDate,2025-11-04T12:08:14-07:00*%
%TF.ProjectId,OpenAquatix-Hardware,4f70656e-4171-4756-9174-69782d486172,rev?*%
%TF.SameCoordinates,Original*%
%TF.FileFunction,Paste,Top*%
%TF.FilePolarity,Positive*%
%FSLAX46Y46*%
G04 Gerber Fmt 4.6, Leading zero omitted, Abs format (unit mm)*
G04 Created by KiCad (PCBNEW 9.0.5) date 2025-11-04 12:08:14*
%MOMM*%
%LPD*%
G01*
G04 APERTURE LIST*
G04 Aperture macros list*
%AMRoundRect*
0 Rectangle with rounded corners*
0 $1 Rounding radius*
0 $2 $3 $4 $5 $6 $7 $8 $9 X,Y pos of 4 corners*
0 Add a 4 corners polygon primitive as box body*
4,1,4,$2,$3,$4,$5,$6,$7,$8,$9,$2,$3,0*
0 Add four circle primitives for the rounded corners*
1,1,$1+$1,$2,$3*
1,1,$1+$1,$4,$5*
1,1,$1+$1,$6,$7*
1,1,$1+$1,$8,$9*
0 Add four rect primitives between the rounded corners*
20,1,$1+$1,$2,$3,$4,$5,0*
20,1,$1+$1,$4,$5,$6,$7,0*
20,1,$1+$1,$6,$7,$8,$9,0*
20,1,$1+$1,$8,$9,$2,$3,0*%
%AMHorizOval*
0 Thick line with rounded ends*
0 $1 width*
0 $2 $3 position (X,Y) of the first rounded end (center of the circle)*
0 $4 $5 position (X,Y) of the second rounded end (center of the circle)*
0 Add line between two ends*
20,1,$1,$2,$3,$4,$5,0*
0 Add two circle primitives to create the rounded ends*
1,1,$1,$2,$3*
1,1,$1,$4,$5*%
G04 Aperture macros list end*
%ADD10R,1.000000X1.050000*%
%ADD11RoundRect,0.075000X0.075000X0.200000X-0.075000X0.200000X-0.075000X-0.200000X0.075000X-0.200000X0*%
%ADD12RoundRect,0.200000X-0.275000X0.200000X-0.275000X-0.200000X0.275000X-0.200000X0.275000X0.200000X0*%
%ADD13RoundRect,0.150000X0.150000X-0.512500X0.150000X0.512500X-0.150000X0.512500X-0.150000X-0.512500X0*%
%ADD14RoundRect,0.250000X0.475000X-0.250000X0.475000X0.250000X-0.475000X0.250000X-0.475000X-0.250000X0*%
%ADD15RoundRect,0.150000X-0.512500X-0.150000X0.512500X-0.150000X0.512500X0.150000X-0.512500X0.150000X0*%
%ADD16RoundRect,0.250000X0.250000X0.475000X-0.250000X0.475000X-0.250000X-0.475000X0.250000X-0.475000X0*%
%ADD17RoundRect,0.225000X-0.225000X-0.250000X0.225000X-0.250000X0.225000X0.250000X-0.225000X0.250000X0*%
%ADD18RoundRect,0.250000X-0.475000X0.250000X-0.475000X-0.250000X0.475000X-0.250000X0.475000X0.250000X0*%
%ADD19RoundRect,0.225000X0.250000X-0.225000X0.250000X0.225000X-0.250000X0.225000X-0.250000X-0.225000X0*%
%ADD20RoundRect,0.093750X0.093750X0.106250X-0.093750X0.106250X-0.093750X-0.106250X0.093750X-0.106250X0*%
%ADD21RoundRect,0.160000X0.245000X0.160000X-0.245000X0.160000X-0.245000X-0.160000X0.245000X-0.160000X0*%
%ADD22RoundRect,0.225000X-0.250000X0.225000X-0.250000X-0.225000X0.250000X-0.225000X0.250000X0.225000X0*%
%ADD23RoundRect,0.200000X-0.200000X-0.275000X0.200000X-0.275000X0.200000X0.275000X-0.200000X0.275000X0*%
%ADD24RoundRect,0.200000X0.275000X-0.200000X0.275000X0.200000X-0.275000X0.200000X-0.275000X-0.200000X0*%
%ADD25RoundRect,0.150000X-0.587500X-0.150000X0.587500X-0.150000X0.587500X0.150000X-0.587500X0.150000X0*%
%ADD26RoundRect,0.225000X0.225000X0.250000X-0.225000X0.250000X-0.225000X-0.250000X0.225000X-0.250000X0*%
%ADD27RoundRect,0.249999X-0.525001X-2.550001X0.525001X-2.550001X0.525001X2.550001X-0.525001X2.550001X0*%
%ADD28RoundRect,0.250000X-0.325000X-1.100000X0.325000X-1.100000X0.325000X1.100000X-0.325000X1.100000X0*%
%ADD29RoundRect,0.200000X0.200000X0.275000X-0.200000X0.275000X-0.200000X-0.275000X0.200000X-0.275000X0*%
%ADD30RoundRect,0.250000X-1.100000X0.325000X-1.100000X-0.325000X1.100000X-0.325000X1.100000X0.325000X0*%
%ADD31RoundRect,0.150000X0.587500X0.150000X-0.587500X0.150000X-0.587500X-0.150000X0.587500X-0.150000X0*%
%ADD32RoundRect,0.150000X0.150000X-0.587500X0.150000X0.587500X-0.150000X0.587500X-0.150000X-0.587500X0*%
%ADD33RoundRect,0.250000X-0.450000X-0.350000X0.450000X-0.350000X0.450000X0.350000X-0.450000X0.350000X0*%
%ADD34RoundRect,0.087500X-0.125000X-0.087500X0.125000X-0.087500X0.125000X0.087500X-0.125000X0.087500X0*%
%ADD35RoundRect,0.087500X-0.087500X-0.125000X0.087500X-0.125000X0.087500X0.125000X-0.087500X0.125000X0*%
%ADD36RoundRect,0.250000X1.100000X-0.325000X1.100000X0.325000X-1.100000X0.325000X-1.100000X-0.325000X0*%
%ADD37RoundRect,0.200000X-0.250000X-0.200000X0.250000X-0.200000X0.250000X0.200000X-0.250000X0.200000X0*%
%ADD38RoundRect,0.250000X-0.450000X0.262500X-0.450000X-0.262500X0.450000X-0.262500X0.450000X0.262500X0*%
%ADD39R,0.762000X1.219200*%
%ADD40RoundRect,0.100000X-0.102692X0.574525X-0.290631X0.506121X0.102692X-0.574525X0.290631X-0.506121X0*%
%ADD41HorizOval,0.900000X0.119707X-0.328892X-0.119707X0.328892X0*%
%ADD42RoundRect,0.250000X0.362922X0.610973X-0.670740X0.234751X-0.362922X-0.610973X0.670740X-0.234751X0*%
%ADD43RoundRect,0.250000X0.418371X0.897199X-0.897199X0.418371X-0.418371X-0.897199X0.897199X-0.418371X0*%
%ADD44RoundRect,0.218750X0.218750X0.256250X-0.218750X0.256250X-0.218750X-0.256250X0.218750X-0.256250X0*%
%ADD45R,3.150000X12.500000*%
%ADD46RoundRect,0.125000X-0.537500X-0.125000X0.537500X-0.125000X0.537500X0.125000X-0.537500X0.125000X0*%
%ADD47R,1.500000X0.550000*%
%ADD48RoundRect,0.100000X0.290631X0.506121X0.102692X0.574525X-0.290631X-0.506121X-0.102692X-0.574525X0*%
%ADD49HorizOval,0.900000X-0.119707X-0.328892X0.119707X0.328892X0*%
%ADD50RoundRect,0.250000X0.670740X0.234751X-0.362922X0.610973X-0.670740X-0.234751X0.362922X-0.610973X0*%
%ADD51RoundRect,0.250000X0.897199X0.418371X-0.418371X0.897199X-0.897199X-0.418371X0.418371X-0.897199X0*%
%ADD52RoundRect,0.100000X0.100000X-0.225000X0.100000X0.225000X-0.100000X0.225000X-0.100000X-0.225000X0*%
%ADD53R,2.900000X5.400000*%
%ADD54RoundRect,0.090000X-0.660000X-0.360000X0.660000X-0.360000X0.660000X0.360000X-0.660000X0.360000X0*%
%ADD55RoundRect,0.250000X-0.330000X-0.415000X0.330000X-0.415000X0.330000X0.415000X-0.330000X0.415000X0*%
%ADD56RoundRect,0.100000X-0.687500X-0.100000X0.687500X-0.100000X0.687500X0.100000X-0.687500X0.100000X0*%
%ADD57RoundRect,0.300000X0.300000X-0.350000X0.300000X0.350000X-0.300000X0.350000X-0.300000X-0.350000X0*%
%ADD58RoundRect,0.237500X0.262500X-0.237500X0.262500X0.237500X-0.262500X0.237500X-0.262500X-0.237500X0*%
%ADD59RoundRect,0.250000X1.000000X-1.400000X1.000000X1.400000X-1.000000X1.400000X-1.000000X-1.400000X0*%
%ADD60RoundRect,0.250000X-0.262500X-0.450000X0.262500X-0.450000X0.262500X0.450000X-0.262500X0.450000X0*%
%ADD61RoundRect,0.250000X0.325000X1.100000X-0.325000X1.100000X-0.325000X-1.100000X0.325000X-1.100000X0*%
%ADD62RoundRect,0.162500X-0.650000X-0.162500X0.650000X-0.162500X0.650000X0.162500X-0.650000X0.162500X0*%
%ADD63RoundRect,0.160000X-0.160000X0.245000X-0.160000X-0.245000X0.160000X-0.245000X0.160000X0.245000X0*%
%ADD64RoundRect,0.093750X-0.106250X0.093750X-0.106250X-0.093750X0.106250X-0.093750X0.106250X0.093750X0*%
%ADD65R,1.193800X0.787400*%
%ADD66RoundRect,0.250000X0.650000X-0.325000X0.650000X0.325000X-0.650000X0.325000X-0.650000X-0.325000X0*%
%ADD67RoundRect,0.250000X2.450000X-0.650000X2.450000X0.650000X-2.450000X0.650000X-2.450000X-0.650000X0*%
%ADD68RoundRect,0.249999X-2.550001X0.525001X-2.550001X-0.525001X2.550001X-0.525001X2.550001X0.525001X0*%
%ADD69R,12.500000X3.150000*%
%ADD70RoundRect,0.125000X-0.125000X-0.125000X0.125000X-0.125000X0.125000X0.125000X-0.125000X0.125000X0*%
%ADD71RoundRect,0.100000X0.225000X0.100000X-0.225000X0.100000X-0.225000X-0.100000X0.225000X-0.100000X0*%
%ADD72RoundRect,0.250000X0.275000X0.275000X-0.275000X0.275000X-0.275000X-0.275000X0.275000X-0.275000X0*%
%ADD73RoundRect,0.062500X0.350000X0.062500X-0.350000X0.062500X-0.350000X-0.062500X0.350000X-0.062500X0*%
%ADD74RoundRect,0.062500X0.062500X0.350000X-0.062500X0.350000X-0.062500X-0.350000X0.062500X-0.350000X0*%
%ADD75RoundRect,0.075000X-0.725000X-0.075000X0.725000X-0.075000X0.725000X0.075000X-0.725000X0.075000X0*%
%ADD76RoundRect,0.075000X-0.075000X-0.725000X0.075000X-0.725000X0.075000X0.725000X-0.075000X0.725000X0*%
%ADD77R,0.738000X0.570000*%
%ADD78RoundRect,0.125000X-0.125000X0.190000X-0.125000X-0.190000X0.125000X-0.190000X0.125000X0.190000X0*%
%ADD79RoundRect,0.250000X0.312500X0.625000X-0.312500X0.625000X-0.312500X-0.625000X0.312500X-0.625000X0*%
%ADD80R,0.914400X3.708400*%
%ADD81R,5.562600X5.791200*%
%ADD82RoundRect,0.150000X-0.150000X0.512500X-0.150000X-0.512500X0.150000X-0.512500X0.150000X0.512500X0*%
%ADD83R,1.780000X2.160000*%
%ADD84R,4.000000X2.300000*%
%ADD85R,2.600000X8.200000*%
%ADD86R,1.170000X0.950000*%
%ADD87RoundRect,0.062500X0.062500X-0.187500X0.062500X0.187500X-0.062500X0.187500X-0.062500X-0.187500X0*%
%ADD88RoundRect,0.075000X-0.075000X-0.200000X0.075000X-0.200000X0.075000X0.200000X-0.075000X0.200000X0*%
%ADD89RoundRect,0.087500X-0.087500X0.725000X-0.087500X-0.725000X0.087500X-0.725000X0.087500X0.725000X0*%
%ADD90R,0.250000X1.100000*%
%ADD91RoundRect,0.150000X0.512500X0.150000X-0.512500X0.150000X-0.512500X-0.150000X0.512500X-0.150000X0*%
%ADD92RoundRect,0.075000X-0.200000X0.075000X-0.200000X-0.075000X0.200000X-0.075000X0.200000X0.075000X0*%
%ADD93R,0.875000X0.250000*%
%ADD94R,0.250000X0.350000*%
%ADD95R,0.700000X0.250000*%
%ADD96R,0.250000X0.700000*%
%ADD97R,1.000000X1.000000*%
%ADD98RoundRect,0.250000X-0.400000X0.550000X-0.400000X-0.550000X0.400000X-0.550000X0.400000X0.550000X0*%
%ADD99RoundRect,0.250000X0.625000X-0.375000X0.625000X0.375000X-0.625000X0.375000X-0.625000X-0.375000X0*%
G04 APERTURE END LIST*
D10*
%TO.C,Y1*%
X85950000Y-61325000D03*
X88550000Y-61325000D03*
X88550000Y-63175000D03*
X85950000Y-63175000D03*
%TD*%
D11*
%TO.C,U4*%
X110270000Y-57720000D03*
X109770000Y-57720000D03*
X109270000Y-57720000D03*
X108770000Y-57720000D03*
X108270000Y-57720000D03*
X108270000Y-56950000D03*
X108770000Y-56950000D03*
X109270000Y-56950000D03*
X109770000Y-56950000D03*
X110270000Y-56950000D03*
%TD*%
D12*
%TO.C,R103*%
X131600000Y-95775000D03*
X131600000Y-94125000D03*
%TD*%
D13*
%TO.C,U25*%
X128150000Y-94312500D03*
X130050000Y-94312500D03*
X130050000Y-96587500D03*
X129100000Y-96587500D03*
X128150000Y-96587500D03*
%TD*%
D14*
%TO.C,C43*%
X119280000Y-85025000D03*
X119280000Y-86925000D03*
%TD*%
D12*
%TO.C,R84*%
X119000000Y-77300000D03*
X119000000Y-75650000D03*
%TD*%
D15*
%TO.C,U7*%
X117887500Y-88475000D03*
X117887500Y-90375000D03*
X115612500Y-90375000D03*
X115612500Y-89425000D03*
X115612500Y-88475000D03*
%TD*%
D16*
%TO.C,C51*%
X122550000Y-88175000D03*
X124450000Y-88175000D03*
%TD*%
D17*
%TO.C,C140*%
X124075000Y-83575000D03*
X122525000Y-83575000D03*
%TD*%
D12*
%TO.C,R112*%
X121000000Y-83700000D03*
X121000000Y-82050000D03*
%TD*%
D18*
%TO.C,C31*%
X120000000Y-90375000D03*
X120000000Y-88475000D03*
%TD*%
D19*
%TO.C,C42*%
X121030000Y-85200000D03*
X121030000Y-86750000D03*
%TD*%
D20*
%TO.C,U11*%
X122392500Y-86475000D03*
X122392500Y-85825000D03*
X122392500Y-85175000D03*
X124167500Y-85175000D03*
X124167500Y-85825000D03*
X124167500Y-86475000D03*
D21*
X123280000Y-85425000D03*
X123280000Y-86225000D03*
%TD*%
D22*
%TO.C,C108*%
X113837500Y-77700000D03*
X113837500Y-76150000D03*
%TD*%
D17*
%TO.C,C142*%
X124675000Y-76975000D03*
X123125000Y-76975000D03*
%TD*%
D12*
%TO.C,R33*%
X119250000Y-83500000D03*
X119250000Y-81850000D03*
%TD*%
D14*
%TO.C,C25*%
X113000000Y-84725000D03*
X113000000Y-86625000D03*
%TD*%
D16*
%TO.C,C32*%
X115050000Y-86425000D03*
X116950000Y-86425000D03*
%TD*%
%TO.C,C52*%
X122050000Y-90175000D03*
X123950000Y-90175000D03*
%TD*%
D17*
%TO.C,C107*%
X115275000Y-80075000D03*
X113725000Y-80075000D03*
%TD*%
D23*
%TO.C,R85*%
X116725000Y-74175000D03*
X115075000Y-74175000D03*
%TD*%
D17*
%TO.C,C141*%
X124675000Y-78475000D03*
X123125000Y-78475000D03*
%TD*%
D13*
%TO.C,U20*%
X115550000Y-75837500D03*
X116500000Y-75837500D03*
X117450000Y-75837500D03*
X117450000Y-78112500D03*
X116500000Y-78112500D03*
X115550000Y-78112500D03*
%TD*%
%TO.C,U9*%
X115550000Y-82037500D03*
X117450000Y-82037500D03*
X117450000Y-84312500D03*
X116500000Y-84312500D03*
X115550000Y-84312500D03*
%TD*%
D12*
%TO.C,R111*%
X121000000Y-80700000D03*
X121000000Y-79050000D03*
%TD*%
D23*
%TO.C,R32*%
X118325000Y-80175000D03*
X116675000Y-80175000D03*
%TD*%
D15*
%TO.C,U28*%
X125037500Y-80125000D03*
X125037500Y-82025000D03*
X122762500Y-82025000D03*
X122762500Y-81075000D03*
X122762500Y-80125000D03*
%TD*%
D22*
%TO.C,C39*%
X114000000Y-83200000D03*
X114000000Y-81650000D03*
%TD*%
D24*
%TO.C,R16*%
X109690000Y-54490000D03*
X109690000Y-52840000D03*
%TD*%
D12*
%TO.C,R6*%
X122600000Y-69275000D03*
X122600000Y-70925000D03*
%TD*%
D25*
%TO.C,Q4*%
X111812500Y-89550000D03*
X111812500Y-91450000D03*
X113687500Y-90500000D03*
%TD*%
D11*
%TO.C,U5*%
X115900000Y-59300000D03*
X115400000Y-59300000D03*
X114900000Y-59300000D03*
X114400000Y-59300000D03*
X113900000Y-59300000D03*
X113900000Y-60070000D03*
X114400000Y-60070000D03*
X114900000Y-60070000D03*
X115400000Y-60070000D03*
X115900000Y-60070000D03*
%TD*%
D17*
%TO.C,C147*%
X145125000Y-88800000D03*
X146675000Y-88800000D03*
%TD*%
D24*
%TO.C,R54*%
X100500000Y-90075000D03*
X100500000Y-88425000D03*
%TD*%
D12*
%TO.C,R1*%
X99500000Y-55675000D03*
X99500000Y-57325000D03*
%TD*%
D14*
%TO.C,C82*%
X78690000Y-129100000D03*
X78690000Y-127200000D03*
%TD*%
D26*
%TO.C,C30*%
X87275000Y-99500000D03*
X85725000Y-99500000D03*
%TD*%
D16*
%TO.C,C120*%
X133050000Y-105000000D03*
X131150000Y-105000000D03*
%TD*%
D24*
%TO.C,R81*%
X87100000Y-108925000D03*
X87100000Y-107275000D03*
%TD*%
D27*
%TO.C,L2*%
X72975000Y-87750000D03*
X77025000Y-87750000D03*
%TD*%
D23*
%TO.C,R83*%
X92142500Y-111545000D03*
X93792500Y-111545000D03*
%TD*%
D19*
%TO.C,C134*%
X134500000Y-88175000D03*
X134500000Y-86625000D03*
%TD*%
D12*
%TO.C,R5*%
X104000000Y-55675000D03*
X104000000Y-57325000D03*
%TD*%
D16*
%TO.C,C84*%
X80140000Y-130900000D03*
X78240000Y-130900000D03*
%TD*%
D24*
%TO.C,R55*%
X88950000Y-113675000D03*
X88950000Y-112025000D03*
%TD*%
D14*
%TO.C,C49*%
X92500000Y-103200000D03*
X92500000Y-101300000D03*
%TD*%
D23*
%TO.C,R46*%
X79675000Y-76750000D03*
X81325000Y-76750000D03*
%TD*%
D28*
%TO.C,C44*%
X95525000Y-89250000D03*
X98475000Y-89250000D03*
%TD*%
D17*
%TO.C,C63*%
X77025000Y-56600000D03*
X78575000Y-56600000D03*
%TD*%
D29*
%TO.C,R45*%
X84425000Y-76750000D03*
X82775000Y-76750000D03*
%TD*%
D30*
%TO.C,C47*%
X93000000Y-105025000D03*
X93000000Y-107975000D03*
%TD*%
D31*
%TO.C,Q11*%
X74700000Y-67850000D03*
X74700000Y-65950000D03*
X72825000Y-66900000D03*
%TD*%
D32*
%TO.C,Q17*%
X141250000Y-84737500D03*
X143150000Y-84737500D03*
X142200000Y-82862500D03*
%TD*%
D23*
%TO.C,R20*%
X120625000Y-62150000D03*
X122275000Y-62150000D03*
%TD*%
D17*
%TO.C,C29*%
X70965000Y-93020000D03*
X72515000Y-93020000D03*
%TD*%
D33*
%TO.C,Y3*%
X82675000Y-81600000D03*
X84875000Y-81600000D03*
X84875000Y-79900000D03*
X82675000Y-79900000D03*
%TD*%
D17*
%TO.C,C65*%
X78325000Y-73500000D03*
X79875000Y-73500000D03*
%TD*%
D34*
%TO.C,U18*%
X105487500Y-56250000D03*
X105487500Y-56750000D03*
D35*
X105750000Y-57262500D03*
X106250000Y-57262500D03*
X106750000Y-57262500D03*
D34*
X107012500Y-56750000D03*
X107012500Y-56250000D03*
D35*
X106750000Y-55737500D03*
X106250000Y-55737500D03*
X105750000Y-55737500D03*
%TD*%
D24*
%TO.C,R52*%
X85300000Y-109825000D03*
X85300000Y-108175000D03*
%TD*%
D23*
%TO.C,R96*%
X131275000Y-103200000D03*
X132925000Y-103200000D03*
%TD*%
D28*
%TO.C,C22*%
X70275000Y-77750000D03*
X73225000Y-77750000D03*
%TD*%
D17*
%TO.C,C33*%
X73725000Y-98250000D03*
X75275000Y-98250000D03*
%TD*%
D31*
%TO.C,Q10*%
X87187500Y-113700000D03*
X87187500Y-111800000D03*
X85312500Y-112750000D03*
%TD*%
D29*
%TO.C,R34*%
X79075000Y-99750000D03*
X77425000Y-99750000D03*
%TD*%
D26*
%TO.C,C116*%
X137775000Y-97100000D03*
X136225000Y-97100000D03*
%TD*%
D17*
%TO.C,C129*%
X128075000Y-98300000D03*
X129625000Y-98300000D03*
%TD*%
D19*
%TO.C,C119*%
X138400000Y-106675000D03*
X138400000Y-105125000D03*
%TD*%
D36*
%TO.C,C56*%
X52500000Y-105225000D03*
X52500000Y-102275000D03*
%TD*%
D19*
%TO.C,C110*%
X145200000Y-92075000D03*
X145200000Y-90525000D03*
%TD*%
%TO.C,C117*%
X134100000Y-98675000D03*
X134100000Y-97125000D03*
%TD*%
D22*
%TO.C,C40*%
X112500000Y-81650000D03*
X112500000Y-83200000D03*
%TD*%
D26*
%TO.C,C41*%
X93775000Y-88750000D03*
X92225000Y-88750000D03*
%TD*%
D22*
%TO.C,C36*%
X81000000Y-99475000D03*
X81000000Y-101025000D03*
%TD*%
D29*
%TO.C,R94*%
X138325000Y-108500000D03*
X136675000Y-108500000D03*
%TD*%
D37*
%TO.C,D10*%
X127300000Y-84150000D03*
X127300000Y-86050000D03*
X129700000Y-85100000D03*
%TD*%
D12*
%TO.C,R27*%
X72750000Y-94850000D03*
X72750000Y-96500000D03*
%TD*%
D19*
%TO.C,C6*%
X97900000Y-57375000D03*
X97900000Y-55825000D03*
%TD*%
D23*
%TO.C,R41*%
X88975000Y-80100000D03*
X90625000Y-80100000D03*
%TD*%
D22*
%TO.C,C77*%
X66000000Y-130125000D03*
X66000000Y-131675000D03*
%TD*%
D24*
%TO.C,R48*%
X105200000Y-88025000D03*
X105200000Y-86375000D03*
%TD*%
D36*
%TO.C,C55*%
X55887500Y-105175000D03*
X55887500Y-102225000D03*
%TD*%
D38*
%TO.C,R67*%
X62250000Y-69587500D03*
X62250000Y-71412500D03*
%TD*%
D17*
%TO.C,C19*%
X130425000Y-66900000D03*
X131975000Y-66900000D03*
%TD*%
%TO.C,C64*%
X84500000Y-78250000D03*
X86050000Y-78250000D03*
%TD*%
%TO.C,C138*%
X136525000Y-89900000D03*
X138075000Y-89900000D03*
%TD*%
D12*
%TO.C,R12*%
X116500000Y-62175000D03*
X116500000Y-63825000D03*
%TD*%
D17*
%TO.C,C81*%
X61825000Y-127000000D03*
X63375000Y-127000000D03*
%TD*%
D13*
%TO.C,U23*%
X134800000Y-106637500D03*
X135750000Y-106637500D03*
X136700000Y-106637500D03*
X136700000Y-104362500D03*
X134800000Y-104362500D03*
%TD*%
D26*
%TO.C,C91*%
X65875000Y-119600000D03*
X64325000Y-119600000D03*
%TD*%
D25*
%TO.C,Q5*%
X106562500Y-89550000D03*
X106562500Y-91450000D03*
X108437500Y-90500000D03*
%TD*%
D26*
%TO.C,C4*%
X108775000Y-80000000D03*
X107225000Y-80000000D03*
%TD*%
D17*
%TO.C,C114*%
X134725000Y-102500000D03*
X136275000Y-102500000D03*
%TD*%
D23*
%TO.C,R38*%
X127075000Y-87700000D03*
X128725000Y-87700000D03*
%TD*%
D12*
%TO.C,R70*%
X73800000Y-69275000D03*
X73800000Y-70925000D03*
%TD*%
D31*
%TO.C,Q14*%
X77537500Y-61550000D03*
X77537500Y-59650000D03*
X75662500Y-60600000D03*
%TD*%
D12*
%TO.C,R49*%
X87200000Y-73675000D03*
X87200000Y-75325000D03*
%TD*%
D29*
%TO.C,R40*%
X63537500Y-102200000D03*
X61887500Y-102200000D03*
%TD*%
D24*
%TO.C,R56*%
X59200000Y-119925000D03*
X59200000Y-118275000D03*
%TD*%
D30*
%TO.C,C75*%
X63600000Y-128625000D03*
X63600000Y-131575000D03*
%TD*%
D19*
%TO.C,C135*%
X126500000Y-101525000D03*
X126500000Y-99975000D03*
%TD*%
D12*
%TO.C,R26*%
X80800000Y-86575000D03*
X80800000Y-88225000D03*
%TD*%
%TO.C,R13*%
X116500000Y-65175000D03*
X116500000Y-66825000D03*
%TD*%
D25*
%TO.C,Q15*%
X111062500Y-73050000D03*
X111062500Y-74950000D03*
X112937500Y-74000000D03*
%TD*%
D39*
%TO.C,D4*%
X67250000Y-79676400D03*
X67250000Y-76323600D03*
%TD*%
D19*
%TO.C,C139*%
X133000000Y-86175000D03*
X133000000Y-84625000D03*
%TD*%
D40*
%TO.C,J3*%
X85764136Y-56258627D03*
X85153335Y-56480941D03*
X84542535Y-56703254D03*
X83931735Y-56925567D03*
X83320934Y-57147880D03*
D41*
X86728618Y-53060909D03*
D42*
X87472595Y-55397358D03*
D43*
X84755262Y-53779152D03*
X82500000Y-54600000D03*
D42*
X81458563Y-57586287D03*
D41*
X80526644Y-55318243D03*
%TD*%
D17*
%TO.C,C85*%
X64925000Y-126600000D03*
X66475000Y-126600000D03*
%TD*%
D16*
%TO.C,C50*%
X94700000Y-82000000D03*
X92800000Y-82000000D03*
%TD*%
D44*
%TO.C,D7*%
X70987500Y-63200000D03*
X69412500Y-63200000D03*
%TD*%
D22*
%TO.C,C13*%
X95750000Y-76725000D03*
X95750000Y-78275000D03*
%TD*%
D45*
%TO.C,L8*%
X107825000Y-101750000D03*
X123175000Y-101750000D03*
%TD*%
D29*
%TO.C,R86*%
X143525000Y-87300000D03*
X141875000Y-87300000D03*
%TD*%
D12*
%TO.C,R21*%
X107500000Y-86175000D03*
X107500000Y-87825000D03*
%TD*%
D26*
%TO.C,C73*%
X59675000Y-125900000D03*
X58125000Y-125900000D03*
%TD*%
D46*
%TO.C,U19*%
X69162500Y-68425000D03*
X69162500Y-69075000D03*
X69162500Y-69725000D03*
X69162500Y-70375000D03*
X71437500Y-70375000D03*
X71437500Y-69725000D03*
X71437500Y-69075000D03*
X71437500Y-68425000D03*
%TD*%
D29*
%TO.C,R39*%
X66537500Y-102200000D03*
X64887500Y-102200000D03*
%TD*%
D47*
%TO.C,SW2*%
X90400000Y-56475000D03*
X90400000Y-59725000D03*
%TD*%
D17*
%TO.C,C122*%
X132525000Y-100200000D03*
X134075000Y-100200000D03*
%TD*%
%TO.C,C136*%
X128375000Y-91100000D03*
X129925000Y-91100000D03*
%TD*%
D24*
%TO.C,R91*%
X140200000Y-80325000D03*
X140200000Y-78675000D03*
%TD*%
D26*
%TO.C,C62*%
X83050000Y-78250000D03*
X81500000Y-78250000D03*
%TD*%
D29*
%TO.C,R99*%
X132675000Y-98650000D03*
X131025000Y-98650000D03*
%TD*%
D28*
%TO.C,C21*%
X70275000Y-74500000D03*
X73225000Y-74500000D03*
%TD*%
D23*
%TO.C,R110*%
X136075000Y-84800000D03*
X137725000Y-84800000D03*
%TD*%
D22*
%TO.C,C143*%
X131500000Y-84625000D03*
X131500000Y-86175000D03*
%TD*%
%TO.C,C15*%
X108250000Y-75225000D03*
X108250000Y-76775000D03*
%TD*%
D24*
%TO.C,R62*%
X65000000Y-118125000D03*
X65000000Y-116475000D03*
%TD*%
D17*
%TO.C,C109*%
X141925000Y-88800000D03*
X143475000Y-88800000D03*
%TD*%
D22*
%TO.C,C5*%
X109830000Y-60635000D03*
X109830000Y-62185000D03*
%TD*%
D19*
%TO.C,C132*%
X128000000Y-99975000D03*
X128000000Y-101525000D03*
%TD*%
D17*
%TO.C,C26*%
X79425000Y-89800000D03*
X80975000Y-89800000D03*
%TD*%
D48*
%TO.C,J2*%
X116179066Y-57247879D03*
X115568263Y-57025565D03*
X114957465Y-56803253D03*
X114346665Y-56580940D03*
X113735865Y-56358625D03*
D49*
X118973354Y-55418240D03*
D50*
X118041436Y-57686286D03*
D51*
X117000000Y-54700000D03*
X114744738Y-53879150D03*
D50*
X112027403Y-55497357D03*
D49*
X112771384Y-53160910D03*
%TD*%
D12*
%TO.C,R3*%
X102500000Y-55675000D03*
X102500000Y-57325000D03*
%TD*%
D26*
%TO.C,C72*%
X62775000Y-125500000D03*
X61225000Y-125500000D03*
%TD*%
D52*
%TO.C,U31*%
X145000000Y-87400000D03*
X145650000Y-87400000D03*
X146300000Y-87400000D03*
X146300000Y-85500000D03*
X145650000Y-85500000D03*
X145000000Y-85500000D03*
%TD*%
D12*
%TO.C,R57*%
X56000000Y-119475000D03*
X56000000Y-121125000D03*
%TD*%
%TO.C,R78*%
X66900000Y-72975000D03*
X66900000Y-74625000D03*
%TD*%
D24*
%TO.C,R73*%
X76500000Y-68825000D03*
X76500000Y-67175000D03*
%TD*%
D23*
%TO.C,R22*%
X73885000Y-93030000D03*
X75535000Y-93030000D03*
%TD*%
D24*
%TO.C,R29*%
X75100000Y-78525000D03*
X75100000Y-76875000D03*
%TD*%
D12*
%TO.C,R74*%
X94900000Y-55775000D03*
X94900000Y-57425000D03*
%TD*%
D26*
%TO.C,C1*%
X90275000Y-72250000D03*
X88725000Y-72250000D03*
%TD*%
D23*
%TO.C,R106*%
X127175000Y-89200000D03*
X128825000Y-89200000D03*
%TD*%
D53*
%TO.C,L5*%
X82850000Y-122390000D03*
X92850000Y-122390000D03*
%TD*%
D36*
%TO.C,C45*%
X89750000Y-103225000D03*
X89750000Y-100275000D03*
%TD*%
D54*
%TO.C,D1*%
X130750000Y-69000000D03*
X130750000Y-72300000D03*
X135650000Y-72300000D03*
X135650000Y-69000000D03*
%TD*%
D22*
%TO.C,C71*%
X64400000Y-122025000D03*
X64400000Y-123575000D03*
%TD*%
D44*
%TO.C,D8*%
X70987500Y-61700000D03*
X69412500Y-61700000D03*
%TD*%
D23*
%TO.C,R24*%
X110975000Y-68900000D03*
X112625000Y-68900000D03*
%TD*%
D26*
%TO.C,C2*%
X90275000Y-73750000D03*
X88725000Y-73750000D03*
%TD*%
D22*
%TO.C,C133*%
X140100000Y-86625000D03*
X140100000Y-88175000D03*
%TD*%
D17*
%TO.C,C113*%
X141825000Y-94700000D03*
X143375000Y-94700000D03*
%TD*%
D55*
%TO.C,U17*%
X70560000Y-121950000D03*
X70560000Y-123600000D03*
X70560000Y-125250000D03*
X70560000Y-126900000D03*
X70560000Y-128550000D03*
X72000000Y-121950001D03*
X72000000Y-123600000D03*
X72000000Y-125250000D03*
X72000000Y-126900000D03*
X72000000Y-128549999D03*
X73440000Y-121950000D03*
X73440000Y-123600000D03*
X73440000Y-125250000D03*
X73440000Y-126900000D03*
X73440000Y-128550000D03*
D56*
X68287501Y-118582500D03*
X68287500Y-119217500D03*
X68287500Y-119852500D03*
X68287500Y-120487500D03*
X68287500Y-121122500D03*
X68287501Y-121757500D03*
X68287500Y-122392499D03*
X68287500Y-123027500D03*
X68287500Y-123662500D03*
X68287500Y-124297500D03*
X68287500Y-124932501D03*
X68287500Y-125567499D03*
X68287500Y-126202500D03*
X68287500Y-126837500D03*
X68287500Y-127472500D03*
X68287500Y-128107501D03*
X68287501Y-128742500D03*
X68287500Y-129377500D03*
X68287500Y-130012500D03*
X68287500Y-130647500D03*
X68287500Y-131282500D03*
X68287501Y-131917500D03*
X75712499Y-131917500D03*
X75712500Y-131282500D03*
X75712500Y-130647500D03*
X75712500Y-130012500D03*
X75712500Y-129377500D03*
X75712499Y-128742500D03*
X75712500Y-128107501D03*
X75712500Y-127472500D03*
X75712500Y-126837500D03*
X75712500Y-126202500D03*
X75712500Y-125567499D03*
X75712500Y-124932501D03*
X75712500Y-124297500D03*
X75712500Y-123662500D03*
X75712500Y-123027500D03*
X75712500Y-122392499D03*
X75712499Y-121757500D03*
X75712500Y-121122500D03*
X75712500Y-120487500D03*
X75712500Y-119852500D03*
X75712500Y-119217500D03*
X75712499Y-118582500D03*
%TD*%
D24*
%TO.C,R92*%
X139400000Y-85025000D03*
X139400000Y-83375000D03*
%TD*%
D44*
%TO.C,D5*%
X70987500Y-66200000D03*
X69412500Y-66200000D03*
%TD*%
D23*
%TO.C,R37*%
X76855000Y-93040000D03*
X78505000Y-93040000D03*
%TD*%
D29*
%TO.C,R72*%
X66925000Y-67100000D03*
X65275000Y-67100000D03*
%TD*%
D12*
%TO.C,R30*%
X84200000Y-83575000D03*
X84200000Y-85225000D03*
%TD*%
D24*
%TO.C,R36*%
X78000000Y-96575000D03*
X78000000Y-94925000D03*
%TD*%
%TO.C,R64*%
X54000000Y-113225000D03*
X54000000Y-111575000D03*
%TD*%
D29*
%TO.C,R7*%
X118225000Y-71400000D03*
X116575000Y-71400000D03*
%TD*%
D24*
%TO.C,R66*%
X104550000Y-109725000D03*
X104550000Y-108075000D03*
%TD*%
D57*
%TO.C,D2*%
X83300000Y-105120000D03*
X85100000Y-105120000D03*
X86900000Y-105120000D03*
X83300000Y-103320000D03*
X85100000Y-103320000D03*
X86900000Y-103320000D03*
D58*
X80750000Y-105190000D03*
X80750000Y-103250000D03*
%TD*%
D26*
%TO.C,C7*%
X88150000Y-59700000D03*
X86600000Y-59700000D03*
%TD*%
D19*
%TO.C,C101*%
X103000000Y-109675000D03*
X103000000Y-108125000D03*
%TD*%
D53*
%TO.C,L4*%
X83910000Y-136450000D03*
X93910000Y-136450000D03*
%TD*%
D17*
%TO.C,C58*%
X55525000Y-107000000D03*
X57075000Y-107000000D03*
%TD*%
%TO.C,C137*%
X130225000Y-87700000D03*
X131775000Y-87700000D03*
%TD*%
D26*
%TO.C,C90*%
X70265000Y-116870000D03*
X68715000Y-116870000D03*
%TD*%
D29*
%TO.C,R59*%
X59325000Y-122900000D03*
X57675000Y-122900000D03*
%TD*%
D19*
%TO.C,C79*%
X67200000Y-134775000D03*
X67200000Y-133225000D03*
%TD*%
D59*
%TO.C,D9*%
X113350000Y-141500000D03*
X120150000Y-141500000D03*
%TD*%
D31*
%TO.C,Q18*%
X140737500Y-76850000D03*
X140737500Y-74950000D03*
X138862500Y-75900000D03*
%TD*%
D12*
%TO.C,R15*%
X128200000Y-67075000D03*
X128200000Y-68725000D03*
%TD*%
D22*
%TO.C,C27*%
X74000000Y-81725000D03*
X74000000Y-83275000D03*
%TD*%
D29*
%TO.C,R114*%
X140125000Y-73300000D03*
X138475000Y-73300000D03*
%TD*%
D25*
%TO.C,Q6*%
X82750000Y-87500000D03*
X82750000Y-89400000D03*
X84625000Y-88450000D03*
%TD*%
D60*
%TO.C,R35*%
X77337500Y-101500000D03*
X79162500Y-101500000D03*
%TD*%
D29*
%TO.C,R19*%
X122275000Y-63900000D03*
X120625000Y-63900000D03*
%TD*%
D61*
%TO.C,C23*%
X67725000Y-89500000D03*
X64775000Y-89500000D03*
%TD*%
D26*
%TO.C,C95*%
X83525000Y-114250000D03*
X81975000Y-114250000D03*
%TD*%
D62*
%TO.C,U1*%
X98162500Y-80345000D03*
X98162500Y-81615000D03*
X98162500Y-82885000D03*
X98162500Y-84155000D03*
X105337500Y-84155000D03*
X105337500Y-82885000D03*
X105337500Y-81615000D03*
X105337500Y-80345000D03*
%TD*%
D12*
%TO.C,R58*%
X61200000Y-128475000D03*
X61200000Y-130125000D03*
%TD*%
D24*
%TO.C,R65*%
X88250000Y-146325000D03*
X88250000Y-144675000D03*
%TD*%
D63*
%TO.C,U10*%
X94100000Y-86112500D03*
X93300000Y-86112500D03*
D64*
X94350000Y-85225000D03*
X93700000Y-85225000D03*
X93050000Y-85225000D03*
X93050000Y-87000000D03*
X93700000Y-87000000D03*
X94350000Y-87000000D03*
%TD*%
D24*
%TO.C,R76*%
X79500000Y-63525000D03*
X79500000Y-61875000D03*
%TD*%
D65*
%TO.C,U32*%
X146247200Y-108020000D03*
X146247200Y-105480000D03*
X140252800Y-105480000D03*
X140252800Y-108020000D03*
%TD*%
D29*
%TO.C,R4*%
X90325000Y-75250000D03*
X88675000Y-75250000D03*
%TD*%
D25*
%TO.C,Q2*%
X128012500Y-63450000D03*
X128012500Y-65350000D03*
X129887500Y-64400000D03*
%TD*%
D66*
%TO.C,C97*%
X96500000Y-109475000D03*
X96500000Y-106525000D03*
%TD*%
D22*
%TO.C,C80*%
X66490000Y-116155000D03*
X66490000Y-117705000D03*
%TD*%
D26*
%TO.C,C106*%
X71975000Y-72000000D03*
X70425000Y-72000000D03*
%TD*%
D16*
%TO.C,C48*%
X94700000Y-80000000D03*
X92800000Y-80000000D03*
%TD*%
D15*
%TO.C,U26*%
X133362500Y-92150000D03*
X133362500Y-93100000D03*
X133362500Y-94050000D03*
X135637500Y-94050000D03*
X135637500Y-92150000D03*
%TD*%
D17*
%TO.C,C8*%
X108265000Y-59200000D03*
X109815000Y-59200000D03*
%TD*%
D61*
%TO.C,C24*%
X67725000Y-86250000D03*
X64775000Y-86250000D03*
%TD*%
D25*
%TO.C,Q3*%
X124012500Y-62450000D03*
X124012500Y-64350000D03*
X125887500Y-63400000D03*
%TD*%
D23*
%TO.C,R93*%
X139275000Y-81900000D03*
X140925000Y-81900000D03*
%TD*%
%TO.C,R31*%
X76925000Y-98250000D03*
X78575000Y-98250000D03*
%TD*%
D26*
%TO.C,C93*%
X70335000Y-135410000D03*
X68785000Y-135410000D03*
%TD*%
D67*
%TO.C,C123*%
X116000000Y-136800000D03*
X116000000Y-131700000D03*
%TD*%
D17*
%TO.C,C18*%
X85925000Y-87100000D03*
X87475000Y-87100000D03*
%TD*%
D12*
%TO.C,R77*%
X79500000Y-58875000D03*
X79500000Y-60525000D03*
%TD*%
D68*
%TO.C,L1*%
X72250000Y-100475000D03*
X72250000Y-104525000D03*
%TD*%
D23*
%TO.C,R14*%
X120625000Y-65650000D03*
X122275000Y-65650000D03*
%TD*%
D17*
%TO.C,C66*%
X78325000Y-72000000D03*
X79875000Y-72000000D03*
%TD*%
D29*
%TO.C,R18*%
X129325000Y-61700000D03*
X127675000Y-61700000D03*
%TD*%
D12*
%TO.C,R63*%
X54000000Y-114575000D03*
X54000000Y-116225000D03*
%TD*%
D23*
%TO.C,R108*%
X133275000Y-90100000D03*
X134925000Y-90100000D03*
%TD*%
D19*
%TO.C,C11*%
X92500000Y-58775000D03*
X92500000Y-57225000D03*
%TD*%
D69*
%TO.C,L9*%
X122250000Y-112575000D03*
X122250000Y-127925000D03*
%TD*%
D22*
%TO.C,C16*%
X97250000Y-76725000D03*
X97250000Y-78275000D03*
%TD*%
D24*
%TO.C,R101*%
X139800000Y-100525000D03*
X139800000Y-98875000D03*
%TD*%
%TO.C,R47*%
X107700000Y-83725000D03*
X107700000Y-82075000D03*
%TD*%
D17*
%TO.C,C38*%
X79225000Y-85000000D03*
X80775000Y-85000000D03*
%TD*%
%TO.C,C146*%
X126425000Y-72700000D03*
X127975000Y-72700000D03*
%TD*%
D18*
%TO.C,C76*%
X78690000Y-123500000D03*
X78690000Y-125400000D03*
%TD*%
D29*
%TO.C,R23*%
X112625000Y-67400000D03*
X110975000Y-67400000D03*
%TD*%
D19*
%TO.C,C131*%
X131700000Y-92275000D03*
X131700000Y-90725000D03*
%TD*%
D26*
%TO.C,C28*%
X84275000Y-101000000D03*
X82725000Y-101000000D03*
%TD*%
D52*
%TO.C,U3*%
X86050000Y-85550000D03*
X86700000Y-85550000D03*
X87350000Y-85550000D03*
X87350000Y-83650000D03*
X86700000Y-83650000D03*
X86050000Y-83650000D03*
%TD*%
D70*
%TO.C,D11*%
X123800000Y-133700000D03*
X126000000Y-133700000D03*
%TD*%
D23*
%TO.C,R69*%
X64175000Y-71000000D03*
X65825000Y-71000000D03*
%TD*%
D22*
%TO.C,C102*%
X86750000Y-144700000D03*
X86750000Y-146250000D03*
%TD*%
D19*
%TO.C,C68*%
X82800000Y-69075000D03*
X82800000Y-67525000D03*
%TD*%
D29*
%TO.C,R61*%
X65725000Y-133200000D03*
X64075000Y-133200000D03*
%TD*%
D71*
%TO.C,U21*%
X143750000Y-93150000D03*
X143750000Y-92500000D03*
X143750000Y-91850000D03*
X141850000Y-91850000D03*
X141850000Y-92500000D03*
X141850000Y-93150000D03*
%TD*%
D17*
%TO.C,C121*%
X129525000Y-100200000D03*
X131075000Y-100200000D03*
%TD*%
D24*
%TO.C,R105*%
X126500000Y-95575000D03*
X126500000Y-93925000D03*
%TD*%
D22*
%TO.C,C111*%
X138800000Y-92925000D03*
X138800000Y-94475000D03*
%TD*%
D15*
%TO.C,U27*%
X136162500Y-86450000D03*
X136162500Y-87400000D03*
X136162500Y-88350000D03*
X138437500Y-88350000D03*
X138437500Y-86450000D03*
%TD*%
D69*
%TO.C,L7*%
X104000000Y-127925000D03*
X104000000Y-112575000D03*
%TD*%
D23*
%TO.C,R9*%
X99250000Y-78050000D03*
X100900000Y-78050000D03*
%TD*%
%TO.C,R51*%
X101975000Y-90000000D03*
X103625000Y-90000000D03*
%TD*%
D12*
%TO.C,R100*%
X140000000Y-101875000D03*
X140000000Y-103525000D03*
%TD*%
D72*
%TO.C,U14*%
X84500000Y-73750000D03*
X84500000Y-72450000D03*
X83200000Y-73750000D03*
X83200000Y-72450000D03*
D73*
X85787500Y-74350000D03*
X85787500Y-73850000D03*
X85787500Y-73350000D03*
X85787500Y-72850000D03*
X85787500Y-72350000D03*
X85787500Y-71850000D03*
D74*
X85100000Y-71162500D03*
X84600000Y-71162500D03*
X84100000Y-71162500D03*
X83600000Y-71162500D03*
X83100000Y-71162500D03*
X82600000Y-71162500D03*
D73*
X81912500Y-71850000D03*
X81912500Y-72350000D03*
X81912500Y-72850000D03*
X81912500Y-73350000D03*
X81912500Y-73850000D03*
X81912500Y-74350000D03*
D74*
X82600000Y-75037500D03*
X83100000Y-75037500D03*
X83600000Y-75037500D03*
X84100000Y-75037500D03*
X84600000Y-75037500D03*
X85100000Y-75037500D03*
%TD*%
D75*
%TO.C,U2*%
X92325000Y-61000000D03*
X92325000Y-61500000D03*
X92325000Y-62000001D03*
X92325000Y-62500000D03*
X92325000Y-62999999D03*
X92325000Y-63500000D03*
X92325000Y-64000000D03*
X92325000Y-64500001D03*
X92325000Y-65000000D03*
X92325000Y-65500000D03*
X92325000Y-66000000D03*
X92325000Y-66500000D03*
X92324999Y-67000000D03*
X92325000Y-67500000D03*
X92325000Y-68000000D03*
X92325000Y-68500000D03*
X92325000Y-69000000D03*
X92325000Y-69499999D03*
X92325000Y-70000000D03*
X92325000Y-70500000D03*
X92325000Y-71000001D03*
X92325000Y-71500000D03*
X92325000Y-71999999D03*
X92325000Y-72500000D03*
X92325000Y-73000000D03*
D76*
X94000000Y-74675000D03*
X94500000Y-74675000D03*
X95000001Y-74675000D03*
X95500000Y-74675000D03*
X95999999Y-74675000D03*
X96500000Y-74675000D03*
X97000000Y-74675000D03*
X97500001Y-74675000D03*
X98000000Y-74675000D03*
X98500000Y-74675000D03*
X99000000Y-74675000D03*
X99500000Y-74675000D03*
X100000000Y-74675001D03*
X100500000Y-74675000D03*
X101000000Y-74675000D03*
X101500000Y-74675000D03*
X102000000Y-74675000D03*
X102499999Y-74675000D03*
X103000000Y-74675000D03*
X103500000Y-74675000D03*
X104000001Y-74675000D03*
X104500000Y-74675000D03*
X104999999Y-74675000D03*
X105500000Y-74675000D03*
X106000000Y-74675000D03*
D75*
X107675000Y-73000000D03*
X107675000Y-72500000D03*
X107675000Y-71999999D03*
X107675000Y-71500000D03*
X107675000Y-71000001D03*
X107675000Y-70500000D03*
X107675000Y-70000000D03*
X107675000Y-69499999D03*
X107675000Y-69000000D03*
X107675000Y-68500000D03*
X107675000Y-68000000D03*
X107675000Y-67500000D03*
X107675001Y-67000000D03*
X107675000Y-66500000D03*
X107675000Y-66000000D03*
X107675000Y-65500000D03*
X107675000Y-65000000D03*
X107675000Y-64500001D03*
X107675000Y-64000000D03*
X107675000Y-63500000D03*
X107675000Y-62999999D03*
X107675000Y-62500000D03*
X107675000Y-62000001D03*
X107675000Y-61500000D03*
X107675000Y-61000000D03*
D76*
X106000000Y-59325000D03*
X105500000Y-59325000D03*
X104999999Y-59325000D03*
X104500000Y-59325000D03*
X104000001Y-59325000D03*
X103500000Y-59325000D03*
X103000000Y-59325000D03*
X102499999Y-59325000D03*
X102000000Y-59325000D03*
X101500000Y-59325000D03*
X101000000Y-59325000D03*
X100500000Y-59325000D03*
X100000000Y-59324999D03*
X99500000Y-59325000D03*
X99000000Y-59325000D03*
X98500000Y-59325000D03*
X98000000Y-59325000D03*
X97500001Y-59325000D03*
X97000000Y-59325000D03*
X96500000Y-59325000D03*
X95999999Y-59325000D03*
X95500000Y-59325000D03*
X95000001Y-59325000D03*
X94500000Y-59325000D03*
X94000000Y-59325000D03*
%TD*%
D66*
%TO.C,C96*%
X93750000Y-147475000D03*
X93750000Y-144525000D03*
%TD*%
D77*
%TO.C,Q7*%
X78530000Y-104600000D03*
X77310000Y-104600000D03*
X78530000Y-105550000D03*
X77310000Y-105550000D03*
D78*
X78892500Y-106130000D03*
X78250000Y-106130000D03*
X77590000Y-106130000D03*
X76947500Y-106130000D03*
X78890000Y-103250000D03*
X78250000Y-103250000D03*
X77590000Y-103250000D03*
X76950000Y-103250000D03*
%TD*%
D22*
%TO.C,C12*%
X88750000Y-67225000D03*
X88750000Y-68775000D03*
%TD*%
D79*
%TO.C,R82*%
X93712500Y-113500000D03*
X90787500Y-113500000D03*
%TD*%
D14*
%TO.C,C98*%
X91500000Y-146450000D03*
X91500000Y-144550000D03*
%TD*%
D30*
%TO.C,C60*%
X65750000Y-108775000D03*
X65750000Y-111725000D03*
%TD*%
D24*
%TO.C,R88*%
X140400000Y-91525000D03*
X140400000Y-89875000D03*
%TD*%
D12*
%TO.C,R2*%
X101000000Y-55675000D03*
X101000000Y-57325000D03*
%TD*%
D22*
%TO.C,C144*%
X134000000Y-80825000D03*
X134000000Y-82375000D03*
%TD*%
D31*
%TO.C,Q13*%
X74637500Y-63650000D03*
X74637500Y-61750000D03*
X72762500Y-62700000D03*
%TD*%
D36*
%TO.C,C35*%
X79750000Y-83225000D03*
X79750000Y-80275000D03*
%TD*%
D19*
%TO.C,C67*%
X87500000Y-78275000D03*
X87500000Y-76725000D03*
%TD*%
D29*
%TO.C,R109*%
X138925000Y-91400000D03*
X137275000Y-91400000D03*
%TD*%
D80*
%TO.C,Q8*%
X63194999Y-74715400D03*
D81*
X61000000Y-81065400D03*
D80*
X58805001Y-74715400D03*
%TD*%
D15*
%TO.C,U24*%
X135762500Y-98650000D03*
X135762500Y-99600000D03*
X135762500Y-100550000D03*
X138037500Y-100550000D03*
X138037500Y-98650000D03*
%TD*%
D36*
%TO.C,C59*%
X65750000Y-106975000D03*
X65750000Y-104025000D03*
%TD*%
D19*
%TO.C,C57*%
X58387500Y-103725000D03*
X58387500Y-102175000D03*
%TD*%
D26*
%TO.C,C53*%
X94350000Y-83862500D03*
X92800000Y-83862500D03*
%TD*%
D12*
%TO.C,R87*%
X140300000Y-92875000D03*
X140300000Y-94525000D03*
%TD*%
D23*
%TO.C,R89*%
X141875000Y-90300000D03*
X143525000Y-90300000D03*
%TD*%
D82*
%TO.C,U22*%
X143350000Y-96462500D03*
X142400000Y-96462500D03*
X141450000Y-96462500D03*
X141450000Y-98737500D03*
X142400000Y-98737500D03*
X143350000Y-98737500D03*
%TD*%
D26*
%TO.C,C115*%
X134775000Y-108500000D03*
X133225000Y-108500000D03*
%TD*%
D22*
%TO.C,C86*%
X52000000Y-108625000D03*
X52000000Y-110175000D03*
%TD*%
D23*
%TO.C,R60*%
X57675000Y-124400000D03*
X59325000Y-124400000D03*
%TD*%
D26*
%TO.C,C92*%
X70275000Y-115410000D03*
X68725000Y-115410000D03*
%TD*%
D14*
%TO.C,C99*%
X101200000Y-109550000D03*
X101200000Y-107650000D03*
%TD*%
D83*
%TO.C,D3*%
X58220000Y-86750000D03*
X62290000Y-86750000D03*
%TD*%
D30*
%TO.C,C46*%
X89750000Y-105025000D03*
X89750000Y-107975000D03*
%TD*%
D29*
%TO.C,R107*%
X131825000Y-89200000D03*
X130175000Y-89200000D03*
%TD*%
D84*
%TO.C,L6*%
X108750000Y-136000000D03*
X108750000Y-139500000D03*
X98750000Y-139500000D03*
X98750000Y-136000000D03*
%TD*%
D19*
%TO.C,C100*%
X89750000Y-146275000D03*
X89750000Y-144725000D03*
%TD*%
%TO.C,C112*%
X144900000Y-96575000D03*
X144900000Y-95025000D03*
%TD*%
D29*
%TO.C,R71*%
X76925000Y-71300000D03*
X75275000Y-71300000D03*
%TD*%
D85*
%TO.C,L3*%
X56700000Y-112600000D03*
X62300000Y-112600000D03*
%TD*%
D24*
%TO.C,R10*%
X75100000Y-74450000D03*
X75100000Y-72800000D03*
%TD*%
D23*
%TO.C,R42*%
X96175000Y-86500000D03*
X97825000Y-86500000D03*
%TD*%
D86*
%TO.C,U8*%
X74565000Y-95700000D03*
X75935000Y-95700000D03*
D87*
X74000000Y-96650000D03*
X74500000Y-96650000D03*
X75000000Y-96650000D03*
X75500000Y-96650000D03*
X76000000Y-96650000D03*
X76500000Y-96650000D03*
X76500000Y-94750000D03*
X76000000Y-94750000D03*
X75500000Y-94750000D03*
X75000000Y-94750000D03*
X74500000Y-94750000D03*
X74000000Y-94750000D03*
%TD*%
D25*
%TO.C,Q1*%
X123950000Y-65900000D03*
X123950000Y-67800000D03*
X125825000Y-66850000D03*
%TD*%
D26*
%TO.C,C94*%
X84525000Y-145000000D03*
X82975000Y-145000000D03*
%TD*%
D88*
%TO.C,U15*%
X82400000Y-61720000D03*
X82900000Y-61720000D03*
X83400000Y-61720000D03*
X83900000Y-61720000D03*
X84400000Y-61720000D03*
X84400000Y-60950000D03*
X83900000Y-60950000D03*
X83400000Y-60950000D03*
X82900000Y-60950000D03*
X82400000Y-60950000D03*
%TD*%
D12*
%TO.C,R95*%
X138400000Y-102075000D03*
X138400000Y-103725000D03*
%TD*%
D14*
%TO.C,C74*%
X78690000Y-121900000D03*
X78690000Y-120000000D03*
%TD*%
D23*
%TO.C,R44*%
X88975000Y-77100000D03*
X90625000Y-77100000D03*
%TD*%
D36*
%TO.C,C37*%
X111250000Y-79975000D03*
X111250000Y-77025000D03*
%TD*%
D17*
%TO.C,C118*%
X130125000Y-108500000D03*
X131675000Y-108500000D03*
%TD*%
D89*
%TO.C,U16*%
X62800000Y-119387500D03*
X62300000Y-119387500D03*
X61800000Y-119387500D03*
X61300000Y-119387500D03*
X60800000Y-119387500D03*
X60800000Y-123612500D03*
X61300000Y-123612500D03*
X61800000Y-123612500D03*
X62300000Y-123612500D03*
X62800000Y-123612500D03*
%TD*%
D29*
%TO.C,R53*%
X66515000Y-114630000D03*
X64865000Y-114630000D03*
%TD*%
D24*
%TO.C,R11*%
X76600000Y-74425000D03*
X76600000Y-72775000D03*
%TD*%
D44*
%TO.C,D6*%
X70987500Y-64700000D03*
X69412500Y-64700000D03*
%TD*%
D31*
%TO.C,Q9*%
X83537500Y-109950000D03*
X83537500Y-108050000D03*
X81662500Y-109000000D03*
%TD*%
D19*
%TO.C,C9*%
X92700000Y-76575000D03*
X92700000Y-75025000D03*
%TD*%
D29*
%TO.C,R75*%
X66925000Y-65600000D03*
X65275000Y-65600000D03*
%TD*%
D24*
%TO.C,R50*%
X65430000Y-75135000D03*
X65430000Y-73485000D03*
%TD*%
D17*
%TO.C,C70*%
X57725000Y-121400000D03*
X59275000Y-121400000D03*
%TD*%
D19*
%TO.C,C17*%
X90250000Y-68775000D03*
X90250000Y-67225000D03*
%TD*%
D90*
%TO.C,U30*%
X126750000Y-79150000D03*
X127250000Y-79150000D03*
X127750000Y-79150000D03*
X128250000Y-79150000D03*
X128750000Y-79150000D03*
X128750000Y-74850000D03*
X128250000Y-74850000D03*
X127750000Y-74850000D03*
X127250000Y-74850000D03*
X126750000Y-74850000D03*
%TD*%
D24*
%TO.C,R25*%
X82700000Y-85225000D03*
X82700000Y-83575000D03*
%TD*%
D91*
%TO.C,U12*%
X61137500Y-107200000D03*
X61137500Y-106250000D03*
X61137500Y-105300000D03*
X58862500Y-105300000D03*
X58862500Y-106250000D03*
X58862500Y-107200000D03*
%TD*%
D23*
%TO.C,R113*%
X126675000Y-82500000D03*
X128325000Y-82500000D03*
%TD*%
D26*
%TO.C,C89*%
X70345000Y-133900000D03*
X68795000Y-133900000D03*
%TD*%
D92*
%TO.C,U13*%
X102230000Y-86200000D03*
X102230000Y-86700000D03*
X102230000Y-87200000D03*
X102230000Y-87700000D03*
X102230000Y-88200000D03*
X103000000Y-88200000D03*
X103000000Y-87700000D03*
X103000000Y-87200000D03*
X103000000Y-86700000D03*
X103000000Y-86200000D03*
%TD*%
D12*
%TO.C,R90*%
X139750000Y-95850000D03*
X139750000Y-97500000D03*
%TD*%
D47*
%TO.C,SW1*%
X124500000Y-72425000D03*
X124500000Y-69175000D03*
%TD*%
D26*
%TO.C,C145*%
X128275000Y-81000000D03*
X126725000Y-81000000D03*
%TD*%
D93*
%TO.C,U6*%
X70250000Y-81000000D03*
D94*
X70562000Y-80700000D03*
D95*
X70162000Y-81525000D03*
X70162000Y-82025000D03*
X70162000Y-82525000D03*
D93*
X70250000Y-83050000D03*
D94*
X70562000Y-83350000D03*
D96*
X71062000Y-83175000D03*
X71562000Y-83175000D03*
D94*
X72062000Y-83350000D03*
D93*
X72375000Y-83050000D03*
D95*
X72462000Y-82525000D03*
X72462000Y-82025000D03*
X72462000Y-81525000D03*
D94*
X72062000Y-80700000D03*
D93*
X72375000Y-81000000D03*
D96*
X71562000Y-80875000D03*
X71062000Y-80875000D03*
D97*
X71312000Y-82025000D03*
%TD*%
D26*
%TO.C,C69*%
X57675000Y-117900000D03*
X56125000Y-117900000D03*
%TD*%
D19*
%TO.C,C14*%
X90250000Y-62775000D03*
X90250000Y-61225000D03*
%TD*%
%TO.C,C61*%
X63000000Y-107075000D03*
X63000000Y-105525000D03*
%TD*%
D29*
%TO.C,R28*%
X84325000Y-99500000D03*
X82675000Y-99500000D03*
%TD*%
D17*
%TO.C,C128*%
X128375000Y-92600000D03*
X129925000Y-92600000D03*
%TD*%
D22*
%TO.C,C130*%
X137300000Y-93425000D03*
X137300000Y-94975000D03*
%TD*%
D23*
%TO.C,R43*%
X78275000Y-75000000D03*
X79925000Y-75000000D03*
%TD*%
D15*
%TO.C,U29*%
X130062500Y-80650000D03*
X130062500Y-81600000D03*
X130062500Y-82550000D03*
X132337500Y-82550000D03*
X132337500Y-80650000D03*
%TD*%
D29*
%TO.C,R98*%
X132925000Y-101700000D03*
X131275000Y-101700000D03*
%TD*%
D19*
%TO.C,C20*%
X121100000Y-58375000D03*
X121100000Y-56825000D03*
%TD*%
D31*
%TO.C,Q12*%
X77537500Y-65750000D03*
X77537500Y-63850000D03*
X75662500Y-64800000D03*
%TD*%
D29*
%TO.C,R8*%
X118225000Y-69900000D03*
X116575000Y-69900000D03*
%TD*%
D24*
%TO.C,R79*%
X74800000Y-59225000D03*
X74800000Y-57575000D03*
%TD*%
D29*
%TO.C,R102*%
X134925000Y-95600000D03*
X133275000Y-95600000D03*
%TD*%
%TO.C,R17*%
X107825000Y-53000000D03*
X106175000Y-53000000D03*
%TD*%
D26*
%TO.C,C3*%
X106775000Y-76750000D03*
X105225000Y-76750000D03*
%TD*%
D19*
%TO.C,C10*%
X90250000Y-65775000D03*
X90250000Y-64225000D03*
%TD*%
D26*
%TO.C,C104*%
X107775000Y-54500000D03*
X106225000Y-54500000D03*
%TD*%
D24*
%TO.C,R115*%
X145100000Y-83925000D03*
X145100000Y-82275000D03*
%TD*%
D98*
%TO.C,Y2*%
X84750000Y-65350000D03*
X84750000Y-68650000D03*
X86750000Y-68650000D03*
X86750000Y-65350000D03*
%TD*%
D23*
%TO.C,R68*%
X64150000Y-68700000D03*
X65800000Y-68700000D03*
%TD*%
D19*
%TO.C,C103*%
X104550000Y-106675000D03*
X104550000Y-105125000D03*
%TD*%
D36*
%TO.C,C34*%
X76500000Y-83225000D03*
X76500000Y-80275000D03*
%TD*%
D29*
%TO.C,R97*%
X133225000Y-106800000D03*
X131575000Y-106800000D03*
%TD*%
D99*
%TO.C,F1*%
X54750000Y-87150000D03*
X54750000Y-84350000D03*
%TD*%
D22*
%TO.C,C87*%
X66400000Y-123525000D03*
X66400000Y-125075000D03*
%TD*%
%TO.C,C105*%
X67300000Y-68625000D03*
X67300000Y-70175000D03*
%TD*%
D19*
%TO.C,C54*%
X125750000Y-86025000D03*
X125750000Y-84475000D03*
%TD*%
D12*
%TO.C,R80*%
X96400000Y-55775000D03*
X96400000Y-57425000D03*
%TD*%
D24*
%TO.C,R104*%
X126500000Y-98575000D03*
X126500000Y-96925000D03*
%TD*%
D32*
%TO.C,Q16*%
X141750000Y-80137500D03*
X143650000Y-80137500D03*
X142700000Y-78262500D03*
%TD*%
D22*
%TO.C,C83*%
X54000000Y-108625000D03*
X54000000Y-110175000D03*
%TD*%
M02*
