%TF.GenerationSoftware,KiCad,Pcbnew,9.0.5*%
%TF.CreationDate,2025-11-04T12:08:14-07:00*%
%TF.ProjectId,OpenAquatix-Hardware,4f70656e-4171-4756-9174-69782d486172,rev?*%
%TF.SameCoordinates,Original*%
%TF.FileFunction,Soldermask,Bot*%
%TF.FilePolarity,Negative*%
%FSLAX46Y46*%
G04 Gerber Fmt 4.6, Leading zero omitted, Abs format (unit mm)*
G04 Created by KiCad (PCBNEW 9.0.5) date 2025-11-04 12:08:14*
%MOMM*%
%LPD*%
G01*
G04 APERTURE LIST*
G04 Aperture macros list*
%AMRoundRect*
0 Rectangle with rounded corners*
0 $1 Rounding radius*
0 $2 $3 $4 $5 $6 $7 $8 $9 X,Y pos of 4 corners*
0 Add a 4 corners polygon primitive as box body*
4,1,4,$2,$3,$4,$5,$6,$7,$8,$9,$2,$3,0*
0 Add four circle primitives for the rounded corners*
1,1,$1+$1,$2,$3*
1,1,$1+$1,$4,$5*
1,1,$1+$1,$6,$7*
1,1,$1+$1,$8,$9*
0 Add four rect primitives between the rounded corners*
20,1,$1+$1,$2,$3,$4,$5,0*
20,1,$1+$1,$4,$5,$6,$7,0*
20,1,$1+$1,$6,$7,$8,$9,0*
20,1,$1+$1,$8,$9,$2,$3,0*%
%AMHorizOval*
0 Thick line with rounded ends*
0 $1 width*
0 $2 $3 position (X,Y) of the first rounded end (center of the circle)*
0 $4 $5 position (X,Y) of the second rounded end (center of the circle)*
0 Add line between two ends*
20,1,$1,$2,$3,$4,$5,0*
0 Add two circle primitives to create the rounded ends*
1,1,$1,$2,$3*
1,1,$1,$4,$5*%
G04 Aperture macros list end*
%ADD10C,1.900000*%
%ADD11C,1.000000*%
%ADD12R,1.000000X1.000000*%
%ADD13HorizOval,0.900000X0.119707X-0.328892X-0.119707X0.328892X0*%
%ADD14HorizOval,0.900000X-0.119707X-0.328892X0.119707X0.328892X0*%
%ADD15C,5.300000*%
%ADD16RoundRect,0.250000X-0.750000X0.750000X-0.750000X-0.750000X0.750000X-0.750000X0.750000X0.750000X0*%
%ADD17C,2.000000*%
%ADD18C,1.500000*%
%ADD19C,1.905000*%
%ADD20RoundRect,0.250000X0.750000X-0.750000X0.750000X0.750000X-0.750000X0.750000X-0.750000X-0.750000X0*%
%ADD21R,2.108200X2.108200*%
%ADD22C,2.108200*%
G04 APERTURE END LIST*
D10*
%TO.C,J5*%
X63437500Y-94804900D03*
X58437500Y-94804900D03*
X63437500Y-98304900D03*
X58437500Y-98304900D03*
%TD*%
%TO.C,J6*%
X135554900Y-114062500D03*
X135554900Y-119062500D03*
X139054900Y-114062500D03*
X139054900Y-119062500D03*
X142554901Y-114062500D03*
X142554901Y-119062500D03*
%TD*%
D11*
%TO.C,J1*%
X95710000Y-52520000D03*
X95710000Y-51250000D03*
X96980000Y-52520000D03*
X96980000Y-51250000D03*
X98250000Y-52520000D03*
X98250000Y-51250000D03*
X99520000Y-52520000D03*
X99520000Y-51250000D03*
X100790000Y-52520000D03*
D12*
X100790000Y-51250000D03*
%TD*%
D13*
%TO.C,J3*%
X86728618Y-53060909D03*
X80526644Y-55318243D03*
%TD*%
D14*
%TO.C,J2*%
X118973354Y-55418240D03*
X112771384Y-53160910D03*
%TD*%
D15*
%TO.C,H3*%
X100000000Y-150800000D03*
%TD*%
D16*
%TO.C,C88*%
X76250000Y-135382323D03*
D17*
X76250000Y-140382323D03*
%TD*%
D18*
%TO.C,K1*%
X124959885Y-140041115D03*
X127653962Y-137347038D03*
X130348038Y-134652962D03*
X133042115Y-131958885D03*
%TD*%
D19*
%TO.C,J4*%
X89840000Y-82460000D03*
X89840000Y-85000000D03*
X89840000Y-87540000D03*
X97460000Y-92620000D03*
X100000000Y-92620000D03*
X102540000Y-92620000D03*
X110160000Y-87540000D03*
X110160000Y-85000000D03*
X110160000Y-82460000D03*
%TD*%
D20*
%TO.C,C78*%
X75750000Y-114867677D03*
D17*
X75750000Y-109867677D03*
%TD*%
D15*
%TO.C,H2*%
X100000000Y-100000000D03*
%TD*%
%TO.C,H1*%
X150800000Y-100000000D03*
%TD*%
D21*
%TO.C,SW3*%
X82352000Y-94500000D03*
D22*
X87051000Y-94500000D03*
X91750000Y-94500000D03*
%TD*%
M02*
