M48
; DRILL file {KiCad 9.0.5} date 2025-11-04T12:08:20-0700
; FORMAT={-:-/ absolute / metric / decimal}
; #@! TF.CreationDate,2025-11-04T12:08:20-07:00
; #@! TF.GenerationSoftware,Kicad,Pcbnew,9.0.5
; #@! TF.FileFunction,Plated,1,6,PTH
FMAT,2
METRIC
; #@! TA.AperFunction,Plated,PTH,ViaDrill
T1C0.300
; #@! TA.AperFunction,Plated,PTH,ComponentDrill
T2C0.500
; #@! TA.AperFunction,Plated,PTH,ComponentDrill
T3C0.650
; #@! TA.AperFunction,Plated,PTH,ComponentDrill
T4C0.750
; #@! TA.AperFunction,Plated,PTH,ComponentDrill
T5C1.000
; #@! TA.AperFunction,Plated,PTH,ComponentDrill
T6C1.143
; #@! TA.AperFunction,Plated,PTH,ComponentDrill
T7C1.200
; #@! TA.AperFunction,Plated,PTH,ComponentDrill
T8C1.600
%
G90
G05
T1
X51.25Y-106.5
X51.944Y-112.631
X52.0Y-106.5
X52.5Y-102.275
X52.75Y-106.5
X53.0Y-108.625
X53.5Y-106.5
X54.0Y-113.9
X54.2Y-102.225
X54.25Y-106.5
X54.41Y-117.19
X54.61Y-112.48
X54.69Y-110.86
X55.5Y-107.0
X55.887Y-102.225
X56.125Y-117.9
X56.9Y-120.2
X57.75Y-104.75
X57.75Y-105.5
X59.2Y-119.925
X59.9Y-102.175
X60.37Y-120.64
X60.38Y-122.48
X60.8Y-102.175
X61.137Y-106.25
X61.137Y-107.2
X61.25Y-115.5
X61.25Y-116.25
X61.45Y-120.75
X62.0Y-115.5
X62.0Y-116.25
X62.0Y-130.25
X62.3Y-86.75
X62.775Y-125.5
X63.0Y-132.75
X63.5Y-123.575
X63.6Y-131.575
X64.325Y-119.6
X64.4Y-122.025
X64.775Y-86.25
X64.775Y-87.9
X64.775Y-89.5
X64.86Y-113.55
X65.0Y-125.8
X65.43Y-73.485
X65.723Y-127.187
X65.75Y-108.775
X65.75Y-112.5
X65.75Y-113.45
X66.02Y-128.66
X66.1Y-66.3
X66.44Y-75.41
X66.475Y-126.6
X66.5Y-120.5
X66.725Y-121.345
X66.75Y-119.25
X66.782Y-128.108
X66.95Y-122.63
X67.0Y-131.5
X67.2Y-135.5
X67.25Y-130.0
X68.25Y-103.0
X68.27Y-69.86
X68.46Y-63.29
X68.5Y-61.7
X68.715Y-116.87
X68.725Y-115.41
X68.785Y-135.41
X68.795Y-133.9
X69.6Y-72.7
X70.0Y-119.5
X70.0Y-121.5
X70.0Y-123.5
X70.0Y-125.5
X70.0Y-127.5
X70.0Y-129.5
X70.0Y-131.5
X70.08Y-84.16
X70.08Y-84.81
X70.08Y-85.46
X70.5Y-108.3
X71.312Y-82.025
X71.6Y-101.9
X71.75Y-79.25
X71.975Y-72.0
X72.0Y-119.5
X72.0Y-121.5
X72.0Y-123.5
X72.0Y-125.5
X72.0Y-127.5
X72.0Y-129.5
X72.0Y-131.5
X72.515Y-93.02
X72.6Y-68.7
X72.6Y-69.8
X72.75Y-94.85
X73.225Y-74.5
X73.225Y-76.1
X73.225Y-77.75
X73.96Y-83.29
X74.0Y-119.5
X74.0Y-121.5
X74.0Y-123.5
X74.0Y-125.5
X74.0Y-127.5
X74.0Y-129.5
X74.0Y-131.5
X74.12Y-93.905
X74.2Y-95.7
X74.638Y-61.75
X74.7Y-65.95
X74.8Y-95.7
X75.0Y-75.5
X75.1Y-72.8
X75.275Y-98.25
X75.3Y-62.7
X75.3Y-70.1
X75.535Y-93.03
X75.7Y-56.8
X75.7Y-95.7
X75.719Y-93.905
X76.0Y-75.5
X76.2Y-58.9
X76.3Y-66.2
X76.3Y-95.7
X76.5Y-80.275
X76.6Y-72.775
X76.925Y-71.3
X77.0Y-75.5
X77.123Y-121.122
X77.297Y-124.297
X77.3Y-123.0
X77.4Y-78.25
X77.5Y-126.5
X77.537Y-59.65
X77.537Y-63.85
X78.0Y-96.575
X78.24Y-130.9
X78.3Y-75.6
X78.3Y-129.1
X78.325Y-72.0
X78.325Y-73.5
X78.5Y-67.0
X78.5Y-69.5
X78.5Y-70.25
X78.505Y-93.04
X78.55Y-86.85
X78.6Y-58.3
X78.7Y-121.9
X78.7Y-123.6
X79.0Y-79.0
X79.1Y-129.1
X79.162Y-101.5
X79.35Y-56.75
X79.4Y-88.7
X79.75Y-69.5
X79.75Y-70.25
X79.75Y-80.2
X80.1Y-129.8
X80.1Y-130.6
X80.1Y-131.3
X80.2Y-65.5
X80.49Y-72.12
X80.7Y-64.15
X80.962Y-65.017
X80.975Y-89.8
X81.025Y-74.675
X81.45Y-78.25
X81.5Y-62.3
X81.5Y-63.5
X81.5Y-85.0
X81.527Y-65.583
X81.55Y-109.6
X81.8Y-83.6
X81.8Y-145.0
X81.95Y-71.0
X81.975Y-114.25
X81.995Y-70.095
X82.05Y-66.25
X82.25Y-62.85
X82.35Y-65.6
X82.65Y-63.55
X82.65Y-79.9
X82.7Y-101.0
X82.73Y-68.93
X82.807Y-69.925
X82.85Y-122.39
X82.9Y-72.15
X82.9Y-74.05
X83.0Y-103.0
X83.0Y-103.75
X83.0Y-104.5
X83.05Y-62.85
X83.25Y-68.5
X83.25Y-92.0
X83.5Y-86.25
X83.537Y-108.05
X83.593Y-70.125
X83.6Y-90.2
X83.709Y-67.991
X83.75Y-103.0
X83.75Y-103.75
X83.75Y-104.5
X83.85Y-73.1
X83.9Y-82.65
X83.95Y-60.06
X84.22Y-75.875
X84.25Y-112.75
X84.5Y-96.8
X84.5Y-103.0
X84.5Y-103.75
X84.5Y-104.5
X84.8Y-72.15
X84.8Y-74.05
X84.85Y-69.66
X85.3Y-108.175
X85.4Y-85.6
X85.75Y-75.05
X85.9Y-69.81
X85.95Y-81.6
X85.98Y-71.07
X86.0Y-82.7
X86.525Y-70.34
X86.65Y-57.4
X86.7Y-74.55
X86.75Y-143.8
X87.1Y-109.85
X87.15Y-71.075
X87.16Y-65.9
X87.188Y-111.8
X87.2Y-75.325
X87.22Y-72.325
X87.4Y-88.4
X87.42Y-62.59
X87.5Y-78.275
X87.75Y-71.675
X87.85Y-97.45
X87.95Y-73.1
X88.15Y-59.7
X88.3Y-83.7
X88.725Y-71.47
X88.75Y-70.05
X88.85Y-64.4
X88.975Y-77.1
X89.24Y-74.65
X89.55Y-69.77
X89.75Y-107.975
X90.1Y-109.4
X90.25Y-67.225
X90.4Y-59.725
X90.55Y-71.16
X90.625Y-77.1
X90.8Y-57.4
X91.1Y-73.8
X91.1Y-74.5
X91.125Y-69.899
X91.4Y-107.975
X91.5Y-147.75
X91.61Y-76.72
X91.7Y-59.5
X91.7Y-85.3
X91.725Y-75.925
X92.2Y-110.3
X92.35Y-100.45
X92.7Y-76.575
X92.9Y-118.8
X93.0Y-106.9
X93.53Y-70.66
X93.7Y-86.112
X93.76Y-60.52
X93.76Y-72.0
X93.79Y-73.25
X93.9Y-92.5
X94.1Y-54.8
X94.15Y-68.46
X94.16Y-61.24
X94.19Y-71.31
X94.2Y-70.1
X94.4Y-109.5
X94.6Y-111.55
X94.7Y-73.1
X94.8Y-69.18
X94.9Y-57.425
X94.9Y-97.25
X94.9Y-113.5
X95.0Y-60.33
X95.0Y-61.13
X95.43Y-61.95
X95.5Y-85.3
X95.8Y-78.275
X96.1Y-62.9
X96.175Y-87.5
X96.24Y-61.51
X96.25Y-79.75
X96.25Y-80.75
X96.25Y-81.75
X96.25Y-82.75
X96.25Y-83.75
X96.4Y-55.775
X96.4Y-57.425
X96.4Y-60.7
X96.5Y-77.5
X96.8Y-72.9
X97.0Y-86.0
X97.01Y-61.76
X97.15Y-56.625
X97.16Y-58.0
X97.2Y-60.6
X97.24Y-62.61
X97.625Y-72.875
X97.75Y-66.5
X97.81Y-61.77
X97.9Y-55.825
X97.975Y-71.15
X98.0Y-63.25
X98.0Y-106.5
X98.054Y-58.225
X98.2Y-76.65
X98.25Y-78.4
X98.275Y-79.4
X98.33Y-71.89
X98.45Y-70.34
X98.475Y-89.25
X98.5Y-72.85
X99.0Y-72.15
X99.25Y-70.45
X99.45Y-83.8
X99.5Y-54.8
X99.5Y-68.25
X99.55Y-76.525
X99.625Y-73.075
X100.05Y-87.6
X100.22Y-61.32
X100.225Y-69.375
X100.3Y-62.7
X100.45Y-67.35
X100.45Y-90.075
X100.5Y-88.425
X100.8Y-64.5
X100.8Y-79.15
X101.0Y-139.5
X101.15Y-68.15
X101.25Y-106.5
X101.3Y-72.6
X101.5Y-87.4
X101.6Y-80.0
X101.6Y-84.4
X101.75Y-139.0
X101.75Y-140.0
X101.9Y-67.5
X101.975Y-90.0
X102.0Y-73.2
X102.19Y-61.39
X102.5Y-77.0
X102.5Y-139.0
X102.5Y-140.0
X102.7Y-60.65
X103.0Y-72.8
X103.2Y-103.8
X103.25Y-106.75
X103.3Y-77.0
X103.5Y-60.5
X103.6Y-84.28
X104.0Y-124.75
X104.2Y-84.9
X104.362Y-56.531
X104.5Y-90.0
X104.65Y-60.525
X105.0Y-57.3
X105.2Y-54.3
X105.2Y-88.025
X105.5Y-60.5
X105.75Y-66.75
X106.3Y-62.475
X107.3Y-80.8
X107.35Y-92.62
X107.46Y-55.81
X107.46Y-57.21
X107.55Y-85.3
X107.7Y-83.725
X108.012Y-54.262
X108.15Y-78.6
X108.19Y-73.9
X108.22Y-59.22
X108.39Y-55.37
X108.75Y-56.17
X108.85Y-91.5
X109.675Y-73.175
X109.7Y-78.5
X109.8Y-71.6
X110.2Y-72.3
X110.2Y-91.45
X110.37Y-71.03
X110.74Y-60.63
X110.88Y-57.7
X111.1Y-70.7
X112.1Y-69.9
X112.2Y-81.1
X112.6Y-70.6
X112.8Y-59.5
X113.0Y-81.1
X113.0Y-84.725
X113.0Y-143.5
X113.0Y-144.25
X113.4Y-67.4
X113.5Y-145.0
X113.7Y-79.0
X113.75Y-143.5
X113.75Y-144.25
X113.8Y-81.1
X113.837Y-76.0
X114.0Y-68.25
X114.6Y-81.1
X114.7Y-76.0
X114.75Y-92.25
X114.85Y-77.1
X115.0Y-61.75
X115.4Y-81.1
X115.5Y-76.0
X116.2Y-81.1
X116.5Y-78.5
X117.45Y-66.8
X117.9Y-89.55
X118.05Y-86.95
X118.8Y-63.5
X119.25Y-83.5
X119.28Y-85.025
X120.0Y-68.7
X121.0Y-85.2
X121.025Y-83.725
X121.09Y-55.91
X121.75Y-123.25
X121.75Y-124.25
X121.75Y-125.25
X122.25Y-61.25
X122.75Y-67.8
X122.75Y-123.25
X122.75Y-124.25
X122.75Y-125.25
X122.762Y-81.075
X123.125Y-77.7
X123.2Y-84.5
X123.28Y-85.825
X124.4Y-70.9
X125.3Y-59.2
X125.4Y-73.7
X125.5Y-86.75
X125.5Y-88.0
X125.5Y-89.25
X125.5Y-90.5
X125.75Y-83.55
X125.95Y-59.2
X126.1Y-70.25
X126.3Y-65.4
X126.5Y-96.925
X126.675Y-82.5
X127.15Y-90.15
X127.25Y-70.25
X127.4Y-77.9
X128.0Y-100.0
X128.0Y-101.525
X128.1Y-106.0
X128.275Y-81.0
X128.7Y-86.8
X128.75Y-73.95
X129.1Y-95.5
X129.26Y-108.5
X129.53Y-101.28
X129.6Y-75.0
X129.925Y-91.1
X130.05Y-96.587
X130.74Y-94.312
X130.89Y-107.73
X130.96Y-97.14
X131.0Y-90.05
X131.6Y-95.775
X132.925Y-101.7
X133.05Y-66.9
X133.2Y-74.2
X133.2Y-97.13
X133.225Y-106.8
X133.362Y-94.05
X133.7Y-93.1
X133.85Y-72.2
X134.0Y-80.825
X134.0Y-83.25
X134.1Y-98.675
X134.5Y-77.6
X134.5Y-85.45
X134.525Y-88.175
X134.725Y-102.5
X135.7Y-73.9
X135.7Y-92.9
X135.75Y-106.7
X135.762Y-99.6
X135.8Y-79.0
X135.975Y-94.975
X136.8Y-73.5
X136.86Y-103.08
X137.175Y-107.675
X137.4Y-71.3
X137.5Y-81.25
X138.037Y-98.65
X138.32Y-109.38
X138.5Y-72.3
X138.5Y-87.4
X139.2Y-106.67
X139.25Y-90.3
X139.45Y-89.25
X139.75Y-97.5
X140.1Y-72.3
X140.1Y-88.175
X140.2Y-80.325
X140.25Y-82.75
X140.3Y-94.525
X141.01Y-103.53
X141.1Y-86.75
X141.6Y-94.9
X141.7Y-86.1
X141.983Y-74.91
X142.4Y-100.1
X142.6Y-80.3
X143.4Y-86.4
X143.537Y-90.312
X143.6Y-81.5
X143.95Y-104.575
X144.9Y-96.6
X144.95Y-86.65
X145.05Y-105.45
X145.094Y-81.203
X145.3Y-89.675
X146.0Y-93.2
X146.05Y-95.0
X146.3Y-86.35
X147.5Y-88.8
X147.65Y-108.1
T3
X95.71Y-51.25
X95.71Y-52.52
X96.98Y-51.25
X96.98Y-52.52
X98.25Y-51.25
X98.25Y-52.52
X99.52Y-51.25
X99.52Y-52.52
X100.79Y-51.25
X100.79Y-52.52
T4
X124.96Y-140.041
X127.654Y-137.347
X130.348Y-134.653
X133.042Y-131.959
T5
X75.75Y-109.868
X75.75Y-114.868
X76.25Y-135.382
X76.25Y-140.382
T6
X89.84Y-82.46
X89.84Y-85.0
X89.84Y-87.54
X97.46Y-92.62
X100.0Y-92.62
X102.54Y-92.62
X110.16Y-82.46
X110.16Y-85.0
X110.16Y-87.54
T7
X58.438Y-94.805
X58.438Y-98.305
X63.438Y-94.805
X63.438Y-98.305
X135.555Y-114.062
X135.555Y-119.062
X139.055Y-114.062
X139.055Y-119.062
X142.555Y-114.062
X142.555Y-119.062
T8
X82.352Y-94.5
X87.051Y-94.5
X91.75Y-94.5
T2
G00X80.407Y-54.989
M15
G01X80.646Y-55.647
M16
G05
G00X86.609Y-52.732
M15
G01X86.848Y-53.39
M16
G05
G00X112.891Y-52.832
M15
G01X112.652Y-53.49
M16
G05
G00X119.093Y-55.089
M15
G01X118.854Y-55.747
M16
G05
M30
