%TF.GenerationSoftware,KiCad,Pcbnew,8.0.6*%
%TF.CreationDate,2025-01-23T19:41:03-07:00*%
%TF.ProjectId,UAM,55414d2e-6b69-4636-9164-5f7063625858,rev?*%
%TF.SameCoordinates,Original*%
%TF.FileFunction,Copper,L4,Bot*%
%TF.FilePolarity,Positive*%
%FSLAX46Y46*%
G04 Gerber Fmt 4.6, Leading zero omitted, Abs format (unit mm)*
G04 Created by KiCad (PCBNEW 8.0.6) date 2025-01-23 19:41:03*
%MOMM*%
%LPD*%
G01*
G04 APERTURE LIST*
G04 Aperture macros list*
%AMHorizOval*
0 Thick line with rounded ends*
0 $1 width*
0 $2 $3 position (X,Y) of the first rounded end (center of the circle)*
0 $4 $5 position (X,Y) of the second rounded end (center of the circle)*
0 Add line between two ends*
20,1,$1,$2,$3,$4,$5,0*
0 Add two circle primitives to create the rounded ends*
1,1,$1,$2,$3*
1,1,$1,$4,$5*%
%AMFreePoly0*
4,1,19,0.000000,0.744911,0.071157,0.744911,0.207708,0.704816,0.327430,0.627875,0.420627,0.520320,0.479746,0.390866,0.500000,0.250000,0.500000,-0.250000,0.479746,-0.390866,0.420627,-0.520320,0.327430,-0.627875,0.207708,-0.704816,0.071157,-0.744911,0.000000,-0.744911,0.000000,-0.750000,-0.500000,-0.750000,-0.500000,0.750000,0.000000,0.750000,0.000000,0.744911,0.000000,0.744911,
$1*%
%AMFreePoly1*
4,1,19,0.500000,-0.750000,0.000000,-0.750000,0.000000,-0.744911,-0.071157,-0.744911,-0.207708,-0.704816,-0.327430,-0.627875,-0.420627,-0.520320,-0.479746,-0.390866,-0.500000,-0.250000,-0.500000,0.250000,-0.479746,0.390866,-0.420627,0.520320,-0.327430,0.627875,-0.207708,0.704816,-0.071157,0.744911,0.000000,0.744911,0.000000,0.750000,0.500000,0.750000,0.500000,-0.750000,0.500000,-0.750000,
$1*%
G04 Aperture macros list end*
%TA.AperFunction,ComponentPad*%
%ADD10O,1.000000X1.000000*%
%TD*%
%TA.AperFunction,ComponentPad*%
%ADD11R,1.000000X1.000000*%
%TD*%
%TA.AperFunction,ComponentPad*%
%ADD12C,1.600000*%
%TD*%
%TA.AperFunction,ComponentPad*%
%ADD13R,1.600000X1.600000*%
%TD*%
%TA.AperFunction,ComponentPad*%
%ADD14C,2.000000*%
%TD*%
%TA.AperFunction,ComponentPad*%
%ADD15R,2.000000X2.000000*%
%TD*%
%TA.AperFunction,ComponentPad*%
%ADD16HorizOval,0.900000X-0.175000X-0.303109X0.175000X0.303109X0*%
%TD*%
%TA.AperFunction,ComponentPad*%
%ADD17C,1.905000*%
%TD*%
%TA.AperFunction,SMDPad,CuDef*%
%ADD18C,1.000000*%
%TD*%
%TA.AperFunction,SMDPad,CuDef*%
%ADD19FreePoly0,180.000000*%
%TD*%
%TA.AperFunction,SMDPad,CuDef*%
%ADD20FreePoly1,180.000000*%
%TD*%
%TA.AperFunction,SMDPad,CuDef*%
%ADD21FreePoly0,0.000000*%
%TD*%
%TA.AperFunction,SMDPad,CuDef*%
%ADD22FreePoly1,0.000000*%
%TD*%
%TA.AperFunction,ViaPad*%
%ADD23C,0.500000*%
%TD*%
%TA.AperFunction,Conductor*%
%ADD24C,0.300000*%
%TD*%
%TA.AperFunction,Conductor*%
%ADD25C,0.500000*%
%TD*%
%TA.AperFunction,Conductor*%
%ADD26C,0.250000*%
%TD*%
%TA.AperFunction,Conductor*%
%ADD27C,1.000000*%
%TD*%
%TA.AperFunction,Conductor*%
%ADD28C,0.600000*%
%TD*%
%TA.AperFunction,Conductor*%
%ADD29C,0.200000*%
%TD*%
%TA.AperFunction,Conductor*%
%ADD30C,0.700000*%
%TD*%
%TA.AperFunction,Conductor*%
%ADD31C,0.150000*%
%TD*%
%TA.AperFunction,Conductor*%
%ADD32C,1.100000*%
%TD*%
G04 APERTURE END LIST*
D10*
%TO.P,J2,10,~{RESET}*%
%TO.N,/STM32/RESET#*%
X71321636Y-18564136D03*
%TO.P,J2,9,GNDDetect*%
%TO.N,GND*%
X71321636Y-17294136D03*
%TO.P,J2,8,NC/TDI*%
%TO.N,unconnected-(J2-NC{slash}TDI-Pad8)*%
X72591636Y-18564136D03*
%TO.P,J2,7,KEY*%
%TO.N,unconnected-(J2-KEY-Pad7)*%
X72591636Y-17294136D03*
%TO.P,J2,6,SWO/TDO*%
%TO.N,/STM32/SWO*%
X73861636Y-18564136D03*
%TO.P,J2,5,GND*%
%TO.N,GND*%
X73861636Y-17294136D03*
%TO.P,J2,4,SWCLK/TCK*%
%TO.N,/STM32/SWCLKa*%
X75131636Y-18564136D03*
%TO.P,J2,3,GND*%
%TO.N,GND*%
X75131636Y-17294136D03*
%TO.P,J2,2,SWDIO/TMS*%
%TO.N,/STM32/SWDIOa*%
X76401636Y-18564136D03*
D11*
%TO.P,J2,1,VTref*%
%TO.N,+3V3*%
X76401636Y-17294136D03*
%TD*%
D12*
%TO.P,C57,2*%
%TO.N,GND*%
X42724136Y-68511757D03*
D13*
%TO.P,C57,1*%
%TO.N,+26V*%
X42724136Y-66011757D03*
%TD*%
D14*
%TO.P,C86,2*%
%TO.N,GND*%
X33924136Y-79194136D03*
D15*
%TO.P,C86,1*%
%TO.N,+26V*%
X33924136Y-84194136D03*
%TD*%
D14*
%TO.P,J3,2,Pin_2*%
%TO.N,/Connections/BATT_CONNa*%
X30411636Y-47929136D03*
D15*
%TO.P,J3,1,Pin_1*%
%TO.N,GND*%
X30411636Y-50469136D03*
%TD*%
D14*
%TO.P,C78,2*%
%TO.N,GND*%
X60156459Y-89894136D03*
D15*
%TO.P,C78,1*%
%TO.N,+26V*%
X55156459Y-89894136D03*
%TD*%
D16*
%TO.P,J1,6,Shield*%
%TO.N,GND*%
X90027022Y-19644136D03*
X95742790Y-22944136D03*
%TD*%
D14*
%TO.P,J4,3,Pin_3*%
%TO.N,GND*%
X71764136Y-104294136D03*
%TO.P,J4,2,Pin_2*%
%TO.N,TRANSDUCER*%
X69224136Y-104294136D03*
D15*
%TO.P,J4,1,Pin_1*%
%TO.N,GND*%
X66684136Y-104294136D03*
%TD*%
D17*
%TO.P,J5,9,M-TX_DC-RX*%
%TO.N,/Connections/M-TX*%
X86384136Y-50454136D03*
%TO.P,J5,8,GND*%
%TO.N,GND*%
X86384136Y-52994136D03*
%TO.P,J5,7,M-RX_DC-TX*%
%TO.N,/Connections/M-RX*%
X86384136Y-55534136D03*
%TO.P,J5,6,5V*%
%TO.N,+5V*%
X78764136Y-60614136D03*
%TO.P,J5,5,GND*%
%TO.N,GND*%
X76224136Y-60614136D03*
%TO.P,J5,4,3V3*%
%TO.N,+3V3*%
X73684136Y-60614136D03*
%TO.P,J5,3,GPIO2*%
%TO.N,/Connections/MAIN_TO_DAUa*%
X66064136Y-55534136D03*
%TO.P,J5,2,GND*%
%TO.N,GND*%
X66064136Y-52994136D03*
%TO.P,J5,1,GPIO1*%
%TO.N,/Connections/DAU_TO_MAINa*%
X66064136Y-50454136D03*
%TD*%
D18*
%TO.P,TP8,1,1*%
%TO.N,UART_TX_DAU*%
X89324136Y-39894136D03*
%TD*%
%TO.P,TP14,1,1*%
%TO.N,LPF_PGA*%
X103224136Y-59294136D03*
%TD*%
%TO.P,TP28,1,1*%
%TO.N,Net-(TP28-Pad1)*%
X56614136Y-40674136D03*
%TD*%
D19*
%TO.P,JP3,2,B*%
%TO.N,Net-(JP3-B)*%
X56924136Y-94094136D03*
D20*
%TO.P,JP3,1,A*%
%TO.N,+3V3*%
X58224136Y-94094136D03*
%TD*%
D19*
%TO.P,JP4,2,B*%
%TO.N,Net-(JP4-B)*%
X56924136Y-96594136D03*
D20*
%TO.P,JP4,1,A*%
%TO.N,+3V3*%
X58224136Y-96594136D03*
%TD*%
D19*
%TO.P,JP5,2,B*%
%TO.N,Net-(JP5-B)*%
X56924136Y-99094136D03*
D20*
%TO.P,JP5,1,A*%
%TO.N,+3V3*%
X58224136Y-99094136D03*
%TD*%
D18*
%TO.P,TP27,1,1*%
%TO.N,Net-(U4-EN)*%
X53824136Y-42294136D03*
%TD*%
D21*
%TO.P,JP6,2,B*%
%TO.N,Net-(JP6-B)*%
X106274136Y-79094136D03*
D22*
%TO.P,JP6,1,A*%
%TO.N,TRANSDUCER_RX*%
X104974136Y-79094136D03*
%TD*%
D18*
%TO.P,TP9,1,1*%
%TO.N,UART_RX_DAU*%
X89324136Y-42994136D03*
%TD*%
%TO.P,TP26,1,1*%
%TO.N,Net-(TP26-Pad1)*%
X54824136Y-45494136D03*
%TD*%
%TO.P,TP25,1,1*%
%TO.N,Net-(TP25-Pad1)*%
X57724136Y-44794136D03*
%TD*%
D23*
%TO.N,GND*%
X110024136Y-42194136D03*
X33224136Y-61294136D03*
X63124136Y-46094136D03*
X43261636Y-44394136D03*
X51374136Y-85444136D03*
X68724136Y-44394136D03*
X95024136Y-97194136D03*
X34024136Y-34094136D03*
X74924136Y-73294136D03*
X92524136Y-49694136D03*
X99899136Y-45129136D03*
X33524136Y-52794136D03*
X36824136Y-61294136D03*
X98224136Y-51994136D03*
X87524136Y-92194136D03*
X84524136Y-99194136D03*
X75024136Y-104694136D03*
X81524136Y-92694136D03*
X34724136Y-33394136D03*
X33324136Y-34094136D03*
X53524136Y-33194136D03*
X38824136Y-75294136D03*
X45424136Y-94494136D03*
X54824136Y-48294136D03*
X38824136Y-76694136D03*
X100024136Y-69694136D03*
X80824136Y-92694136D03*
X37524136Y-79694136D03*
X35424136Y-88794136D03*
X78024136Y-65794136D03*
X103824136Y-79194136D03*
X97524136Y-84694136D03*
X95024136Y-29694136D03*
X40024136Y-24694136D03*
X32524136Y-74694136D03*
X85524136Y-100194136D03*
X97524136Y-81594136D03*
X34724136Y-34094136D03*
X67524136Y-23794136D03*
X79424136Y-90594136D03*
X95024136Y-27194136D03*
X75024136Y-32194136D03*
X27524136Y-42194136D03*
X34724136Y-34794136D03*
X60024136Y-48694136D03*
X76324136Y-73294136D03*
X30024136Y-37194136D03*
X102524136Y-37194136D03*
X35024136Y-74694136D03*
X82524136Y-17194136D03*
X115054136Y-51444136D03*
X115024136Y-64694136D03*
X88524136Y-101194136D03*
X110024136Y-72194136D03*
X87524136Y-97194136D03*
X102524136Y-89694136D03*
X37424136Y-76694136D03*
X47524136Y-24694136D03*
X76324136Y-72594136D03*
X48224136Y-95194136D03*
X33324136Y-32694136D03*
X87524136Y-84694136D03*
X57524136Y-64694136D03*
X59124136Y-49994136D03*
X70024136Y-19694136D03*
X46824136Y-95194136D03*
X51124136Y-74194136D03*
X90024136Y-94694136D03*
X55024136Y-84694136D03*
X85524136Y-101194136D03*
X67524136Y-29694136D03*
X85024136Y-19694136D03*
X100024136Y-27194136D03*
X58861636Y-30231636D03*
X70024136Y-34694136D03*
X86524136Y-98194136D03*
X84524136Y-100194136D03*
X90024136Y-99694136D03*
X94134136Y-80404136D03*
X92524136Y-99694136D03*
X36724136Y-76694136D03*
X84124136Y-64894136D03*
X78224136Y-42694136D03*
X95624136Y-42894136D03*
X110024136Y-44694136D03*
X54824136Y-48994136D03*
X36724136Y-74594136D03*
X60854136Y-17794136D03*
X33824136Y-61294136D03*
X81414136Y-56464136D03*
X25424136Y-71394136D03*
X89814136Y-76754136D03*
X52324136Y-22194136D03*
X74924136Y-71894136D03*
X80824136Y-91994136D03*
X33224136Y-60694136D03*
X47124136Y-63694136D03*
X91424136Y-41094136D03*
X52524136Y-62194136D03*
X113264136Y-61954136D03*
X86624136Y-60094136D03*
X89924136Y-33594136D03*
X51124136Y-74794136D03*
X76324136Y-73994136D03*
X102524136Y-84694136D03*
X79924136Y-72694136D03*
X81524136Y-91994136D03*
X77586636Y-21394136D03*
X93024136Y-64394136D03*
X27524136Y-47194136D03*
X30024136Y-42194136D03*
X55661636Y-35494136D03*
X85024136Y-97194136D03*
X36224136Y-61294136D03*
X87524136Y-19694136D03*
X105874136Y-50344136D03*
X32624136Y-61294136D03*
X54894136Y-101164136D03*
X98224136Y-51294136D03*
X44724136Y-93794136D03*
X79424136Y-91994136D03*
X110024136Y-47194136D03*
X95024136Y-37194136D03*
X105761636Y-58331636D03*
X67524136Y-22994136D03*
X67524136Y-32194136D03*
X70434136Y-21484136D03*
X100024136Y-84694136D03*
X80824136Y-89894136D03*
X32824136Y-52794136D03*
X105024136Y-39694136D03*
X38824136Y-75994136D03*
X92524136Y-84694136D03*
X92524136Y-54694136D03*
X45024136Y-59694136D03*
X55524136Y-49694136D03*
X90024136Y-89694136D03*
X87524136Y-94694136D03*
X45424136Y-93794136D03*
X90024136Y-97194136D03*
X79424136Y-93394136D03*
X107524136Y-42194136D03*
X105024136Y-87194136D03*
X96284136Y-45204136D03*
X77524136Y-52194136D03*
X34724136Y-32694136D03*
X107524136Y-34694136D03*
X47524136Y-95194136D03*
X55024136Y-62194136D03*
X84824136Y-64194136D03*
X81524136Y-91294136D03*
X56424136Y-39444136D03*
X75024136Y-29694136D03*
X87524136Y-100194136D03*
X90024136Y-49694136D03*
X107524136Y-39694136D03*
X58424136Y-49994136D03*
X80824136Y-88494136D03*
X52174136Y-85444136D03*
X62524136Y-104694136D03*
X38124136Y-76694136D03*
X55524136Y-48994136D03*
X76324136Y-71894136D03*
X43374136Y-55504136D03*
X90024136Y-84694136D03*
X62424136Y-46094136D03*
X82524136Y-84694136D03*
X67524136Y-17194136D03*
X34024136Y-34794136D03*
X59324136Y-37194136D03*
X92524136Y-94694136D03*
X37774136Y-89594136D03*
X80124136Y-93394136D03*
X84724136Y-70594136D03*
X80824136Y-93394136D03*
X48224136Y-94494136D03*
X62524136Y-17194136D03*
X73724136Y-55794136D03*
X97524136Y-24694136D03*
X32624136Y-34794136D03*
X27524136Y-44694136D03*
X50024136Y-19694136D03*
X52524136Y-74194136D03*
X113124136Y-67731636D03*
X34424136Y-61294136D03*
X92524136Y-52194136D03*
X57524136Y-102194136D03*
X114686636Y-54231636D03*
X35024136Y-61294136D03*
X74224136Y-73294136D03*
X99564136Y-65544136D03*
X32124136Y-53494136D03*
X75624136Y-73994136D03*
X102524136Y-32194136D03*
X86524136Y-99194136D03*
X49924136Y-96834136D03*
X62524136Y-87194136D03*
X85024136Y-17194136D03*
X36824136Y-60694136D03*
X80124136Y-90594136D03*
X32824136Y-53494136D03*
X77974136Y-48494136D03*
X25024136Y-52194136D03*
X32624136Y-34094136D03*
X60024136Y-87194136D03*
X83524136Y-100194136D03*
X84724136Y-68494136D03*
X95024136Y-64694136D03*
X44724136Y-93094136D03*
X68761636Y-60894136D03*
X58424136Y-49294136D03*
X57524136Y-62194136D03*
X52024136Y-42994136D03*
X96024136Y-77044136D03*
X102524136Y-29694136D03*
X36224136Y-60694136D03*
X84824136Y-63494136D03*
X52524136Y-64694136D03*
X44724136Y-92394136D03*
X59124136Y-49294136D03*
X80124136Y-88494136D03*
X88524136Y-100194136D03*
X75624136Y-71894136D03*
X36724136Y-75994136D03*
X62524136Y-54694136D03*
X75624136Y-73294136D03*
X48686636Y-103356636D03*
X42824136Y-28594136D03*
X110024136Y-69694136D03*
X70024136Y-17194136D03*
X56324136Y-18494136D03*
X46324136Y-24894136D03*
X83524136Y-98194136D03*
X32624136Y-33394136D03*
X80124136Y-89194136D03*
X105794136Y-72044136D03*
X67524136Y-34694136D03*
X32524136Y-77194136D03*
X63124136Y-45394136D03*
X80124136Y-91294136D03*
X95024136Y-32194136D03*
X27524136Y-52194136D03*
X42524136Y-52194136D03*
X63399136Y-42344136D03*
X87524136Y-101194136D03*
X31424136Y-52794136D03*
X96324136Y-62894136D03*
X25024136Y-49694136D03*
X37424136Y-61294136D03*
X102524136Y-87194136D03*
X53824136Y-54094136D03*
X85524136Y-99194136D03*
X53024136Y-54094136D03*
X92524136Y-67194136D03*
X84724136Y-69894136D03*
X79424136Y-88494136D03*
X65861636Y-66744136D03*
X37424136Y-75994136D03*
X97524136Y-51994136D03*
X80124136Y-89894136D03*
X32124136Y-52794136D03*
X82684136Y-38734136D03*
X52024136Y-45294136D03*
X87524136Y-98194136D03*
X68681636Y-45256636D03*
X95704136Y-96344136D03*
X47524136Y-54694136D03*
X90024136Y-54694136D03*
X55524136Y-48294136D03*
X62424136Y-45394136D03*
X70024136Y-29694136D03*
X80024136Y-52194136D03*
X47524136Y-52194136D03*
X75024136Y-34694136D03*
X97524136Y-89694136D03*
X50524136Y-85444136D03*
X35624136Y-61294136D03*
X92524136Y-89694136D03*
X80024136Y-69694136D03*
X55424136Y-66244136D03*
X58524136Y-37194136D03*
X81524136Y-90594136D03*
X52024136Y-44394136D03*
X59934136Y-23054136D03*
X35024136Y-60694136D03*
X43961636Y-44394136D03*
X75024136Y-69694136D03*
X80124136Y-92694136D03*
X79424136Y-89194136D03*
X33324136Y-33394136D03*
X77524136Y-69694136D03*
X81114136Y-50964136D03*
X49664136Y-33654136D03*
X84724136Y-71294136D03*
X107924136Y-44094136D03*
X85924136Y-60094136D03*
X57524136Y-17194136D03*
X39024136Y-95994136D03*
X72324136Y-44994136D03*
X102524136Y-39694136D03*
X34024136Y-33394136D03*
X88844136Y-78944136D03*
X85524136Y-98194136D03*
X75024136Y-67194136D03*
X33524136Y-53494136D03*
X79844136Y-78694136D03*
X65324136Y-39394136D03*
X84724136Y-69194136D03*
X37804136Y-88854136D03*
X95024136Y-69694136D03*
X51824136Y-74194136D03*
X33324136Y-34794136D03*
X80824136Y-90594136D03*
X81524136Y-88494136D03*
X62524136Y-94694136D03*
X81524136Y-89194136D03*
X77524136Y-67194136D03*
X35024136Y-29694136D03*
X45024136Y-22194136D03*
X46124136Y-94494136D03*
X32624136Y-32694136D03*
X96324136Y-62094136D03*
X84724136Y-67794136D03*
X85224136Y-60094136D03*
X90024136Y-52194136D03*
X70024136Y-32194136D03*
X57524136Y-84694136D03*
X51824136Y-74794136D03*
X85284136Y-33644136D03*
X95224136Y-86194136D03*
X75624136Y-72594136D03*
X79424136Y-92694136D03*
X63799136Y-62144136D03*
X90024136Y-82194136D03*
X77524136Y-104694136D03*
X100024136Y-79694136D03*
X84824136Y-64894136D03*
X103894136Y-62244136D03*
X81144136Y-74456636D03*
X50024136Y-54694136D03*
X38124136Y-75994136D03*
X34024136Y-32694136D03*
X46824136Y-94494136D03*
X72524136Y-29694136D03*
X114224136Y-61194136D03*
X37524136Y-27194136D03*
X87954136Y-29984136D03*
X36724136Y-73894136D03*
X33824136Y-60694136D03*
X84124136Y-64194136D03*
X57524136Y-104694136D03*
X54824136Y-49694136D03*
X74924136Y-73994136D03*
X79424136Y-46494136D03*
X81524136Y-89894136D03*
X84524136Y-98194136D03*
X92524136Y-29694136D03*
X112524136Y-69694136D03*
X27524136Y-49694136D03*
X57124136Y-35694136D03*
X84124136Y-63494136D03*
X92524136Y-92194136D03*
X100024136Y-37194136D03*
X79424136Y-91294136D03*
X50424136Y-74194136D03*
X87524136Y-99194136D03*
X90024136Y-37194136D03*
X106524136Y-67694136D03*
X80124136Y-91994136D03*
X74224136Y-71894136D03*
X75024136Y-102194136D03*
X115024136Y-67194136D03*
X35624136Y-60694136D03*
X38124136Y-75294136D03*
X86524136Y-101194136D03*
X72524136Y-32194136D03*
X44661636Y-44394136D03*
X83154136Y-27524136D03*
X36724136Y-75294136D03*
X35024136Y-77194136D03*
X80824136Y-89194136D03*
X58724136Y-35494136D03*
X115024136Y-62194136D03*
X74224136Y-73994136D03*
X61861636Y-28656636D03*
X62524136Y-52194136D03*
X90024136Y-32194136D03*
X92524136Y-97194136D03*
X86524136Y-100194136D03*
X85024136Y-94694136D03*
X50424136Y-74794136D03*
X81524136Y-93394136D03*
X88524136Y-99194136D03*
X79424136Y-89894136D03*
X51124136Y-90674136D03*
X83524136Y-99194136D03*
X104911636Y-85481636D03*
X30024136Y-39694136D03*
X37524136Y-82194136D03*
X54624136Y-46394136D03*
X90024136Y-92194136D03*
X47974136Y-59209136D03*
X97524136Y-51294136D03*
X105024136Y-32194136D03*
X95124136Y-44194136D03*
X77524136Y-62194136D03*
X74224136Y-72594136D03*
X97524136Y-27194136D03*
X96324136Y-61294136D03*
X77524136Y-64694136D03*
X31424136Y-53494136D03*
X88524136Y-98194136D03*
X37424136Y-75294136D03*
X47524136Y-94494136D03*
X46024136Y-99694136D03*
X80824136Y-91294136D03*
X72524136Y-34694136D03*
X80024136Y-54694136D03*
X111924136Y-74994136D03*
X107244136Y-74454136D03*
X107524136Y-87194136D03*
X62524136Y-89694136D03*
X74924136Y-72594136D03*
X106724136Y-38694136D03*
X52524136Y-84694136D03*
X62524136Y-92194136D03*
%TO.N,+3V3*%
X82424136Y-35794136D03*
X77824136Y-37994136D03*
X58824136Y-41494136D03*
X49324136Y-28694136D03*
X94324136Y-48894136D03*
X52424136Y-105294136D03*
X65636636Y-27494136D03*
X49324136Y-32194136D03*
X54524136Y-102694136D03*
X97114136Y-37194136D03*
X58524136Y-43294136D03*
X97124136Y-33894136D03*
X79324136Y-26894136D03*
X99024136Y-94094136D03*
X59524136Y-42194136D03*
X65424136Y-30269136D03*
X72824136Y-46294136D03*
X58124136Y-41494136D03*
X58124136Y-42194136D03*
X58824136Y-42194136D03*
X65424136Y-32769136D03*
X59524136Y-43294136D03*
%TO.N,+3.3VA*%
X66711636Y-61144136D03*
X65324136Y-38094136D03*
X111874136Y-49544136D03*
X108124136Y-64394136D03*
X74754136Y-57794136D03*
X100924136Y-57194136D03*
X108924136Y-72594136D03*
X89684136Y-66944136D03*
X66724136Y-57794136D03*
X100524136Y-63694136D03*
X95024136Y-74994136D03*
X101184136Y-51394136D03*
X83699136Y-60969136D03*
X58224136Y-40594136D03*
X103924136Y-44994136D03*
X52324136Y-23994136D03*
%TO.N,Net-(U1-VREF+)*%
X66224136Y-38994136D03*
X62864136Y-40604136D03*
%TO.N,+BATT*%
X26661636Y-57394136D03*
X25961636Y-56694136D03*
X46861636Y-37594136D03*
X26661636Y-55994136D03*
X25261636Y-55294136D03*
X42824136Y-30194136D03*
X46861636Y-38194136D03*
X25261636Y-57394136D03*
X25261636Y-55994136D03*
X46161636Y-38194136D03*
X25961636Y-55994136D03*
X48261636Y-37594136D03*
X25961636Y-57394136D03*
X47561636Y-37594136D03*
X26661636Y-56694136D03*
X48261636Y-38194136D03*
X47561636Y-38194136D03*
X46161636Y-37594136D03*
X26661636Y-55294136D03*
X25961636Y-55294136D03*
X25261636Y-56694136D03*
%TO.N,/STM32/ADC_IN_FAST*%
X78294136Y-46334136D03*
X80774136Y-44144136D03*
%TO.N,+BATTa*%
X44024136Y-29544136D03*
X47574136Y-35294136D03*
%TO.N,/STM32/RESET#*%
X65424136Y-34269136D03*
X64024136Y-24694136D03*
X59924136Y-28794136D03*
%TO.N,VBUS*%
X33124136Y-47794136D03*
X32524136Y-47194136D03*
X89939855Y-28594136D03*
X32124136Y-46494136D03*
X89939855Y-27194136D03*
X89939855Y-27894136D03*
%TO.N,/STM32/D-*%
X91124136Y-27894136D03*
X90624136Y-26094136D03*
%TO.N,/DC-DC/5V_SW*%
X49324136Y-46794136D03*
X55024136Y-36494136D03*
%TO.N,+5V*%
X83524136Y-46684136D03*
X86124136Y-39594136D03*
X47424136Y-48994136D03*
X47424136Y-50894136D03*
X83161636Y-81356636D03*
%TO.N,/STM32/ADC_IN_DMA*%
X67424136Y-36894136D03*
X80924136Y-42594136D03*
%TO.N,+26V*%
X52624136Y-89494136D03*
X39524136Y-64394136D03*
X52624136Y-90194136D03*
X40924136Y-64394136D03*
X51924136Y-90894136D03*
X51924136Y-89494136D03*
X39524136Y-65794136D03*
X45824136Y-57694136D03*
X40224136Y-65794136D03*
X39524136Y-65094136D03*
X34324136Y-87794136D03*
X40924136Y-65094136D03*
X40224136Y-64394136D03*
X53324136Y-89494136D03*
X33624136Y-89194136D03*
X33624136Y-88494136D03*
X40224136Y-65094136D03*
X45824136Y-54594136D03*
X34324136Y-88494136D03*
X32924136Y-89194136D03*
X52624136Y-90894136D03*
X45024136Y-27594136D03*
X34324136Y-89194136D03*
X43224136Y-58894136D03*
X53324136Y-90194136D03*
X51924136Y-90194136D03*
X53324136Y-90894136D03*
X33624136Y-87794136D03*
X40924136Y-65794136D03*
X32924136Y-88494136D03*
X32924136Y-87794136D03*
%TO.N,I2C_SCL*%
X69994136Y-23864136D03*
X62824136Y-24394136D03*
%TO.N,I2C_SDA*%
X69224136Y-24494136D03*
X62124136Y-24894136D03*
%TO.N,3V3A_EN*%
X88124136Y-36094136D03*
X80844136Y-24784136D03*
X86224136Y-26694136D03*
X84324136Y-57494136D03*
X84324136Y-59694136D03*
X88124136Y-32994136D03*
X77424136Y-24784136D03*
%TO.N,UART_TX_DAU*%
X85624136Y-40684136D03*
X88104136Y-40684136D03*
X84624136Y-46894136D03*
%TO.N,UART_RX_DAU*%
X89324136Y-41494136D03*
X85524136Y-46894136D03*
X86034136Y-41394136D03*
%TO.N,DAU_TO_MAIN*%
X81624136Y-39694136D03*
X79424136Y-48894136D03*
%TO.N,MAIN_TO_DAU*%
X82424136Y-39794136D03*
X80724136Y-47994136D03*
%TO.N,DAC_TRANSDUCER*%
X35434136Y-89684136D03*
X65994136Y-44344136D03*
X52024136Y-54294136D03*
%TO.N,DAC_AMP_TEST*%
X77334136Y-51094136D03*
X75724136Y-39694136D03*
%TO.N,Net-(SW3-C)*%
X40754136Y-52574136D03*
X40774136Y-48544136D03*
%TO.N,-3V3*%
X106246636Y-77466636D03*
X107624136Y-59194136D03*
X102924136Y-64194136D03*
X109814136Y-80324136D03*
X99624136Y-77114136D03*
%TO.N,Net-(Q1-G)*%
X38124136Y-67394136D03*
X34124136Y-58494136D03*
%TO.N,Net-(U13-CS)*%
X27424136Y-64794136D03*
X33244136Y-59894136D03*
%TO.N,26V_PGOOD*%
X51954136Y-56544136D03*
X38224136Y-56894136D03*
X72324136Y-43345980D03*
X55824136Y-57894136D03*
%TO.N,TRANSDUCER_TX*%
X75324136Y-63594136D03*
X62324136Y-80794136D03*
%TO.N,LPF_PGA*%
X102724136Y-57494136D03*
%TO.N,Net-(U18-PLIMIT)*%
X42144136Y-92064136D03*
X44524136Y-95494136D03*
%TO.N,AMP_R*%
X59791836Y-68642162D03*
X51024136Y-68194136D03*
X59374136Y-68194136D03*
X51724136Y-68194136D03*
X52404136Y-68194136D03*
X58704136Y-68194136D03*
%TO.N,TRANSDUCER_RX*%
X98874136Y-79994136D03*
%TO.N,Net-(JP3-B)*%
X54724136Y-94084136D03*
%TO.N,Net-(JP4-B)*%
X53924136Y-96594136D03*
%TO.N,Net-(JP5-B)*%
X53219136Y-96989136D03*
X47524136Y-92094136D03*
X50019136Y-93789136D03*
%TO.N,Net-(U18-MUTE)*%
X70004136Y-45104136D03*
X67354136Y-46794136D03*
X45974136Y-92544136D03*
%TO.N,FAULTZ*%
X40124136Y-90094136D03*
X62604136Y-48414136D03*
X70024136Y-43294136D03*
%TO.N,Net-(R59-Pad1)*%
X98054136Y-76319136D03*
X99934136Y-73854136D03*
%TO.N,TRANSDUCER*%
X88324136Y-89894136D03*
%TO.N,SCK*%
X92324136Y-48594136D03*
X93124136Y-46894136D03*
%TO.N,TR_CTRL*%
X49834136Y-103204136D03*
X97174136Y-93744136D03*
X80724136Y-37494136D03*
%TO.N,-3V3_EN*%
X85584136Y-75744136D03*
X87409136Y-35509136D03*
X87424136Y-33394136D03*
X82924136Y-65794136D03*
X80824136Y-32764136D03*
%TO.N,+1V65*%
X98684136Y-57194136D03*
X62124136Y-57494136D03*
X101971435Y-47141436D03*
X85424136Y-58694136D03*
X102024136Y-48705728D03*
X61021636Y-61081636D03*
%TO.N,PWR_AMP_V_FB*%
X75164136Y-47704136D03*
X69764136Y-55294136D03*
X67661636Y-60994136D03*
X75164136Y-54354136D03*
X74524136Y-39694136D03*
%TO.N,Net-(C111-Pad1)*%
X103494136Y-82694136D03*
X93824136Y-57894136D03*
%TO.N,Net-(JP6-B)*%
X107324136Y-79034136D03*
%TO.N,Net-(TP25-Pad1)*%
X55134136Y-38314136D03*
%TO.N,Net-(TP26-Pad1)*%
X55624136Y-42994136D03*
%TO.N,Net-(U4-EN)*%
X55084136Y-37444136D03*
%TO.N,Net-(TP28-Pad1)*%
X55424136Y-39494136D03*
%TO.N,/DC-DC/26V_COMP*%
X34244136Y-59994136D03*
X43224136Y-57794136D03*
%TD*%
D24*
%TO.N,+3V3*%
X97124136Y-33894136D02*
X97524136Y-34294136D01*
X97624136Y-34294136D02*
X104984136Y-34294136D01*
X113924136Y-46394136D02*
X112224136Y-44694136D01*
X113924136Y-56969872D02*
X116324136Y-59369872D01*
X82248400Y-102694136D02*
X76948400Y-107994136D01*
D25*
X82524136Y-21694136D02*
X82524136Y-25144136D01*
X72824136Y-57134136D02*
X73684136Y-57994136D01*
D24*
X61012004Y-105806268D02*
X52936268Y-105806268D01*
X106624136Y-89318400D02*
X102348400Y-93594136D01*
X97124136Y-34294136D02*
X97124136Y-33894136D01*
D25*
X73684136Y-57994136D02*
X73684136Y-60614136D01*
D24*
X106624136Y-85618400D02*
X106624136Y-89318400D01*
X113336268Y-72106268D02*
X113336268Y-78906268D01*
X83924136Y-34294136D02*
X94744136Y-34294136D01*
X97424136Y-95694136D02*
X97424136Y-97918400D01*
D26*
X55924136Y-102694136D02*
X54524136Y-102694136D01*
D25*
X78124136Y-17294136D02*
X82524136Y-21694136D01*
D26*
X58224136Y-94094136D02*
X58224136Y-96594136D01*
D24*
X104984136Y-34294136D02*
X112024136Y-41334136D01*
X116324136Y-69118400D02*
X113336268Y-72106268D01*
X97424136Y-97918400D02*
X92648400Y-102694136D01*
X92648400Y-102694136D02*
X82248400Y-102694136D01*
D25*
X79374136Y-26844136D02*
X79324136Y-26894136D01*
D24*
X79314136Y-26894136D02*
X79324136Y-26894136D01*
X95084136Y-34294136D02*
X95854136Y-34294136D01*
D26*
X58224136Y-96594136D02*
X58224136Y-99094136D01*
D24*
X116324136Y-59369872D02*
X116324136Y-69118400D01*
X96824136Y-34294136D02*
X97124136Y-34294136D01*
D27*
X59524136Y-41094136D02*
X59524136Y-42194136D01*
D24*
X97524136Y-34294136D02*
X97624136Y-34294136D01*
X52936268Y-105806268D02*
X52424136Y-105294136D01*
D27*
X77824136Y-35194136D02*
X77824136Y-37994136D01*
D24*
X96824136Y-34194136D02*
X97124136Y-33894136D01*
X94744136Y-34294136D02*
X95084136Y-34294136D01*
D25*
X72824136Y-46294136D02*
X72824136Y-57134136D01*
D24*
X112024136Y-41334136D02*
X112024136Y-44494136D01*
X112024136Y-44494136D02*
X112224136Y-44694136D01*
X97114136Y-37194136D02*
X94324136Y-39984136D01*
D26*
X58224136Y-100394136D02*
X55924136Y-102694136D01*
D24*
X63199872Y-107994136D02*
X61012004Y-105806268D01*
X96824136Y-34294136D02*
X96824136Y-34194136D01*
X99524136Y-93594136D02*
X99024136Y-94094136D01*
D26*
X77824136Y-35194136D02*
X78424136Y-35794136D01*
D24*
X82424136Y-35794136D02*
X83924136Y-34294136D01*
X95854136Y-34294136D02*
X96824136Y-34294136D01*
D25*
X76401636Y-17294136D02*
X78124136Y-17294136D01*
X49324136Y-32194136D02*
X49324136Y-28694136D01*
D26*
X58224136Y-99094136D02*
X58224136Y-100394136D01*
D24*
X97124136Y-34294136D02*
X97624136Y-34294136D01*
D25*
X80824136Y-26844136D02*
X79374136Y-26844136D01*
D24*
X94324136Y-39984136D02*
X94324136Y-48894136D01*
X113336268Y-78906268D02*
X106624136Y-85618400D01*
D27*
X59524136Y-41094136D02*
X65274136Y-35344136D01*
D24*
X76948400Y-107994136D02*
X63199872Y-107994136D01*
X99024136Y-94094136D02*
X97424136Y-95694136D01*
D25*
X82524136Y-25144136D02*
X80824136Y-26844136D01*
D24*
X102348400Y-93594136D02*
X99524136Y-93594136D01*
D26*
X78424136Y-35794136D02*
X82424136Y-35794136D01*
D24*
X113924136Y-56969872D02*
X113924136Y-46394136D01*
D25*
%TO.N,+3.3VA*%
X83699136Y-60969136D02*
X89674136Y-66944136D01*
D24*
X74754136Y-57794136D02*
X74764136Y-57784136D01*
X58224136Y-40594136D02*
X57824136Y-40194136D01*
D25*
X66724136Y-61131636D02*
X66724136Y-57794136D01*
X74764136Y-57784136D02*
X74764136Y-55434136D01*
D28*
X111864136Y-49534136D02*
X104664136Y-49534136D01*
D24*
X66711636Y-61144136D02*
X66724136Y-61131636D01*
X111874136Y-49544136D02*
X111864136Y-49534136D01*
X57824136Y-40194136D02*
X57824136Y-32194136D01*
D28*
X101184136Y-51394136D02*
X100924136Y-51654136D01*
D25*
X74024136Y-40594136D02*
X73224136Y-39794136D01*
D28*
X100924136Y-51654136D02*
X100924136Y-57194136D01*
D25*
X108124136Y-64394136D02*
X108124136Y-71794136D01*
X106524136Y-64394136D02*
X105324136Y-65594136D01*
X95024136Y-74994136D02*
X95024136Y-72284136D01*
D24*
X89674136Y-66944136D02*
X89684136Y-66944136D01*
X57824136Y-32194136D02*
X55124136Y-29494136D01*
X55124136Y-29494136D02*
X55124136Y-26794136D01*
D25*
X68324136Y-39794136D02*
X66624136Y-38094136D01*
D28*
X103924136Y-48794136D02*
X103924136Y-44994136D01*
X104664136Y-49534136D02*
X103924136Y-48794136D01*
X101184136Y-51384136D02*
X103774136Y-48794136D01*
D25*
X66624136Y-38094136D02*
X65324136Y-38094136D01*
D28*
X101184136Y-51394136D02*
X101184136Y-51384136D01*
D25*
X74764136Y-55434136D02*
X74024136Y-54694136D01*
X102424136Y-65594136D02*
X100524136Y-63694136D01*
D24*
X55124136Y-26794136D02*
X52324136Y-23994136D01*
D25*
X95024136Y-72284136D02*
X89684136Y-66944136D01*
X108124136Y-71794136D02*
X108924136Y-72594136D01*
X108124136Y-64394136D02*
X106524136Y-64394136D01*
X105324136Y-65594136D02*
X102424136Y-65594136D01*
D28*
X103774136Y-48794136D02*
X103924136Y-48794136D01*
D25*
X73224136Y-39794136D02*
X68324136Y-39794136D01*
X74024136Y-54694136D02*
X74024136Y-40594136D01*
D24*
%TO.N,Net-(U1-VREF+)*%
X66224136Y-40094136D02*
X65714136Y-40604136D01*
X66224136Y-38994136D02*
X66224136Y-40094136D01*
X65714136Y-40604136D02*
X62864136Y-40604136D01*
%TO.N,+BATT*%
X42824136Y-30194136D02*
X42824136Y-37444136D01*
D29*
%TO.N,/STM32/ADC_IN_FAST*%
X78584136Y-46334136D02*
X78294136Y-46334136D01*
X80774136Y-44144136D02*
X78584136Y-46334136D01*
D24*
%TO.N,+BATTa*%
X44024136Y-31744136D02*
X44024136Y-29544136D01*
X47574136Y-35294136D02*
X44024136Y-31744136D01*
%TO.N,/STM32/RESET#*%
X66364136Y-22354136D02*
X66364136Y-20584136D01*
X65424136Y-34269136D02*
X65399136Y-34269136D01*
X65399136Y-34269136D02*
X59924136Y-28794136D01*
X68384136Y-18564136D02*
X71321636Y-18564136D01*
X66364136Y-20584136D02*
X68384136Y-18564136D01*
X64024136Y-24694136D02*
X66364136Y-22354136D01*
D30*
%TO.N,VBUS*%
X89939855Y-28594136D02*
X89939855Y-27194136D01*
D24*
X89939855Y-27194136D02*
X89924136Y-27194136D01*
D30*
X33054136Y-36194136D02*
X32124136Y-37124136D01*
X35424136Y-36194136D02*
X33054136Y-36194136D01*
X36624136Y-34994136D02*
X35424136Y-36194136D01*
X61724136Y-15494136D02*
X54094136Y-23124136D01*
X78224136Y-15494136D02*
X61724136Y-15494136D01*
X45494136Y-23124136D02*
X36624136Y-31994136D01*
X54094136Y-23124136D02*
X45494136Y-23124136D01*
X32124136Y-37124136D02*
X32124136Y-46494136D01*
X36624136Y-31994136D02*
X36624136Y-34994136D01*
X32524136Y-47194136D02*
X33124136Y-47794136D01*
X32124136Y-46494136D02*
X32124136Y-46794136D01*
X32124136Y-46794136D02*
X32524136Y-47194136D01*
X89924136Y-27194136D02*
X78224136Y-15494136D01*
D24*
%TO.N,/STM32/D-*%
X90624136Y-26094136D02*
X91124136Y-26594136D01*
X91124136Y-26594136D02*
X91124136Y-27894136D01*
%TO.N,/DC-DC/5V_SW*%
X49324136Y-44794136D02*
X49324136Y-46794136D01*
X55024136Y-36494136D02*
X53024136Y-38494136D01*
X53024136Y-41094136D02*
X49324136Y-44794136D01*
X53024136Y-38494136D02*
X53024136Y-41094136D01*
D28*
%TO.N,+5V*%
X83524136Y-41562633D02*
X85492633Y-39594136D01*
X83524136Y-46684136D02*
X83524136Y-41562633D01*
X85492633Y-39594136D02*
X86124136Y-39594136D01*
X78764136Y-57114136D02*
X78764136Y-60614136D01*
X78764136Y-63464136D02*
X78764136Y-60614136D01*
X82000000Y-80195000D02*
X82000000Y-66700000D01*
X83524136Y-52354136D02*
X78764136Y-57114136D01*
D24*
X47424136Y-50894136D02*
X47424136Y-48994136D01*
D28*
X83161636Y-81356636D02*
X82000000Y-80195000D01*
X83524136Y-46684136D02*
X83524136Y-52354136D01*
X82000000Y-66700000D02*
X78764136Y-63464136D01*
D29*
%TO.N,/STM32/ADC_IN_DMA*%
X80924136Y-42594136D02*
X80724136Y-42594136D01*
X75024136Y-36894136D02*
X67484136Y-36894136D01*
X67484136Y-36894136D02*
X67454136Y-36864136D01*
D24*
X67454136Y-36864136D02*
X67424136Y-36894136D01*
D29*
X80724136Y-42594136D02*
X75024136Y-36894136D01*
D24*
%TO.N,+26V*%
X49724136Y-35494136D02*
X49724136Y-42494136D01*
X43224136Y-58894136D02*
X44624136Y-58894136D01*
X43224136Y-62094136D02*
X43224136Y-63554136D01*
X45024136Y-27594136D02*
X45024136Y-30794136D01*
X45824136Y-46394136D02*
X45824136Y-54594136D01*
X44624136Y-58894136D02*
X45824136Y-57694136D01*
X43224136Y-62094136D02*
X43224136Y-58894136D01*
X49724136Y-42494136D02*
X45824136Y-46394136D01*
X45024136Y-30794136D02*
X49724136Y-35494136D01*
%TO.N,I2C_SCL*%
X64504136Y-26094136D02*
X62824136Y-24414136D01*
X69994136Y-23864136D02*
X68644136Y-23864136D01*
X66414136Y-26094136D02*
X64504136Y-26094136D01*
X68644136Y-23864136D02*
X66414136Y-26094136D01*
D31*
X62824136Y-24414136D02*
X62824136Y-24394136D01*
%TO.N,I2C_SDA*%
X69194136Y-24524136D02*
X69194136Y-24624136D01*
D24*
X69194136Y-24624136D02*
X67124136Y-26694136D01*
X67124136Y-26694136D02*
X63924136Y-26694136D01*
D31*
X69224136Y-24494136D02*
X69194136Y-24524136D01*
D24*
X63924136Y-26694136D02*
X62124136Y-24894136D01*
%TO.N,3V3A_EN*%
X80844136Y-24784136D02*
X77424136Y-24784136D01*
X85824136Y-30694136D02*
X88124136Y-32994136D01*
X84324136Y-57494136D02*
X85024136Y-56794136D01*
X85024136Y-56794136D02*
X85024136Y-49564136D01*
X85024136Y-49564136D02*
X87434136Y-47154136D01*
X87434136Y-36784136D02*
X88124136Y-36094136D01*
X87434136Y-47154136D02*
X87434136Y-36784136D01*
X85824136Y-27094136D02*
X85824136Y-30694136D01*
X84324136Y-59694136D02*
X84324136Y-57494136D01*
X86224136Y-26694136D02*
X85824136Y-27094136D01*
%TO.N,UART_TX_DAU*%
X85624136Y-40684136D02*
X84624136Y-41684136D01*
X88104136Y-40684136D02*
X88534136Y-40684136D01*
X88534136Y-40684136D02*
X89324136Y-39894136D01*
X84624136Y-41684136D02*
X84624136Y-46894136D01*
%TO.N,UART_RX_DAU*%
X86034136Y-41394136D02*
X85524136Y-41904136D01*
X85524136Y-41904136D02*
X85524136Y-46894136D01*
X89324136Y-41494136D02*
X89324136Y-42994136D01*
%TO.N,DAU_TO_MAIN*%
X81794136Y-45124136D02*
X81794136Y-39864136D01*
X79424136Y-48894136D02*
X79424136Y-47494136D01*
X81794136Y-39864136D02*
X81624136Y-39694136D01*
X79424136Y-47494136D02*
X81794136Y-45124136D01*
%TO.N,MAIN_TO_DAU*%
X82424136Y-39794136D02*
X82424136Y-45154136D01*
X82424136Y-45154136D02*
X80724136Y-46854136D01*
X80724136Y-46854136D02*
X80724136Y-47994136D01*
%TO.N,DAC_TRANSDUCER*%
X61224136Y-48503181D02*
X61224136Y-48785091D01*
X38384136Y-79764136D02*
X38384136Y-86734136D01*
X53589136Y-55859136D02*
X45434136Y-64014136D01*
X40584136Y-77564136D02*
X38384136Y-79764136D01*
X63214136Y-47104136D02*
X62623181Y-47104136D01*
X45434136Y-64014136D02*
X45434136Y-70314136D01*
X52024136Y-54294136D02*
X53589136Y-55859136D01*
X59385091Y-50624136D02*
X58824136Y-50624136D01*
X61224136Y-48785091D02*
X59385091Y-50624136D01*
X58824136Y-50624136D02*
X53589136Y-55859136D01*
X38384136Y-86734136D02*
X35434136Y-89684136D01*
D31*
X65994136Y-44344136D02*
X65974136Y-44344136D01*
D24*
X62623181Y-47104136D02*
X61224136Y-48503181D01*
X65974136Y-44344136D02*
X63214136Y-47104136D01*
X45434136Y-70314136D02*
X40584136Y-75164136D01*
X40584136Y-75164136D02*
X40584136Y-77564136D01*
%TO.N,DAC_AMP_TEST*%
X76199136Y-40169136D02*
X75724136Y-39694136D01*
X76199136Y-45569136D02*
X76199136Y-40169136D01*
X77334136Y-51094136D02*
X77334136Y-46704136D01*
X77334136Y-46704136D02*
X76199136Y-45569136D01*
%TO.N,Net-(SW3-C)*%
X40754136Y-48564136D02*
X40754136Y-52574136D01*
X40774136Y-48544136D02*
X40754136Y-48564136D01*
D25*
%TO.N,-3V3*%
X106544136Y-77104136D02*
X105934136Y-77104136D01*
D28*
X104024136Y-63094136D02*
X106124136Y-63094136D01*
X107624136Y-61594136D02*
X107624136Y-59194136D01*
X102924136Y-64194136D02*
X104024136Y-63094136D01*
X106124136Y-63094136D02*
X107624136Y-61594136D01*
D31*
X109814136Y-80324136D02*
X109764136Y-80324136D01*
D25*
X109764136Y-80324136D02*
X107479136Y-78039136D01*
D31*
X105934136Y-77104136D02*
X105924136Y-77094136D01*
D25*
X107479136Y-78039136D02*
X106544136Y-77104136D01*
X106246636Y-77466636D02*
X106906636Y-77466636D01*
X99624136Y-77114136D02*
X105924136Y-77114136D01*
X105924136Y-77144136D02*
X106246636Y-77466636D01*
X106906636Y-77466636D02*
X107479136Y-78039136D01*
D24*
X105924136Y-77094136D02*
X105924136Y-77144136D01*
%TO.N,Net-(Q1-G)*%
X36024136Y-58494136D02*
X38124136Y-60594136D01*
X38124136Y-60594136D02*
X38124136Y-67394136D01*
X34124136Y-58494136D02*
X36024136Y-58494136D01*
D26*
%TO.N,Net-(U13-CS)*%
X33244136Y-59894136D02*
X32844136Y-59494136D01*
X32844136Y-59494136D02*
X30824136Y-59494136D01*
X30824136Y-59494136D02*
X27424136Y-62894136D01*
X27424136Y-62894136D02*
X27424136Y-64794136D01*
D24*
%TO.N,26V_PGOOD*%
X67515091Y-48484136D02*
X72324136Y-43675091D01*
D26*
X38224136Y-56894136D02*
X51604136Y-56894136D01*
D24*
X55824136Y-56724136D02*
X64064136Y-48484136D01*
X55824136Y-57894136D02*
X55824136Y-56724136D01*
X64064136Y-48484136D02*
X67515091Y-48484136D01*
D26*
X51604136Y-56894136D02*
X51954136Y-56544136D01*
D24*
X72324136Y-43675091D02*
X72324136Y-43345980D01*
%TO.N,TRANSDUCER_TX*%
X75324136Y-64794136D02*
X75324136Y-63594136D01*
X62324136Y-77794136D02*
X75324136Y-64794136D01*
X62324136Y-80794136D02*
X62324136Y-77794136D01*
D25*
%TO.N,LPF_PGA*%
X102724136Y-57794136D02*
X103224136Y-58294136D01*
X102724136Y-57494136D02*
X102724136Y-57794136D01*
X103224136Y-58294136D02*
X103224136Y-59294136D01*
D26*
%TO.N,Net-(U18-PLIMIT)*%
X42144136Y-93114136D02*
X44524136Y-95494136D01*
X42144136Y-92064136D02*
X42144136Y-93114136D01*
D27*
%TO.N,AMP_R*%
X59374136Y-68194136D02*
X59374136Y-68224462D01*
D32*
X58704136Y-68194136D02*
X52404136Y-68194136D01*
X59374136Y-68194136D02*
X58704136Y-68194136D01*
X59374136Y-68224462D02*
X59791836Y-68642162D01*
X51724136Y-68194136D02*
X52404136Y-68194136D01*
X51724136Y-68194136D02*
X51024136Y-68194136D01*
D24*
%TO.N,TRANSDUCER_RX*%
X104694136Y-80494136D02*
X104974136Y-80214136D01*
X104974136Y-80214136D02*
X104974136Y-79294136D01*
X98874136Y-79994136D02*
X99374136Y-80494136D01*
X99374136Y-80494136D02*
X104694136Y-80494136D01*
D26*
%TO.N,Net-(JP3-B)*%
X54724136Y-94084136D02*
X54734136Y-94094136D01*
X54734136Y-94094136D02*
X56924136Y-94094136D01*
%TO.N,Net-(JP4-B)*%
X53924136Y-96594136D02*
X56924136Y-96594136D01*
%TO.N,Net-(JP5-B)*%
X53219136Y-96989136D02*
X55324136Y-99094136D01*
X50019136Y-93789136D02*
X48324136Y-92094136D01*
X48324136Y-92094136D02*
X47524136Y-92094136D01*
X55324136Y-99094136D02*
X56924136Y-99094136D01*
D24*
%TO.N,Net-(U18-MUTE)*%
X69124136Y-45984136D02*
X67354136Y-45984136D01*
X67354136Y-45984136D02*
X65927740Y-45984136D01*
X65927740Y-45984136D02*
X54847740Y-57064136D01*
X54847740Y-57870532D02*
X47624136Y-65094136D01*
X70004136Y-45104136D02*
X69124136Y-45984136D01*
X47624136Y-90894136D02*
X45974136Y-92544136D01*
X47624136Y-65094136D02*
X47624136Y-90894136D01*
X54847740Y-57064136D02*
X54847740Y-57870532D01*
X67354136Y-46794136D02*
X67354136Y-45984136D01*
%TO.N,FAULTZ*%
X41424136Y-88794136D02*
X41424136Y-81294136D01*
X62604136Y-48414136D02*
X62861344Y-48414136D01*
X47124136Y-75594136D02*
X47124136Y-64957740D01*
X40124136Y-90094136D02*
X41424136Y-88794136D01*
X41424136Y-81294136D02*
X47124136Y-75594136D01*
X54397740Y-57684136D02*
X54397740Y-56877740D01*
X62861344Y-48414136D02*
X66151893Y-45123587D01*
X47124136Y-64957740D02*
X54397740Y-57684136D01*
X62604136Y-48414136D02*
X62644136Y-48414136D01*
X62752740Y-48522740D02*
X62861344Y-48414136D01*
X66151893Y-45077334D02*
X67935091Y-43294136D01*
X62604136Y-48671344D02*
X62752740Y-48522740D01*
D31*
X62624136Y-48394136D02*
X62604136Y-48414136D01*
D24*
X62644136Y-48414136D02*
X62752740Y-48522740D01*
X54397740Y-56877740D02*
X62604136Y-48671344D01*
X66151893Y-45123587D02*
X66151893Y-45077334D01*
X67935091Y-43294136D02*
X70024136Y-43294136D01*
X62604136Y-48414136D02*
X62604136Y-48671344D01*
D25*
%TO.N,Net-(R59-Pad1)*%
X99934136Y-74439136D02*
X99934136Y-73854136D01*
X98054136Y-76319136D02*
X99934136Y-74439136D01*
D28*
%TO.N,TRANSDUCER*%
X69224136Y-98874136D02*
X72804136Y-95294136D01*
X69224136Y-104294136D02*
X69224136Y-98874136D01*
X82924136Y-95294136D02*
X88324136Y-89894136D01*
X72804136Y-95294136D02*
X82924136Y-95294136D01*
D26*
%TO.N,SCK*%
X93124136Y-46894136D02*
X92324136Y-47694136D01*
X92324136Y-47694136D02*
X92324136Y-48594136D01*
D24*
%TO.N,TR_CTRL*%
X53386268Y-105356268D02*
X61198400Y-105356268D01*
X111574136Y-44680532D02*
X111574136Y-41582202D01*
X82965091Y-36694136D02*
X81524136Y-36694136D01*
X113474136Y-46580532D02*
X111574136Y-44680532D01*
X76762004Y-107544136D02*
X82062004Y-102244136D01*
X113474136Y-57156268D02*
X113474136Y-46580532D01*
X104796070Y-34804136D02*
X111574136Y-41582202D01*
X112886268Y-71919872D02*
X115874136Y-68932004D01*
X96974136Y-97732004D02*
X96974136Y-93944136D01*
X92462004Y-102244136D02*
X96974136Y-97732004D01*
X61198400Y-105356268D02*
X63386268Y-107544136D01*
X81524136Y-36694136D02*
X80724136Y-37494136D01*
X115874136Y-68932004D02*
X115874136Y-59556268D01*
D31*
X97174136Y-93744136D02*
X97124136Y-93794136D01*
D24*
X63386268Y-107544136D02*
X76762004Y-107544136D01*
X106174136Y-85432004D02*
X112886268Y-78719872D01*
X97774136Y-93144136D02*
X102162004Y-93144136D01*
X115874136Y-59556268D02*
X113474136Y-57156268D01*
X49834136Y-103204136D02*
X51234136Y-103204136D01*
X97174136Y-93744136D02*
X97774136Y-93144136D01*
X82062004Y-102244136D02*
X92462004Y-102244136D01*
X112886268Y-78719872D02*
X112886268Y-71919872D01*
X84855091Y-34804136D02*
X82965091Y-36694136D01*
X104796070Y-34804136D02*
X87284136Y-34804136D01*
X106174136Y-89132004D02*
X106174136Y-85432004D01*
X102162004Y-93144136D02*
X106174136Y-89132004D01*
X96974136Y-93944136D02*
X97124136Y-93794136D01*
X51234136Y-103204136D02*
X53386268Y-105356268D01*
X87264136Y-34804136D02*
X84855091Y-34804136D01*
%TO.N,-3V3_EN*%
X82924136Y-73104136D02*
X82924136Y-65794136D01*
X84454136Y-48954136D02*
X86824136Y-46584136D01*
X84454136Y-56114136D02*
X84454136Y-48954136D01*
X85564136Y-75744136D02*
X82924136Y-73104136D01*
X80834136Y-32774136D02*
X86804136Y-32774136D01*
X80824136Y-32764136D02*
X80834136Y-32774136D01*
X86824136Y-36094136D02*
X87409136Y-35509136D01*
X85584136Y-75744136D02*
X85564136Y-75744136D01*
X86804136Y-32774136D02*
X87424136Y-33394136D01*
X82924136Y-57644136D02*
X84454136Y-56114136D01*
X86824136Y-46584136D02*
X86824136Y-36094136D01*
X82924136Y-65794136D02*
X82924136Y-57644136D01*
%TO.N,+1V65*%
X98684136Y-57194136D02*
X86924136Y-57194136D01*
X62124136Y-58794136D02*
X62124136Y-57494136D01*
D31*
X102024136Y-47194137D02*
X101971435Y-47141436D01*
D24*
X61021636Y-59896636D02*
X62124136Y-58794136D01*
D28*
X102024136Y-48705728D02*
X102024136Y-47194137D01*
D24*
X61021636Y-61081636D02*
X61021636Y-59896636D01*
X86924136Y-57194136D02*
X85424136Y-58694136D01*
%TO.N,PWR_AMP_V_FB*%
X75164136Y-40334136D02*
X74524136Y-39694136D01*
X69764136Y-55294136D02*
X67674136Y-57384136D01*
X75164136Y-47704136D02*
X75164136Y-40334136D01*
X75164136Y-47704136D02*
X75164136Y-54354136D01*
X67674136Y-57384136D02*
X67674136Y-60981636D01*
X67674136Y-60981636D02*
X67661636Y-60994136D01*
D25*
%TO.N,Net-(C111-Pad1)*%
X93824136Y-66894136D02*
X93824136Y-57894136D01*
X102194136Y-81394136D02*
X98894136Y-81394136D01*
X103494136Y-82694136D02*
X102194136Y-81394136D01*
X97024136Y-70094136D02*
X93824136Y-66894136D01*
X97024136Y-79524136D02*
X97024136Y-70094136D01*
X98894136Y-81394136D02*
X97024136Y-79524136D01*
D24*
%TO.N,Net-(JP6-B)*%
X107324136Y-79034136D02*
X106334136Y-79034136D01*
X106334136Y-79034136D02*
X106274136Y-79094136D01*
D31*
%TO.N,Net-(TP25-Pad1)*%
X54424136Y-40594136D02*
X56624136Y-42794136D01*
X54424136Y-39024136D02*
X54424136Y-40594136D01*
X55134136Y-38314136D02*
X54424136Y-39024136D01*
X56624136Y-42794136D02*
X56624136Y-43694136D01*
X56624136Y-43694136D02*
X57724136Y-44794136D01*
D24*
%TO.N,Net-(TP26-Pad1)*%
X54824136Y-45494136D02*
X54824136Y-43794136D01*
X54824136Y-43794136D02*
X55624136Y-42994136D01*
%TO.N,Net-(U4-EN)*%
X55084136Y-37444136D02*
X53824136Y-38704136D01*
X53824136Y-38704136D02*
X53824136Y-42294136D01*
%TO.N,Net-(TP28-Pad1)*%
X55439247Y-39494136D02*
X56614136Y-40669025D01*
D31*
X55424136Y-39494136D02*
X55439247Y-39494136D01*
D24*
X56614136Y-40674136D02*
X56614136Y-40669025D01*
D26*
%TO.N,/DC-DC/26V_COMP*%
X33324136Y-59074136D02*
X33324136Y-58194136D01*
X33724136Y-57794136D02*
X43224136Y-57794136D01*
X33324136Y-58194136D02*
X33724136Y-57794136D01*
X34244136Y-59994136D02*
X33324136Y-59074136D01*
%TD*%
%TA.AperFunction,Conductor*%
%TO.N,+3V3*%
G36*
X57722843Y-41066833D02*
G01*
X57789413Y-41088035D01*
X57802243Y-41097981D01*
X57820122Y-41113821D01*
X57848230Y-41138723D01*
X57848231Y-41138723D01*
X57848233Y-41138725D01*
X57989485Y-41212860D01*
X58144374Y-41251036D01*
X58303898Y-41251036D01*
X58458787Y-41212860D01*
X58600039Y-41138725D01*
X58620805Y-41120327D01*
X58684035Y-41090606D01*
X58705839Y-41089174D01*
X58924136Y-41094136D01*
X59900136Y-41094136D01*
X59967175Y-41113821D01*
X60012930Y-41166625D01*
X60024136Y-41218136D01*
X60024136Y-43568242D01*
X60004451Y-43635281D01*
X59951647Y-43681036D01*
X59898257Y-43692228D01*
X57314081Y-43653074D01*
X57247348Y-43632376D01*
X57228279Y-43616769D01*
X57142355Y-43530845D01*
X57108870Y-43469522D01*
X57106036Y-43443164D01*
X57106036Y-42730695D01*
X57106036Y-42730693D01*
X57073195Y-42608130D01*
X57009752Y-42498242D01*
X56760455Y-42248945D01*
X56726970Y-42187622D01*
X56724136Y-42161264D01*
X56724136Y-41678328D01*
X56743821Y-41611289D01*
X56796625Y-41565534D01*
X56822352Y-41557038D01*
X56895927Y-41541400D01*
X56895929Y-41541398D01*
X56895932Y-41541398D01*
X56954593Y-41515279D01*
X57070084Y-41463860D01*
X57224313Y-41351806D01*
X57351875Y-41210134D01*
X57401603Y-41124001D01*
X57452167Y-41075789D01*
X57511798Y-41062037D01*
X57722843Y-41066833D01*
G37*
%TD.AperFunction*%
%TD*%
%TA.AperFunction,Conductor*%
%TO.N,+BATT*%
G36*
X48804675Y-37113821D02*
G01*
X48850430Y-37166625D01*
X48861636Y-37218136D01*
X48861636Y-42385328D01*
X48841951Y-42452367D01*
X48825317Y-42473009D01*
X48740509Y-42557817D01*
X48679186Y-42591302D01*
X48652828Y-42594136D01*
X40224136Y-42594136D01*
X40224136Y-47981407D01*
X40204451Y-48048446D01*
X40187817Y-48069088D01*
X40183659Y-48073245D01*
X40183654Y-48073251D01*
X40093683Y-48216438D01*
X40093681Y-48216441D01*
X40037821Y-48376079D01*
X40018887Y-48544132D01*
X40018887Y-48544136D01*
X40024959Y-48598035D01*
X40026205Y-48609089D01*
X40026966Y-48620841D01*
X40027262Y-48638125D01*
X40034140Y-48680772D01*
X40034941Y-48686626D01*
X40037823Y-48712200D01*
X40039371Y-48718983D01*
X40039258Y-48719008D01*
X40042140Y-48730378D01*
X40102054Y-49101855D01*
X40103636Y-49121599D01*
X40103636Y-51986754D01*
X40101222Y-52011103D01*
X40029576Y-52368868D01*
X40025033Y-52385470D01*
X40017823Y-52406076D01*
X40017821Y-52406082D01*
X39998887Y-52574133D01*
X39998887Y-52574138D01*
X40017821Y-52742192D01*
X40073681Y-52901830D01*
X40073683Y-52901833D01*
X40163654Y-53045020D01*
X40163659Y-53045026D01*
X40187817Y-53069184D01*
X40221302Y-53130507D01*
X40224136Y-53156865D01*
X40224136Y-56144636D01*
X40204451Y-56211675D01*
X40151647Y-56257430D01*
X40100136Y-56268636D01*
X38824338Y-56268636D01*
X38792901Y-56264585D01*
X38773060Y-56259385D01*
X38598685Y-56213683D01*
X38457806Y-56176760D01*
X38453615Y-56175744D01*
X38439579Y-56172343D01*
X38439575Y-56172342D01*
X38434723Y-56171167D01*
X38434739Y-56171100D01*
X38418293Y-56166954D01*
X38392199Y-56157824D01*
X38392189Y-56157821D01*
X38224139Y-56138887D01*
X38224133Y-56138887D01*
X38056079Y-56157821D01*
X37896441Y-56213681D01*
X37896438Y-56213683D01*
X37753251Y-56303654D01*
X37753245Y-56303659D01*
X37633659Y-56423245D01*
X37633654Y-56423251D01*
X37543683Y-56566438D01*
X37543681Y-56566441D01*
X37487821Y-56726079D01*
X37468887Y-56894133D01*
X37468887Y-56894138D01*
X37484280Y-57030752D01*
X37472226Y-57099574D01*
X37424877Y-57150954D01*
X37361060Y-57168636D01*
X33662525Y-57168636D01*
X33573015Y-57186441D01*
X33541684Y-57192673D01*
X33541683Y-57192673D01*
X33427852Y-57239823D01*
X33395463Y-57261465D01*
X33377843Y-57273238D01*
X33311168Y-57294116D01*
X33308954Y-57294136D01*
X27461636Y-57294136D01*
X27461636Y-57970136D01*
X27441951Y-58037175D01*
X27389147Y-58082930D01*
X27337636Y-58094136D01*
X24885636Y-58094136D01*
X24818597Y-58074451D01*
X24772842Y-58021647D01*
X24761636Y-57970136D01*
X24761636Y-54018136D01*
X24781321Y-53951097D01*
X24834125Y-53905342D01*
X24885636Y-53894136D01*
X30720584Y-53894136D01*
X30787623Y-53913821D01*
X30825577Y-53952164D01*
X30833659Y-53965026D01*
X30953245Y-54084612D01*
X30953251Y-54084617D01*
X31096438Y-54174588D01*
X31096441Y-54174590D01*
X31096445Y-54174591D01*
X31096446Y-54174592D01*
X31115091Y-54181116D01*
X31256079Y-54230450D01*
X31424133Y-54249385D01*
X31424136Y-54249385D01*
X31424139Y-54249385D01*
X31592195Y-54230449D01*
X31592196Y-54230449D01*
X31733181Y-54181116D01*
X31802960Y-54177554D01*
X31815091Y-54181116D01*
X31956075Y-54230449D01*
X32124133Y-54249385D01*
X32124136Y-54249385D01*
X32124139Y-54249385D01*
X32292195Y-54230449D01*
X32292196Y-54230449D01*
X32433181Y-54181116D01*
X32502960Y-54177554D01*
X32515091Y-54181116D01*
X32656075Y-54230449D01*
X32824133Y-54249385D01*
X32824136Y-54249385D01*
X32824139Y-54249385D01*
X32992195Y-54230449D01*
X32992196Y-54230449D01*
X33133181Y-54181116D01*
X33202960Y-54177554D01*
X33215091Y-54181116D01*
X33356075Y-54230449D01*
X33524133Y-54249385D01*
X33524136Y-54249385D01*
X33524139Y-54249385D01*
X33692192Y-54230450D01*
X33712780Y-54223246D01*
X33851826Y-54174592D01*
X33851828Y-54174590D01*
X33851830Y-54174590D01*
X33851833Y-54174588D01*
X33995020Y-54084617D01*
X33995021Y-54084616D01*
X33995026Y-54084613D01*
X34114613Y-53965026D01*
X34123365Y-53951097D01*
X34204588Y-53821833D01*
X34204590Y-53821830D01*
X34204590Y-53821828D01*
X34204592Y-53821826D01*
X34260449Y-53662195D01*
X34260449Y-53662194D01*
X34260450Y-53662192D01*
X34279385Y-53494138D01*
X34279385Y-53494133D01*
X34260449Y-53326076D01*
X34260449Y-53326075D01*
X34211116Y-53185091D01*
X34207554Y-53115312D01*
X34211116Y-53103181D01*
X34260449Y-52962196D01*
X34260449Y-52962195D01*
X34279385Y-52794138D01*
X34279385Y-52794133D01*
X34260450Y-52626079D01*
X34204590Y-52466441D01*
X34204588Y-52466438D01*
X34114617Y-52323251D01*
X34114612Y-52323245D01*
X33995026Y-52203659D01*
X33995020Y-52203654D01*
X33851835Y-52113684D01*
X33851822Y-52113678D01*
X33844675Y-52111177D01*
X33787901Y-52070452D01*
X33762157Y-52005498D01*
X33761636Y-51994138D01*
X33761636Y-48408522D01*
X33781321Y-48341483D01*
X33782534Y-48339630D01*
X33784757Y-48336302D01*
X33784762Y-48336298D01*
X33877840Y-48196999D01*
X33941952Y-48042217D01*
X33974635Y-47877903D01*
X33974635Y-47710369D01*
X33941952Y-47546055D01*
X33877840Y-47391273D01*
X33784762Y-47251974D01*
X33782534Y-47248639D01*
X33761656Y-47181962D01*
X33761636Y-47179748D01*
X33761636Y-37218136D01*
X33781321Y-37151097D01*
X33834125Y-37105342D01*
X33885636Y-37094136D01*
X48737636Y-37094136D01*
X48804675Y-37113821D01*
G37*
%TD.AperFunction*%
%TD*%
%TA.AperFunction,Conductor*%
%TO.N,+26V*%
G36*
X43767175Y-63213821D02*
G01*
X43812930Y-63266625D01*
X43824136Y-63318136D01*
X43824136Y-67470136D01*
X43804451Y-67537175D01*
X43751647Y-67582930D01*
X43700136Y-67594136D01*
X43167652Y-67594136D01*
X43116167Y-67581239D01*
X43115726Y-67582305D01*
X43110097Y-67579973D01*
X42920898Y-67522580D01*
X42920896Y-67522579D01*
X42724136Y-67503201D01*
X42527375Y-67522579D01*
X42527373Y-67522580D01*
X42338174Y-67579973D01*
X42332546Y-67582305D01*
X42332104Y-67581239D01*
X42280620Y-67594136D01*
X40924136Y-67594136D01*
X40924136Y-72770136D01*
X40904451Y-72837175D01*
X40851647Y-72882930D01*
X40800136Y-72894136D01*
X32124136Y-72894136D01*
X32124136Y-74450880D01*
X32112930Y-74502392D01*
X32084338Y-74564997D01*
X32084337Y-74565000D01*
X32065771Y-74694136D01*
X32084337Y-74823270D01*
X32084338Y-74823272D01*
X32112930Y-74885880D01*
X32124136Y-74937391D01*
X32124136Y-76950880D01*
X32112930Y-77002392D01*
X32084338Y-77064997D01*
X32084337Y-77065000D01*
X32065771Y-77194136D01*
X32084337Y-77323270D01*
X32084338Y-77323272D01*
X32112930Y-77385880D01*
X32124136Y-77437391D01*
X32124136Y-82794136D01*
X35600136Y-82794136D01*
X35667175Y-82813821D01*
X35712930Y-82866625D01*
X35724136Y-82918136D01*
X35724136Y-86170136D01*
X35704451Y-86237175D01*
X35651647Y-86282930D01*
X35600136Y-86294136D01*
X34824136Y-86294136D01*
X34824136Y-89994136D01*
X44474136Y-96224136D01*
X46265464Y-95366825D01*
X46334428Y-95355641D01*
X46398495Y-95383519D01*
X46431785Y-95427166D01*
X46438534Y-95441946D01*
X46523972Y-95540546D01*
X46523975Y-95540548D01*
X46633717Y-95611075D01*
X46633719Y-95611075D01*
X46633724Y-95611079D01*
X46758904Y-95647836D01*
X46889368Y-95647836D01*
X47014548Y-95611079D01*
X47107096Y-95551602D01*
X47174136Y-95531917D01*
X47241175Y-95551602D01*
X47241176Y-95551602D01*
X47333724Y-95611079D01*
X47458904Y-95647836D01*
X47589368Y-95647836D01*
X47714548Y-95611079D01*
X47807096Y-95551602D01*
X47874136Y-95531917D01*
X47941175Y-95551602D01*
X47941176Y-95551602D01*
X48033724Y-95611079D01*
X48158904Y-95647836D01*
X48289368Y-95647836D01*
X48414548Y-95611079D01*
X48524301Y-95540545D01*
X48609737Y-95441947D01*
X48663934Y-95323272D01*
X48682501Y-95194136D01*
X48663934Y-95065000D01*
X48663933Y-95064996D01*
X48609737Y-94946326D01*
X48609734Y-94946320D01*
X48591553Y-94925339D01*
X48562527Y-94861784D01*
X48572470Y-94792625D01*
X48591553Y-94762933D01*
X48609734Y-94741951D01*
X48609734Y-94741949D01*
X48609737Y-94741947D01*
X48663934Y-94623272D01*
X48682501Y-94494136D01*
X48678424Y-94465781D01*
X48688367Y-94396626D01*
X48734122Y-94343821D01*
X48801161Y-94324136D01*
X50544135Y-94324136D01*
X50544136Y-94324136D01*
X50535360Y-91020253D01*
X50554867Y-90953165D01*
X50607549Y-90907270D01*
X50676681Y-90897143D01*
X50740314Y-90925999D01*
X50753068Y-90938719D01*
X50823971Y-91020545D01*
X50823973Y-91020546D01*
X50823975Y-91020548D01*
X50933717Y-91091075D01*
X50933719Y-91091075D01*
X50933724Y-91091079D01*
X51058904Y-91127836D01*
X51189368Y-91127836D01*
X51314548Y-91091079D01*
X51424301Y-91020545D01*
X51509737Y-90921947D01*
X51563934Y-90803272D01*
X51582501Y-90674136D01*
X51563934Y-90545000D01*
X51563933Y-90544996D01*
X51529021Y-90468552D01*
X51509737Y-90426325D01*
X51424301Y-90327727D01*
X51424300Y-90327726D01*
X51424299Y-90327725D01*
X51424296Y-90327723D01*
X51314554Y-90257196D01*
X51314550Y-90257194D01*
X51314548Y-90257193D01*
X51189368Y-90220436D01*
X51058904Y-90220436D01*
X50933724Y-90257193D01*
X50933717Y-90257196D01*
X50823975Y-90327723D01*
X50823972Y-90327726D01*
X50751241Y-90411661D01*
X50692463Y-90449434D01*
X50622593Y-90449434D01*
X50563815Y-90411659D01*
X50534791Y-90348103D01*
X50533529Y-90330786D01*
X50531564Y-89591004D01*
X50524466Y-86918464D01*
X50543973Y-86851374D01*
X50596655Y-86805479D01*
X50648466Y-86794136D01*
X57100136Y-86794136D01*
X57167175Y-86813821D01*
X57212930Y-86866625D01*
X57224136Y-86918136D01*
X57224136Y-91970136D01*
X57204451Y-92037175D01*
X57151647Y-92082930D01*
X57100136Y-92094136D01*
X54324136Y-92094136D01*
X54324136Y-93840880D01*
X54312930Y-93892392D01*
X54284338Y-93954997D01*
X54284337Y-93955000D01*
X54265771Y-94084136D01*
X54284337Y-94213270D01*
X54284338Y-94213272D01*
X54312930Y-94275880D01*
X54324136Y-94327391D01*
X54324136Y-96066491D01*
X54304451Y-96133530D01*
X54251647Y-96179285D01*
X54182489Y-96189229D01*
X54168700Y-96186440D01*
X54082551Y-96163862D01*
X54082544Y-96163861D01*
X54074500Y-96163094D01*
X54051336Y-96158631D01*
X53989370Y-96140436D01*
X53989368Y-96140436D01*
X53858904Y-96140436D01*
X53733724Y-96177193D01*
X53733717Y-96177196D01*
X53623975Y-96247723D01*
X53623972Y-96247725D01*
X53538535Y-96346325D01*
X53538534Y-96346326D01*
X53480653Y-96473068D01*
X53479474Y-96472529D01*
X53446576Y-96523709D01*
X53383018Y-96552728D01*
X53330446Y-96548966D01*
X53284369Y-96535436D01*
X53284368Y-96535436D01*
X53153904Y-96535436D01*
X53028724Y-96572193D01*
X53028717Y-96572196D01*
X52918975Y-96642723D01*
X52918972Y-96642725D01*
X52833535Y-96741325D01*
X52833534Y-96741326D01*
X52779338Y-96859996D01*
X52779337Y-96860000D01*
X52760771Y-96989136D01*
X52779337Y-97118271D01*
X52779338Y-97118275D01*
X52818458Y-97203934D01*
X52833535Y-97236947D01*
X52877631Y-97287836D01*
X52918972Y-97335546D01*
X52918975Y-97335548D01*
X53017983Y-97399177D01*
X53023726Y-97403099D01*
X53026898Y-97405398D01*
X53026903Y-97405402D01*
X53190953Y-97501318D01*
X53233932Y-97526447D01*
X53281870Y-97577277D01*
X53294717Y-97645956D01*
X53268394Y-97710677D01*
X53257418Y-97722754D01*
X47357605Y-103411858D01*
X47295683Y-103444222D01*
X47226094Y-103437972D01*
X47213178Y-103432008D01*
X46521546Y-103063125D01*
X46518417Y-103061398D01*
X46451703Y-103023307D01*
X45606182Y-102540545D01*
X45330131Y-102382930D01*
X45327053Y-102381113D01*
X44808691Y-102065000D01*
X44158812Y-101668684D01*
X44155820Y-101666800D01*
X43008557Y-100920975D01*
X43005595Y-100918988D01*
X42859240Y-100817727D01*
X42063644Y-100267263D01*
X41880324Y-100140426D01*
X41877415Y-100138350D01*
X41273360Y-99694136D01*
X45565771Y-99694136D01*
X45584337Y-99823271D01*
X45584338Y-99823275D01*
X45620048Y-99901467D01*
X45638535Y-99941947D01*
X45716712Y-100032168D01*
X45723972Y-100040546D01*
X45723975Y-100040548D01*
X45833717Y-100111075D01*
X45833719Y-100111075D01*
X45833724Y-100111079D01*
X45958904Y-100147836D01*
X46089368Y-100147836D01*
X46214548Y-100111079D01*
X46324301Y-100040545D01*
X46409737Y-99941947D01*
X46463934Y-99823272D01*
X46482501Y-99694136D01*
X46463934Y-99565000D01*
X46463933Y-99564996D01*
X46409737Y-99446326D01*
X46409737Y-99446325D01*
X46324301Y-99347727D01*
X46324300Y-99347726D01*
X46324299Y-99347725D01*
X46324296Y-99347723D01*
X46214554Y-99277196D01*
X46214550Y-99277194D01*
X46214548Y-99277193D01*
X46089368Y-99240436D01*
X45958904Y-99240436D01*
X45833724Y-99277193D01*
X45833717Y-99277196D01*
X45723975Y-99347723D01*
X45723972Y-99347725D01*
X45638535Y-99446325D01*
X45638534Y-99446326D01*
X45584338Y-99564996D01*
X45584337Y-99565000D01*
X45565771Y-99694136D01*
X41273360Y-99694136D01*
X40936381Y-99446326D01*
X40775095Y-99327718D01*
X40772252Y-99325565D01*
X39693690Y-98483455D01*
X39690905Y-98481215D01*
X38637087Y-97608398D01*
X38634368Y-97606079D01*
X37755201Y-96834136D01*
X49465771Y-96834136D01*
X49484337Y-96963271D01*
X49484338Y-96963275D01*
X49522957Y-97047836D01*
X49538535Y-97081947D01*
X49590732Y-97142185D01*
X49623972Y-97180546D01*
X49623975Y-97180548D01*
X49733717Y-97251075D01*
X49733719Y-97251075D01*
X49733724Y-97251079D01*
X49858904Y-97287836D01*
X49989368Y-97287836D01*
X50114548Y-97251079D01*
X50224301Y-97180545D01*
X50309737Y-97081947D01*
X50363934Y-96963272D01*
X50382501Y-96834136D01*
X50363934Y-96705000D01*
X50363933Y-96704996D01*
X50329021Y-96628552D01*
X50309737Y-96586325D01*
X50224301Y-96487727D01*
X50224300Y-96487726D01*
X50224299Y-96487725D01*
X50224296Y-96487723D01*
X50114554Y-96417196D01*
X50114550Y-96417194D01*
X50114548Y-96417193D01*
X49989368Y-96380436D01*
X49858904Y-96380436D01*
X49733724Y-96417193D01*
X49733717Y-96417196D01*
X49623975Y-96487723D01*
X49623972Y-96487725D01*
X49538535Y-96586325D01*
X49538534Y-96586326D01*
X49484338Y-96704996D01*
X49484337Y-96705000D01*
X49465771Y-96834136D01*
X37755201Y-96834136D01*
X37649500Y-96741326D01*
X37606138Y-96703253D01*
X37603494Y-96700863D01*
X37541011Y-96642727D01*
X36843918Y-95994136D01*
X38565771Y-95994136D01*
X38584337Y-96123271D01*
X38584338Y-96123275D01*
X38630401Y-96224136D01*
X38638535Y-96241947D01*
X38723971Y-96340545D01*
X38723972Y-96340546D01*
X38723975Y-96340548D01*
X38833717Y-96411075D01*
X38833719Y-96411075D01*
X38833724Y-96411079D01*
X38958904Y-96447836D01*
X39089368Y-96447836D01*
X39214548Y-96411079D01*
X39324301Y-96340545D01*
X39409737Y-96241947D01*
X39448306Y-96157491D01*
X39463933Y-96123275D01*
X39463934Y-96123271D01*
X39482501Y-95994136D01*
X39463934Y-95865000D01*
X39463933Y-95864996D01*
X39428224Y-95786805D01*
X39409737Y-95746325D01*
X39324301Y-95647727D01*
X39324300Y-95647726D01*
X39324299Y-95647725D01*
X39324296Y-95647723D01*
X39214554Y-95577196D01*
X39214550Y-95577194D01*
X39214548Y-95577193D01*
X39089368Y-95540436D01*
X38958904Y-95540436D01*
X38833724Y-95577193D01*
X38833717Y-95577196D01*
X38723975Y-95647723D01*
X38723972Y-95647725D01*
X38638535Y-95746325D01*
X38638534Y-95746326D01*
X38584338Y-95864996D01*
X38584337Y-95865000D01*
X38565771Y-95994136D01*
X36843918Y-95994136D01*
X36601676Y-95768749D01*
X36599145Y-95766325D01*
X35887635Y-95064996D01*
X35624624Y-94805748D01*
X35622115Y-94803203D01*
X34675671Y-93814930D01*
X34673237Y-93812313D01*
X33755711Y-92797227D01*
X33753353Y-92794542D01*
X32865428Y-91753397D01*
X32863148Y-91750644D01*
X32176735Y-90897143D01*
X32005592Y-90684340D01*
X32003402Y-90681534D01*
X31899932Y-90545000D01*
X31251196Y-89688956D01*
X31176965Y-89591004D01*
X31174847Y-89588125D01*
X30380139Y-88474174D01*
X30378106Y-88471235D01*
X29615862Y-87334893D01*
X29613914Y-87331897D01*
X28884707Y-86174018D01*
X28882879Y-86171021D01*
X28187324Y-84992576D01*
X28185559Y-84989485D01*
X28022524Y-84694136D01*
X27524266Y-83791510D01*
X27522597Y-83788379D01*
X26896143Y-82571922D01*
X26894552Y-82568722D01*
X26728378Y-82221835D01*
X26303347Y-81334581D01*
X26301888Y-81331418D01*
X25746528Y-80080825D01*
X25745127Y-80077543D01*
X25226044Y-78811483D01*
X25224736Y-78808157D01*
X25006726Y-78229447D01*
X24742347Y-77527648D01*
X24741159Y-77524352D01*
X24295848Y-76230403D01*
X24294756Y-76227073D01*
X23886939Y-74920891D01*
X23885926Y-74917475D01*
X23859468Y-74823272D01*
X23515913Y-73600059D01*
X23515001Y-73596618D01*
X23475954Y-73440436D01*
X23183117Y-72269126D01*
X23182324Y-72265749D01*
X22990921Y-71394136D01*
X24965771Y-71394136D01*
X24984337Y-71523271D01*
X24984338Y-71523275D01*
X25038534Y-71641945D01*
X25038535Y-71641947D01*
X25123971Y-71740545D01*
X25123972Y-71740546D01*
X25123975Y-71740548D01*
X25233717Y-71811075D01*
X25233719Y-71811075D01*
X25233724Y-71811079D01*
X25358904Y-71847836D01*
X25489368Y-71847836D01*
X25614548Y-71811079D01*
X25724301Y-71740545D01*
X25809737Y-71641947D01*
X25863934Y-71523272D01*
X25882501Y-71394136D01*
X25863934Y-71265000D01*
X25863933Y-71264996D01*
X25809737Y-71146326D01*
X25809737Y-71146325D01*
X25724301Y-71047727D01*
X25724300Y-71047726D01*
X25724299Y-71047725D01*
X25724296Y-71047723D01*
X25614554Y-70977196D01*
X25614550Y-70977194D01*
X25614548Y-70977193D01*
X25489368Y-70940436D01*
X25358904Y-70940436D01*
X25233724Y-70977193D01*
X25233717Y-70977196D01*
X25123975Y-71047723D01*
X25123972Y-71047725D01*
X25038535Y-71146325D01*
X25038534Y-71146326D01*
X24984338Y-71264996D01*
X24984337Y-71265000D01*
X24965771Y-71394136D01*
X22990921Y-71394136D01*
X22888813Y-70929156D01*
X22888112Y-70925728D01*
X22633248Y-69581262D01*
X22632645Y-69577810D01*
X22416634Y-68226580D01*
X22416132Y-68223122D01*
X22339315Y-67634173D01*
X22350164Y-67565151D01*
X22396607Y-67512951D01*
X22462274Y-67494136D01*
X37591342Y-67494136D01*
X37658381Y-67513821D01*
X37704136Y-67566624D01*
X37711297Y-67582305D01*
X37738535Y-67641947D01*
X37823971Y-67740545D01*
X37823972Y-67740546D01*
X37823975Y-67740548D01*
X37933717Y-67811075D01*
X37933719Y-67811075D01*
X37933724Y-67811079D01*
X38058904Y-67847836D01*
X38189368Y-67847836D01*
X38314548Y-67811079D01*
X38424301Y-67740545D01*
X38509737Y-67641947D01*
X38544136Y-67566624D01*
X38589891Y-67513821D01*
X38656930Y-67494136D01*
X39024136Y-67494136D01*
X39024136Y-63384424D01*
X39002332Y-63344494D01*
X39007316Y-63274802D01*
X39049188Y-63218869D01*
X39114652Y-63194452D01*
X39123498Y-63194136D01*
X43700136Y-63194136D01*
X43767175Y-63213821D01*
G37*
%TD.AperFunction*%
%TD*%
%TA.AperFunction,Conductor*%
%TO.N,+3V3*%
G36*
X79767175Y-26613821D02*
G01*
X79812930Y-26666625D01*
X79824136Y-26718136D01*
X79824136Y-35570136D01*
X79804451Y-35637175D01*
X79751647Y-35682930D01*
X79700136Y-35694136D01*
X65148136Y-35694136D01*
X65081097Y-35674451D01*
X65035342Y-35621647D01*
X65024136Y-35570136D01*
X65024136Y-34890082D01*
X65043821Y-34823043D01*
X65096625Y-34777288D01*
X65165783Y-34767344D01*
X65195588Y-34775521D01*
X65279174Y-34810143D01*
X65407270Y-34827007D01*
X65424135Y-34829228D01*
X65424136Y-34829228D01*
X65424137Y-34829228D01*
X65439243Y-34827238D01*
X65569098Y-34810143D01*
X65704182Y-34754190D01*
X65782447Y-34694135D01*
X66964044Y-34694135D01*
X66964044Y-34694136D01*
X66983129Y-34839097D01*
X66983130Y-34839101D01*
X67039080Y-34974179D01*
X67039081Y-34974181D01*
X67039082Y-34974182D01*
X67128091Y-35090181D01*
X67244090Y-35179190D01*
X67379174Y-35235143D01*
X67507270Y-35252007D01*
X67524135Y-35254228D01*
X67524136Y-35254228D01*
X67524137Y-35254228D01*
X67539243Y-35252238D01*
X67669098Y-35235143D01*
X67804182Y-35179190D01*
X67920181Y-35090181D01*
X68009190Y-34974182D01*
X68065143Y-34839098D01*
X68084228Y-34694136D01*
X68084228Y-34694135D01*
X69464044Y-34694135D01*
X69464044Y-34694136D01*
X69483129Y-34839097D01*
X69483130Y-34839101D01*
X69539080Y-34974179D01*
X69539081Y-34974181D01*
X69539082Y-34974182D01*
X69628091Y-35090181D01*
X69744090Y-35179190D01*
X69879174Y-35235143D01*
X70007270Y-35252007D01*
X70024135Y-35254228D01*
X70024136Y-35254228D01*
X70024137Y-35254228D01*
X70039243Y-35252238D01*
X70169098Y-35235143D01*
X70304182Y-35179190D01*
X70420181Y-35090181D01*
X70509190Y-34974182D01*
X70565143Y-34839098D01*
X70584228Y-34694136D01*
X70584228Y-34694135D01*
X71964044Y-34694135D01*
X71964044Y-34694136D01*
X71983129Y-34839097D01*
X71983130Y-34839101D01*
X72039080Y-34974179D01*
X72039081Y-34974181D01*
X72039082Y-34974182D01*
X72128091Y-35090181D01*
X72244090Y-35179190D01*
X72379174Y-35235143D01*
X72507270Y-35252007D01*
X72524135Y-35254228D01*
X72524136Y-35254228D01*
X72524137Y-35254228D01*
X72539243Y-35252238D01*
X72669098Y-35235143D01*
X72804182Y-35179190D01*
X72920181Y-35090181D01*
X73009190Y-34974182D01*
X73065143Y-34839098D01*
X73084228Y-34694136D01*
X73084228Y-34694135D01*
X74464044Y-34694135D01*
X74464044Y-34694136D01*
X74483129Y-34839097D01*
X74483130Y-34839101D01*
X74539080Y-34974179D01*
X74539081Y-34974181D01*
X74539082Y-34974182D01*
X74628091Y-35090181D01*
X74744090Y-35179190D01*
X74879174Y-35235143D01*
X75007270Y-35252007D01*
X75024135Y-35254228D01*
X75024136Y-35254228D01*
X75024137Y-35254228D01*
X75039243Y-35252238D01*
X75169098Y-35235143D01*
X75304182Y-35179190D01*
X75420181Y-35090181D01*
X75509190Y-34974182D01*
X75565143Y-34839098D01*
X75584228Y-34694136D01*
X75565143Y-34549174D01*
X75509190Y-34414090D01*
X75420181Y-34298091D01*
X75304182Y-34209082D01*
X75304181Y-34209081D01*
X75304179Y-34209080D01*
X75169101Y-34153130D01*
X75169099Y-34153129D01*
X75169098Y-34153129D01*
X75096617Y-34143586D01*
X75024137Y-34134044D01*
X75024135Y-34134044D01*
X74879174Y-34153129D01*
X74879170Y-34153130D01*
X74744092Y-34209080D01*
X74628091Y-34298091D01*
X74539080Y-34414092D01*
X74483130Y-34549170D01*
X74483129Y-34549174D01*
X74464044Y-34694135D01*
X73084228Y-34694135D01*
X73065143Y-34549174D01*
X73009190Y-34414090D01*
X72920181Y-34298091D01*
X72804182Y-34209082D01*
X72804181Y-34209081D01*
X72804179Y-34209080D01*
X72669101Y-34153130D01*
X72669099Y-34153129D01*
X72669098Y-34153129D01*
X72596617Y-34143586D01*
X72524137Y-34134044D01*
X72524135Y-34134044D01*
X72379174Y-34153129D01*
X72379170Y-34153130D01*
X72244092Y-34209080D01*
X72128091Y-34298091D01*
X72039080Y-34414092D01*
X71983130Y-34549170D01*
X71983129Y-34549174D01*
X71964044Y-34694135D01*
X70584228Y-34694135D01*
X70565143Y-34549174D01*
X70509190Y-34414090D01*
X70420181Y-34298091D01*
X70304182Y-34209082D01*
X70304181Y-34209081D01*
X70304179Y-34209080D01*
X70169101Y-34153130D01*
X70169099Y-34153129D01*
X70169098Y-34153129D01*
X70096617Y-34143586D01*
X70024137Y-34134044D01*
X70024135Y-34134044D01*
X69879174Y-34153129D01*
X69879170Y-34153130D01*
X69744092Y-34209080D01*
X69628091Y-34298091D01*
X69539080Y-34414092D01*
X69483130Y-34549170D01*
X69483129Y-34549174D01*
X69464044Y-34694135D01*
X68084228Y-34694135D01*
X68065143Y-34549174D01*
X68009190Y-34414090D01*
X67920181Y-34298091D01*
X67804182Y-34209082D01*
X67804181Y-34209081D01*
X67804179Y-34209080D01*
X67669101Y-34153130D01*
X67669099Y-34153129D01*
X67669098Y-34153129D01*
X67596617Y-34143586D01*
X67524137Y-34134044D01*
X67524135Y-34134044D01*
X67379174Y-34153129D01*
X67379170Y-34153130D01*
X67244092Y-34209080D01*
X67128091Y-34298091D01*
X67039080Y-34414092D01*
X66983130Y-34549170D01*
X66983129Y-34549174D01*
X66964044Y-34694135D01*
X65782447Y-34694135D01*
X65820181Y-34665181D01*
X65909190Y-34549182D01*
X65965143Y-34414098D01*
X65984228Y-34269136D01*
X65965143Y-34124174D01*
X65909190Y-33989090D01*
X65820181Y-33873091D01*
X65704182Y-33784082D01*
X65704180Y-33784081D01*
X65695757Y-33780592D01*
X65677035Y-33770006D01*
X65676764Y-33770455D01*
X65671858Y-33767487D01*
X65585275Y-33715106D01*
X65585274Y-33715105D01*
X65354406Y-33575434D01*
X65330911Y-33557020D01*
X65060455Y-33286564D01*
X65026970Y-33225241D01*
X65024136Y-33198883D01*
X65024136Y-32194135D01*
X66964044Y-32194135D01*
X66964044Y-32194136D01*
X66983129Y-32339097D01*
X66983130Y-32339101D01*
X67039080Y-32474179D01*
X67039081Y-32474181D01*
X67039082Y-32474182D01*
X67128091Y-32590181D01*
X67244090Y-32679190D01*
X67379174Y-32735143D01*
X67507270Y-32752007D01*
X67524135Y-32754228D01*
X67524136Y-32754228D01*
X67524137Y-32754228D01*
X67539243Y-32752238D01*
X67669098Y-32735143D01*
X67804182Y-32679190D01*
X67920181Y-32590181D01*
X68009190Y-32474182D01*
X68065143Y-32339098D01*
X68084228Y-32194136D01*
X68084228Y-32194135D01*
X69464044Y-32194135D01*
X69464044Y-32194136D01*
X69483129Y-32339097D01*
X69483130Y-32339101D01*
X69539080Y-32474179D01*
X69539081Y-32474181D01*
X69539082Y-32474182D01*
X69628091Y-32590181D01*
X69744090Y-32679190D01*
X69879174Y-32735143D01*
X70007270Y-32752007D01*
X70024135Y-32754228D01*
X70024136Y-32754228D01*
X70024137Y-32754228D01*
X70039243Y-32752238D01*
X70169098Y-32735143D01*
X70304182Y-32679190D01*
X70420181Y-32590181D01*
X70509190Y-32474182D01*
X70565143Y-32339098D01*
X70584228Y-32194136D01*
X70584228Y-32194135D01*
X71964044Y-32194135D01*
X71964044Y-32194136D01*
X71983129Y-32339097D01*
X71983130Y-32339101D01*
X72039080Y-32474179D01*
X72039081Y-32474181D01*
X72039082Y-32474182D01*
X72128091Y-32590181D01*
X72244090Y-32679190D01*
X72379174Y-32735143D01*
X72507270Y-32752007D01*
X72524135Y-32754228D01*
X72524136Y-32754228D01*
X72524137Y-32754228D01*
X72539243Y-32752238D01*
X72669098Y-32735143D01*
X72804182Y-32679190D01*
X72920181Y-32590181D01*
X73009190Y-32474182D01*
X73065143Y-32339098D01*
X73084228Y-32194136D01*
X73084228Y-32194135D01*
X74464044Y-32194135D01*
X74464044Y-32194136D01*
X74483129Y-32339097D01*
X74483130Y-32339101D01*
X74539080Y-32474179D01*
X74539081Y-32474181D01*
X74539082Y-32474182D01*
X74628091Y-32590181D01*
X74744090Y-32679190D01*
X74879174Y-32735143D01*
X75007270Y-32752007D01*
X75024135Y-32754228D01*
X75024136Y-32754228D01*
X75024137Y-32754228D01*
X75039243Y-32752238D01*
X75169098Y-32735143D01*
X75304182Y-32679190D01*
X75420181Y-32590181D01*
X75509190Y-32474182D01*
X75565143Y-32339098D01*
X75584228Y-32194136D01*
X75565143Y-32049174D01*
X75509190Y-31914090D01*
X75420181Y-31798091D01*
X75304182Y-31709082D01*
X75304181Y-31709081D01*
X75304179Y-31709080D01*
X75169101Y-31653130D01*
X75169099Y-31653129D01*
X75169098Y-31653129D01*
X75096617Y-31643586D01*
X75024137Y-31634044D01*
X75024135Y-31634044D01*
X74879174Y-31653129D01*
X74879170Y-31653130D01*
X74744092Y-31709080D01*
X74628091Y-31798091D01*
X74539080Y-31914092D01*
X74483130Y-32049170D01*
X74483129Y-32049174D01*
X74464044Y-32194135D01*
X73084228Y-32194135D01*
X73065143Y-32049174D01*
X73009190Y-31914090D01*
X72920181Y-31798091D01*
X72804182Y-31709082D01*
X72804181Y-31709081D01*
X72804179Y-31709080D01*
X72669101Y-31653130D01*
X72669099Y-31653129D01*
X72669098Y-31653129D01*
X72596617Y-31643586D01*
X72524137Y-31634044D01*
X72524135Y-31634044D01*
X72379174Y-31653129D01*
X72379170Y-31653130D01*
X72244092Y-31709080D01*
X72128091Y-31798091D01*
X72039080Y-31914092D01*
X71983130Y-32049170D01*
X71983129Y-32049174D01*
X71964044Y-32194135D01*
X70584228Y-32194135D01*
X70565143Y-32049174D01*
X70509190Y-31914090D01*
X70420181Y-31798091D01*
X70304182Y-31709082D01*
X70304181Y-31709081D01*
X70304179Y-31709080D01*
X70169101Y-31653130D01*
X70169099Y-31653129D01*
X70169098Y-31653129D01*
X70096617Y-31643586D01*
X70024137Y-31634044D01*
X70024135Y-31634044D01*
X69879174Y-31653129D01*
X69879170Y-31653130D01*
X69744092Y-31709080D01*
X69628091Y-31798091D01*
X69539080Y-31914092D01*
X69483130Y-32049170D01*
X69483129Y-32049174D01*
X69464044Y-32194135D01*
X68084228Y-32194135D01*
X68065143Y-32049174D01*
X68009190Y-31914090D01*
X67920181Y-31798091D01*
X67804182Y-31709082D01*
X67804181Y-31709081D01*
X67804179Y-31709080D01*
X67669101Y-31653130D01*
X67669099Y-31653129D01*
X67669098Y-31653129D01*
X67596617Y-31643586D01*
X67524137Y-31634044D01*
X67524135Y-31634044D01*
X67379174Y-31653129D01*
X67379170Y-31653130D01*
X67244092Y-31709080D01*
X67128091Y-31798091D01*
X67039080Y-31914092D01*
X66983130Y-32049170D01*
X66983129Y-32049174D01*
X66964044Y-32194135D01*
X65024136Y-32194135D01*
X65024136Y-29694135D01*
X66964044Y-29694135D01*
X66964044Y-29694136D01*
X66983129Y-29839097D01*
X66983130Y-29839101D01*
X67039080Y-29974179D01*
X67039081Y-29974181D01*
X67039082Y-29974182D01*
X67128091Y-30090181D01*
X67244090Y-30179190D01*
X67379174Y-30235143D01*
X67507270Y-30252007D01*
X67524135Y-30254228D01*
X67524136Y-30254228D01*
X67524137Y-30254228D01*
X67539243Y-30252238D01*
X67669098Y-30235143D01*
X67804182Y-30179190D01*
X67920181Y-30090181D01*
X68009190Y-29974182D01*
X68065143Y-29839098D01*
X68084228Y-29694136D01*
X68084228Y-29694135D01*
X69464044Y-29694135D01*
X69464044Y-29694136D01*
X69483129Y-29839097D01*
X69483130Y-29839101D01*
X69539080Y-29974179D01*
X69539081Y-29974181D01*
X69539082Y-29974182D01*
X69628091Y-30090181D01*
X69744090Y-30179190D01*
X69879174Y-30235143D01*
X70007270Y-30252007D01*
X70024135Y-30254228D01*
X70024136Y-30254228D01*
X70024137Y-30254228D01*
X70039243Y-30252238D01*
X70169098Y-30235143D01*
X70304182Y-30179190D01*
X70420181Y-30090181D01*
X70509190Y-29974182D01*
X70565143Y-29839098D01*
X70584228Y-29694136D01*
X70584228Y-29694135D01*
X71964044Y-29694135D01*
X71964044Y-29694136D01*
X71983129Y-29839097D01*
X71983130Y-29839101D01*
X72039080Y-29974179D01*
X72039081Y-29974181D01*
X72039082Y-29974182D01*
X72128091Y-30090181D01*
X72244090Y-30179190D01*
X72379174Y-30235143D01*
X72507270Y-30252007D01*
X72524135Y-30254228D01*
X72524136Y-30254228D01*
X72524137Y-30254228D01*
X72539243Y-30252238D01*
X72669098Y-30235143D01*
X72804182Y-30179190D01*
X72920181Y-30090181D01*
X73009190Y-29974182D01*
X73065143Y-29839098D01*
X73084228Y-29694136D01*
X73084228Y-29694135D01*
X74464044Y-29694135D01*
X74464044Y-29694136D01*
X74483129Y-29839097D01*
X74483130Y-29839101D01*
X74539080Y-29974179D01*
X74539081Y-29974181D01*
X74539082Y-29974182D01*
X74628091Y-30090181D01*
X74744090Y-30179190D01*
X74879174Y-30235143D01*
X75007270Y-30252007D01*
X75024135Y-30254228D01*
X75024136Y-30254228D01*
X75024137Y-30254228D01*
X75039243Y-30252238D01*
X75169098Y-30235143D01*
X75304182Y-30179190D01*
X75420181Y-30090181D01*
X75509190Y-29974182D01*
X75565143Y-29839098D01*
X75584228Y-29694136D01*
X75565143Y-29549174D01*
X75509190Y-29414090D01*
X75420181Y-29298091D01*
X75304182Y-29209082D01*
X75304181Y-29209081D01*
X75304179Y-29209080D01*
X75169101Y-29153130D01*
X75169099Y-29153129D01*
X75169098Y-29153129D01*
X75096617Y-29143586D01*
X75024137Y-29134044D01*
X75024135Y-29134044D01*
X74879174Y-29153129D01*
X74879170Y-29153130D01*
X74744092Y-29209080D01*
X74628091Y-29298091D01*
X74539080Y-29414092D01*
X74483130Y-29549170D01*
X74483129Y-29549174D01*
X74464044Y-29694135D01*
X73084228Y-29694135D01*
X73065143Y-29549174D01*
X73009190Y-29414090D01*
X72920181Y-29298091D01*
X72804182Y-29209082D01*
X72804181Y-29209081D01*
X72804179Y-29209080D01*
X72669101Y-29153130D01*
X72669099Y-29153129D01*
X72669098Y-29153129D01*
X72596617Y-29143586D01*
X72524137Y-29134044D01*
X72524135Y-29134044D01*
X72379174Y-29153129D01*
X72379170Y-29153130D01*
X72244092Y-29209080D01*
X72128091Y-29298091D01*
X72039080Y-29414092D01*
X71983130Y-29549170D01*
X71983129Y-29549174D01*
X71964044Y-29694135D01*
X70584228Y-29694135D01*
X70565143Y-29549174D01*
X70509190Y-29414090D01*
X70420181Y-29298091D01*
X70304182Y-29209082D01*
X70304181Y-29209081D01*
X70304179Y-29209080D01*
X70169101Y-29153130D01*
X70169099Y-29153129D01*
X70169098Y-29153129D01*
X70096617Y-29143586D01*
X70024137Y-29134044D01*
X70024135Y-29134044D01*
X69879174Y-29153129D01*
X69879170Y-29153130D01*
X69744092Y-29209080D01*
X69628091Y-29298091D01*
X69539080Y-29414092D01*
X69483130Y-29549170D01*
X69483129Y-29549174D01*
X69464044Y-29694135D01*
X68084228Y-29694135D01*
X68065143Y-29549174D01*
X68009190Y-29414090D01*
X67920181Y-29298091D01*
X67804182Y-29209082D01*
X67804181Y-29209081D01*
X67804179Y-29209080D01*
X67669101Y-29153130D01*
X67669099Y-29153129D01*
X67669098Y-29153129D01*
X67596617Y-29143586D01*
X67524137Y-29134044D01*
X67524135Y-29134044D01*
X67379174Y-29153129D01*
X67379170Y-29153130D01*
X67244092Y-29209080D01*
X67128091Y-29298091D01*
X67039080Y-29414092D01*
X66983130Y-29549170D01*
X66983129Y-29549174D01*
X66964044Y-29694135D01*
X65024136Y-29694135D01*
X65024136Y-27273436D01*
X65043821Y-27206397D01*
X65096625Y-27160642D01*
X65148136Y-27149436D01*
X67184074Y-27149436D01*
X67184077Y-27149436D01*
X67299875Y-27118408D01*
X67403697Y-27058467D01*
X67488467Y-26973697D01*
X67488467Y-26973695D01*
X67498671Y-26963492D01*
X67498674Y-26963487D01*
X67831707Y-26630454D01*
X67893030Y-26596970D01*
X67919388Y-26594136D01*
X79700136Y-26594136D01*
X79767175Y-26613821D01*
G37*
%TD.AperFunction*%
%TD*%
%TA.AperFunction,Conductor*%
%TO.N,+3V3*%
G36*
X97355197Y-33802130D02*
G01*
X97360415Y-33806434D01*
X97417143Y-33891571D01*
X97578437Y-34133643D01*
X97580172Y-34142428D01*
X97576973Y-34148404D01*
X97378404Y-34346973D01*
X97370131Y-34350400D01*
X97363643Y-34348437D01*
X97160203Y-34212884D01*
X97036434Y-34130416D01*
X97031451Y-34122977D01*
X97032096Y-34116245D01*
X97121572Y-33897958D01*
X97127879Y-33891604D01*
X97346245Y-33802097D01*
X97355197Y-33802130D01*
G37*
%TD.AperFunction*%
%TD*%
%TA.AperFunction,Conductor*%
%TO.N,+3V3*%
G36*
X97130373Y-33897120D02*
G01*
X97340244Y-33983677D01*
X97346586Y-33989999D01*
X97346599Y-33998954D01*
X97344704Y-34002063D01*
X97224136Y-34144135D01*
X97224136Y-34408717D01*
X97220709Y-34416990D01*
X97212436Y-34420417D01*
X97204163Y-34416990D01*
X97203038Y-34415686D01*
X96953353Y-34078996D01*
X96951178Y-34070310D01*
X96954453Y-34063778D01*
X97117616Y-33899686D01*
X97125880Y-33896237D01*
X97130373Y-33897120D01*
G37*
%TD.AperFunction*%
%TD*%
%TA.AperFunction,Conductor*%
%TO.N,+3V3*%
G36*
X55015403Y-102566847D02*
G01*
X55022536Y-102572259D01*
X55024136Y-102578164D01*
X55024136Y-102810107D01*
X55020709Y-102818380D01*
X55015402Y-102821425D01*
X54629640Y-102922528D01*
X54620769Y-102921310D01*
X54615881Y-102915727D01*
X54525025Y-102698651D01*
X54524993Y-102689699D01*
X54615882Y-102472542D01*
X54622237Y-102466235D01*
X54629640Y-102465743D01*
X55015403Y-102566847D01*
G37*
%TD.AperFunction*%
%TD*%
%TA.AperFunction,Conductor*%
%TO.N,+3V3*%
G36*
X52655197Y-105202130D02*
G01*
X52660415Y-105206434D01*
X52717143Y-105291571D01*
X52878437Y-105533643D01*
X52880172Y-105542428D01*
X52876973Y-105548404D01*
X52678404Y-105746973D01*
X52670131Y-105750400D01*
X52663643Y-105748437D01*
X52460203Y-105612884D01*
X52336434Y-105530416D01*
X52331451Y-105522977D01*
X52332096Y-105516245D01*
X52421572Y-105297958D01*
X52427879Y-105291604D01*
X52646245Y-105202097D01*
X52655197Y-105202130D01*
G37*
%TD.AperFunction*%
%TD*%
%TA.AperFunction,Conductor*%
%TO.N,+3V3*%
G36*
X96903502Y-33802701D02*
G01*
X97119618Y-33891284D01*
X97125974Y-33897593D01*
X97125997Y-33897649D01*
X97215935Y-34115719D01*
X97215922Y-34124674D01*
X97211059Y-34130260D01*
X96976885Y-34268253D01*
X96970945Y-34269873D01*
X96692474Y-34269873D01*
X96684201Y-34266446D01*
X96680774Y-34258173D01*
X96681863Y-34253243D01*
X96847108Y-33897593D01*
X96888458Y-33808596D01*
X96895051Y-33802539D01*
X96903502Y-33802701D01*
G37*
%TD.AperFunction*%
%TD*%
%TA.AperFunction,Conductor*%
%TO.N,+3V3*%
G36*
X96892026Y-37102096D02*
G01*
X97110311Y-37191571D01*
X97116667Y-37197880D01*
X97116700Y-37197960D01*
X97206174Y-37416243D01*
X97206141Y-37425197D01*
X97201836Y-37430417D01*
X96874628Y-37648437D01*
X96865843Y-37650172D01*
X96859867Y-37646973D01*
X96661298Y-37448404D01*
X96657871Y-37440131D01*
X96659834Y-37433643D01*
X96877856Y-37106433D01*
X96885294Y-37101451D01*
X96892026Y-37102096D01*
G37*
%TD.AperFunction*%
%TD*%
%TA.AperFunction,Conductor*%
%TO.N,+3V3*%
G36*
X99278404Y-93641298D02*
G01*
X99476973Y-93839867D01*
X99480400Y-93848140D01*
X99478437Y-93854628D01*
X99260417Y-94181836D01*
X99252977Y-94186820D01*
X99246243Y-94186174D01*
X99027960Y-94096700D01*
X99021604Y-94090391D01*
X99021571Y-94090311D01*
X98932097Y-93872026D01*
X98932130Y-93863074D01*
X98936432Y-93857857D01*
X99263643Y-93639833D01*
X99272428Y-93638099D01*
X99278404Y-93641298D01*
G37*
%TD.AperFunction*%
%TD*%
%TA.AperFunction,Conductor*%
%TO.N,+3V3*%
G36*
X82678404Y-35341298D02*
G01*
X82876973Y-35539867D01*
X82880400Y-35548140D01*
X82878437Y-35554628D01*
X82660417Y-35881836D01*
X82652977Y-35886820D01*
X82646243Y-35886174D01*
X82427960Y-35796700D01*
X82421604Y-35790391D01*
X82421571Y-35790311D01*
X82332097Y-35572026D01*
X82332130Y-35563074D01*
X82336432Y-35557857D01*
X82663643Y-35339833D01*
X82672428Y-35338099D01*
X82678404Y-35341298D01*
G37*
%TD.AperFunction*%
%TD*%
%TA.AperFunction,Conductor*%
%TO.N,+3V3*%
G36*
X94472820Y-48397563D02*
G01*
X94476019Y-48403539D01*
X94553225Y-48789073D01*
X94551490Y-48797858D01*
X94546270Y-48802163D01*
X94328653Y-48893245D01*
X94319699Y-48893278D01*
X94319619Y-48893245D01*
X94102001Y-48802163D01*
X94095692Y-48795808D01*
X94095046Y-48789075D01*
X94172253Y-48403539D01*
X94177237Y-48396099D01*
X94183725Y-48394136D01*
X94464547Y-48394136D01*
X94472820Y-48397563D01*
G37*
%TD.AperFunction*%
%TD*%
%TA.AperFunction,Conductor*%
%TO.N,+3V3*%
G36*
X98802026Y-94002096D02*
G01*
X99020311Y-94091571D01*
X99026667Y-94097880D01*
X99026700Y-94097960D01*
X99116174Y-94316243D01*
X99116141Y-94325197D01*
X99111836Y-94330417D01*
X98784628Y-94548437D01*
X98775843Y-94550172D01*
X98769867Y-94546973D01*
X98571298Y-94348404D01*
X98567871Y-94340131D01*
X98569834Y-94333643D01*
X98787856Y-94006433D01*
X98795294Y-94001451D01*
X98802026Y-94002096D01*
G37*
%TD.AperFunction*%
%TD*%
%TA.AperFunction,Conductor*%
%TO.N,+3V3*%
G36*
X82327502Y-35566961D02*
G01*
X82332390Y-35572544D01*
X82423245Y-35789619D01*
X82423278Y-35798573D01*
X82423245Y-35798653D01*
X82332390Y-36015727D01*
X82326034Y-36022036D01*
X82318631Y-36022528D01*
X81932870Y-35921425D01*
X81925736Y-35916012D01*
X81924136Y-35910107D01*
X81924136Y-35678164D01*
X81927563Y-35669891D01*
X81932867Y-35666847D01*
X82318631Y-35565743D01*
X82327502Y-35566961D01*
G37*
%TD.AperFunction*%
%TD*%
%TA.AperFunction,Conductor*%
%TO.N,+3.3VA*%
G36*
X57984628Y-40139834D02*
G01*
X58109159Y-40222809D01*
X58311837Y-40357855D01*
X58316820Y-40365294D01*
X58316174Y-40372028D01*
X58226700Y-40590311D01*
X58220391Y-40596667D01*
X58220311Y-40596700D01*
X58002028Y-40686174D01*
X57993074Y-40686141D01*
X57987855Y-40681837D01*
X57852809Y-40479159D01*
X57769834Y-40354628D01*
X57768099Y-40345843D01*
X57771296Y-40339869D01*
X57969868Y-40141297D01*
X57978140Y-40137871D01*
X57984628Y-40139834D01*
G37*
%TD.AperFunction*%
%TD*%
%TA.AperFunction,Conductor*%
%TO.N,+3.3VA*%
G36*
X52555197Y-23902130D02*
G01*
X52560415Y-23906434D01*
X52617143Y-23991571D01*
X52778437Y-24233643D01*
X52780172Y-24242428D01*
X52776973Y-24248404D01*
X52578404Y-24446973D01*
X52570131Y-24450400D01*
X52563643Y-24448437D01*
X52360203Y-24312884D01*
X52236434Y-24230416D01*
X52231451Y-24222977D01*
X52232096Y-24216245D01*
X52321572Y-23997958D01*
X52327879Y-23991604D01*
X52546245Y-23902097D01*
X52555197Y-23902130D01*
G37*
%TD.AperFunction*%
%TD*%
%TA.AperFunction,Conductor*%
%TO.N,Net-(U1-VREF+)*%
G36*
X66446271Y-39086109D02*
G01*
X66452579Y-39092464D01*
X66453225Y-39099198D01*
X66376019Y-39484733D01*
X66371035Y-39492173D01*
X66364547Y-39494136D01*
X66083725Y-39494136D01*
X66075452Y-39490709D01*
X66072253Y-39484733D01*
X66069462Y-39470798D01*
X65995046Y-39099196D01*
X65996781Y-39090413D01*
X66001998Y-39086110D01*
X66219620Y-38995025D01*
X66228572Y-38994993D01*
X66446271Y-39086109D01*
G37*
%TD.AperFunction*%
%TD*%
%TA.AperFunction,Conductor*%
%TO.N,Net-(U1-VREF+)*%
G36*
X63354735Y-40452253D02*
G01*
X63362173Y-40457236D01*
X63364136Y-40463724D01*
X63364136Y-40744547D01*
X63360709Y-40752820D01*
X63354733Y-40756019D01*
X62969198Y-40833225D01*
X62960413Y-40831490D01*
X62956109Y-40826271D01*
X62865025Y-40608651D01*
X62864993Y-40599699D01*
X62956109Y-40381999D01*
X62962463Y-40375692D01*
X62969195Y-40375046D01*
X63354735Y-40452253D01*
G37*
%TD.AperFunction*%
%TD*%
%TA.AperFunction,Conductor*%
%TO.N,+BATT*%
G36*
X43046271Y-30286109D02*
G01*
X43052579Y-30292464D01*
X43053225Y-30299198D01*
X42976019Y-30684733D01*
X42971035Y-30692173D01*
X42964547Y-30694136D01*
X42683725Y-30694136D01*
X42675452Y-30690709D01*
X42672253Y-30684733D01*
X42669462Y-30670798D01*
X42595046Y-30299196D01*
X42596781Y-30290413D01*
X42601998Y-30286110D01*
X42819620Y-30195025D01*
X42828572Y-30194993D01*
X43046271Y-30286109D01*
G37*
%TD.AperFunction*%
%TD*%
%TA.AperFunction,Conductor*%
%TO.N,/STM32/ADC_IN_FAST*%
G36*
X78306765Y-46085193D02*
G01*
X78657649Y-46114575D01*
X78664945Y-46117961D01*
X78793896Y-46246912D01*
X78797323Y-46255185D01*
X78793896Y-46263458D01*
X78792736Y-46264474D01*
X78479018Y-46504706D01*
X78470366Y-46507015D01*
X78463665Y-46503723D01*
X78296901Y-46338287D01*
X78293442Y-46330031D01*
X78294100Y-46096819D01*
X78297550Y-46088557D01*
X78305833Y-46085153D01*
X78306765Y-46085193D01*
G37*
%TD.AperFunction*%
%TD*%
%TA.AperFunction,Conductor*%
%TO.N,/STM32/ADC_IN_FAST*%
G36*
X80553124Y-44052546D02*
G01*
X80770313Y-44141572D01*
X80776667Y-44147880D01*
X80776700Y-44147959D01*
X80865724Y-44365144D01*
X80865691Y-44374099D01*
X80860219Y-44380002D01*
X80498870Y-44564530D01*
X80489944Y-44565241D01*
X80485276Y-44562383D01*
X80355888Y-44432995D01*
X80352461Y-44424722D01*
X80353740Y-44419404D01*
X80538271Y-44058050D01*
X80545084Y-44052242D01*
X80553124Y-44052546D01*
G37*
%TD.AperFunction*%
%TD*%
%TA.AperFunction,Conductor*%
%TO.N,+BATTa*%
G36*
X44246271Y-29636109D02*
G01*
X44252579Y-29642464D01*
X44253225Y-29649198D01*
X44176019Y-30034733D01*
X44171035Y-30042173D01*
X44164547Y-30044136D01*
X43883725Y-30044136D01*
X43875452Y-30040709D01*
X43872253Y-30034733D01*
X43869462Y-30020798D01*
X43795046Y-29649196D01*
X43796781Y-29640413D01*
X43801998Y-29636110D01*
X44019620Y-29545025D01*
X44028572Y-29544993D01*
X44246271Y-29636109D01*
G37*
%TD.AperFunction*%
%TD*%
%TA.AperFunction,Conductor*%
%TO.N,+BATTa*%
G36*
X47334628Y-34839834D02*
G01*
X47459159Y-34922809D01*
X47661837Y-35057855D01*
X47666820Y-35065294D01*
X47666174Y-35072028D01*
X47576700Y-35290311D01*
X47570391Y-35296667D01*
X47570311Y-35296700D01*
X47352028Y-35386174D01*
X47343074Y-35386141D01*
X47337855Y-35381837D01*
X47202809Y-35179159D01*
X47119834Y-35054628D01*
X47118099Y-35045843D01*
X47121296Y-35039869D01*
X47319868Y-34841297D01*
X47328140Y-34837871D01*
X47334628Y-34839834D01*
G37*
%TD.AperFunction*%
%TD*%
%TA.AperFunction,Conductor*%
%TO.N,/STM32/RESET#*%
G36*
X65174479Y-33829249D02*
G01*
X65344107Y-33931871D01*
X65511239Y-34032982D01*
X65516544Y-34040197D01*
X65516009Y-34047430D01*
X65425743Y-34267646D01*
X65423157Y-34271515D01*
X65257116Y-34436233D01*
X65248829Y-34439627D01*
X65240570Y-34436167D01*
X65239361Y-34434735D01*
X64960275Y-34044701D01*
X64958248Y-34035979D01*
X64961515Y-34029622D01*
X65160151Y-33830986D01*
X65168423Y-33827560D01*
X65174479Y-33829249D01*
G37*
%TD.AperFunction*%
%TD*%
%TA.AperFunction,Conductor*%
%TO.N,/STM32/RESET#*%
G36*
X60155197Y-28702130D02*
G01*
X60160415Y-28706434D01*
X60217143Y-28791571D01*
X60378437Y-29033643D01*
X60380172Y-29042428D01*
X60376973Y-29048404D01*
X60178404Y-29246973D01*
X60170131Y-29250400D01*
X60163643Y-29248437D01*
X59960203Y-29112884D01*
X59836434Y-29030416D01*
X59831451Y-29022977D01*
X59832096Y-29016245D01*
X59921572Y-28797958D01*
X59927879Y-28791604D01*
X60146245Y-28702097D01*
X60155197Y-28702130D01*
G37*
%TD.AperFunction*%
%TD*%
%TA.AperFunction,Conductor*%
%TO.N,/STM32/RESET#*%
G36*
X64278404Y-24241298D02*
G01*
X64476973Y-24439867D01*
X64480400Y-24448140D01*
X64478437Y-24454628D01*
X64260417Y-24781836D01*
X64252977Y-24786820D01*
X64246243Y-24786174D01*
X64027960Y-24696700D01*
X64021604Y-24690391D01*
X64021571Y-24690311D01*
X63932097Y-24472026D01*
X63932130Y-24463074D01*
X63936432Y-24457857D01*
X64263643Y-24239833D01*
X64272428Y-24238099D01*
X64278404Y-24241298D01*
G37*
%TD.AperFunction*%
%TD*%
%TA.AperFunction,Conductor*%
%TO.N,/STM32/D-*%
G36*
X90855197Y-26002130D02*
G01*
X90860415Y-26006434D01*
X90917143Y-26091571D01*
X91078437Y-26333643D01*
X91080172Y-26342428D01*
X91076973Y-26348404D01*
X90878404Y-26546973D01*
X90870131Y-26550400D01*
X90863643Y-26548437D01*
X90660203Y-26412884D01*
X90536434Y-26330416D01*
X90531451Y-26322977D01*
X90532096Y-26316245D01*
X90621572Y-26097958D01*
X90627879Y-26091604D01*
X90846245Y-26002097D01*
X90855197Y-26002130D01*
G37*
%TD.AperFunction*%
%TD*%
%TA.AperFunction,Conductor*%
%TO.N,/STM32/D-*%
G36*
X91272820Y-27397563D02*
G01*
X91276019Y-27403539D01*
X91353225Y-27789073D01*
X91351490Y-27797858D01*
X91346270Y-27802163D01*
X91128653Y-27893245D01*
X91119699Y-27893278D01*
X91119619Y-27893245D01*
X90902001Y-27802163D01*
X90895692Y-27795808D01*
X90895046Y-27789075D01*
X90972253Y-27403539D01*
X90977237Y-27396099D01*
X90983725Y-27394136D01*
X91264547Y-27394136D01*
X91272820Y-27397563D01*
G37*
%TD.AperFunction*%
%TD*%
%TA.AperFunction,Conductor*%
%TO.N,/DC-DC/5V_SW*%
G36*
X49472820Y-46297563D02*
G01*
X49476019Y-46303539D01*
X49553225Y-46689073D01*
X49551490Y-46697858D01*
X49546270Y-46702163D01*
X49328653Y-46793245D01*
X49319699Y-46793278D01*
X49319619Y-46793245D01*
X49102001Y-46702163D01*
X49095692Y-46695808D01*
X49095046Y-46689075D01*
X49172253Y-46303539D01*
X49177237Y-46296099D01*
X49183725Y-46294136D01*
X49464547Y-46294136D01*
X49472820Y-46297563D01*
G37*
%TD.AperFunction*%
%TD*%
%TA.AperFunction,Conductor*%
%TO.N,/DC-DC/5V_SW*%
G36*
X54802026Y-36402096D02*
G01*
X55020311Y-36491571D01*
X55026667Y-36497880D01*
X55026700Y-36497960D01*
X55116174Y-36716243D01*
X55116141Y-36725197D01*
X55111836Y-36730417D01*
X54784628Y-36948437D01*
X54775843Y-36950172D01*
X54769867Y-36946973D01*
X54571298Y-36748404D01*
X54567871Y-36740131D01*
X54569834Y-36733643D01*
X54787856Y-36406433D01*
X54795294Y-36401451D01*
X54802026Y-36402096D01*
G37*
%TD.AperFunction*%
%TD*%
%TA.AperFunction,Conductor*%
%TO.N,+5V*%
G36*
X47572820Y-50397563D02*
G01*
X47576019Y-50403539D01*
X47653225Y-50789073D01*
X47651490Y-50797858D01*
X47646270Y-50802163D01*
X47428653Y-50893245D01*
X47419699Y-50893278D01*
X47419619Y-50893245D01*
X47202001Y-50802163D01*
X47195692Y-50795808D01*
X47195046Y-50789075D01*
X47272253Y-50403539D01*
X47277237Y-50396099D01*
X47283725Y-50394136D01*
X47564547Y-50394136D01*
X47572820Y-50397563D01*
G37*
%TD.AperFunction*%
%TD*%
%TA.AperFunction,Conductor*%
%TO.N,+5V*%
G36*
X47646271Y-49086109D02*
G01*
X47652579Y-49092464D01*
X47653225Y-49099198D01*
X47576019Y-49484733D01*
X47571035Y-49492173D01*
X47564547Y-49494136D01*
X47283725Y-49494136D01*
X47275452Y-49490709D01*
X47272253Y-49484733D01*
X47269462Y-49470798D01*
X47195046Y-49099196D01*
X47196781Y-49090413D01*
X47201998Y-49086110D01*
X47419620Y-48995025D01*
X47428572Y-48994993D01*
X47646271Y-49086109D01*
G37*
%TD.AperFunction*%
%TD*%
%TA.AperFunction,Conductor*%
%TO.N,/STM32/ADC_IN_DMA*%
G36*
X67916042Y-36791514D02*
G01*
X67922856Y-36797323D01*
X67924136Y-36802644D01*
X67924136Y-36985627D01*
X67920709Y-36993900D01*
X67916041Y-36996758D01*
X67530048Y-37121788D01*
X67521122Y-37121077D01*
X67515650Y-37115174D01*
X67425025Y-36898651D01*
X67424993Y-36889699D01*
X67515650Y-36673096D01*
X67522006Y-36666788D01*
X67530047Y-36666483D01*
X67916042Y-36791514D01*
G37*
%TD.AperFunction*%
%TD*%
%TA.AperFunction,Conductor*%
%TO.N,/STM32/ADC_IN_DMA*%
G36*
X80581946Y-42305573D02*
G01*
X80913775Y-42342968D01*
X80921613Y-42347299D01*
X80924165Y-42354561D01*
X80924829Y-42589950D01*
X80921425Y-42598233D01*
X80921369Y-42598289D01*
X80755791Y-42762548D01*
X80747504Y-42765942D01*
X80739245Y-42762482D01*
X80739122Y-42762356D01*
X80581188Y-42598289D01*
X80442903Y-42454633D01*
X80439635Y-42446298D01*
X80443059Y-42438249D01*
X80572382Y-42308926D01*
X80580654Y-42305500D01*
X80581946Y-42305573D01*
G37*
%TD.AperFunction*%
%TD*%
%TA.AperFunction,Conductor*%
%TO.N,+26V*%
G36*
X43714735Y-58742253D02*
G01*
X43722173Y-58747236D01*
X43724136Y-58753724D01*
X43724136Y-59034547D01*
X43720709Y-59042820D01*
X43714733Y-59046019D01*
X43329198Y-59123225D01*
X43320413Y-59121490D01*
X43316109Y-59116271D01*
X43225025Y-58898651D01*
X43224993Y-58889699D01*
X43316109Y-58671999D01*
X43322463Y-58665692D01*
X43329195Y-58665046D01*
X43714735Y-58742253D01*
G37*
%TD.AperFunction*%
%TD*%
%TA.AperFunction,Conductor*%
%TO.N,+26V*%
G36*
X45246271Y-27686109D02*
G01*
X45252579Y-27692464D01*
X45253225Y-27699198D01*
X45176019Y-28084733D01*
X45171035Y-28092173D01*
X45164547Y-28094136D01*
X44883725Y-28094136D01*
X44875452Y-28090709D01*
X44872253Y-28084733D01*
X44869462Y-28070798D01*
X44795046Y-27699196D01*
X44796781Y-27690413D01*
X44801998Y-27686110D01*
X45019620Y-27595025D01*
X45028572Y-27594993D01*
X45246271Y-27686109D01*
G37*
%TD.AperFunction*%
%TD*%
%TA.AperFunction,Conductor*%
%TO.N,+26V*%
G36*
X45972820Y-54097563D02*
G01*
X45976019Y-54103539D01*
X46053225Y-54489073D01*
X46051490Y-54497858D01*
X46046270Y-54502163D01*
X45828653Y-54593245D01*
X45819699Y-54593278D01*
X45819619Y-54593245D01*
X45602001Y-54502163D01*
X45595692Y-54495808D01*
X45595046Y-54489075D01*
X45672253Y-54103539D01*
X45677237Y-54096099D01*
X45683725Y-54094136D01*
X45964547Y-54094136D01*
X45972820Y-54097563D01*
G37*
%TD.AperFunction*%
%TD*%
%TA.AperFunction,Conductor*%
%TO.N,+26V*%
G36*
X45602026Y-57602096D02*
G01*
X45820311Y-57691571D01*
X45826667Y-57697880D01*
X45826700Y-57697960D01*
X45916174Y-57916243D01*
X45916141Y-57925197D01*
X45911836Y-57930417D01*
X45584628Y-58148437D01*
X45575843Y-58150172D01*
X45569867Y-58146973D01*
X45371298Y-57948404D01*
X45367871Y-57940131D01*
X45369834Y-57933643D01*
X45587856Y-57606433D01*
X45595294Y-57601451D01*
X45602026Y-57602096D01*
G37*
%TD.AperFunction*%
%TD*%
%TA.AperFunction,Conductor*%
%TO.N,+26V*%
G36*
X43446271Y-58986109D02*
G01*
X43452579Y-58992464D01*
X43453225Y-58999198D01*
X43376019Y-59384733D01*
X43371035Y-59392173D01*
X43364547Y-59394136D01*
X43083725Y-59394136D01*
X43075452Y-59390709D01*
X43072253Y-59384733D01*
X43069462Y-59370798D01*
X42995046Y-58999196D01*
X42996781Y-58990413D01*
X43001998Y-58986110D01*
X43219620Y-58895025D01*
X43228572Y-58894993D01*
X43446271Y-58986109D01*
G37*
%TD.AperFunction*%
%TD*%
%TA.AperFunction,Conductor*%
%TO.N,I2C_SCL*%
G36*
X63054877Y-24302261D02*
G01*
X63060317Y-24306911D01*
X63266907Y-24641760D01*
X63268335Y-24650600D01*
X63265223Y-24656176D01*
X63066600Y-24854799D01*
X63058327Y-24858226D01*
X63051583Y-24856086D01*
X62658665Y-24578889D01*
X62653881Y-24571320D01*
X62655850Y-24562584D01*
X62657099Y-24561093D01*
X62821760Y-24395111D01*
X62825619Y-24392531D01*
X63045925Y-24302228D01*
X63054877Y-24302261D01*
G37*
%TD.AperFunction*%
%TD*%
%TA.AperFunction,Conductor*%
%TO.N,I2C_SCL*%
G36*
X69897858Y-23636781D02*
G01*
X69902163Y-23642001D01*
X69993245Y-23859619D01*
X69993278Y-23868574D01*
X69993245Y-23868653D01*
X69902163Y-24086270D01*
X69895807Y-24092579D01*
X69889073Y-24093225D01*
X69503539Y-24016019D01*
X69496099Y-24011035D01*
X69494136Y-24004547D01*
X69494136Y-23723724D01*
X69497563Y-23715451D01*
X69503536Y-23712253D01*
X69889075Y-23635046D01*
X69897858Y-23636781D01*
G37*
%TD.AperFunction*%
%TD*%
%TA.AperFunction,Conductor*%
%TO.N,I2C_SDA*%
G36*
X69003714Y-24402788D02*
G01*
X69222647Y-24492529D01*
X69226515Y-24495114D01*
X69392196Y-24662126D01*
X69395590Y-24670413D01*
X69392130Y-24678672D01*
X69391650Y-24679122D01*
X69044838Y-24986502D01*
X69036374Y-24989425D01*
X69028805Y-24986019D01*
X68830123Y-24787337D01*
X68826696Y-24779064D01*
X68827687Y-24774352D01*
X68988572Y-24408899D01*
X68995041Y-24402710D01*
X69003714Y-24402788D01*
G37*
%TD.AperFunction*%
%TD*%
%TA.AperFunction,Conductor*%
%TO.N,I2C_SDA*%
G36*
X62355197Y-24802130D02*
G01*
X62360415Y-24806434D01*
X62417143Y-24891571D01*
X62578437Y-25133643D01*
X62580172Y-25142428D01*
X62576973Y-25148404D01*
X62378404Y-25346973D01*
X62370131Y-25350400D01*
X62363643Y-25348437D01*
X62160203Y-25212884D01*
X62036434Y-25130416D01*
X62031451Y-25122977D01*
X62032096Y-25116245D01*
X62121572Y-24897958D01*
X62127879Y-24891604D01*
X62346245Y-24802097D01*
X62355197Y-24802130D01*
G37*
%TD.AperFunction*%
%TD*%
%TA.AperFunction,Conductor*%
%TO.N,3V3A_EN*%
G36*
X80747858Y-24556781D02*
G01*
X80752163Y-24562001D01*
X80843245Y-24779619D01*
X80843278Y-24788574D01*
X80843245Y-24788653D01*
X80752163Y-25006270D01*
X80745807Y-25012579D01*
X80739073Y-25013225D01*
X80353539Y-24936019D01*
X80346099Y-24931035D01*
X80344136Y-24924547D01*
X80344136Y-24643724D01*
X80347563Y-24635451D01*
X80353536Y-24632253D01*
X80739075Y-24555046D01*
X80747858Y-24556781D01*
G37*
%TD.AperFunction*%
%TD*%
%TA.AperFunction,Conductor*%
%TO.N,3V3A_EN*%
G36*
X77914735Y-24632253D02*
G01*
X77922173Y-24637236D01*
X77924136Y-24643724D01*
X77924136Y-24924547D01*
X77920709Y-24932820D01*
X77914733Y-24936019D01*
X77529198Y-25013225D01*
X77520413Y-25011490D01*
X77516109Y-25006271D01*
X77425025Y-24788651D01*
X77424993Y-24779699D01*
X77516109Y-24561999D01*
X77522463Y-24555692D01*
X77529195Y-24555046D01*
X77914735Y-24632253D01*
G37*
%TD.AperFunction*%
%TD*%
%TA.AperFunction,Conductor*%
%TO.N,3V3A_EN*%
G36*
X87884628Y-32539834D02*
G01*
X88009159Y-32622809D01*
X88211837Y-32757855D01*
X88216820Y-32765294D01*
X88216174Y-32772028D01*
X88126700Y-32990311D01*
X88120391Y-32996667D01*
X88120311Y-32996700D01*
X87902028Y-33086174D01*
X87893074Y-33086141D01*
X87887855Y-33081837D01*
X87752809Y-32879159D01*
X87669834Y-32754628D01*
X87668099Y-32745843D01*
X87671296Y-32739869D01*
X87869868Y-32541297D01*
X87878140Y-32537871D01*
X87884628Y-32539834D01*
G37*
%TD.AperFunction*%
%TD*%
%TA.AperFunction,Conductor*%
%TO.N,3V3A_EN*%
G36*
X84578404Y-57041298D02*
G01*
X84776973Y-57239867D01*
X84780400Y-57248140D01*
X84778437Y-57254628D01*
X84560417Y-57581836D01*
X84552977Y-57586820D01*
X84546243Y-57586174D01*
X84327960Y-57496700D01*
X84321604Y-57490391D01*
X84321571Y-57490311D01*
X84232097Y-57272026D01*
X84232130Y-57263074D01*
X84236432Y-57257857D01*
X84563643Y-57039833D01*
X84572428Y-57038099D01*
X84578404Y-57041298D01*
G37*
%TD.AperFunction*%
%TD*%
%TA.AperFunction,Conductor*%
%TO.N,3V3A_EN*%
G36*
X87902026Y-36002096D02*
G01*
X88120311Y-36091571D01*
X88126667Y-36097880D01*
X88126700Y-36097960D01*
X88216174Y-36316243D01*
X88216141Y-36325197D01*
X88211836Y-36330417D01*
X87884628Y-36548437D01*
X87875843Y-36550172D01*
X87869867Y-36546973D01*
X87671298Y-36348404D01*
X87667871Y-36340131D01*
X87669834Y-36333643D01*
X87887856Y-36006433D01*
X87895294Y-36001451D01*
X87902026Y-36002096D01*
G37*
%TD.AperFunction*%
%TD*%
%TA.AperFunction,Conductor*%
%TO.N,3V3A_EN*%
G36*
X84546271Y-57586109D02*
G01*
X84552579Y-57592464D01*
X84553225Y-57599198D01*
X84476019Y-57984733D01*
X84471035Y-57992173D01*
X84464547Y-57994136D01*
X84183725Y-57994136D01*
X84175452Y-57990709D01*
X84172253Y-57984733D01*
X84169462Y-57970798D01*
X84095046Y-57599196D01*
X84096781Y-57590413D01*
X84101998Y-57586110D01*
X84319620Y-57495025D01*
X84328572Y-57494993D01*
X84546271Y-57586109D01*
G37*
%TD.AperFunction*%
%TD*%
%TA.AperFunction,Conductor*%
%TO.N,3V3A_EN*%
G36*
X84472820Y-59197563D02*
G01*
X84476019Y-59203539D01*
X84553225Y-59589073D01*
X84551490Y-59597858D01*
X84546270Y-59602163D01*
X84328653Y-59693245D01*
X84319699Y-59693278D01*
X84319619Y-59693245D01*
X84102001Y-59602163D01*
X84095692Y-59595808D01*
X84095046Y-59589075D01*
X84172253Y-59203539D01*
X84177237Y-59196099D01*
X84183725Y-59194136D01*
X84464547Y-59194136D01*
X84472820Y-59197563D01*
G37*
%TD.AperFunction*%
%TD*%
%TA.AperFunction,Conductor*%
%TO.N,3V3A_EN*%
G36*
X86002026Y-26602096D02*
G01*
X86220311Y-26691571D01*
X86226667Y-26697880D01*
X86226700Y-26697960D01*
X86316174Y-26916243D01*
X86316141Y-26925197D01*
X86311836Y-26930417D01*
X85984628Y-27148437D01*
X85975843Y-27150172D01*
X85969867Y-27146973D01*
X85771298Y-26948404D01*
X85767871Y-26940131D01*
X85769834Y-26933643D01*
X85987856Y-26606433D01*
X85995294Y-26601451D01*
X86002026Y-26602096D01*
G37*
%TD.AperFunction*%
%TD*%
%TA.AperFunction,Conductor*%
%TO.N,UART_TX_DAU*%
G36*
X85402026Y-40592096D02*
G01*
X85620311Y-40681571D01*
X85626667Y-40687880D01*
X85626700Y-40687960D01*
X85716174Y-40906243D01*
X85716141Y-40915197D01*
X85711836Y-40920417D01*
X85384628Y-41138437D01*
X85375843Y-41140172D01*
X85369867Y-41136973D01*
X85171298Y-40938404D01*
X85167871Y-40930131D01*
X85169834Y-40923643D01*
X85387856Y-40596433D01*
X85395294Y-40591451D01*
X85402026Y-40592096D01*
G37*
%TD.AperFunction*%
%TD*%
%TA.AperFunction,Conductor*%
%TO.N,UART_TX_DAU*%
G36*
X88474563Y-40527757D02*
G01*
X88479769Y-40530774D01*
X88676611Y-40727616D01*
X88680038Y-40735889D01*
X88676611Y-40744162D01*
X88672262Y-40746911D01*
X88210245Y-40911389D01*
X88201302Y-40910936D01*
X88195528Y-40904884D01*
X88105314Y-40689346D01*
X88105281Y-40680392D01*
X88105304Y-40680335D01*
X88168438Y-40528573D01*
X88195859Y-40462655D01*
X88202201Y-40456334D01*
X88209727Y-40455859D01*
X88474563Y-40527757D01*
G37*
%TD.AperFunction*%
%TD*%
%TA.AperFunction,Conductor*%
%TO.N,UART_TX_DAU*%
G36*
X84772820Y-46397563D02*
G01*
X84776019Y-46403539D01*
X84853225Y-46789073D01*
X84851490Y-46797858D01*
X84846270Y-46802163D01*
X84628653Y-46893245D01*
X84619699Y-46893278D01*
X84619619Y-46893245D01*
X84402001Y-46802163D01*
X84395692Y-46795808D01*
X84395046Y-46789075D01*
X84472253Y-46403539D01*
X84477237Y-46396099D01*
X84483725Y-46394136D01*
X84764547Y-46394136D01*
X84772820Y-46397563D01*
G37*
%TD.AperFunction*%
%TD*%
%TA.AperFunction,Conductor*%
%TO.N,UART_RX_DAU*%
G36*
X85812026Y-41302096D02*
G01*
X86030311Y-41391571D01*
X86036667Y-41397880D01*
X86036700Y-41397960D01*
X86126174Y-41616243D01*
X86126141Y-41625197D01*
X86121836Y-41630417D01*
X85794628Y-41848437D01*
X85785843Y-41850172D01*
X85779867Y-41846973D01*
X85581298Y-41648404D01*
X85577871Y-41640131D01*
X85579834Y-41633643D01*
X85797856Y-41306433D01*
X85805294Y-41301451D01*
X85812026Y-41302096D01*
G37*
%TD.AperFunction*%
%TD*%
%TA.AperFunction,Conductor*%
%TO.N,UART_RX_DAU*%
G36*
X85672820Y-46397563D02*
G01*
X85676019Y-46403539D01*
X85753225Y-46789073D01*
X85751490Y-46797858D01*
X85746270Y-46802163D01*
X85528653Y-46893245D01*
X85519699Y-46893278D01*
X85519619Y-46893245D01*
X85302001Y-46802163D01*
X85295692Y-46795808D01*
X85295046Y-46789075D01*
X85372253Y-46403539D01*
X85377237Y-46396099D01*
X85383725Y-46394136D01*
X85664547Y-46394136D01*
X85672820Y-46397563D01*
G37*
%TD.AperFunction*%
%TD*%
%TA.AperFunction,Conductor*%
%TO.N,UART_RX_DAU*%
G36*
X89546271Y-41586109D02*
G01*
X89552579Y-41592464D01*
X89553225Y-41599198D01*
X89476019Y-41984733D01*
X89471035Y-41992173D01*
X89464547Y-41994136D01*
X89183725Y-41994136D01*
X89175452Y-41990709D01*
X89172253Y-41984733D01*
X89169462Y-41970798D01*
X89095046Y-41599196D01*
X89096781Y-41590413D01*
X89101998Y-41586110D01*
X89319620Y-41495025D01*
X89328572Y-41494993D01*
X89546271Y-41586109D01*
G37*
%TD.AperFunction*%
%TD*%
%TA.AperFunction,Conductor*%
%TO.N,DAU_TO_MAIN*%
G36*
X81864222Y-39694096D02*
G01*
X81872481Y-39697556D01*
X81875724Y-39703922D01*
X81941933Y-40111867D01*
X81939876Y-40120582D01*
X81932258Y-40125290D01*
X81930384Y-40125441D01*
X81649879Y-40125441D01*
X81641606Y-40122014D01*
X81640623Y-40120897D01*
X81633642Y-40111867D01*
X81453638Y-39879035D01*
X81451290Y-39870396D01*
X81454597Y-39863633D01*
X81620687Y-39696603D01*
X81628947Y-39693155D01*
X81864222Y-39694096D01*
G37*
%TD.AperFunction*%
%TD*%
%TA.AperFunction,Conductor*%
%TO.N,DAU_TO_MAIN*%
G36*
X79572820Y-48397563D02*
G01*
X79576019Y-48403539D01*
X79653225Y-48789073D01*
X79651490Y-48797858D01*
X79646270Y-48802163D01*
X79428653Y-48893245D01*
X79419699Y-48893278D01*
X79419619Y-48893245D01*
X79202001Y-48802163D01*
X79195692Y-48795808D01*
X79195046Y-48789075D01*
X79272253Y-48403539D01*
X79277237Y-48396099D01*
X79283725Y-48394136D01*
X79564547Y-48394136D01*
X79572820Y-48397563D01*
G37*
%TD.AperFunction*%
%TD*%
%TA.AperFunction,Conductor*%
%TO.N,MAIN_TO_DAU*%
G36*
X82646271Y-39886109D02*
G01*
X82652579Y-39892464D01*
X82653225Y-39899198D01*
X82576019Y-40284733D01*
X82571035Y-40292173D01*
X82564547Y-40294136D01*
X82283725Y-40294136D01*
X82275452Y-40290709D01*
X82272253Y-40284733D01*
X82269462Y-40270798D01*
X82195046Y-39899196D01*
X82196781Y-39890413D01*
X82201998Y-39886110D01*
X82419620Y-39795025D01*
X82428572Y-39794993D01*
X82646271Y-39886109D01*
G37*
%TD.AperFunction*%
%TD*%
%TA.AperFunction,Conductor*%
%TO.N,MAIN_TO_DAU*%
G36*
X80872820Y-47497563D02*
G01*
X80876019Y-47503539D01*
X80953225Y-47889073D01*
X80951490Y-47897858D01*
X80946270Y-47902163D01*
X80728653Y-47993245D01*
X80719699Y-47993278D01*
X80719619Y-47993245D01*
X80502001Y-47902163D01*
X80495692Y-47895808D01*
X80495046Y-47889075D01*
X80572253Y-47503539D01*
X80577237Y-47496099D01*
X80583725Y-47494136D01*
X80864547Y-47494136D01*
X80872820Y-47497563D01*
G37*
%TD.AperFunction*%
%TD*%
%TA.AperFunction,Conductor*%
%TO.N,DAC_TRANSDUCER*%
G36*
X52255197Y-54202130D02*
G01*
X52260415Y-54206434D01*
X52317143Y-54291571D01*
X52478437Y-54533643D01*
X52480172Y-54542428D01*
X52476973Y-54548404D01*
X52278404Y-54746973D01*
X52270131Y-54750400D01*
X52263643Y-54748437D01*
X52060203Y-54612884D01*
X51936434Y-54530416D01*
X51931451Y-54522977D01*
X51932096Y-54516245D01*
X52021572Y-54297958D01*
X52027879Y-54291604D01*
X52246245Y-54202097D01*
X52255197Y-54202130D01*
G37*
%TD.AperFunction*%
%TD*%
%TA.AperFunction,Conductor*%
%TO.N,DAC_TRANSDUCER*%
G36*
X35688404Y-89231298D02*
G01*
X35886973Y-89429867D01*
X35890400Y-89438140D01*
X35888437Y-89444628D01*
X35670417Y-89771836D01*
X35662977Y-89776820D01*
X35656243Y-89776174D01*
X35437960Y-89686700D01*
X35431604Y-89680391D01*
X35431571Y-89680311D01*
X35342097Y-89462026D01*
X35342130Y-89453074D01*
X35346432Y-89447857D01*
X35673643Y-89229833D01*
X35682428Y-89228099D01*
X35688404Y-89231298D01*
G37*
%TD.AperFunction*%
%TD*%
%TA.AperFunction,Conductor*%
%TO.N,DAC_TRANSDUCER*%
G36*
X65825687Y-44175850D02*
G01*
X65827182Y-44177104D01*
X65993157Y-44341756D01*
X65995742Y-44345622D01*
X66086042Y-44565923D01*
X66086010Y-44574877D01*
X66081360Y-44580317D01*
X65746511Y-44786907D01*
X65737671Y-44788335D01*
X65732095Y-44785223D01*
X65533472Y-44586600D01*
X65530045Y-44578327D01*
X65532183Y-44571585D01*
X65809383Y-44178664D01*
X65816951Y-44173881D01*
X65825687Y-44175850D01*
G37*
%TD.AperFunction*%
%TD*%
%TA.AperFunction,Conductor*%
%TO.N,DAC_AMP_TEST*%
G36*
X75955197Y-39602130D02*
G01*
X75960415Y-39606434D01*
X76017143Y-39691571D01*
X76178437Y-39933643D01*
X76180172Y-39942428D01*
X76176973Y-39948404D01*
X75978404Y-40146973D01*
X75970131Y-40150400D01*
X75963643Y-40148437D01*
X75760203Y-40012884D01*
X75636434Y-39930416D01*
X75631451Y-39922977D01*
X75632096Y-39916245D01*
X75721572Y-39697958D01*
X75727879Y-39691604D01*
X75946245Y-39602097D01*
X75955197Y-39602130D01*
G37*
%TD.AperFunction*%
%TD*%
%TA.AperFunction,Conductor*%
%TO.N,DAC_AMP_TEST*%
G36*
X77482820Y-50597563D02*
G01*
X77486019Y-50603539D01*
X77563225Y-50989073D01*
X77561490Y-50997858D01*
X77556270Y-51002163D01*
X77338653Y-51093245D01*
X77329699Y-51093278D01*
X77329619Y-51093245D01*
X77112001Y-51002163D01*
X77105692Y-50995808D01*
X77105046Y-50989075D01*
X77182253Y-50603539D01*
X77187237Y-50596099D01*
X77193725Y-50594136D01*
X77474547Y-50594136D01*
X77482820Y-50597563D01*
G37*
%TD.AperFunction*%
%TD*%
%TA.AperFunction,Conductor*%
%TO.N,Net-(SW3-C)*%
G36*
X40902820Y-52077563D02*
G01*
X40906019Y-52083539D01*
X40983225Y-52469073D01*
X40981490Y-52477858D01*
X40976270Y-52482163D01*
X40758653Y-52573245D01*
X40749699Y-52573278D01*
X40749619Y-52573245D01*
X40532001Y-52482163D01*
X40525692Y-52475808D01*
X40525046Y-52469075D01*
X40602253Y-52083539D01*
X40607237Y-52076099D01*
X40613725Y-52074136D01*
X40894547Y-52074136D01*
X40902820Y-52077563D01*
G37*
%TD.AperFunction*%
%TD*%
%TA.AperFunction,Conductor*%
%TO.N,Net-(SW3-C)*%
G36*
X40776324Y-48544051D02*
G01*
X40995815Y-48635918D01*
X41002124Y-48642274D01*
X41002643Y-48649572D01*
X40906365Y-49031319D01*
X40901019Y-49038503D01*
X40895020Y-49040158D01*
X40614100Y-49040158D01*
X40605827Y-49036731D01*
X40602549Y-49030321D01*
X40526314Y-48557642D01*
X40528380Y-48548931D01*
X40536002Y-48544230D01*
X40537814Y-48544081D01*
X40771763Y-48543145D01*
X40776324Y-48544051D01*
G37*
%TD.AperFunction*%
%TD*%
%TA.AperFunction,Conductor*%
%TO.N,Net-(Q1-G)*%
G36*
X38272820Y-66897563D02*
G01*
X38276019Y-66903539D01*
X38353225Y-67289073D01*
X38351490Y-67297858D01*
X38346270Y-67302163D01*
X38128653Y-67393245D01*
X38119699Y-67393278D01*
X38119619Y-67393245D01*
X37902001Y-67302163D01*
X37895692Y-67295808D01*
X37895046Y-67289075D01*
X37972253Y-66903539D01*
X37977237Y-66896099D01*
X37983725Y-66894136D01*
X38264547Y-66894136D01*
X38272820Y-66897563D01*
G37*
%TD.AperFunction*%
%TD*%
%TA.AperFunction,Conductor*%
%TO.N,Net-(Q1-G)*%
G36*
X34614735Y-58342253D02*
G01*
X34622173Y-58347236D01*
X34624136Y-58353724D01*
X34624136Y-58634547D01*
X34620709Y-58642820D01*
X34614733Y-58646019D01*
X34229198Y-58723225D01*
X34220413Y-58721490D01*
X34216109Y-58716271D01*
X34125025Y-58498651D01*
X34124993Y-58489699D01*
X34216109Y-58271999D01*
X34222463Y-58265692D01*
X34229195Y-58265046D01*
X34614735Y-58342253D01*
G37*
%TD.AperFunction*%
%TD*%
%TA.AperFunction,Conductor*%
%TO.N,Net-(U13-CS)*%
G36*
X32986761Y-59456749D02*
G01*
X33331030Y-59658034D01*
X33336443Y-59665168D01*
X33335951Y-59672571D01*
X33246700Y-59890311D01*
X33240391Y-59896667D01*
X33240311Y-59896700D01*
X33022571Y-59985951D01*
X33013617Y-59985918D01*
X33008034Y-59981030D01*
X32806749Y-59636762D01*
X32805532Y-59627894D01*
X32808575Y-59622589D01*
X32972588Y-59458576D01*
X32980860Y-59455150D01*
X32986761Y-59456749D01*
G37*
%TD.AperFunction*%
%TD*%
%TA.AperFunction,Conductor*%
%TO.N,Net-(U13-CS)*%
G36*
X27548380Y-64297563D02*
G01*
X27551425Y-64302870D01*
X27652528Y-64688631D01*
X27651310Y-64697502D01*
X27645727Y-64702390D01*
X27428653Y-64793245D01*
X27419699Y-64793278D01*
X27419619Y-64793245D01*
X27202544Y-64702390D01*
X27196235Y-64696034D01*
X27195743Y-64688631D01*
X27296847Y-64302870D01*
X27302260Y-64295736D01*
X27308165Y-64294136D01*
X27540107Y-64294136D01*
X27548380Y-64297563D01*
G37*
%TD.AperFunction*%
%TD*%
%TA.AperFunction,Conductor*%
%TO.N,26V_PGOOD*%
G36*
X38715403Y-56766847D02*
G01*
X38722536Y-56772259D01*
X38724136Y-56778164D01*
X38724136Y-57010107D01*
X38720709Y-57018380D01*
X38715402Y-57021425D01*
X38329640Y-57122528D01*
X38320769Y-57121310D01*
X38315881Y-57115727D01*
X38225025Y-56898651D01*
X38224993Y-56889699D01*
X38315882Y-56672542D01*
X38322237Y-56666235D01*
X38329640Y-56665743D01*
X38715403Y-56766847D01*
G37*
%TD.AperFunction*%
%TD*%
%TA.AperFunction,Conductor*%
%TO.N,26V_PGOOD*%
G36*
X55972820Y-57397563D02*
G01*
X55976019Y-57403539D01*
X56053225Y-57789073D01*
X56051490Y-57797858D01*
X56046270Y-57802163D01*
X55828653Y-57893245D01*
X55819699Y-57893278D01*
X55819619Y-57893245D01*
X55602001Y-57802163D01*
X55595692Y-57795808D01*
X55595046Y-57789075D01*
X55672253Y-57403539D01*
X55677237Y-57396099D01*
X55683725Y-57394136D01*
X55964547Y-57394136D01*
X55972820Y-57397563D01*
G37*
%TD.AperFunction*%
%TD*%
%TA.AperFunction,Conductor*%
%TO.N,26V_PGOOD*%
G36*
X51734205Y-56453017D02*
G01*
X51950622Y-56542274D01*
X51956964Y-56548596D01*
X51956987Y-56548653D01*
X52045821Y-56765383D01*
X52045788Y-56774337D01*
X52040566Y-56780109D01*
X51616381Y-57009784D01*
X51607474Y-57010709D01*
X51600521Y-57005066D01*
X51599110Y-56999495D01*
X51599110Y-56771320D01*
X51599898Y-56767099D01*
X51600562Y-56765383D01*
X51718850Y-56459619D01*
X51725031Y-56453140D01*
X51733983Y-56452929D01*
X51734205Y-56453017D01*
G37*
%TD.AperFunction*%
%TD*%
%TA.AperFunction,Conductor*%
%TO.N,26V_PGOOD*%
G36*
X72327023Y-43346185D02*
G01*
X72543249Y-43436688D01*
X72549557Y-43443043D01*
X72549524Y-43451997D01*
X72549052Y-43452990D01*
X72316798Y-43888068D01*
X72309879Y-43893752D01*
X72300967Y-43892879D01*
X72298204Y-43890831D01*
X72100340Y-43692967D01*
X72096939Y-43685479D01*
X72074972Y-43358427D01*
X72077837Y-43349944D01*
X72085862Y-43345970D01*
X72086587Y-43345944D01*
X72322478Y-43345279D01*
X72327023Y-43346185D01*
G37*
%TD.AperFunction*%
%TD*%
%TA.AperFunction,Conductor*%
%TO.N,TRANSDUCER_TX*%
G36*
X75546271Y-63686109D02*
G01*
X75552579Y-63692464D01*
X75553225Y-63699198D01*
X75476019Y-64084733D01*
X75471035Y-64092173D01*
X75464547Y-64094136D01*
X75183725Y-64094136D01*
X75175452Y-64090709D01*
X75172253Y-64084733D01*
X75169462Y-64070798D01*
X75095046Y-63699196D01*
X75096781Y-63690413D01*
X75101998Y-63686110D01*
X75319620Y-63595025D01*
X75328572Y-63594993D01*
X75546271Y-63686109D01*
G37*
%TD.AperFunction*%
%TD*%
%TA.AperFunction,Conductor*%
%TO.N,TRANSDUCER_TX*%
G36*
X62472820Y-80297563D02*
G01*
X62476019Y-80303539D01*
X62553225Y-80689073D01*
X62551490Y-80697858D01*
X62546270Y-80702163D01*
X62328653Y-80793245D01*
X62319699Y-80793278D01*
X62319619Y-80793245D01*
X62102001Y-80702163D01*
X62095692Y-80695808D01*
X62095046Y-80689075D01*
X62172253Y-80303539D01*
X62177237Y-80296099D01*
X62183725Y-80294136D01*
X62464547Y-80294136D01*
X62472820Y-80297563D01*
G37*
%TD.AperFunction*%
%TD*%
%TA.AperFunction,Conductor*%
%TO.N,Net-(U18-PLIMIT)*%
G36*
X44266761Y-95056749D02*
G01*
X44611030Y-95258034D01*
X44616443Y-95265168D01*
X44615951Y-95272571D01*
X44526700Y-95490311D01*
X44520391Y-95496667D01*
X44520311Y-95496700D01*
X44302571Y-95585951D01*
X44293617Y-95585918D01*
X44288034Y-95581030D01*
X44086749Y-95236762D01*
X44085532Y-95227894D01*
X44088575Y-95222589D01*
X44252588Y-95058576D01*
X44260860Y-95055150D01*
X44266761Y-95056749D01*
G37*
%TD.AperFunction*%
%TD*%
%TA.AperFunction,Conductor*%
%TO.N,Net-(U18-PLIMIT)*%
G36*
X42365727Y-92155881D02*
G01*
X42372036Y-92162237D01*
X42372528Y-92169640D01*
X42271425Y-92555402D01*
X42266012Y-92562536D01*
X42260107Y-92564136D01*
X42028165Y-92564136D01*
X42019892Y-92560709D01*
X42016847Y-92555402D01*
X41915743Y-92169640D01*
X41916961Y-92160769D01*
X41922542Y-92155882D01*
X42139620Y-92065025D01*
X42148573Y-92064993D01*
X42365727Y-92155881D01*
G37*
%TD.AperFunction*%
%TD*%
%TA.AperFunction,Conductor*%
%TO.N,TRANSDUCER_RX*%
G36*
X99105197Y-79902130D02*
G01*
X99110415Y-79906434D01*
X99167143Y-79991571D01*
X99328437Y-80233643D01*
X99330172Y-80242428D01*
X99326973Y-80248404D01*
X99128404Y-80446973D01*
X99120131Y-80450400D01*
X99113643Y-80448437D01*
X98910203Y-80312884D01*
X98786434Y-80230416D01*
X98781451Y-80222977D01*
X98782096Y-80216245D01*
X98871572Y-79997958D01*
X98877879Y-79991604D01*
X99096245Y-79902097D01*
X99105197Y-79902130D01*
G37*
%TD.AperFunction*%
%TD*%
%TA.AperFunction,Conductor*%
%TO.N,Net-(JP3-B)*%
G36*
X55213687Y-93966697D02*
G01*
X55220688Y-93972281D01*
X55222147Y-93977939D01*
X55222147Y-94209898D01*
X55218720Y-94218171D01*
X55213162Y-94221279D01*
X54829476Y-94312799D01*
X54820633Y-94311385D01*
X54815969Y-94305936D01*
X54725025Y-94088651D01*
X54724993Y-94079699D01*
X54815785Y-93862774D01*
X54822140Y-93856467D01*
X54829816Y-93856051D01*
X55213687Y-93966697D01*
G37*
%TD.AperFunction*%
%TD*%
%TA.AperFunction,Conductor*%
%TO.N,Net-(JP4-B)*%
G36*
X54415403Y-96466847D02*
G01*
X54422536Y-96472259D01*
X54424136Y-96478164D01*
X54424136Y-96710107D01*
X54420709Y-96718380D01*
X54415402Y-96721425D01*
X54029640Y-96822528D01*
X54020769Y-96821310D01*
X54015881Y-96815727D01*
X53925025Y-96598651D01*
X53924993Y-96589699D01*
X54015882Y-96372542D01*
X54022237Y-96366235D01*
X54029640Y-96365743D01*
X54415403Y-96466847D01*
G37*
%TD.AperFunction*%
%TD*%
%TA.AperFunction,Conductor*%
%TO.N,Net-(JP5-B)*%
G36*
X53449654Y-96897353D02*
G01*
X53455237Y-96902241D01*
X53656521Y-97246507D01*
X53657739Y-97255377D01*
X53654694Y-97260684D01*
X53490684Y-97424694D01*
X53482411Y-97428121D01*
X53476507Y-97426521D01*
X53132241Y-97225237D01*
X53126828Y-97218103D01*
X53127319Y-97210701D01*
X53216572Y-96992958D01*
X53222879Y-96986604D01*
X53440701Y-96897320D01*
X53449654Y-96897353D01*
G37*
%TD.AperFunction*%
%TD*%
%TA.AperFunction,Conductor*%
%TO.N,Net-(JP5-B)*%
G36*
X49761761Y-93351749D02*
G01*
X50106030Y-93553034D01*
X50111443Y-93560168D01*
X50110951Y-93567571D01*
X50021700Y-93785311D01*
X50015391Y-93791667D01*
X50015311Y-93791700D01*
X49797571Y-93880951D01*
X49788617Y-93880918D01*
X49783034Y-93876030D01*
X49581749Y-93531762D01*
X49580532Y-93522894D01*
X49583575Y-93517589D01*
X49747588Y-93353576D01*
X49755860Y-93350150D01*
X49761761Y-93351749D01*
G37*
%TD.AperFunction*%
%TD*%
%TA.AperFunction,Conductor*%
%TO.N,Net-(JP5-B)*%
G36*
X48015403Y-91966847D02*
G01*
X48022536Y-91972259D01*
X48024136Y-91978164D01*
X48024136Y-92210107D01*
X48020709Y-92218380D01*
X48015402Y-92221425D01*
X47629640Y-92322528D01*
X47620769Y-92321310D01*
X47615881Y-92315727D01*
X47525025Y-92098651D01*
X47524993Y-92089699D01*
X47615882Y-91872542D01*
X47622237Y-91866235D01*
X47629640Y-91865743D01*
X48015403Y-91966847D01*
G37*
%TD.AperFunction*%
%TD*%
%TA.AperFunction,Conductor*%
%TO.N,Net-(U18-MUTE)*%
G36*
X69782026Y-45012096D02*
G01*
X70000311Y-45101571D01*
X70006667Y-45107880D01*
X70006700Y-45107960D01*
X70096174Y-45326243D01*
X70096141Y-45335197D01*
X70091836Y-45340417D01*
X69764628Y-45558437D01*
X69755843Y-45560172D01*
X69749867Y-45556973D01*
X69551298Y-45358404D01*
X69547871Y-45350131D01*
X69549834Y-45343643D01*
X69767856Y-45016433D01*
X69775294Y-45011451D01*
X69782026Y-45012096D01*
G37*
%TD.AperFunction*%
%TD*%
%TA.AperFunction,Conductor*%
%TO.N,Net-(U18-MUTE)*%
G36*
X46228404Y-92091298D02*
G01*
X46426973Y-92289867D01*
X46430400Y-92298140D01*
X46428437Y-92304628D01*
X46210417Y-92631836D01*
X46202977Y-92636820D01*
X46196243Y-92636174D01*
X45977960Y-92546700D01*
X45971604Y-92540391D01*
X45971571Y-92540311D01*
X45882097Y-92322026D01*
X45882130Y-92313074D01*
X45886432Y-92307857D01*
X46213643Y-92089833D01*
X46222428Y-92088099D01*
X46228404Y-92091298D01*
G37*
%TD.AperFunction*%
%TD*%
%TA.AperFunction,Conductor*%
%TO.N,Net-(U18-MUTE)*%
G36*
X67502820Y-46297563D02*
G01*
X67506019Y-46303539D01*
X67583225Y-46689073D01*
X67581490Y-46697858D01*
X67576270Y-46702163D01*
X67358653Y-46793245D01*
X67349699Y-46793278D01*
X67349619Y-46793245D01*
X67132001Y-46702163D01*
X67125692Y-46695808D01*
X67125046Y-46689075D01*
X67202253Y-46303539D01*
X67207237Y-46296099D01*
X67213725Y-46294136D01*
X67494547Y-46294136D01*
X67502820Y-46297563D01*
G37*
%TD.AperFunction*%
%TD*%
%TA.AperFunction,Conductor*%
%TO.N,FAULTZ*%
G36*
X62930068Y-48139563D02*
G01*
X62930807Y-48140241D01*
X63129068Y-48338502D01*
X63132495Y-48346775D01*
X63129068Y-48355048D01*
X63127352Y-48356465D01*
X62788880Y-48585521D01*
X62780108Y-48587319D01*
X62774083Y-48584137D01*
X62710177Y-48520740D01*
X62606901Y-48418287D01*
X62603442Y-48410031D01*
X62604105Y-48174841D01*
X62607555Y-48166580D01*
X62614802Y-48163219D01*
X62921532Y-48136857D01*
X62930068Y-48139563D01*
G37*
%TD.AperFunction*%
%TD*%
%TA.AperFunction,Conductor*%
%TO.N,FAULTZ*%
G36*
X40378404Y-89641298D02*
G01*
X40576973Y-89839867D01*
X40580400Y-89848140D01*
X40578437Y-89854628D01*
X40360417Y-90181836D01*
X40352977Y-90186820D01*
X40346243Y-90186174D01*
X40127960Y-90096700D01*
X40121604Y-90090391D01*
X40121571Y-90090311D01*
X40032097Y-89872026D01*
X40032130Y-89863074D01*
X40036432Y-89857857D01*
X40363643Y-89639833D01*
X40372428Y-89638099D01*
X40378404Y-89641298D01*
G37*
%TD.AperFunction*%
%TD*%
%TA.AperFunction,Conductor*%
%TO.N,FAULTZ*%
G36*
X62926210Y-48143492D02*
G01*
X62926850Y-48144086D01*
X63125141Y-48342377D01*
X63128568Y-48350650D01*
X63125141Y-48358923D01*
X63123402Y-48360356D01*
X62788873Y-48585554D01*
X62780096Y-48587331D01*
X62774100Y-48584154D01*
X62606901Y-48418287D01*
X62603442Y-48410031D01*
X62604105Y-48174960D01*
X62607555Y-48166699D01*
X62614931Y-48163328D01*
X62917705Y-48140692D01*
X62926210Y-48143492D01*
G37*
%TD.AperFunction*%
%TD*%
%TA.AperFunction,Conductor*%
%TO.N,FAULTZ*%
G36*
X62608232Y-48416845D02*
G01*
X62774154Y-48584100D01*
X62777548Y-48592386D01*
X62775554Y-48598873D01*
X62550356Y-48933402D01*
X62542893Y-48938351D01*
X62534116Y-48936574D01*
X62532377Y-48935141D01*
X62334086Y-48736850D01*
X62330659Y-48728577D01*
X62330692Y-48727705D01*
X62340919Y-48590913D01*
X62353328Y-48424931D01*
X62357362Y-48416938D01*
X62364960Y-48414105D01*
X62599951Y-48413442D01*
X62608232Y-48416845D01*
G37*
%TD.AperFunction*%
%TD*%
%TA.AperFunction,Conductor*%
%TO.N,FAULTZ*%
G36*
X69927858Y-43066781D02*
G01*
X69932163Y-43072001D01*
X70023245Y-43289619D01*
X70023278Y-43298574D01*
X70023245Y-43298653D01*
X69932163Y-43516270D01*
X69925807Y-43522579D01*
X69919073Y-43523225D01*
X69533539Y-43446019D01*
X69526099Y-43441035D01*
X69524136Y-43434547D01*
X69524136Y-43153724D01*
X69527563Y-43145451D01*
X69533536Y-43142253D01*
X69919075Y-43065046D01*
X69927858Y-43066781D01*
G37*
%TD.AperFunction*%
%TD*%
%TA.AperFunction,Conductor*%
%TO.N,FAULTZ*%
G36*
X62608232Y-48416845D02*
G01*
X62710740Y-48520177D01*
X62774137Y-48584083D01*
X62777531Y-48592370D01*
X62775521Y-48598880D01*
X62546465Y-48937352D01*
X62538990Y-48942283D01*
X62530218Y-48940485D01*
X62528502Y-48939068D01*
X62330241Y-48740807D01*
X62326814Y-48732534D01*
X62326857Y-48731532D01*
X62338818Y-48592370D01*
X62353219Y-48424802D01*
X62357342Y-48416854D01*
X62364840Y-48414105D01*
X62599951Y-48413442D01*
X62608232Y-48416845D01*
G37*
%TD.AperFunction*%
%TD*%
%TA.AperFunction,Conductor*%
%TO.N,SCK*%
G36*
X92902570Y-46802319D02*
G01*
X93120311Y-46891571D01*
X93126667Y-46897880D01*
X93126700Y-46897960D01*
X93215951Y-47115700D01*
X93215918Y-47124654D01*
X93211030Y-47130237D01*
X92866765Y-47331521D01*
X92857894Y-47332739D01*
X92852587Y-47329694D01*
X92688577Y-47165684D01*
X92685150Y-47157411D01*
X92686748Y-47151510D01*
X92888035Y-46807239D01*
X92895168Y-46801828D01*
X92902570Y-46802319D01*
G37*
%TD.AperFunction*%
%TD*%
%TA.AperFunction,Conductor*%
%TO.N,SCK*%
G36*
X92448380Y-48097563D02*
G01*
X92451425Y-48102870D01*
X92552528Y-48488631D01*
X92551310Y-48497502D01*
X92545727Y-48502390D01*
X92328653Y-48593245D01*
X92319699Y-48593278D01*
X92319619Y-48593245D01*
X92102544Y-48502390D01*
X92096235Y-48496034D01*
X92095743Y-48488631D01*
X92196847Y-48102870D01*
X92202260Y-48095736D01*
X92208165Y-48094136D01*
X92440107Y-48094136D01*
X92448380Y-48097563D01*
G37*
%TD.AperFunction*%
%TD*%
%TA.AperFunction,Conductor*%
%TO.N,TR_CTRL*%
G36*
X80978404Y-37041298D02*
G01*
X81176973Y-37239867D01*
X81180400Y-37248140D01*
X81178437Y-37254628D01*
X80960417Y-37581836D01*
X80952977Y-37586820D01*
X80946243Y-37586174D01*
X80727960Y-37496700D01*
X80721604Y-37490391D01*
X80721571Y-37490311D01*
X80632097Y-37272026D01*
X80632130Y-37263074D01*
X80636432Y-37257857D01*
X80963643Y-37039833D01*
X80972428Y-37038099D01*
X80978404Y-37041298D01*
G37*
%TD.AperFunction*%
%TD*%
%TA.AperFunction,Conductor*%
%TO.N,TR_CTRL*%
G36*
X50324735Y-103052253D02*
G01*
X50332173Y-103057236D01*
X50334136Y-103063724D01*
X50334136Y-103344547D01*
X50330709Y-103352820D01*
X50324733Y-103356019D01*
X49939198Y-103433225D01*
X49930413Y-103431490D01*
X49926109Y-103426271D01*
X49835025Y-103208651D01*
X49834993Y-103199699D01*
X49926109Y-102981999D01*
X49932463Y-102975692D01*
X49939195Y-102975046D01*
X50324735Y-103052253D01*
G37*
%TD.AperFunction*%
%TD*%
%TA.AperFunction,Conductor*%
%TO.N,TR_CTRL*%
G36*
X97428404Y-93291298D02*
G01*
X97626973Y-93489867D01*
X97630400Y-93498140D01*
X97628437Y-93504628D01*
X97410417Y-93831836D01*
X97402977Y-93836820D01*
X97396243Y-93836174D01*
X97177960Y-93746700D01*
X97171604Y-93740391D01*
X97171571Y-93740311D01*
X97082097Y-93522026D01*
X97082130Y-93513074D01*
X97086432Y-93507857D01*
X97413643Y-93289833D01*
X97422428Y-93288099D01*
X97428404Y-93291298D01*
G37*
%TD.AperFunction*%
%TD*%
%TA.AperFunction,Conductor*%
%TO.N,TR_CTRL*%
G36*
X96955885Y-93653678D02*
G01*
X97143166Y-93730441D01*
X97171945Y-93742238D01*
X97175804Y-93744814D01*
X97342922Y-93912877D01*
X97346326Y-93921160D01*
X97343136Y-93929156D01*
X97127599Y-94157623D01*
X97119430Y-94161289D01*
X97119089Y-94161294D01*
X96838863Y-94161294D01*
X96830590Y-94157867D01*
X96827163Y-94149594D01*
X96827466Y-94146949D01*
X96879872Y-93921160D01*
X96940057Y-93661859D01*
X96945265Y-93654577D01*
X96954098Y-93653109D01*
X96955885Y-93653678D01*
G37*
%TD.AperFunction*%
%TD*%
%TA.AperFunction,Conductor*%
%TO.N,-3V3_EN*%
G36*
X83146271Y-65886109D02*
G01*
X83152579Y-65892464D01*
X83153225Y-65899198D01*
X83076019Y-66284733D01*
X83071035Y-66292173D01*
X83064547Y-66294136D01*
X82783725Y-66294136D01*
X82775452Y-66290709D01*
X82772253Y-66284733D01*
X82769462Y-66270798D01*
X82695046Y-65899196D01*
X82696781Y-65890413D01*
X82701998Y-65886110D01*
X82919620Y-65795025D01*
X82928572Y-65794993D01*
X83146271Y-65886109D01*
G37*
%TD.AperFunction*%
%TD*%
%TA.AperFunction,Conductor*%
%TO.N,-3V3_EN*%
G36*
X85336511Y-75301364D02*
G01*
X85525494Y-75417960D01*
X85671360Y-75507954D01*
X85676602Y-75515214D01*
X85676043Y-75522349D01*
X85585743Y-75742647D01*
X85583157Y-75746515D01*
X85417182Y-75911167D01*
X85408895Y-75914561D01*
X85400636Y-75911101D01*
X85399382Y-75909606D01*
X85284324Y-75746515D01*
X85122184Y-75516687D01*
X85120216Y-75507953D01*
X85123470Y-75501673D01*
X85322096Y-75303047D01*
X85330368Y-75299621D01*
X85336511Y-75301364D01*
G37*
%TD.AperFunction*%
%TD*%
%TA.AperFunction,Conductor*%
%TO.N,-3V3_EN*%
G36*
X81313028Y-32622074D02*
G01*
X81320341Y-32627240D01*
X81322147Y-32633485D01*
X81322147Y-32914361D01*
X81318720Y-32922634D01*
X81312529Y-32925873D01*
X80837860Y-33011655D01*
X80829110Y-33009755D01*
X80824266Y-33002223D01*
X80824080Y-33000189D01*
X80823145Y-32766510D01*
X80824051Y-32761948D01*
X80916014Y-32542226D01*
X80922370Y-32535918D01*
X80929387Y-32535332D01*
X81313028Y-32622074D01*
G37*
%TD.AperFunction*%
%TD*%
%TA.AperFunction,Conductor*%
%TO.N,-3V3_EN*%
G36*
X87187026Y-35417096D02*
G01*
X87405311Y-35506571D01*
X87411667Y-35512880D01*
X87411700Y-35512960D01*
X87501174Y-35731243D01*
X87501141Y-35740197D01*
X87496836Y-35745417D01*
X87169628Y-35963437D01*
X87160843Y-35965172D01*
X87154867Y-35961973D01*
X86956298Y-35763404D01*
X86952871Y-35755131D01*
X86954834Y-35748643D01*
X87172856Y-35421433D01*
X87180294Y-35416451D01*
X87187026Y-35417096D01*
G37*
%TD.AperFunction*%
%TD*%
%TA.AperFunction,Conductor*%
%TO.N,-3V3_EN*%
G36*
X87184628Y-32939834D02*
G01*
X87309159Y-33022809D01*
X87511837Y-33157855D01*
X87516820Y-33165294D01*
X87516174Y-33172028D01*
X87426700Y-33390311D01*
X87420391Y-33396667D01*
X87420311Y-33396700D01*
X87202028Y-33486174D01*
X87193074Y-33486141D01*
X87187855Y-33481837D01*
X87052809Y-33279159D01*
X86969834Y-33154628D01*
X86968099Y-33145843D01*
X86971296Y-33139869D01*
X87169868Y-32941297D01*
X87178140Y-32937871D01*
X87184628Y-32939834D01*
G37*
%TD.AperFunction*%
%TD*%
%TA.AperFunction,Conductor*%
%TO.N,-3V3_EN*%
G36*
X83072820Y-65297563D02*
G01*
X83076019Y-65303539D01*
X83153225Y-65689073D01*
X83151490Y-65697858D01*
X83146270Y-65702163D01*
X82928653Y-65793245D01*
X82919699Y-65793278D01*
X82919619Y-65793245D01*
X82702001Y-65702163D01*
X82695692Y-65695808D01*
X82695046Y-65689075D01*
X82772253Y-65303539D01*
X82777237Y-65296099D01*
X82783725Y-65294136D01*
X83064547Y-65294136D01*
X83072820Y-65297563D01*
G37*
%TD.AperFunction*%
%TD*%
%TA.AperFunction,Conductor*%
%TO.N,+1V65*%
G36*
X98587858Y-56966781D02*
G01*
X98592163Y-56972001D01*
X98683245Y-57189619D01*
X98683278Y-57198574D01*
X98683245Y-57198653D01*
X98592163Y-57416270D01*
X98585807Y-57422579D01*
X98579073Y-57423225D01*
X98193539Y-57346019D01*
X98186099Y-57341035D01*
X98184136Y-57334547D01*
X98184136Y-57053724D01*
X98187563Y-57045451D01*
X98193536Y-57042253D01*
X98579075Y-56965046D01*
X98587858Y-56966781D01*
G37*
%TD.AperFunction*%
%TD*%
%TA.AperFunction,Conductor*%
%TO.N,+1V65*%
G36*
X62346271Y-57586109D02*
G01*
X62352579Y-57592464D01*
X62353225Y-57599198D01*
X62276019Y-57984733D01*
X62271035Y-57992173D01*
X62264547Y-57994136D01*
X61983725Y-57994136D01*
X61975452Y-57990709D01*
X61972253Y-57984733D01*
X61969462Y-57970798D01*
X61895046Y-57599196D01*
X61896781Y-57590413D01*
X61901998Y-57586110D01*
X62119620Y-57495025D01*
X62128572Y-57494993D01*
X62346271Y-57586109D01*
G37*
%TD.AperFunction*%
%TD*%
%TA.AperFunction,Conductor*%
%TO.N,+1V65*%
G36*
X61170320Y-60585063D02*
G01*
X61173519Y-60591039D01*
X61250725Y-60976573D01*
X61248990Y-60985358D01*
X61243770Y-60989663D01*
X61026153Y-61080745D01*
X61017199Y-61080778D01*
X61017119Y-61080745D01*
X60799501Y-60989663D01*
X60793192Y-60983308D01*
X60792546Y-60976575D01*
X60869753Y-60591039D01*
X60874737Y-60583599D01*
X60881225Y-60581636D01*
X61162047Y-60581636D01*
X61170320Y-60585063D01*
G37*
%TD.AperFunction*%
%TD*%
%TA.AperFunction,Conductor*%
%TO.N,+1V65*%
G36*
X85678404Y-58241298D02*
G01*
X85876973Y-58439867D01*
X85880400Y-58448140D01*
X85878437Y-58454628D01*
X85660417Y-58781836D01*
X85652977Y-58786820D01*
X85646243Y-58786174D01*
X85427960Y-58696700D01*
X85421604Y-58690391D01*
X85421571Y-58690311D01*
X85332097Y-58472026D01*
X85332130Y-58463074D01*
X85336432Y-58457857D01*
X85663643Y-58239833D01*
X85672428Y-58238099D01*
X85678404Y-58241298D01*
G37*
%TD.AperFunction*%
%TD*%
%TA.AperFunction,Conductor*%
%TO.N,PWR_AMP_V_FB*%
G36*
X74755197Y-39602130D02*
G01*
X74760415Y-39606434D01*
X74817143Y-39691571D01*
X74978437Y-39933643D01*
X74980172Y-39942428D01*
X74976973Y-39948404D01*
X74778404Y-40146973D01*
X74770131Y-40150400D01*
X74763643Y-40148437D01*
X74560203Y-40012884D01*
X74436434Y-39930416D01*
X74431451Y-39922977D01*
X74432096Y-39916245D01*
X74521572Y-39697958D01*
X74527879Y-39691604D01*
X74746245Y-39602097D01*
X74755197Y-39602130D01*
G37*
%TD.AperFunction*%
%TD*%
%TA.AperFunction,Conductor*%
%TO.N,PWR_AMP_V_FB*%
G36*
X69542026Y-55202096D02*
G01*
X69760311Y-55291571D01*
X69766667Y-55297880D01*
X69766700Y-55297960D01*
X69856174Y-55516243D01*
X69856141Y-55525197D01*
X69851836Y-55530417D01*
X69524628Y-55748437D01*
X69515843Y-55750172D01*
X69509867Y-55746973D01*
X69311298Y-55548404D01*
X69307871Y-55540131D01*
X69309834Y-55533643D01*
X69527856Y-55206433D01*
X69535294Y-55201451D01*
X69542026Y-55202096D01*
G37*
%TD.AperFunction*%
%TD*%
%TA.AperFunction,Conductor*%
%TO.N,PWR_AMP_V_FB*%
G36*
X75312820Y-47207563D02*
G01*
X75316019Y-47213539D01*
X75393225Y-47599073D01*
X75391490Y-47607858D01*
X75386270Y-47612163D01*
X75168653Y-47703245D01*
X75159699Y-47703278D01*
X75159619Y-47703245D01*
X74942001Y-47612163D01*
X74935692Y-47605808D01*
X74935046Y-47599075D01*
X75012253Y-47213539D01*
X75017237Y-47206099D01*
X75023725Y-47204136D01*
X75304547Y-47204136D01*
X75312820Y-47207563D01*
G37*
%TD.AperFunction*%
%TD*%
%TA.AperFunction,Conductor*%
%TO.N,PWR_AMP_V_FB*%
G36*
X75386271Y-47796109D02*
G01*
X75392579Y-47802464D01*
X75393225Y-47809198D01*
X75316019Y-48194733D01*
X75311035Y-48202173D01*
X75304547Y-48204136D01*
X75023725Y-48204136D01*
X75015452Y-48200709D01*
X75012253Y-48194733D01*
X75009462Y-48180798D01*
X74935046Y-47809196D01*
X74936781Y-47800413D01*
X74941998Y-47796110D01*
X75159620Y-47705025D01*
X75168572Y-47704993D01*
X75386271Y-47796109D01*
G37*
%TD.AperFunction*%
%TD*%
%TA.AperFunction,Conductor*%
%TO.N,PWR_AMP_V_FB*%
G36*
X75312820Y-53857563D02*
G01*
X75316019Y-53863539D01*
X75393225Y-54249073D01*
X75391490Y-54257858D01*
X75386270Y-54262163D01*
X75168653Y-54353245D01*
X75159699Y-54353278D01*
X75159619Y-54353245D01*
X74942001Y-54262163D01*
X74935692Y-54255808D01*
X74935046Y-54249075D01*
X75012253Y-53863539D01*
X75017237Y-53856099D01*
X75023725Y-53854136D01*
X75304547Y-53854136D01*
X75312820Y-53857563D01*
G37*
%TD.AperFunction*%
%TD*%
%TA.AperFunction,Conductor*%
%TO.N,PWR_AMP_V_FB*%
G36*
X67822587Y-60500049D02*
G01*
X67825837Y-60506295D01*
X67909231Y-60980464D01*
X67907289Y-60989206D01*
X67899735Y-60994014D01*
X67897755Y-60994191D01*
X67664010Y-60995126D01*
X67659446Y-60994219D01*
X67439784Y-60902281D01*
X67433475Y-60895925D01*
X67432905Y-60888838D01*
X67522031Y-60505670D01*
X67527243Y-60498390D01*
X67533427Y-60496622D01*
X67814314Y-60496622D01*
X67822587Y-60500049D01*
G37*
%TD.AperFunction*%
%TD*%
%TA.AperFunction,Conductor*%
%TO.N,Net-(JP6-B)*%
G36*
X107227858Y-78806781D02*
G01*
X107232163Y-78812001D01*
X107323245Y-79029619D01*
X107323278Y-79038574D01*
X107323245Y-79038653D01*
X107232163Y-79256270D01*
X107225807Y-79262579D01*
X107219073Y-79263225D01*
X106833539Y-79186019D01*
X106826099Y-79181035D01*
X106824136Y-79174547D01*
X106824136Y-78893724D01*
X106827563Y-78885451D01*
X106833536Y-78882253D01*
X107219075Y-78805046D01*
X107227858Y-78806781D01*
G37*
%TD.AperFunction*%
%TD*%
%TA.AperFunction,Conductor*%
%TO.N,Net-(TP25-Pad1)*%
G36*
X54913688Y-38222777D02*
G01*
X55130311Y-38311571D01*
X55136667Y-38317880D01*
X55136700Y-38317960D01*
X55225493Y-38534582D01*
X55225460Y-38543536D01*
X55219408Y-38549715D01*
X54840954Y-38717469D01*
X54832002Y-38717689D01*
X54827940Y-38715046D01*
X54733225Y-38620331D01*
X54729798Y-38612058D01*
X54730801Y-38607321D01*
X54898557Y-38228861D01*
X54905041Y-38222688D01*
X54913688Y-38222777D01*
G37*
%TD.AperFunction*%
%TD*%
%TA.AperFunction,Conductor*%
%TO.N,Net-(TP26-Pad1)*%
G36*
X55402026Y-42902096D02*
G01*
X55620311Y-42991571D01*
X55626667Y-42997880D01*
X55626700Y-42997960D01*
X55716174Y-43216243D01*
X55716141Y-43225197D01*
X55711836Y-43230417D01*
X55384628Y-43448437D01*
X55375843Y-43450172D01*
X55369867Y-43446973D01*
X55171298Y-43248404D01*
X55167871Y-43240131D01*
X55169834Y-43233643D01*
X55387856Y-42906433D01*
X55395294Y-42901451D01*
X55402026Y-42902096D01*
G37*
%TD.AperFunction*%
%TD*%
%TA.AperFunction,Conductor*%
%TO.N,Net-(U4-EN)*%
G36*
X54862026Y-37352096D02*
G01*
X55080311Y-37441571D01*
X55086667Y-37447880D01*
X55086700Y-37447960D01*
X55176174Y-37666243D01*
X55176141Y-37675197D01*
X55171836Y-37680417D01*
X54844628Y-37898437D01*
X54835843Y-37900172D01*
X54829867Y-37896973D01*
X54631298Y-37698404D01*
X54627871Y-37690131D01*
X54629834Y-37683643D01*
X54847856Y-37356433D01*
X54855294Y-37351451D01*
X54862026Y-37352096D01*
G37*
%TD.AperFunction*%
%TD*%
%TA.AperFunction,Conductor*%
%TO.N,Net-(TP28-Pad1)*%
G36*
X55607570Y-39327234D02*
G01*
X55608867Y-39328791D01*
X55884218Y-39724531D01*
X55886130Y-39733278D01*
X55882887Y-39739485D01*
X55684276Y-39938096D01*
X55676003Y-39941523D01*
X55669775Y-39939728D01*
X55336794Y-39730343D01*
X55331614Y-39723038D01*
X55332195Y-39716004D01*
X55422531Y-39495619D01*
X55425111Y-39491760D01*
X55591026Y-39327167D01*
X55599311Y-39323774D01*
X55607570Y-39327234D01*
G37*
%TD.AperFunction*%
%TD*%
%TA.AperFunction,Conductor*%
%TO.N,/DC-DC/26V_COMP*%
G36*
X43127502Y-57566961D02*
G01*
X43132390Y-57572544D01*
X43223245Y-57789619D01*
X43223278Y-57798573D01*
X43223245Y-57798653D01*
X43132390Y-58015727D01*
X43126034Y-58022036D01*
X43118631Y-58022528D01*
X42732870Y-57921425D01*
X42725736Y-57916012D01*
X42724136Y-57910107D01*
X42724136Y-57678164D01*
X42727563Y-57669891D01*
X42732867Y-57666847D01*
X43118631Y-57565743D01*
X43127502Y-57566961D01*
G37*
%TD.AperFunction*%
%TD*%
%TA.AperFunction,Conductor*%
%TO.N,/DC-DC/26V_COMP*%
G36*
X33986761Y-59556749D02*
G01*
X34331030Y-59758034D01*
X34336443Y-59765168D01*
X34335951Y-59772571D01*
X34246700Y-59990311D01*
X34240391Y-59996667D01*
X34240311Y-59996700D01*
X34022571Y-60085951D01*
X34013617Y-60085918D01*
X34008034Y-60081030D01*
X33806749Y-59736762D01*
X33805532Y-59727894D01*
X33808575Y-59722589D01*
X33972588Y-59558576D01*
X33980860Y-59555150D01*
X33986761Y-59556749D01*
G37*
%TD.AperFunction*%
%TD*%
M02*
