%TF.GenerationSoftware,KiCad,Pcbnew,8.0.6*%
%TF.CreationDate,2025-01-23T19:41:03-07:00*%
%TF.ProjectId,UAM,55414d2e-6b69-4636-9164-5f7063625858,rev?*%
%TF.SameCoordinates,Original*%
%TF.FileFunction,Legend,Bot*%
%TF.FilePolarity,Positive*%
%FSLAX46Y46*%
G04 Gerber Fmt 4.6, Leading zero omitted, Abs format (unit mm)*
G04 Created by KiCad (PCBNEW 8.0.6) date 2025-01-23 19:41:03*
%MOMM*%
%LPD*%
G01*
G04 APERTURE LIST*
G04 Aperture macros list*
%AMHorizOval*
0 Thick line with rounded ends*
0 $1 width*
0 $2 $3 position (X,Y) of the first rounded end (center of the circle)*
0 $4 $5 position (X,Y) of the second rounded end (center of the circle)*
0 Add line between two ends*
20,1,$1,$2,$3,$4,$5,0*
0 Add two circle primitives to create the rounded ends*
1,1,$1,$2,$3*
1,1,$1,$4,$5*%
%AMFreePoly0*
4,1,19,0.000000,0.744911,0.071157,0.744911,0.207708,0.704816,0.327430,0.627875,0.420627,0.520320,0.479746,0.390866,0.500000,0.250000,0.500000,-0.250000,0.479746,-0.390866,0.420627,-0.520320,0.327430,-0.627875,0.207708,-0.704816,0.071157,-0.744911,0.000000,-0.744911,0.000000,-0.750000,-0.500000,-0.750000,-0.500000,0.750000,0.000000,0.750000,0.000000,0.744911,0.000000,0.744911,
$1*%
%AMFreePoly1*
4,1,19,0.500000,-0.750000,0.000000,-0.750000,0.000000,-0.744911,-0.071157,-0.744911,-0.207708,-0.704816,-0.327430,-0.627875,-0.420627,-0.520320,-0.479746,-0.390866,-0.500000,-0.250000,-0.500000,0.250000,-0.479746,0.390866,-0.420627,0.520320,-0.327430,0.627875,-0.207708,0.704816,-0.071157,0.744911,0.000000,0.744911,0.000000,0.750000,0.500000,0.750000,0.500000,-0.750000,0.500000,-0.750000,
$1*%
G04 Aperture macros list end*
%ADD10C,0.154000*%
%ADD11C,0.150000*%
%ADD12C,0.120000*%
%ADD13C,2.700000*%
%ADD14O,1.000000X1.000000*%
%ADD15R,1.000000X1.000000*%
%ADD16C,1.600000*%
%ADD17R,1.600000X1.600000*%
%ADD18C,2.000000*%
%ADD19R,2.000000X2.000000*%
%ADD20HorizOval,0.900000X-0.175000X-0.303109X0.175000X0.303109X0*%
%ADD21C,1.905000*%
%ADD22C,1.000000*%
%ADD23FreePoly0,180.000000*%
%ADD24FreePoly1,180.000000*%
%ADD25FreePoly0,0.000000*%
%ADD26FreePoly1,0.000000*%
G04 APERTURE END LIST*
D10*
X90586040Y-37892148D02*
X90014612Y-37892148D01*
X90300326Y-38908148D02*
X90300326Y-37892148D01*
X89681278Y-38908148D02*
X89681278Y-37892148D01*
X89681278Y-37892148D02*
X89300326Y-37892148D01*
X89300326Y-37892148D02*
X89205088Y-37940529D01*
X89205088Y-37940529D02*
X89157469Y-37988910D01*
X89157469Y-37988910D02*
X89109850Y-38085672D01*
X89109850Y-38085672D02*
X89109850Y-38230815D01*
X89109850Y-38230815D02*
X89157469Y-38327577D01*
X89157469Y-38327577D02*
X89205088Y-38375958D01*
X89205088Y-38375958D02*
X89300326Y-38424339D01*
X89300326Y-38424339D02*
X89681278Y-38424339D01*
X88538421Y-38327577D02*
X88633659Y-38279196D01*
X88633659Y-38279196D02*
X88681278Y-38230815D01*
X88681278Y-38230815D02*
X88728897Y-38134053D01*
X88728897Y-38134053D02*
X88728897Y-38085672D01*
X88728897Y-38085672D02*
X88681278Y-37988910D01*
X88681278Y-37988910D02*
X88633659Y-37940529D01*
X88633659Y-37940529D02*
X88538421Y-37892148D01*
X88538421Y-37892148D02*
X88347945Y-37892148D01*
X88347945Y-37892148D02*
X88252707Y-37940529D01*
X88252707Y-37940529D02*
X88205088Y-37988910D01*
X88205088Y-37988910D02*
X88157469Y-38085672D01*
X88157469Y-38085672D02*
X88157469Y-38134053D01*
X88157469Y-38134053D02*
X88205088Y-38230815D01*
X88205088Y-38230815D02*
X88252707Y-38279196D01*
X88252707Y-38279196D02*
X88347945Y-38327577D01*
X88347945Y-38327577D02*
X88538421Y-38327577D01*
X88538421Y-38327577D02*
X88633659Y-38375958D01*
X88633659Y-38375958D02*
X88681278Y-38424339D01*
X88681278Y-38424339D02*
X88728897Y-38521101D01*
X88728897Y-38521101D02*
X88728897Y-38714625D01*
X88728897Y-38714625D02*
X88681278Y-38811387D01*
X88681278Y-38811387D02*
X88633659Y-38859768D01*
X88633659Y-38859768D02*
X88538421Y-38908148D01*
X88538421Y-38908148D02*
X88347945Y-38908148D01*
X88347945Y-38908148D02*
X88252707Y-38859768D01*
X88252707Y-38859768D02*
X88205088Y-38811387D01*
X88205088Y-38811387D02*
X88157469Y-38714625D01*
X88157469Y-38714625D02*
X88157469Y-38521101D01*
X88157469Y-38521101D02*
X88205088Y-38424339D01*
X88205088Y-38424339D02*
X88252707Y-38375958D01*
X88252707Y-38375958D02*
X88347945Y-38327577D01*
X104962230Y-57292148D02*
X104390802Y-57292148D01*
X104676516Y-58308148D02*
X104676516Y-57292148D01*
X104057468Y-58308148D02*
X104057468Y-57292148D01*
X104057468Y-57292148D02*
X103676516Y-57292148D01*
X103676516Y-57292148D02*
X103581278Y-57340529D01*
X103581278Y-57340529D02*
X103533659Y-57388910D01*
X103533659Y-57388910D02*
X103486040Y-57485672D01*
X103486040Y-57485672D02*
X103486040Y-57630815D01*
X103486040Y-57630815D02*
X103533659Y-57727577D01*
X103533659Y-57727577D02*
X103581278Y-57775958D01*
X103581278Y-57775958D02*
X103676516Y-57824339D01*
X103676516Y-57824339D02*
X104057468Y-57824339D01*
X102533659Y-58308148D02*
X103105087Y-58308148D01*
X102819373Y-58308148D02*
X102819373Y-57292148D01*
X102819373Y-57292148D02*
X102914611Y-57437291D01*
X102914611Y-57437291D02*
X103009849Y-57534053D01*
X103009849Y-57534053D02*
X103105087Y-57582434D01*
X101676516Y-57630815D02*
X101676516Y-58308148D01*
X101914611Y-57243768D02*
X102152706Y-57969482D01*
X102152706Y-57969482D02*
X101533659Y-57969482D01*
D11*
X58352230Y-38680955D02*
X57780802Y-38680955D01*
X58066516Y-39680955D02*
X58066516Y-38680955D01*
X57447468Y-39680955D02*
X57447468Y-38680955D01*
X57447468Y-38680955D02*
X57066516Y-38680955D01*
X57066516Y-38680955D02*
X56971278Y-38728574D01*
X56971278Y-38728574D02*
X56923659Y-38776193D01*
X56923659Y-38776193D02*
X56876040Y-38871431D01*
X56876040Y-38871431D02*
X56876040Y-39014288D01*
X56876040Y-39014288D02*
X56923659Y-39109526D01*
X56923659Y-39109526D02*
X56971278Y-39157145D01*
X56971278Y-39157145D02*
X57066516Y-39204764D01*
X57066516Y-39204764D02*
X57447468Y-39204764D01*
X56495087Y-38776193D02*
X56447468Y-38728574D01*
X56447468Y-38728574D02*
X56352230Y-38680955D01*
X56352230Y-38680955D02*
X56114135Y-38680955D01*
X56114135Y-38680955D02*
X56018897Y-38728574D01*
X56018897Y-38728574D02*
X55971278Y-38776193D01*
X55971278Y-38776193D02*
X55923659Y-38871431D01*
X55923659Y-38871431D02*
X55923659Y-38966669D01*
X55923659Y-38966669D02*
X55971278Y-39109526D01*
X55971278Y-39109526D02*
X56542706Y-39680955D01*
X56542706Y-39680955D02*
X55923659Y-39680955D01*
X55352230Y-39109526D02*
X55447468Y-39061907D01*
X55447468Y-39061907D02*
X55495087Y-39014288D01*
X55495087Y-39014288D02*
X55542706Y-38919050D01*
X55542706Y-38919050D02*
X55542706Y-38871431D01*
X55542706Y-38871431D02*
X55495087Y-38776193D01*
X55495087Y-38776193D02*
X55447468Y-38728574D01*
X55447468Y-38728574D02*
X55352230Y-38680955D01*
X55352230Y-38680955D02*
X55161754Y-38680955D01*
X55161754Y-38680955D02*
X55066516Y-38728574D01*
X55066516Y-38728574D02*
X55018897Y-38776193D01*
X55018897Y-38776193D02*
X54971278Y-38871431D01*
X54971278Y-38871431D02*
X54971278Y-38919050D01*
X54971278Y-38919050D02*
X55018897Y-39014288D01*
X55018897Y-39014288D02*
X55066516Y-39061907D01*
X55066516Y-39061907D02*
X55161754Y-39109526D01*
X55161754Y-39109526D02*
X55352230Y-39109526D01*
X55352230Y-39109526D02*
X55447468Y-39157145D01*
X55447468Y-39157145D02*
X55495087Y-39204764D01*
X55495087Y-39204764D02*
X55542706Y-39300002D01*
X55542706Y-39300002D02*
X55542706Y-39490478D01*
X55542706Y-39490478D02*
X55495087Y-39585716D01*
X55495087Y-39585716D02*
X55447468Y-39633336D01*
X55447468Y-39633336D02*
X55352230Y-39680955D01*
X55352230Y-39680955D02*
X55161754Y-39680955D01*
X55161754Y-39680955D02*
X55066516Y-39633336D01*
X55066516Y-39633336D02*
X55018897Y-39585716D01*
X55018897Y-39585716D02*
X54971278Y-39490478D01*
X54971278Y-39490478D02*
X54971278Y-39300002D01*
X54971278Y-39300002D02*
X55018897Y-39204764D01*
X55018897Y-39204764D02*
X55066516Y-39157145D01*
X55066516Y-39157145D02*
X55161754Y-39109526D01*
D10*
X61657469Y-93540148D02*
X61657469Y-94265863D01*
X61657469Y-94265863D02*
X61705088Y-94411006D01*
X61705088Y-94411006D02*
X61800326Y-94507768D01*
X61800326Y-94507768D02*
X61943183Y-94556148D01*
X61943183Y-94556148D02*
X62038421Y-94556148D01*
X61181278Y-94556148D02*
X61181278Y-93540148D01*
X61181278Y-93540148D02*
X60800326Y-93540148D01*
X60800326Y-93540148D02*
X60705088Y-93588529D01*
X60705088Y-93588529D02*
X60657469Y-93636910D01*
X60657469Y-93636910D02*
X60609850Y-93733672D01*
X60609850Y-93733672D02*
X60609850Y-93878815D01*
X60609850Y-93878815D02*
X60657469Y-93975577D01*
X60657469Y-93975577D02*
X60705088Y-94023958D01*
X60705088Y-94023958D02*
X60800326Y-94072339D01*
X60800326Y-94072339D02*
X61181278Y-94072339D01*
X60276516Y-93540148D02*
X59657469Y-93540148D01*
X59657469Y-93540148D02*
X59990802Y-93927196D01*
X59990802Y-93927196D02*
X59847945Y-93927196D01*
X59847945Y-93927196D02*
X59752707Y-93975577D01*
X59752707Y-93975577D02*
X59705088Y-94023958D01*
X59705088Y-94023958D02*
X59657469Y-94120720D01*
X59657469Y-94120720D02*
X59657469Y-94362625D01*
X59657469Y-94362625D02*
X59705088Y-94459387D01*
X59705088Y-94459387D02*
X59752707Y-94507768D01*
X59752707Y-94507768D02*
X59847945Y-94556148D01*
X59847945Y-94556148D02*
X60133659Y-94556148D01*
X60133659Y-94556148D02*
X60228897Y-94507768D01*
X60228897Y-94507768D02*
X60276516Y-94459387D01*
X61457469Y-96040148D02*
X61457469Y-96765863D01*
X61457469Y-96765863D02*
X61505088Y-96911006D01*
X61505088Y-96911006D02*
X61600326Y-97007768D01*
X61600326Y-97007768D02*
X61743183Y-97056148D01*
X61743183Y-97056148D02*
X61838421Y-97056148D01*
X60981278Y-97056148D02*
X60981278Y-96040148D01*
X60981278Y-96040148D02*
X60600326Y-96040148D01*
X60600326Y-96040148D02*
X60505088Y-96088529D01*
X60505088Y-96088529D02*
X60457469Y-96136910D01*
X60457469Y-96136910D02*
X60409850Y-96233672D01*
X60409850Y-96233672D02*
X60409850Y-96378815D01*
X60409850Y-96378815D02*
X60457469Y-96475577D01*
X60457469Y-96475577D02*
X60505088Y-96523958D01*
X60505088Y-96523958D02*
X60600326Y-96572339D01*
X60600326Y-96572339D02*
X60981278Y-96572339D01*
X59552707Y-96378815D02*
X59552707Y-97056148D01*
X59790802Y-95991768D02*
X60028897Y-96717482D01*
X60028897Y-96717482D02*
X59409850Y-96717482D01*
X61457469Y-98540148D02*
X61457469Y-99265863D01*
X61457469Y-99265863D02*
X61505088Y-99411006D01*
X61505088Y-99411006D02*
X61600326Y-99507768D01*
X61600326Y-99507768D02*
X61743183Y-99556148D01*
X61743183Y-99556148D02*
X61838421Y-99556148D01*
X60981278Y-99556148D02*
X60981278Y-98540148D01*
X60981278Y-98540148D02*
X60600326Y-98540148D01*
X60600326Y-98540148D02*
X60505088Y-98588529D01*
X60505088Y-98588529D02*
X60457469Y-98636910D01*
X60457469Y-98636910D02*
X60409850Y-98733672D01*
X60409850Y-98733672D02*
X60409850Y-98878815D01*
X60409850Y-98878815D02*
X60457469Y-98975577D01*
X60457469Y-98975577D02*
X60505088Y-99023958D01*
X60505088Y-99023958D02*
X60600326Y-99072339D01*
X60600326Y-99072339D02*
X60981278Y-99072339D01*
X59505088Y-98540148D02*
X59981278Y-98540148D01*
X59981278Y-98540148D02*
X60028897Y-99023958D01*
X60028897Y-99023958D02*
X59981278Y-98975577D01*
X59981278Y-98975577D02*
X59886040Y-98927196D01*
X59886040Y-98927196D02*
X59647945Y-98927196D01*
X59647945Y-98927196D02*
X59552707Y-98975577D01*
X59552707Y-98975577D02*
X59505088Y-99023958D01*
X59505088Y-99023958D02*
X59457469Y-99120720D01*
X59457469Y-99120720D02*
X59457469Y-99362625D01*
X59457469Y-99362625D02*
X59505088Y-99459387D01*
X59505088Y-99459387D02*
X59552707Y-99507768D01*
X59552707Y-99507768D02*
X59647945Y-99556148D01*
X59647945Y-99556148D02*
X59886040Y-99556148D01*
X59886040Y-99556148D02*
X59981278Y-99507768D01*
X59981278Y-99507768D02*
X60028897Y-99459387D01*
D11*
X55562230Y-40300955D02*
X54990802Y-40300955D01*
X55276516Y-41300955D02*
X55276516Y-40300955D01*
X54657468Y-41300955D02*
X54657468Y-40300955D01*
X54657468Y-40300955D02*
X54276516Y-40300955D01*
X54276516Y-40300955D02*
X54181278Y-40348574D01*
X54181278Y-40348574D02*
X54133659Y-40396193D01*
X54133659Y-40396193D02*
X54086040Y-40491431D01*
X54086040Y-40491431D02*
X54086040Y-40634288D01*
X54086040Y-40634288D02*
X54133659Y-40729526D01*
X54133659Y-40729526D02*
X54181278Y-40777145D01*
X54181278Y-40777145D02*
X54276516Y-40824764D01*
X54276516Y-40824764D02*
X54657468Y-40824764D01*
X53705087Y-40396193D02*
X53657468Y-40348574D01*
X53657468Y-40348574D02*
X53562230Y-40300955D01*
X53562230Y-40300955D02*
X53324135Y-40300955D01*
X53324135Y-40300955D02*
X53228897Y-40348574D01*
X53228897Y-40348574D02*
X53181278Y-40396193D01*
X53181278Y-40396193D02*
X53133659Y-40491431D01*
X53133659Y-40491431D02*
X53133659Y-40586669D01*
X53133659Y-40586669D02*
X53181278Y-40729526D01*
X53181278Y-40729526D02*
X53752706Y-41300955D01*
X53752706Y-41300955D02*
X53133659Y-41300955D01*
X52800325Y-40300955D02*
X52133659Y-40300955D01*
X52133659Y-40300955D02*
X52562230Y-41300955D01*
D10*
X106457469Y-80348747D02*
X106457469Y-81063032D01*
X106457469Y-81063032D02*
X106505088Y-81205889D01*
X106505088Y-81205889D02*
X106600326Y-81301128D01*
X106600326Y-81301128D02*
X106743183Y-81348747D01*
X106743183Y-81348747D02*
X106838421Y-81348747D01*
X105981278Y-81348747D02*
X105981278Y-80348747D01*
X105981278Y-80348747D02*
X105600326Y-80348747D01*
X105600326Y-80348747D02*
X105505088Y-80396366D01*
X105505088Y-80396366D02*
X105457469Y-80443985D01*
X105457469Y-80443985D02*
X105409850Y-80539223D01*
X105409850Y-80539223D02*
X105409850Y-80682080D01*
X105409850Y-80682080D02*
X105457469Y-80777318D01*
X105457469Y-80777318D02*
X105505088Y-80824937D01*
X105505088Y-80824937D02*
X105600326Y-80872556D01*
X105600326Y-80872556D02*
X105981278Y-80872556D01*
X104552707Y-80348747D02*
X104743183Y-80348747D01*
X104743183Y-80348747D02*
X104838421Y-80396366D01*
X104838421Y-80396366D02*
X104886040Y-80443985D01*
X104886040Y-80443985D02*
X104981278Y-80586842D01*
X104981278Y-80586842D02*
X105028897Y-80777318D01*
X105028897Y-80777318D02*
X105028897Y-81158270D01*
X105028897Y-81158270D02*
X104981278Y-81253508D01*
X104981278Y-81253508D02*
X104933659Y-81301128D01*
X104933659Y-81301128D02*
X104838421Y-81348747D01*
X104838421Y-81348747D02*
X104647945Y-81348747D01*
X104647945Y-81348747D02*
X104552707Y-81301128D01*
X104552707Y-81301128D02*
X104505088Y-81253508D01*
X104505088Y-81253508D02*
X104457469Y-81158270D01*
X104457469Y-81158270D02*
X104457469Y-80920175D01*
X104457469Y-80920175D02*
X104505088Y-80824937D01*
X104505088Y-80824937D02*
X104552707Y-80777318D01*
X104552707Y-80777318D02*
X104647945Y-80729699D01*
X104647945Y-80729699D02*
X104838421Y-80729699D01*
X104838421Y-80729699D02*
X104933659Y-80777318D01*
X104933659Y-80777318D02*
X104981278Y-80824937D01*
X104981278Y-80824937D02*
X105028897Y-80920175D01*
X90586040Y-40992148D02*
X90014612Y-40992148D01*
X90300326Y-42008148D02*
X90300326Y-40992148D01*
X89681278Y-42008148D02*
X89681278Y-40992148D01*
X89681278Y-40992148D02*
X89300326Y-40992148D01*
X89300326Y-40992148D02*
X89205088Y-41040529D01*
X89205088Y-41040529D02*
X89157469Y-41088910D01*
X89157469Y-41088910D02*
X89109850Y-41185672D01*
X89109850Y-41185672D02*
X89109850Y-41330815D01*
X89109850Y-41330815D02*
X89157469Y-41427577D01*
X89157469Y-41427577D02*
X89205088Y-41475958D01*
X89205088Y-41475958D02*
X89300326Y-41524339D01*
X89300326Y-41524339D02*
X89681278Y-41524339D01*
X88633659Y-42008148D02*
X88443183Y-42008148D01*
X88443183Y-42008148D02*
X88347945Y-41959768D01*
X88347945Y-41959768D02*
X88300326Y-41911387D01*
X88300326Y-41911387D02*
X88205088Y-41766244D01*
X88205088Y-41766244D02*
X88157469Y-41572720D01*
X88157469Y-41572720D02*
X88157469Y-41185672D01*
X88157469Y-41185672D02*
X88205088Y-41088910D01*
X88205088Y-41088910D02*
X88252707Y-41040529D01*
X88252707Y-41040529D02*
X88347945Y-40992148D01*
X88347945Y-40992148D02*
X88538421Y-40992148D01*
X88538421Y-40992148D02*
X88633659Y-41040529D01*
X88633659Y-41040529D02*
X88681278Y-41088910D01*
X88681278Y-41088910D02*
X88728897Y-41185672D01*
X88728897Y-41185672D02*
X88728897Y-41427577D01*
X88728897Y-41427577D02*
X88681278Y-41524339D01*
X88681278Y-41524339D02*
X88633659Y-41572720D01*
X88633659Y-41572720D02*
X88538421Y-41621101D01*
X88538421Y-41621101D02*
X88347945Y-41621101D01*
X88347945Y-41621101D02*
X88252707Y-41572720D01*
X88252707Y-41572720D02*
X88205088Y-41524339D01*
X88205088Y-41524339D02*
X88157469Y-41427577D01*
D11*
X55862230Y-43348955D02*
X55290802Y-43348955D01*
X55576516Y-44348955D02*
X55576516Y-43348955D01*
X54957468Y-44348955D02*
X54957468Y-43348955D01*
X54957468Y-43348955D02*
X54576516Y-43348955D01*
X54576516Y-43348955D02*
X54481278Y-43396574D01*
X54481278Y-43396574D02*
X54433659Y-43444193D01*
X54433659Y-43444193D02*
X54386040Y-43539431D01*
X54386040Y-43539431D02*
X54386040Y-43682288D01*
X54386040Y-43682288D02*
X54433659Y-43777526D01*
X54433659Y-43777526D02*
X54481278Y-43825145D01*
X54481278Y-43825145D02*
X54576516Y-43872764D01*
X54576516Y-43872764D02*
X54957468Y-43872764D01*
X54005087Y-43444193D02*
X53957468Y-43396574D01*
X53957468Y-43396574D02*
X53862230Y-43348955D01*
X53862230Y-43348955D02*
X53624135Y-43348955D01*
X53624135Y-43348955D02*
X53528897Y-43396574D01*
X53528897Y-43396574D02*
X53481278Y-43444193D01*
X53481278Y-43444193D02*
X53433659Y-43539431D01*
X53433659Y-43539431D02*
X53433659Y-43634669D01*
X53433659Y-43634669D02*
X53481278Y-43777526D01*
X53481278Y-43777526D02*
X54052706Y-44348955D01*
X54052706Y-44348955D02*
X53433659Y-44348955D01*
X52576516Y-43348955D02*
X52766992Y-43348955D01*
X52766992Y-43348955D02*
X52862230Y-43396574D01*
X52862230Y-43396574D02*
X52909849Y-43444193D01*
X52909849Y-43444193D02*
X53005087Y-43587050D01*
X53005087Y-43587050D02*
X53052706Y-43777526D01*
X53052706Y-43777526D02*
X53052706Y-44158478D01*
X53052706Y-44158478D02*
X53005087Y-44253716D01*
X53005087Y-44253716D02*
X52957468Y-44301336D01*
X52957468Y-44301336D02*
X52862230Y-44348955D01*
X52862230Y-44348955D02*
X52671754Y-44348955D01*
X52671754Y-44348955D02*
X52576516Y-44301336D01*
X52576516Y-44301336D02*
X52528897Y-44253716D01*
X52528897Y-44253716D02*
X52481278Y-44158478D01*
X52481278Y-44158478D02*
X52481278Y-43920383D01*
X52481278Y-43920383D02*
X52528897Y-43825145D01*
X52528897Y-43825145D02*
X52576516Y-43777526D01*
X52576516Y-43777526D02*
X52671754Y-43729907D01*
X52671754Y-43729907D02*
X52862230Y-43729907D01*
X52862230Y-43729907D02*
X52957468Y-43777526D01*
X52957468Y-43777526D02*
X53005087Y-43825145D01*
X53005087Y-43825145D02*
X53052706Y-43920383D01*
X59462230Y-42800955D02*
X58890802Y-42800955D01*
X59176516Y-43800955D02*
X59176516Y-42800955D01*
X58557468Y-43800955D02*
X58557468Y-42800955D01*
X58557468Y-42800955D02*
X58176516Y-42800955D01*
X58176516Y-42800955D02*
X58081278Y-42848574D01*
X58081278Y-42848574D02*
X58033659Y-42896193D01*
X58033659Y-42896193D02*
X57986040Y-42991431D01*
X57986040Y-42991431D02*
X57986040Y-43134288D01*
X57986040Y-43134288D02*
X58033659Y-43229526D01*
X58033659Y-43229526D02*
X58081278Y-43277145D01*
X58081278Y-43277145D02*
X58176516Y-43324764D01*
X58176516Y-43324764D02*
X58557468Y-43324764D01*
X57605087Y-42896193D02*
X57557468Y-42848574D01*
X57557468Y-42848574D02*
X57462230Y-42800955D01*
X57462230Y-42800955D02*
X57224135Y-42800955D01*
X57224135Y-42800955D02*
X57128897Y-42848574D01*
X57128897Y-42848574D02*
X57081278Y-42896193D01*
X57081278Y-42896193D02*
X57033659Y-42991431D01*
X57033659Y-42991431D02*
X57033659Y-43086669D01*
X57033659Y-43086669D02*
X57081278Y-43229526D01*
X57081278Y-43229526D02*
X57652706Y-43800955D01*
X57652706Y-43800955D02*
X57033659Y-43800955D01*
X56128897Y-42800955D02*
X56605087Y-42800955D01*
X56605087Y-42800955D02*
X56652706Y-43277145D01*
X56652706Y-43277145D02*
X56605087Y-43229526D01*
X56605087Y-43229526D02*
X56509849Y-43181907D01*
X56509849Y-43181907D02*
X56271754Y-43181907D01*
X56271754Y-43181907D02*
X56176516Y-43229526D01*
X56176516Y-43229526D02*
X56128897Y-43277145D01*
X56128897Y-43277145D02*
X56081278Y-43372383D01*
X56081278Y-43372383D02*
X56081278Y-43610478D01*
X56081278Y-43610478D02*
X56128897Y-43705716D01*
X56128897Y-43705716D02*
X56176516Y-43753336D01*
X56176516Y-43753336D02*
X56271754Y-43800955D01*
X56271754Y-43800955D02*
X56509849Y-43800955D01*
X56509849Y-43800955D02*
X56605087Y-43753336D01*
X56605087Y-43753336D02*
X56652706Y-43705716D01*
D12*
%TO.C,TP8*%
X90024136Y-39894136D02*
G75*
G02*
X88624136Y-39894136I-700000J0D01*
G01*
X88624136Y-39894136D02*
G75*
G02*
X90024136Y-39894136I700000J0D01*
G01*
%TO.C,TP14*%
X103924136Y-59294136D02*
G75*
G02*
X102524136Y-59294136I-700000J0D01*
G01*
X102524136Y-59294136D02*
G75*
G02*
X103924136Y-59294136I700000J0D01*
G01*
%TO.C,TP28*%
X57314136Y-40674136D02*
G75*
G02*
X55914136Y-40674136I-700000J0D01*
G01*
X55914136Y-40674136D02*
G75*
G02*
X57314136Y-40674136I700000J0D01*
G01*
%TO.C,JP3*%
X58974136Y-94394136D02*
G75*
G02*
X58274136Y-95094136I-699999J-1D01*
G01*
X58274136Y-93094136D02*
G75*
G02*
X58974136Y-93794136I1J-699999D01*
G01*
X56874136Y-95094136D02*
G75*
G02*
X56174136Y-94394136I0J700000D01*
G01*
X56174136Y-93794136D02*
G75*
G02*
X56874136Y-93094136I700000J0D01*
G01*
X58974136Y-93794136D02*
X58974136Y-94394136D01*
X58274136Y-95094136D02*
X56874136Y-95094136D01*
X56874136Y-93094136D02*
X58274136Y-93094136D01*
X56174136Y-94394136D02*
X56174136Y-93794136D01*
%TO.C,JP4*%
X58974136Y-96894136D02*
G75*
G02*
X58274136Y-97594136I-699999J-1D01*
G01*
X58274136Y-95594136D02*
G75*
G02*
X58974136Y-96294136I1J-699999D01*
G01*
X56874136Y-97594136D02*
G75*
G02*
X56174136Y-96894136I0J700000D01*
G01*
X56174136Y-96294136D02*
G75*
G02*
X56874136Y-95594136I700000J0D01*
G01*
X58974136Y-96294136D02*
X58974136Y-96894136D01*
X58274136Y-97594136D02*
X56874136Y-97594136D01*
X56874136Y-95594136D02*
X58274136Y-95594136D01*
X56174136Y-96894136D02*
X56174136Y-96294136D01*
%TO.C,JP5*%
X58974136Y-99394136D02*
G75*
G02*
X58274136Y-100094136I-699999J-1D01*
G01*
X58274136Y-98094136D02*
G75*
G02*
X58974136Y-98794136I1J-699999D01*
G01*
X56874136Y-100094136D02*
G75*
G02*
X56174136Y-99394136I0J700000D01*
G01*
X56174136Y-98794136D02*
G75*
G02*
X56874136Y-98094136I700000J0D01*
G01*
X58974136Y-98794136D02*
X58974136Y-99394136D01*
X58274136Y-100094136D02*
X56874136Y-100094136D01*
X56874136Y-98094136D02*
X58274136Y-98094136D01*
X56174136Y-99394136D02*
X56174136Y-98794136D01*
%TO.C,TP27*%
X54524136Y-42294136D02*
G75*
G02*
X53124136Y-42294136I-700000J0D01*
G01*
X53124136Y-42294136D02*
G75*
G02*
X54524136Y-42294136I700000J0D01*
G01*
%TO.C,JP6*%
X107024136Y-79394136D02*
G75*
G02*
X106324136Y-80094136I-700000J0D01*
G01*
X106324136Y-78094136D02*
G75*
G02*
X107024136Y-78794136I0J-700000D01*
G01*
X104924136Y-80094136D02*
G75*
G02*
X104224136Y-79394136I-1J699999D01*
G01*
X104224136Y-78794136D02*
G75*
G02*
X104924136Y-78094136I699999J1D01*
G01*
X107024136Y-78794136D02*
X107024136Y-79394136D01*
X106324136Y-80094136D02*
X104924136Y-80094136D01*
X104924136Y-78094136D02*
X106324136Y-78094136D01*
X104224136Y-79394136D02*
X104224136Y-78794136D01*
%TO.C,TP9*%
X90024136Y-42994136D02*
G75*
G02*
X88624136Y-42994136I-700000J0D01*
G01*
X88624136Y-42994136D02*
G75*
G02*
X90024136Y-42994136I700000J0D01*
G01*
%TO.C,TP26*%
X55524136Y-45494136D02*
G75*
G02*
X54124136Y-45494136I-700000J0D01*
G01*
X54124136Y-45494136D02*
G75*
G02*
X55524136Y-45494136I700000J0D01*
G01*
%TO.C,TP25*%
X58424136Y-44794136D02*
G75*
G02*
X57024136Y-44794136I-700000J0D01*
G01*
X57024136Y-44794136D02*
G75*
G02*
X58424136Y-44794136I700000J0D01*
G01*
%TD*%
%LPC*%
D13*
%TO.C,H3*%
X98624136Y-31394136D03*
%TD*%
D14*
%TO.C,J2*%
X71321636Y-18564136D03*
X71321636Y-17294136D03*
X72591636Y-18564136D03*
X72591636Y-17294136D03*
X73861636Y-18564136D03*
X73861636Y-17294136D03*
X75131636Y-18564136D03*
X75131636Y-17294136D03*
X76401636Y-18564136D03*
D15*
X76401636Y-17294136D03*
%TD*%
D16*
%TO.C,C57*%
X42724136Y-68511757D03*
D17*
X42724136Y-66011757D03*
%TD*%
D13*
%TO.C,H1*%
X59624136Y-55994136D03*
%TD*%
D18*
%TO.C,C86*%
X33924136Y-79194136D03*
D19*
X33924136Y-84194136D03*
%TD*%
D18*
%TO.C,J3*%
X30411636Y-47929136D03*
D19*
X30411636Y-50469136D03*
%TD*%
D18*
%TO.C,C78*%
X60156459Y-89894136D03*
D19*
X55156459Y-89894136D03*
%TD*%
D20*
%TO.C,J1*%
X90027022Y-19644136D03*
X95742790Y-22944136D03*
%TD*%
D18*
%TO.C,J4*%
X71764136Y-104294136D03*
X69224136Y-104294136D03*
D19*
X66684136Y-104294136D03*
%TD*%
D13*
%TO.C,H2*%
X85524136Y-87894136D03*
%TD*%
D21*
%TO.C,J5*%
X86384136Y-50454136D03*
X86384136Y-52994136D03*
X86384136Y-55534136D03*
X78764136Y-60614136D03*
X76224136Y-60614136D03*
X73684136Y-60614136D03*
X66064136Y-55534136D03*
X66064136Y-52994136D03*
X66064136Y-50454136D03*
%TD*%
D22*
%TO.C,TP8*%
X89324136Y-39894136D03*
%TD*%
%TO.C,TP14*%
X103224136Y-59294136D03*
%TD*%
%TO.C,TP28*%
X56614136Y-40674136D03*
%TD*%
D23*
%TO.C,JP3*%
X56924136Y-94094136D03*
D24*
X58224136Y-94094136D03*
%TD*%
D23*
%TO.C,JP4*%
X56924136Y-96594136D03*
D24*
X58224136Y-96594136D03*
%TD*%
D23*
%TO.C,JP5*%
X56924136Y-99094136D03*
D24*
X58224136Y-99094136D03*
%TD*%
D22*
%TO.C,TP27*%
X53824136Y-42294136D03*
%TD*%
D25*
%TO.C,JP6*%
X106274136Y-79094136D03*
D26*
X104974136Y-79094136D03*
%TD*%
D22*
%TO.C,TP9*%
X89324136Y-42994136D03*
%TD*%
%TO.C,TP26*%
X54824136Y-45494136D03*
%TD*%
%TO.C,TP25*%
X57724136Y-44794136D03*
%TD*%
%LPD*%
M02*
