%TF.GenerationSoftware,KiCad,Pcbnew,8.0.6*%
%TF.CreationDate,2025-01-23T19:41:03-07:00*%
%TF.ProjectId,UAM,55414d2e-6b69-4636-9164-5f7063625858,rev?*%
%TF.SameCoordinates,Original*%
%TF.FileFunction,Paste,Top*%
%TF.FilePolarity,Positive*%
%FSLAX46Y46*%
G04 Gerber Fmt 4.6, Leading zero omitted, Abs format (unit mm)*
G04 Created by KiCad (PCBNEW 8.0.6) date 2025-01-23 19:41:03*
%MOMM*%
%LPD*%
G01*
G04 APERTURE LIST*
G04 Aperture macros list*
%AMRoundRect*
0 Rectangle with rounded corners*
0 $1 Rounding radius*
0 $2 $3 $4 $5 $6 $7 $8 $9 X,Y pos of 4 corners*
0 Add a 4 corners polygon primitive as box body*
4,1,4,$2,$3,$4,$5,$6,$7,$8,$9,$2,$3,0*
0 Add four circle primitives for the rounded corners*
1,1,$1+$1,$2,$3*
1,1,$1+$1,$4,$5*
1,1,$1+$1,$6,$7*
1,1,$1+$1,$8,$9*
0 Add four rect primitives between the rounded corners*
20,1,$1+$1,$2,$3,$4,$5,0*
20,1,$1+$1,$4,$5,$6,$7,0*
20,1,$1+$1,$6,$7,$8,$9,0*
20,1,$1+$1,$8,$9,$2,$3,0*%
%AMHorizOval*
0 Thick line with rounded ends*
0 $1 width*
0 $2 $3 position (X,Y) of the first rounded end (center of the circle)*
0 $4 $5 position (X,Y) of the second rounded end (center of the circle)*
0 Add line between two ends*
20,1,$1,$2,$3,$4,$5,0*
0 Add two circle primitives to create the rounded ends*
1,1,$1,$2,$3*
1,1,$1,$4,$5*%
G04 Aperture macros list end*
%ADD10C,0.000000*%
%ADD11RoundRect,0.250000X-0.450000X0.350000X-0.450000X-0.350000X0.450000X-0.350000X0.450000X0.350000X0*%
%ADD12RoundRect,0.250000X1.100000X-0.412500X1.100000X0.412500X-1.100000X0.412500X-1.100000X-0.412500X0*%
%ADD13RoundRect,0.075000X-0.075000X-0.725000X0.075000X-0.725000X0.075000X0.725000X-0.075000X0.725000X0*%
%ADD14RoundRect,0.075000X-0.725000X-0.075000X0.725000X-0.075000X0.725000X0.075000X-0.725000X0.075000X0*%
%ADD15RoundRect,0.250000X-1.100000X0.412500X-1.100000X-0.412500X1.100000X-0.412500X1.100000X0.412500X0*%
%ADD16RoundRect,0.237500X0.300000X0.237500X-0.300000X0.237500X-0.300000X-0.237500X0.300000X-0.237500X0*%
%ADD17RoundRect,0.237500X-0.250000X-0.237500X0.250000X-0.237500X0.250000X0.237500X-0.250000X0.237500X0*%
%ADD18RoundRect,0.237500X0.237500X-0.300000X0.237500X0.300000X-0.237500X0.300000X-0.237500X-0.300000X0*%
%ADD19RoundRect,0.237500X0.250000X0.237500X-0.250000X0.237500X-0.250000X-0.237500X0.250000X-0.237500X0*%
%ADD20R,5.689600X1.600200*%
%ADD21RoundRect,0.237500X-0.237500X0.300000X-0.237500X-0.300000X0.237500X-0.300000X0.237500X0.300000X0*%
%ADD22RoundRect,0.237500X-0.237500X0.250000X-0.237500X-0.250000X0.237500X-0.250000X0.237500X0.250000X0*%
%ADD23RoundRect,0.062500X0.337500X-0.062500X0.337500X0.062500X-0.337500X0.062500X-0.337500X-0.062500X0*%
%ADD24RoundRect,0.062500X0.062500X-0.337500X0.062500X0.337500X-0.062500X0.337500X-0.062500X-0.337500X0*%
%ADD25RoundRect,0.250000X0.455000X-0.455000X0.455000X0.455000X-0.455000X0.455000X-0.455000X-0.455000X0*%
%ADD26RoundRect,0.237500X-0.300000X-0.237500X0.300000X-0.237500X0.300000X0.237500X-0.300000X0.237500X0*%
%ADD27RoundRect,0.437500X-0.437500X-2.362500X0.437500X-2.362500X0.437500X2.362500X-0.437500X2.362500X0*%
%ADD28R,2.900000X5.400000*%
%ADD29RoundRect,0.237500X0.237500X-0.250000X0.237500X0.250000X-0.237500X0.250000X-0.237500X-0.250000X0*%
%ADD30RoundRect,0.150000X-0.150000X0.825000X-0.150000X-0.825000X0.150000X-0.825000X0.150000X0.825000X0*%
%ADD31R,1.500000X0.550000*%
%ADD32RoundRect,0.150000X-0.512500X-0.150000X0.512500X-0.150000X0.512500X0.150000X-0.512500X0.150000X0*%
%ADD33RoundRect,0.250000X0.337500X0.475000X-0.337500X0.475000X-0.337500X-0.475000X0.337500X-0.475000X0*%
%ADD34RoundRect,0.250000X-0.550000X0.250000X-0.550000X-0.250000X0.550000X-0.250000X0.550000X0.250000X0*%
%ADD35R,4.860000X3.360000*%
%ADD36R,1.400000X1.390000*%
%ADD37RoundRect,0.250000X-0.475000X0.337500X-0.475000X-0.337500X0.475000X-0.337500X0.475000X0.337500X0*%
%ADD38RoundRect,0.150000X0.150000X-0.512500X0.150000X0.512500X-0.150000X0.512500X-0.150000X-0.512500X0*%
%ADD39RoundRect,0.250000X-1.450000X0.537500X-1.450000X-0.537500X1.450000X-0.537500X1.450000X0.537500X0*%
%ADD40RoundRect,0.125000X-0.537500X-0.125000X0.537500X-0.125000X0.537500X0.125000X-0.537500X0.125000X0*%
%ADD41RoundRect,0.237500X0.287500X0.237500X-0.287500X0.237500X-0.287500X-0.237500X0.287500X-0.237500X0*%
%ADD42RoundRect,0.250000X-0.337500X-0.475000X0.337500X-0.475000X0.337500X0.475000X-0.337500X0.475000X0*%
%ADD43RoundRect,0.250000X0.475000X-0.337500X0.475000X0.337500X-0.475000X0.337500X-0.475000X-0.337500X0*%
%ADD44RoundRect,0.093750X0.093750X0.106250X-0.093750X0.106250X-0.093750X-0.106250X0.093750X-0.106250X0*%
%ADD45RoundRect,0.160000X0.245000X0.160000X-0.245000X0.160000X-0.245000X-0.160000X0.245000X-0.160000X0*%
%ADD46RoundRect,0.090000X0.660000X0.360000X-0.660000X0.360000X-0.660000X-0.360000X0.660000X-0.360000X0*%
%ADD47RoundRect,0.075000X-0.075000X-0.200000X0.075000X-0.200000X0.075000X0.200000X-0.075000X0.200000X0*%
%ADD48RoundRect,0.250000X-0.650000X1.000000X-0.650000X-1.000000X0.650000X-1.000000X0.650000X1.000000X0*%
%ADD49RoundRect,0.250000X-0.412500X-1.100000X0.412500X-1.100000X0.412500X1.100000X-0.412500X1.100000X0*%
%ADD50RoundRect,0.200000X0.700000X0.200000X-0.700000X0.200000X-0.700000X-0.200000X0.700000X-0.200000X0*%
%ADD51RoundRect,0.162500X-0.617500X-0.162500X0.617500X-0.162500X0.617500X0.162500X-0.617500X0.162500X0*%
%ADD52RoundRect,0.250000X1.000000X0.650000X-1.000000X0.650000X-1.000000X-0.650000X1.000000X-0.650000X0*%
%ADD53RoundRect,0.249999X-2.450001X0.737501X-2.450001X-0.737501X2.450001X-0.737501X2.450001X0.737501X0*%
%ADD54RoundRect,0.075000X0.075000X0.200000X-0.075000X0.200000X-0.075000X-0.200000X0.075000X-0.200000X0*%
%ADD55HorizOval,0.900000X-0.175000X-0.303109X0.175000X0.303109X0*%
%ADD56RoundRect,0.250000X0.701314X0.114711X-0.251314X0.664711X-0.701314X-0.114711X0.251314X-0.664711X0*%
%ADD57RoundRect,0.250000X0.956218X0.256218X-0.256218X0.956218X-0.956218X-0.256218X0.256218X-0.956218X0*%
%ADD58RoundRect,0.100000X0.374103X0.447965X0.200897X0.547965X-0.374103X-0.447965X-0.200897X-0.547965X0*%
%ADD59R,1.100000X0.250000*%
%ADD60RoundRect,0.100000X0.275000X0.100000X-0.275000X0.100000X-0.275000X-0.100000X0.275000X-0.100000X0*%
%ADD61RoundRect,0.125000X0.250000X0.125000X-0.250000X0.125000X-0.250000X-0.125000X0.250000X-0.125000X0*%
%ADD62RoundRect,0.375000X0.375000X0.375000X-0.375000X0.375000X-0.375000X-0.375000X0.375000X-0.375000X0*%
%ADD63R,1.701800X1.397000*%
%ADD64RoundRect,0.150000X-0.587500X-0.150000X0.587500X-0.150000X0.587500X0.150000X-0.587500X0.150000X0*%
%ADD65R,1.397000X1.701800*%
%ADD66RoundRect,0.093750X-0.106250X0.093750X-0.106250X-0.093750X0.106250X-0.093750X0.106250X0.093750X0*%
%ADD67RoundRect,0.160000X-0.160000X0.245000X-0.160000X-0.245000X0.160000X-0.245000X0.160000X0.245000X0*%
%ADD68RoundRect,0.062500X-0.187500X-0.062500X0.187500X-0.062500X0.187500X0.062500X-0.187500X0.062500X0*%
%ADD69R,0.950000X1.170000*%
%ADD70R,0.399999X0.800001*%
%ADD71R,0.800001X0.399999*%
%ADD72R,1.100000X0.499999*%
%ADD73RoundRect,0.054500X-0.860500X-0.490500X0.860500X-0.490500X0.860500X0.490500X-0.860500X0.490500X0*%
%ADD74R,1.830000X1.090000*%
%ADD75R,1.300000X1.600000*%
%ADD76RoundRect,0.100000X-0.225000X-0.100000X0.225000X-0.100000X0.225000X0.100000X-0.225000X0.100000X0*%
%ADD77RoundRect,0.237500X-0.287500X-0.237500X0.287500X-0.237500X0.287500X0.237500X-0.287500X0.237500X0*%
G04 APERTURE END LIST*
D10*
%TO.C,U4*%
G36*
X52121389Y-37945096D02*
G01*
X52130770Y-37947941D01*
X52139413Y-37952561D01*
X52146990Y-37958779D01*
X52153208Y-37966356D01*
X52157831Y-37974999D01*
X52160675Y-37984380D01*
X52161636Y-37994136D01*
X52161636Y-38894136D01*
X52160675Y-38903890D01*
X52157831Y-38913270D01*
X52153208Y-38921914D01*
X52146990Y-38929491D01*
X52139413Y-38935709D01*
X52130770Y-38940329D01*
X52121389Y-38943174D01*
X52111636Y-38944136D01*
X51811636Y-38944136D01*
X51801883Y-38943174D01*
X51792502Y-38940329D01*
X51783859Y-38935709D01*
X51776282Y-38929491D01*
X51770064Y-38921914D01*
X51765441Y-38913270D01*
X51762597Y-38903890D01*
X51761636Y-38894136D01*
X51761636Y-37994136D01*
X51762597Y-37984380D01*
X51765441Y-37974999D01*
X51770064Y-37966356D01*
X51776282Y-37958779D01*
X51783859Y-37952561D01*
X51792502Y-37947941D01*
X51801883Y-37945096D01*
X51811636Y-37944136D01*
X52111636Y-37944136D01*
X52121389Y-37945096D01*
G37*
G36*
X54161637Y-42194137D02*
G01*
X54161637Y-42394137D01*
X54111637Y-42444137D01*
X53836636Y-42444137D01*
X53786636Y-42394137D01*
X53786636Y-42194137D01*
X53836636Y-42144138D01*
X54111637Y-42144138D01*
X54161637Y-42194137D01*
G37*
G36*
X54161637Y-41544139D02*
G01*
X54161637Y-41744138D01*
X54111637Y-41794138D01*
X53836636Y-41794138D01*
X53786636Y-41744138D01*
X53786636Y-41544139D01*
X53836636Y-41494139D01*
X54111637Y-41494139D01*
X54161637Y-41544139D01*
G37*
G36*
X54161637Y-40894138D02*
G01*
X54161637Y-41094137D01*
X54111637Y-41144137D01*
X53836636Y-41144137D01*
X53786636Y-41094137D01*
X53786636Y-40894138D01*
X53836636Y-40844138D01*
X54111637Y-40844138D01*
X54161637Y-40894138D01*
G37*
G36*
X54161637Y-40244136D02*
G01*
X54161637Y-40444136D01*
X54111637Y-40494136D01*
X53836636Y-40494136D01*
X53786636Y-40444136D01*
X53786636Y-40244136D01*
X53836636Y-40194136D01*
X54111637Y-40194136D01*
X54161637Y-40244136D01*
G37*
G36*
X53586637Y-41874141D02*
G01*
X53586637Y-42384137D01*
X53536637Y-42434137D01*
X52716638Y-42434137D01*
X52666638Y-42384137D01*
X52666638Y-41874141D01*
X52716638Y-41824141D01*
X53536637Y-41824141D01*
X53586637Y-41874141D01*
G37*
G36*
X53586637Y-41064140D02*
G01*
X53586637Y-41574141D01*
X53536637Y-41624141D01*
X52716638Y-41624141D01*
X52666638Y-41574141D01*
X52666638Y-41064140D01*
X52716638Y-41014140D01*
X53536637Y-41014140D01*
X53586637Y-41064140D01*
G37*
G36*
X53586637Y-40254139D02*
G01*
X53586637Y-40764140D01*
X53536637Y-40814140D01*
X52716638Y-40814140D01*
X52666638Y-40764140D01*
X52666638Y-40254139D01*
X52716638Y-40204139D01*
X53536637Y-40204139D01*
X53586637Y-40254139D01*
G37*
G36*
X51256634Y-41874141D02*
G01*
X51256634Y-42384137D01*
X51206634Y-42434137D01*
X50386635Y-42434137D01*
X50336635Y-42384137D01*
X50336635Y-41874141D01*
X50386635Y-41824141D01*
X51206634Y-41824141D01*
X51256634Y-41874141D01*
G37*
G36*
X51256634Y-41064140D02*
G01*
X51256634Y-41574141D01*
X51206634Y-41624141D01*
X50386635Y-41624141D01*
X50336635Y-41574141D01*
X50336635Y-41064140D01*
X50386635Y-41014140D01*
X51206634Y-41014140D01*
X51256634Y-41064140D01*
G37*
G36*
X51256634Y-40254139D02*
G01*
X51256634Y-40764140D01*
X51206634Y-40814140D01*
X50386635Y-40814140D01*
X50336635Y-40764140D01*
X50336635Y-40254139D01*
X50386635Y-40204139D01*
X51206634Y-40204139D01*
X51256634Y-40254139D01*
G37*
G36*
X50136636Y-42194137D02*
G01*
X50136636Y-42394137D01*
X50086636Y-42444137D01*
X49811635Y-42444137D01*
X49761635Y-42394137D01*
X49761635Y-42194137D01*
X49811635Y-42144138D01*
X50086636Y-42144138D01*
X50136636Y-42194137D01*
G37*
G36*
X50136636Y-41544139D02*
G01*
X50136636Y-41744138D01*
X50086636Y-41794138D01*
X49811635Y-41794138D01*
X49761635Y-41744138D01*
X49761635Y-41544139D01*
X49811635Y-41494139D01*
X50086636Y-41494139D01*
X50136636Y-41544139D01*
G37*
G36*
X50136636Y-40894138D02*
G01*
X50136636Y-41094137D01*
X50086636Y-41144137D01*
X49811635Y-41144137D01*
X49761635Y-41094137D01*
X49761635Y-40894138D01*
X49811635Y-40844138D01*
X50086636Y-40844138D01*
X50136636Y-40894138D01*
G37*
G36*
X50136636Y-40244136D02*
G01*
X50136636Y-40444136D01*
X50086636Y-40494136D01*
X49811635Y-40494136D01*
X49761635Y-40444136D01*
X49761635Y-40244136D01*
X49811635Y-40194136D01*
X50086636Y-40194136D01*
X50136636Y-40244136D01*
G37*
%TD*%
D11*
%TO.C,R35*%
X38624136Y-74094136D03*
X38624136Y-72094136D03*
%TD*%
D12*
%TO.C,C55*%
X36224136Y-51531636D03*
X36224136Y-54656636D03*
%TD*%
D13*
%TO.C,U1*%
X65636636Y-26094136D03*
X66136636Y-26094136D03*
X66636636Y-26094136D03*
X67136636Y-26094136D03*
X67636636Y-26094136D03*
X68136636Y-26094136D03*
X68636636Y-26094136D03*
X69136636Y-26094136D03*
X69636636Y-26094136D03*
X70136636Y-26094136D03*
X70636636Y-26094136D03*
X71136636Y-26094136D03*
X71636636Y-26094136D03*
X72136636Y-26094136D03*
X72636636Y-26094136D03*
X73136636Y-26094136D03*
X73636636Y-26094136D03*
X74136636Y-26094136D03*
X74636636Y-26094136D03*
X75136636Y-26094136D03*
X75636636Y-26094136D03*
X76136636Y-26094136D03*
X76636636Y-26094136D03*
X77136636Y-26094136D03*
X77636636Y-26094136D03*
D14*
X79311636Y-27769136D03*
X79311636Y-28269136D03*
X79311636Y-28769136D03*
X79311636Y-29269136D03*
X79311636Y-29769136D03*
X79311636Y-30269136D03*
X79311636Y-30769136D03*
X79311636Y-31269136D03*
X79311636Y-31769136D03*
X79311636Y-32269136D03*
X79311636Y-32769136D03*
X79311636Y-33269136D03*
X79311636Y-33769136D03*
X79311636Y-34269136D03*
X79311636Y-34769136D03*
X79311636Y-35269136D03*
X79311636Y-35769136D03*
X79311636Y-36269136D03*
X79311636Y-36769136D03*
X79311636Y-37269136D03*
X79311636Y-37769136D03*
X79311636Y-38269136D03*
X79311636Y-38769136D03*
X79311636Y-39269136D03*
X79311636Y-39769136D03*
D13*
X77636636Y-41444136D03*
X77136636Y-41444136D03*
X76636636Y-41444136D03*
X76136636Y-41444136D03*
X75636636Y-41444136D03*
X75136636Y-41444136D03*
X74636636Y-41444136D03*
X74136636Y-41444136D03*
X73636636Y-41444136D03*
X73136636Y-41444136D03*
X72636636Y-41444136D03*
X72136636Y-41444136D03*
X71636636Y-41444136D03*
X71136636Y-41444136D03*
X70636636Y-41444136D03*
X70136636Y-41444136D03*
X69636636Y-41444136D03*
X69136636Y-41444136D03*
X68636636Y-41444136D03*
X68136636Y-41444136D03*
X67636636Y-41444136D03*
X67136636Y-41444136D03*
X66636636Y-41444136D03*
X66136636Y-41444136D03*
X65636636Y-41444136D03*
D14*
X63961636Y-39769136D03*
X63961636Y-39269136D03*
X63961636Y-38769136D03*
X63961636Y-38269136D03*
X63961636Y-37769136D03*
X63961636Y-37269136D03*
X63961636Y-36769136D03*
X63961636Y-36269136D03*
X63961636Y-35769136D03*
X63961636Y-35269136D03*
X63961636Y-34769136D03*
X63961636Y-34269136D03*
X63961636Y-33769136D03*
X63961636Y-33269136D03*
X63961636Y-32769136D03*
X63961636Y-32269136D03*
X63961636Y-31769136D03*
X63961636Y-31269136D03*
X63961636Y-30769136D03*
X63961636Y-30269136D03*
X63961636Y-29769136D03*
X63961636Y-29269136D03*
X63961636Y-28769136D03*
X63961636Y-28269136D03*
X63961636Y-27769136D03*
%TD*%
D15*
%TO.C,C17*%
X47224136Y-42756636D03*
X47224136Y-39631636D03*
%TD*%
D16*
%TO.C,C21*%
X46599136Y-46994136D03*
X48324136Y-46994136D03*
%TD*%
D17*
%TO.C,R57*%
X102636636Y-75944136D03*
X100811636Y-75944136D03*
%TD*%
D18*
%TO.C,C23*%
X85261636Y-34831636D03*
X85261636Y-36556636D03*
%TD*%
%TO.C,C68*%
X113424136Y-54231636D03*
X113424136Y-55956636D03*
%TD*%
D19*
%TO.C,R54*%
X69811636Y-47394136D03*
X71636636Y-47394136D03*
%TD*%
D18*
%TO.C,C93*%
X40424136Y-87194136D03*
X40424136Y-88919136D03*
%TD*%
D20*
%TO.C,L4*%
X44424136Y-74844636D03*
X44424136Y-79543636D03*
%TD*%
D15*
%TO.C,C14*%
X71824136Y-82156636D03*
X71824136Y-79031636D03*
%TD*%
D19*
%TO.C,R64*%
X94111636Y-91294136D03*
X95936636Y-91294136D03*
%TD*%
D17*
%TO.C,R33*%
X70936636Y-52094136D03*
X69111636Y-52094136D03*
%TD*%
D21*
%TO.C,C105*%
X36724136Y-89694136D03*
X36724136Y-87969136D03*
%TD*%
D22*
%TO.C,R45*%
X47564136Y-98506636D03*
X47564136Y-96681636D03*
%TD*%
%TO.C,R34*%
X40761636Y-51506636D03*
X40761636Y-49681636D03*
%TD*%
D17*
%TO.C,R32*%
X70936636Y-50494136D03*
X69111636Y-50494136D03*
%TD*%
D19*
%TO.C,R15*%
X39936636Y-30294136D03*
X41761636Y-30294136D03*
%TD*%
%TO.C,R19*%
X61311636Y-21894136D03*
X63136636Y-21894136D03*
%TD*%
D22*
%TO.C,R48*%
X46024136Y-98506636D03*
X46024136Y-96681636D03*
%TD*%
D23*
%TO.C,U18*%
X42274136Y-90844136D03*
X42274136Y-90344136D03*
X42274136Y-89844136D03*
X42274136Y-89344136D03*
X42274136Y-88844136D03*
X42274136Y-88344136D03*
X42274136Y-87844136D03*
X42274136Y-87344136D03*
D24*
X42974136Y-86644136D03*
X43474136Y-86644136D03*
X43974136Y-86644136D03*
X44474136Y-86644136D03*
X44974136Y-86644136D03*
X45474136Y-86644136D03*
X45974136Y-86644136D03*
X46474136Y-86644136D03*
D23*
X47174136Y-87344136D03*
X47174136Y-87844136D03*
X47174136Y-88344136D03*
X47174136Y-88844136D03*
X47174136Y-89344136D03*
X47174136Y-89844136D03*
X47174136Y-90344136D03*
X47174136Y-90844136D03*
D24*
X46474136Y-91544136D03*
X45974136Y-91544136D03*
X45474136Y-91544136D03*
X44974136Y-91544136D03*
X44474136Y-91544136D03*
X43974136Y-91544136D03*
X43474136Y-91544136D03*
X42974136Y-91544136D03*
D25*
X45599136Y-88219136D03*
X43849136Y-88219136D03*
X45599136Y-89969136D03*
X43849136Y-89969136D03*
%TD*%
D26*
%TO.C,C65*%
X110224136Y-61994136D03*
X108499136Y-61994136D03*
%TD*%
D17*
%TO.C,R74*%
X106736636Y-84394136D03*
X104911636Y-84394136D03*
%TD*%
D19*
%TO.C,R27*%
X40249136Y-58494136D03*
X42074136Y-58494136D03*
%TD*%
D27*
%TO.C,L1*%
X28924136Y-62694136D03*
X24749136Y-62694136D03*
%TD*%
D28*
%TO.C,L2*%
X76774136Y-90994136D03*
X66874136Y-90994136D03*
%TD*%
D17*
%TO.C,R65*%
X54536636Y-104094136D03*
X52711636Y-104094136D03*
%TD*%
D18*
%TO.C,C77*%
X51374136Y-86581636D03*
X51374136Y-88306636D03*
%TD*%
D19*
%TO.C,R73*%
X104911636Y-82694136D03*
X106736636Y-82694136D03*
%TD*%
D17*
%TO.C,R12*%
X48136636Y-29544136D03*
X46311636Y-29544136D03*
%TD*%
D16*
%TO.C,C109*%
X68999136Y-65494136D03*
X70724136Y-65494136D03*
%TD*%
D26*
%TO.C,C110*%
X76886636Y-48494136D03*
X75161636Y-48494136D03*
%TD*%
D29*
%TO.C,R8*%
X83561636Y-31681636D03*
X83561636Y-33506636D03*
%TD*%
D26*
%TO.C,C1*%
X66624136Y-24094136D03*
X64899136Y-24094136D03*
%TD*%
D22*
%TO.C,R22*%
X89824136Y-71919136D03*
X89824136Y-70094136D03*
%TD*%
D15*
%TO.C,C12*%
X75224136Y-82156636D03*
X75224136Y-79031636D03*
%TD*%
D21*
%TO.C,C31*%
X83024136Y-63494136D03*
X83024136Y-61769136D03*
%TD*%
D30*
%TO.C,U15*%
X101229136Y-58869136D03*
X99959136Y-58869136D03*
X98689136Y-58869136D03*
X97419136Y-58869136D03*
X97419136Y-53919136D03*
X98689136Y-53919136D03*
X99959136Y-53919136D03*
X101229136Y-53919136D03*
%TD*%
D17*
%TO.C,R30*%
X83636636Y-51994136D03*
X81811636Y-51994136D03*
%TD*%
D16*
%TO.C,C100*%
X103061636Y-72044136D03*
X104786636Y-72044136D03*
%TD*%
D31*
%TO.C,SW2*%
X59924136Y-23969136D03*
X59924136Y-27219136D03*
%TD*%
D16*
%TO.C,C15*%
X51999136Y-34994136D03*
X53724136Y-34994136D03*
%TD*%
D15*
%TO.C,C16*%
X43761636Y-42956636D03*
X43761636Y-39831636D03*
%TD*%
D29*
%TO.C,R10*%
X50261636Y-34794136D03*
X50261636Y-36619136D03*
%TD*%
D31*
%TO.C,SW1*%
X65124136Y-19019136D03*
X65124136Y-15769136D03*
%TD*%
D29*
%TO.C,R21*%
X48561636Y-34394136D03*
X48561636Y-36219136D03*
%TD*%
D17*
%TO.C,R52*%
X66336636Y-46794136D03*
X64511636Y-46794136D03*
%TD*%
D21*
%TO.C,C53*%
X49104136Y-59209136D03*
X49104136Y-57484136D03*
%TD*%
D32*
%TO.C,U14*%
X111661636Y-55744136D03*
X111661636Y-57644136D03*
X109386636Y-57644136D03*
X109386636Y-56694136D03*
X109386636Y-55744136D03*
%TD*%
D16*
%TO.C,C50*%
X85861636Y-69394136D03*
X87586636Y-69394136D03*
%TD*%
D29*
%TO.C,R6*%
X82124136Y-21581636D03*
X82124136Y-23406636D03*
%TD*%
D33*
%TO.C,C20*%
X46424136Y-45194136D03*
X48499136Y-45194136D03*
%TD*%
D18*
%TO.C,C95*%
X41724136Y-83131636D03*
X41724136Y-84856636D03*
%TD*%
D19*
%TO.C,R55*%
X51711636Y-69594136D03*
X53536636Y-69594136D03*
%TD*%
D29*
%TO.C,R56*%
X95224136Y-83181636D03*
X95224136Y-85006636D03*
%TD*%
D18*
%TO.C,C37*%
X90724136Y-60594136D03*
X90724136Y-62319136D03*
%TD*%
D26*
%TO.C,C88*%
X38486636Y-91364136D03*
X36761636Y-91364136D03*
%TD*%
D34*
%TO.C,SW3*%
X38211636Y-45144136D03*
X40711636Y-43394136D03*
X38211636Y-41644136D03*
%TD*%
D26*
%TO.C,C61*%
X42024136Y-55494136D03*
X40299136Y-55494136D03*
%TD*%
D35*
%TO.C,D8*%
X35524136Y-64159136D03*
D36*
X31542136Y-65079136D03*
X31542136Y-63239136D03*
%TD*%
D17*
%TO.C,R38*%
X110336636Y-60194136D03*
X108511636Y-60194136D03*
%TD*%
D18*
%TO.C,C40*%
X67824136Y-43531636D03*
X67824136Y-45256636D03*
%TD*%
%TO.C,C101*%
X103024136Y-68681636D03*
X103024136Y-70406636D03*
%TD*%
D21*
%TO.C,C98*%
X95024136Y-77856636D03*
X95024136Y-76131636D03*
%TD*%
D37*
%TO.C,C22*%
X52761636Y-52931636D03*
X52761636Y-50856636D03*
%TD*%
D33*
%TO.C,C35*%
X85886636Y-64394136D03*
X87961636Y-64394136D03*
%TD*%
D19*
%TO.C,R39*%
X109311636Y-54094136D03*
X111136636Y-54094136D03*
%TD*%
%TO.C,R37*%
X104924136Y-60194136D03*
X106749136Y-60194136D03*
%TD*%
D38*
%TO.C,U24*%
X104924136Y-45994136D03*
X106824136Y-45994136D03*
X106824136Y-48269136D03*
X105874136Y-48269136D03*
X104924136Y-48269136D03*
%TD*%
D32*
%TO.C,U12*%
X87861636Y-72644136D03*
X87861636Y-74544136D03*
X85586636Y-74544136D03*
X85586636Y-73594136D03*
X85586636Y-72644136D03*
%TD*%
%TO.C,U20*%
X106699136Y-64394136D03*
X106699136Y-66294136D03*
X104424136Y-66294136D03*
X104424136Y-65344136D03*
X104424136Y-64394136D03*
%TD*%
D21*
%TO.C,C51*%
X32124136Y-60156636D03*
X32124136Y-58431636D03*
%TD*%
D33*
%TO.C,C47*%
X85386636Y-81194136D03*
X87461636Y-81194136D03*
%TD*%
D17*
%TO.C,R11*%
X87074136Y-38294136D03*
X85249136Y-38294136D03*
%TD*%
D39*
%TO.C,C63*%
X67924136Y-82269136D03*
X67924136Y-77994136D03*
%TD*%
D16*
%TO.C,C103*%
X100861636Y-65544136D03*
X102586636Y-65544136D03*
%TD*%
%TO.C,C49*%
X85861636Y-67894136D03*
X87586636Y-67894136D03*
%TD*%
D40*
%TO.C,U7*%
X52799136Y-29519136D03*
X52799136Y-30169136D03*
X52799136Y-30819136D03*
X52799136Y-31469136D03*
X50524136Y-31469136D03*
X50524136Y-30819136D03*
X50524136Y-30169136D03*
X50524136Y-29519136D03*
%TD*%
D41*
%TO.C,D3*%
X53049136Y-18494136D03*
X54799136Y-18494136D03*
%TD*%
D16*
%TO.C,C83*%
X52199136Y-73094136D03*
X53924136Y-73094136D03*
%TD*%
D17*
%TO.C,R43*%
X105024136Y-52994136D03*
X103199136Y-52994136D03*
%TD*%
D38*
%TO.C,U19*%
X96974136Y-76006636D03*
X98874136Y-76006636D03*
X98874136Y-78281636D03*
X97924136Y-78281636D03*
X96974136Y-78281636D03*
%TD*%
D19*
%TO.C,R9*%
X51949136Y-36594136D03*
X53774136Y-36594136D03*
%TD*%
D18*
%TO.C,C84*%
X55424136Y-67931636D03*
X55424136Y-69656636D03*
%TD*%
D21*
%TO.C,C25*%
X54661636Y-52594136D03*
X54661636Y-50869136D03*
%TD*%
%TO.C,C8*%
X81861636Y-29256636D03*
X81861636Y-27531636D03*
%TD*%
D42*
%TO.C,C27*%
X61161636Y-46981636D03*
X59086636Y-46981636D03*
%TD*%
D16*
%TO.C,C107*%
X85886636Y-70894136D03*
X87611636Y-70894136D03*
%TD*%
D19*
%TO.C,R36*%
X55811636Y-59294136D03*
X57636636Y-59294136D03*
%TD*%
D18*
%TO.C,C114*%
X107244136Y-75741636D03*
X107244136Y-77466636D03*
%TD*%
D17*
%TO.C,R20*%
X83236636Y-57494136D03*
X81411636Y-57494136D03*
%TD*%
D18*
%TO.C,C87*%
X45024136Y-83131636D03*
X45024136Y-84856636D03*
%TD*%
D22*
%TO.C,R40*%
X114224136Y-60106636D03*
X114224136Y-58281636D03*
%TD*%
D16*
%TO.C,C102*%
X104961636Y-62244136D03*
X106686636Y-62244136D03*
%TD*%
D43*
%TO.C,C48*%
X82424136Y-74456636D03*
X82424136Y-76531636D03*
%TD*%
D26*
%TO.C,C113*%
X110686636Y-74994136D03*
X108961636Y-74994136D03*
%TD*%
D21*
%TO.C,C32*%
X81524136Y-63494136D03*
X81524136Y-61769136D03*
%TD*%
D18*
%TO.C,C115*%
X102524136Y-77894136D03*
X102524136Y-79619136D03*
%TD*%
D16*
%TO.C,C39*%
X92761636Y-41094136D03*
X94486636Y-41094136D03*
%TD*%
%TO.C,C5*%
X63399136Y-43394136D03*
X65124136Y-43394136D03*
%TD*%
D18*
%TO.C,C92*%
X43424136Y-83131636D03*
X43424136Y-84856636D03*
%TD*%
%TO.C,C59*%
X40661636Y-60331636D03*
X40661636Y-62056636D03*
%TD*%
%TO.C,C38*%
X89224136Y-60594136D03*
X89224136Y-62319136D03*
%TD*%
D26*
%TO.C,C52*%
X50886636Y-55956636D03*
X49161636Y-55956636D03*
%TD*%
D16*
%TO.C,C29*%
X55561636Y-45681636D03*
X57286636Y-45681636D03*
%TD*%
D26*
%TO.C,C81*%
X42536636Y-93144136D03*
X40811636Y-93144136D03*
%TD*%
%TO.C,C73*%
X106686636Y-44094136D03*
X104961636Y-44094136D03*
%TD*%
D29*
%TO.C,R5*%
X83724136Y-21581636D03*
X83724136Y-23406636D03*
%TD*%
D19*
%TO.C,R68*%
X79311636Y-65794136D03*
X81136636Y-65794136D03*
%TD*%
D29*
%TO.C,R42*%
X95324136Y-54781636D03*
X95324136Y-56606636D03*
%TD*%
D16*
%TO.C,C7*%
X76561636Y-43794136D03*
X78286636Y-43794136D03*
%TD*%
D44*
%TO.C,U2*%
X84536636Y-62544136D03*
X84536636Y-61894136D03*
X84536636Y-61244136D03*
X86311636Y-61244136D03*
X86311636Y-61894136D03*
X86311636Y-62544136D03*
D45*
X85424136Y-61494136D03*
X85424136Y-62294136D03*
%TD*%
D16*
%TO.C,C43*%
X59899136Y-33994136D03*
X61624136Y-33994136D03*
%TD*%
D18*
%TO.C,C60*%
X39161636Y-60331636D03*
X39161636Y-62056636D03*
%TD*%
%TO.C,C33*%
X87724136Y-60594136D03*
X87724136Y-62319136D03*
%TD*%
D22*
%TO.C,R72*%
X76224136Y-52906636D03*
X76224136Y-51081636D03*
%TD*%
D16*
%TO.C,C111*%
X75461636Y-55794136D03*
X77186636Y-55794136D03*
%TD*%
D46*
%TO.C,D2*%
X89924136Y-38394136D03*
X89924136Y-35094136D03*
X94824136Y-35094136D03*
X94824136Y-38394136D03*
%TD*%
D29*
%TO.C,R46*%
X50324136Y-89881636D03*
X50324136Y-91706636D03*
%TD*%
D47*
%TO.C,U10*%
X80224136Y-48909136D03*
X80724136Y-48909136D03*
X81224136Y-48909136D03*
X81724136Y-48909136D03*
X82224136Y-48909136D03*
X82224136Y-49679136D03*
X81724136Y-49679136D03*
X81224136Y-49679136D03*
X80724136Y-49679136D03*
X80224136Y-49679136D03*
%TD*%
D18*
%TO.C,C54*%
X33161636Y-54731636D03*
X33161636Y-56456636D03*
%TD*%
D21*
%TO.C,C62*%
X25424136Y-69956636D03*
X25424136Y-68231636D03*
%TD*%
D48*
%TO.C,D1*%
X33761636Y-40907136D03*
X33761636Y-36907136D03*
%TD*%
D16*
%TO.C,C24*%
X81799136Y-34994136D03*
X83524136Y-34994136D03*
%TD*%
D41*
%TO.C,D5*%
X39974136Y-28594136D03*
X41724136Y-28594136D03*
%TD*%
D19*
%TO.C,R1*%
X59849136Y-40594136D03*
X61674136Y-40594136D03*
%TD*%
D42*
%TO.C,C34*%
X91761636Y-64394136D03*
X89686636Y-64394136D03*
%TD*%
D29*
%TO.C,R67*%
X94524136Y-45381636D03*
X94524136Y-47206636D03*
%TD*%
D18*
%TO.C,C36*%
X92224136Y-60594136D03*
X92224136Y-62319136D03*
%TD*%
D29*
%TO.C,R59*%
X93324136Y-76081636D03*
X93324136Y-77906636D03*
%TD*%
%TO.C,R66*%
X93724136Y-93281636D03*
X93724136Y-95106636D03*
%TD*%
D17*
%TO.C,R13*%
X54836636Y-20394136D03*
X53011636Y-20394136D03*
%TD*%
D21*
%TO.C,C3*%
X79861636Y-43756636D03*
X79861636Y-42031636D03*
%TD*%
D17*
%TO.C,R50*%
X48886636Y-93244136D03*
X47061636Y-93244136D03*
%TD*%
D16*
%TO.C,C91*%
X48799136Y-73094136D03*
X50524136Y-73094136D03*
%TD*%
D49*
%TO.C,C18*%
X53624136Y-47994136D03*
X50499136Y-47994136D03*
%TD*%
D17*
%TO.C,R31*%
X83636636Y-55394136D03*
X81811636Y-55394136D03*
%TD*%
D22*
%TO.C,R7*%
X81861636Y-33506636D03*
X81861636Y-31681636D03*
%TD*%
%TO.C,R29*%
X27424136Y-72106636D03*
X27424136Y-70281636D03*
%TD*%
D17*
%TO.C,R61*%
X106536636Y-68644136D03*
X104711636Y-68644136D03*
%TD*%
D19*
%TO.C,R3*%
X42611636Y-47194136D03*
X44436636Y-47194136D03*
%TD*%
D26*
%TO.C,C44*%
X48249136Y-32594136D03*
X46524136Y-32594136D03*
%TD*%
D50*
%TO.C,D9*%
X110174136Y-50494136D03*
X113474136Y-49544136D03*
X113474136Y-51444136D03*
%TD*%
D16*
%TO.C,C69*%
X105761636Y-56994136D03*
X107486636Y-56994136D03*
%TD*%
D18*
%TO.C,C10*%
X60224136Y-37231636D03*
X60224136Y-38956636D03*
%TD*%
D41*
%TO.C,D6*%
X43249136Y-24894136D03*
X44999136Y-24894136D03*
%TD*%
D16*
%TO.C,C28*%
X55524136Y-44181636D03*
X57249136Y-44181636D03*
%TD*%
D38*
%TO.C,U25*%
X108874136Y-76756636D03*
X110774136Y-76756636D03*
X110774136Y-79031636D03*
X109824136Y-79031636D03*
X108874136Y-79031636D03*
%TD*%
D51*
%TO.C,U11*%
X46061636Y-48994136D03*
X46061636Y-49944136D03*
X46061636Y-50894136D03*
X43361636Y-50894136D03*
X43361636Y-49944136D03*
X43361636Y-48994136D03*
%TD*%
D16*
%TO.C,C30*%
X55561636Y-47181636D03*
X57286636Y-47181636D03*
%TD*%
D26*
%TO.C,C2*%
X81824136Y-25994136D03*
X80099136Y-25994136D03*
%TD*%
D52*
%TO.C,D10*%
X79624136Y-101994136D03*
X83624136Y-101994136D03*
%TD*%
D53*
%TO.C,C11*%
X62324136Y-82531636D03*
X62324136Y-77256636D03*
%TD*%
D11*
%TO.C,R69*%
X70761636Y-63694136D03*
X70761636Y-61694136D03*
%TD*%
D16*
%TO.C,C94*%
X49899136Y-71394136D03*
X51624136Y-71394136D03*
%TD*%
D54*
%TO.C,U6*%
X78586636Y-23554136D03*
X78086636Y-23554136D03*
X77586636Y-23554136D03*
X77086636Y-23554136D03*
X76586636Y-23554136D03*
X76586636Y-22784136D03*
X77086636Y-22784136D03*
X77586636Y-22784136D03*
X78086636Y-22784136D03*
X78586636Y-22784136D03*
%TD*%
D29*
%TO.C,R44*%
X43024136Y-96681636D03*
X43024136Y-98506636D03*
%TD*%
D41*
%TO.C,D4*%
X49474136Y-22194136D03*
X51224136Y-22194136D03*
%TD*%
D26*
%TO.C,C4*%
X66624136Y-22594136D03*
X64899136Y-22594136D03*
%TD*%
D12*
%TO.C,C56*%
X29424136Y-54231636D03*
X29424136Y-57356636D03*
%TD*%
D38*
%TO.C,U16*%
X64911636Y-63256636D03*
X66811636Y-63256636D03*
X66811636Y-65531636D03*
X65861636Y-65531636D03*
X64911636Y-65531636D03*
%TD*%
D16*
%TO.C,C99*%
X95761636Y-80394136D03*
X97486636Y-80394136D03*
%TD*%
D49*
%TO.C,C19*%
X53624136Y-44794136D03*
X50499136Y-44794136D03*
%TD*%
D55*
%TO.C,J1*%
X90027022Y-19644136D03*
D56*
X88888625Y-21815898D03*
D57*
X91845676Y-20694136D03*
X93924136Y-21894136D03*
D56*
X94431187Y-25015898D03*
D55*
X95742790Y-22944136D03*
D58*
X90421573Y-22960754D03*
X90984489Y-23285754D03*
X91547406Y-23610754D03*
X92110323Y-23935754D03*
X92673239Y-24260754D03*
%TD*%
D16*
%TO.C,C80*%
X47761636Y-84194136D03*
X49486636Y-84194136D03*
%TD*%
D19*
%TO.C,R18*%
X61311636Y-20394136D03*
X63136636Y-20394136D03*
%TD*%
D17*
%TO.C,R14*%
X51249136Y-23994136D03*
X49424136Y-23994136D03*
%TD*%
D33*
%TO.C,C96*%
X96386636Y-71994136D03*
X98461636Y-71994136D03*
%TD*%
D29*
%TO.C,R70*%
X68761636Y-61981636D03*
X68761636Y-63806636D03*
%TD*%
D22*
%TO.C,R75*%
X112824136Y-78406636D03*
X112824136Y-76581636D03*
%TD*%
D32*
%TO.C,U21*%
X50961636Y-100444136D03*
X50961636Y-102344136D03*
X48686636Y-102344136D03*
X48686636Y-101394136D03*
X48686636Y-100444136D03*
%TD*%
D17*
%TO.C,R62*%
X113124136Y-66781636D03*
X111299136Y-66781636D03*
%TD*%
D16*
%TO.C,C108*%
X63799136Y-61144136D03*
X65524136Y-61144136D03*
%TD*%
%TO.C,C45*%
X50799136Y-33194136D03*
X52524136Y-33194136D03*
%TD*%
D42*
%TO.C,C26*%
X61161636Y-44981636D03*
X59086636Y-44981636D03*
%TD*%
D59*
%TO.C,U17*%
X96274136Y-48294136D03*
X96274136Y-47794136D03*
X96274136Y-47294136D03*
X96274136Y-46794136D03*
X96274136Y-46294136D03*
X100574136Y-46294136D03*
X100574136Y-46794136D03*
X100574136Y-47294136D03*
X100574136Y-47794136D03*
X100574136Y-48294136D03*
%TD*%
D19*
%TO.C,R2*%
X68611636Y-22414136D03*
X70436636Y-22414136D03*
%TD*%
D17*
%TO.C,R16*%
X45036636Y-26494136D03*
X43211636Y-26494136D03*
%TD*%
D18*
%TO.C,C76*%
X49824136Y-86531636D03*
X49824136Y-88256636D03*
%TD*%
%TO.C,C72*%
X107224136Y-53131636D03*
X107224136Y-54856636D03*
%TD*%
D22*
%TO.C,R23*%
X89824136Y-75519136D03*
X89824136Y-73694136D03*
%TD*%
D60*
%TO.C,Q1*%
X36574136Y-67389136D03*
X36574136Y-68659136D03*
X36574136Y-69929136D03*
X36574136Y-71199136D03*
D61*
X30769136Y-67389136D03*
X30769136Y-68659136D03*
X30769136Y-69929136D03*
X30769136Y-71199136D03*
D62*
X32174136Y-68444136D03*
X32174136Y-70144136D03*
X33874136Y-68444136D03*
X33874136Y-70144136D03*
%TD*%
D63*
%TO.C,U23*%
X62432636Y-98624136D03*
X62432636Y-101164136D03*
X53415636Y-101164136D03*
X53415636Y-98624136D03*
%TD*%
D64*
%TO.C,Q2*%
X99024136Y-95394136D03*
X97149136Y-96344136D03*
X97149136Y-94444136D03*
%TD*%
D22*
%TO.C,R26*%
X27424136Y-68806636D03*
X27424136Y-66981636D03*
%TD*%
D20*
%TO.C,L3*%
X52924136Y-76744636D03*
X52924136Y-81443636D03*
%TD*%
D16*
%TO.C,C13*%
X59899136Y-35494136D03*
X61624136Y-35494136D03*
%TD*%
D17*
%TO.C,R28*%
X42074136Y-56994136D03*
X40249136Y-56994136D03*
%TD*%
D22*
%TO.C,R71*%
X62061636Y-62906636D03*
X62061636Y-61081636D03*
%TD*%
D16*
%TO.C,C82*%
X53199136Y-71394136D03*
X54924136Y-71394136D03*
%TD*%
%TO.C,C71*%
X97481636Y-61274136D03*
X99206636Y-61274136D03*
%TD*%
D65*
%TO.C,U22*%
X98954136Y-82585636D03*
X101494136Y-82585636D03*
X101494136Y-91602636D03*
X98954136Y-91602636D03*
%TD*%
D32*
%TO.C,U9*%
X87661636Y-77044136D03*
X87661636Y-78944136D03*
X85386636Y-78944136D03*
X85386636Y-77994136D03*
X85386636Y-77044136D03*
%TD*%
D54*
%TO.C,U5*%
X88961636Y-28979136D03*
X88461636Y-28979136D03*
X87961636Y-28979136D03*
X87461636Y-28979136D03*
X86961636Y-28979136D03*
X86961636Y-28209136D03*
X87461636Y-28209136D03*
X87961636Y-28209136D03*
X88461636Y-28209136D03*
X88961636Y-28209136D03*
%TD*%
D29*
%TO.C,R41*%
X95324136Y-58281636D03*
X95324136Y-60106636D03*
%TD*%
D22*
%TO.C,R47*%
X44524136Y-98506636D03*
X44524136Y-96681636D03*
%TD*%
D29*
%TO.C,R60*%
X101224136Y-72031636D03*
X101224136Y-73856636D03*
%TD*%
D18*
%TO.C,C6*%
X61861636Y-29731636D03*
X61861636Y-31456636D03*
%TD*%
D29*
%TO.C,R49*%
X48724136Y-89894136D03*
X48724136Y-91719136D03*
%TD*%
%TO.C,R4*%
X101824136Y-60981636D03*
X101824136Y-62806636D03*
%TD*%
D11*
%TO.C,R17*%
X46361636Y-36294136D03*
X46361636Y-34294136D03*
%TD*%
D18*
%TO.C,C58*%
X42161636Y-60331636D03*
X42161636Y-62056636D03*
%TD*%
D26*
%TO.C,C112*%
X107516636Y-81004136D03*
X105791636Y-81004136D03*
%TD*%
D17*
%TO.C,R25*%
X42061636Y-53994136D03*
X40236636Y-53994136D03*
%TD*%
D66*
%TO.C,U3*%
X57674136Y-50569136D03*
X57024136Y-50569136D03*
X56374136Y-50569136D03*
X56374136Y-48794136D03*
X57024136Y-48794136D03*
X57674136Y-48794136D03*
D67*
X56624136Y-49681636D03*
X57424136Y-49681636D03*
%TD*%
D21*
%TO.C,C97*%
X104324136Y-77806636D03*
X104324136Y-76081636D03*
%TD*%
D16*
%TO.C,C75*%
X95161636Y-50294136D03*
X96886636Y-50294136D03*
%TD*%
D18*
%TO.C,C104*%
X50974136Y-96831636D03*
X50974136Y-98556636D03*
%TD*%
D68*
%TO.C,U13*%
X36961636Y-57494136D03*
X36961636Y-57994136D03*
X36961636Y-58494136D03*
X36961636Y-58994136D03*
X36961636Y-59494136D03*
X36961636Y-59994136D03*
X35061636Y-59994136D03*
X35061636Y-59494136D03*
X35061636Y-58994136D03*
X35061636Y-58494136D03*
X35061636Y-57994136D03*
X35061636Y-57494136D03*
D69*
X36011636Y-59429136D03*
X36011636Y-58059136D03*
%TD*%
D18*
%TO.C,C85*%
X39024136Y-92931636D03*
X39024136Y-94656636D03*
%TD*%
D35*
%TO.C,D7*%
X42076636Y-36307136D03*
D36*
X38094636Y-37227136D03*
X38094636Y-35387136D03*
%TD*%
D70*
%TO.C,U4*%
X51111635Y-38294135D03*
X52811637Y-38294135D03*
D71*
X53811637Y-38494137D03*
D72*
X53661638Y-39344136D03*
X50261637Y-39344136D03*
D71*
X50111637Y-38494135D03*
%TD*%
D26*
%TO.C,C79*%
X42536636Y-94644136D03*
X40811636Y-94644136D03*
%TD*%
D17*
%TO.C,R58*%
X98436636Y-73844136D03*
X96611636Y-73844136D03*
%TD*%
D18*
%TO.C,C89*%
X38874136Y-87881636D03*
X38874136Y-89606636D03*
%TD*%
D22*
%TO.C,R24*%
X50944136Y-59259136D03*
X50944136Y-57434136D03*
%TD*%
D73*
%TO.C,TR1*%
X72581636Y-68454136D03*
X72581636Y-70994136D03*
X72581636Y-73534136D03*
X61341636Y-73534136D03*
X61341636Y-70994136D03*
D74*
X61341636Y-68454136D03*
%TD*%
D21*
%TO.C,C67*%
X104224136Y-57694136D03*
X104224136Y-55969136D03*
%TD*%
D16*
%TO.C,C106*%
X99899136Y-44094136D03*
X101624136Y-44094136D03*
%TD*%
D21*
%TO.C,C90*%
X53724136Y-67956636D03*
X53724136Y-66231636D03*
%TD*%
D75*
%TO.C,Y1*%
X57661636Y-30794136D03*
X57661636Y-34094136D03*
X55661636Y-34094136D03*
X55661636Y-30794136D03*
%TD*%
D18*
%TO.C,C66*%
X112124136Y-60231636D03*
X112124136Y-61956636D03*
%TD*%
D22*
%TO.C,R51*%
X71124136Y-45119136D03*
X71124136Y-43294136D03*
%TD*%
D29*
%TO.C,R53*%
X57124136Y-68581636D03*
X57124136Y-70406636D03*
%TD*%
D76*
%TO.C,U8*%
X83611636Y-36494136D03*
X83611636Y-37794136D03*
X81711636Y-37794136D03*
X81711636Y-37144136D03*
X81711636Y-36494136D03*
%TD*%
D16*
%TO.C,C70*%
X97499136Y-62894136D03*
X99224136Y-62894136D03*
%TD*%
D18*
%TO.C,C42*%
X59861636Y-30231636D03*
X59861636Y-31956636D03*
%TD*%
D29*
%TO.C,R63*%
X109724136Y-64881636D03*
X109724136Y-66706636D03*
%TD*%
D18*
%TO.C,C41*%
X56424136Y-36731636D03*
X56424136Y-38456636D03*
%TD*%
%TO.C,C9*%
X61824136Y-37231636D03*
X61824136Y-38956636D03*
%TD*%
D77*
%TO.C,F1*%
X32536636Y-44169636D03*
X30786636Y-44169636D03*
%TD*%
D42*
%TO.C,C64*%
X80961636Y-82294136D03*
X78886636Y-82294136D03*
%TD*%
D33*
%TO.C,C46*%
X81086636Y-78694136D03*
X83161636Y-78694136D03*
%TD*%
D26*
%TO.C,C74*%
X100549136Y-50294136D03*
X98824136Y-50294136D03*
%TD*%
M02*
